<?xml version="1.0" encoding="iso-8859-1"?>
<!-- Generator: Adobe Illustrator 15.0.0, SVG Export Plug-In . SVG Version: 6.00 Build 0)  -->
<!DOCTYPE svg PUBLIC "-//W3C//DTD SVG 1.1//EN" "http://www.w3.org/Graphics/SVG/1.1/DTD/svg11.dtd">
<svg version="1.1" id="_x31__x5F_Adjustment_x5F_Initialize"
	 xmlns="http://www.w3.org/2000/svg" xmlns:xlink="http://www.w3.org/1999/xlink" x="0px" y="0px" width="538.583px"
	 height="283.465px" viewBox="0 0 538.583 283.465" style="enable-background:new 0 0 538.583 283.465;" xml:space="preserve">
<g>
	<path style="fill:#FFFFFF;" d="M202.391,176.317c-9.225-15.999-11.685-34.617-6.898-52.443c3.59-13.36,10.901-25.082,21.077-33.994
		l-3.91,14.585l12.4,3.316l11.155-41.607l-41.625-11.176l-3.327,12.4l17.581,4.711c-15.33,11.702-26.372,27.974-31.46,46.902
		c-6.067,22.67-2.949,46.356,8.781,66.671c15.641,27.079,44.802,43.926,76.093,43.926l0.009-18.73
		C237.638,210.858,214.695,197.621,202.391,176.317z"/>
	<path style="fill:#FFFFFF;" d="M338.356,97.813c-15.633-27.079-44.788-43.907-76.08-43.954l-0.018,18.76
		c24.628,0.02,47.576,13.267,59.853,34.569c16.716,28.954,10.024,65.098-14.134,86.41l3.892-14.567l-12.391-3.335l-11.159,41.637
		l41.641,11.146l3.317-12.399l-17.572-4.702C350.152,184.967,360.621,136.406,338.356,97.813z"/>
</g>
</svg>
