<?xml version="1.0" encoding="iso-8859-1"?>
<!-- Generator: Adobe Illustrator 15.0.0, SVG Export Plug-In . SVG Version: 6.00 Build 0)  -->
<!DOCTYPE svg PUBLIC "-//W3C//DTD SVG 1.1//EN" "http://www.w3.org/Graphics/SVG/1.1/DTD/svg11.dtd">
<svg version="1.1" id="_x31__x5F_Adjustment_x5F_Setup"
	 xmlns="http://www.w3.org/2000/svg" xmlns:xlink="http://www.w3.org/1999/xlink" x="0px" y="0px" width="538.583px"
	 height="283.465px" viewBox="0 0 538.583 283.465" style="enable-background:new 0 0 538.583 283.465;" xml:space="preserve">
<path style="fill:#FFFFFF;" d="M338.961,67.014c-8.704-8.705-16.934-13.118-24.455-13.118c-4.85,0-9.275,1.862-12.796,5.384
	l-125.34,125.344v44.985h44.985l8.03-8.031l0,0.001c0.01-0.009,0.02-0.02,0.029-0.028l117.281-117.284
	C351.133,99.827,359.262,87.313,338.961,67.014z M217.49,209.421l-0.013,0.014l-0.118,0.117l-3.048,3.049h-20.932v-20.933
	l6.517-6.517c3.797,0.733,8.223,3.548,12.938,8.264c3.078,3.077,7.073,7.808,8.173,12.489l-3.513,3.513L217.49,209.421z
	 M334.67,92.239L233.592,193.32l-0.001-0.002l-3.822,3.822c-1.849-3.601-4.697-7.522-8.917-11.743
	c-4.086-4.086-8.139-7.109-12.128-9.074L313.737,71.305c0.401-0.401,0.54-0.401,0.77-0.401c0.439,0,4.521,0.229,12.429,8.137
	c6.471,6.47,8.176,10.847,8.163,12.413C335.097,91.57,335.095,91.814,334.67,92.239z"/>
</svg>
