<?xml version="1.0" encoding="iso-8859-1"?>
<!-- Generator: Adobe Illustrator 15.0.0, SVG Export Plug-In . SVG Version: 6.00 Build 0)  -->
<!DOCTYPE svg PUBLIC "-//W3C//DTD SVG 1.1//EN" "http://www.w3.org/Graphics/SVG/1.1/DTD/svg11.dtd">
<svg version="1.1" id="_x31__x5F_Adjustment_x5F_Reset"
	 xmlns="http://www.w3.org/2000/svg" xmlns:xlink="http://www.w3.org/1999/xlink" x="0px" y="0px" width="538.583px"
	 height="283.465px" viewBox="0 0 538.583 283.465" style="enable-background:new 0 0 538.583 283.465;" xml:space="preserve">
<path style="fill:#FFFFFF;" d="M360.084,169.149l-22.096,6.161c4.214-10.338,6.538-21.564,6.538-33.206
	c0-3.687-0.226-7.391-0.698-11.134c-5.631-44.565-43.546-77.094-87.319-77.112c-3.666,0-7.37,0.228-11.113,0.699
	c-44.547,5.613-77.112,43.546-77.112,87.339c0,3.665,0.226,7.37,0.699,11.095c5.633,44.527,43.565,77.093,87.338,77.093
	c3.667,0,7.352-0.209,11.094-0.661l-2.098-16.651l0,0c-3.005,0.378-6.01,0.566-8.996,0.566c-35.4,0-66.188-26.385-70.705-62.446
	c-0.378-3.023-0.567-6.028-0.567-8.995c-0.019-35.4,26.385-66.189,62.446-70.688c3.043-0.396,6.048-0.586,9.015-0.586
	c35.381,0,66.15,26.365,70.706,62.446c0.378,3.023,0.55,6.048,0.55,9.035c0,8.012-1.363,15.8-3.895,23.076l-5.443-19.543
	l-13.817,3.836l12.909,46.419l46.419-12.908L360.084,169.149z"/>
</svg>
