<?xml version="1.0" encoding="iso-8859-1"?>
<!-- Generator: Adobe Illustrator 15.0.0, SVG Export Plug-In . SVG Version: 6.00 Build 0)  -->
<!DOCTYPE svg PUBLIC "-//W3C//DTD SVG 1.1//EN" "http://www.w3.org/Graphics/SVG/1.1/DTD/svg11.dtd">
<svg version="1.1" id="_x31__x5F_Adjustment_x5F_Adjust"
	 xmlns="http://www.w3.org/2000/svg" xmlns:xlink="http://www.w3.org/1999/xlink" x="0px" y="0px" width="538.583px"
	 height="283.465px" viewBox="0 0 538.583 283.465" style="enable-background:new 0 0 538.583 283.465;" xml:space="preserve">
<path style="fill:#FFFFFF;" d="M380.372,249.45c-4.66-4.632-18.964-18.813-23.64-23.075c-11.779-10.798-24.59-16.272-38.076-16.272
	H172.311c-2.168,0-7.247,0-7.247-12.538c-0.034-7.021,3.39-11.942,6.269-14.834c5.042-5.065,12.374-7.971,20.117-7.971h60.014
	v-12.828c0-6.868-2.347-12.714-7.003-17.403l-36.94-36.707c-4.479-4.425-12.765-4.702-19.707-0.657l-36.166,21.094
	c-3.99,2.345-8.29,3.015-12.41,1.947c-4.638-1.224-8.823-4.693-11.778-9.76l-1.895-3.265c-0.878-1.497-1.823-3.704-1.33-5.709
	c0.379-1.547,1.595-2.931,3.607-4.11l66.68-38.983c5.96-3.49,17.617-5.232,24,0.574l8.226,7.481l34.422,34.423l8.018-8.018
	l-34.517-34.518l-2.454-2.234c7.644-2.092,16.085-0.072,21.946,5.766l31.544,31.537l8.017-8.018l-29.201-29.195
	c7.723-2.23,16.309-0.239,22.247,5.676l24.906,24.901l8.018-8.018l-22.776-22.771c7.532-1.907,15.776,0.155,21.53,5.887
	l58.053,58.04l8.018-8.018l-58.061-58.048c-10.604-10.562-26.828-12.83-39.807-5.972c-9.945-5.231-22.071-5.285-32.15,0.247
	c-9.853-5.377-21.937-5.604-32.063-0.284c-10.078-6.043-24.335-4.677-33.641,0.773l-66.682,38.984
	c-4.694,2.753-7.769,6.623-8.89,11.192c-1.108,4.512-0.222,9.405,2.549,14.127l1.888,3.252c4.486,7.691,11.123,13.025,18.709,15.027
	c7.114,1.842,14.384,0.758,21.004-3.131l36.153-21.086c3-1.749,5.491-1.361,6.081-1.014l36.834,36.601
	c2.547,2.565,3.683,5.46,3.683,9.387v1.49H191.45c-10.738,0-21,4.122-28.153,11.311c-6.212,6.241-9.611,14.369-9.571,22.859
	c0,21.525,12.998,23.849,18.585,23.849h146.345c10.559,0,20.793,4.473,30.426,13.303c3.365,3.068,10.442,10.035,15.155,14.707
	H380.372z"/>
</svg>
