<?xml version="1.0" encoding="iso-8859-1"?>
<!-- Generator: Adobe Illustrator 15.0.0, SVG Export Plug-In . SVG Version: 6.00 Build 0)  -->
<!DOCTYPE svg PUBLIC "-//W3C//DTD SVG 1.1//EN" "http://www.w3.org/Graphics/SVG/1.1/DTD/svg11.dtd">
<svg version="1.1" id="_x31__x5F_Adjustment_x5F_Progress"
	 xmlns="http://www.w3.org/2000/svg" xmlns:xlink="http://www.w3.org/1999/xlink" x="0px" y="0px" width="538.583px"
	 height="283.465px" viewBox="0 0 538.583 283.465" style="enable-background:new 0 0 538.583 283.465;" xml:space="preserve">
<path style="fill:#FFFFFF;" d="M257.089,53.858c0,7.328,0,14.643,0,21.971c-34.562,0-63.249,26.71-65.727,61.187
	c-2.477,34.466,22.104,64.997,56.318,69.934c34.213,4.938,66.426-17.396,73.794-51.164c7.376-33.761-12.594-67.497-45.759-77.271
	c2.327-6.946,4.637-13.903,6.956-20.851c44.018,13.393,70.252,58.486,60.145,103.378c-10.115,44.876-53.143,74.375-98.654,67.602
	c-45.511-6.782-78.097-47.505-74.698-93.39C172.864,89.36,211.079,53.858,257.089,53.858z"/>
</svg>
