<?xml version="1.0" encoding="iso-8859-1"?>
<!-- Generator: Adobe Illustrator 15.0.0, SVG Export Plug-In . SVG Version: 6.00 Build 0)  -->
<!DOCTYPE svg PUBLIC "-//W3C//DTD SVG 1.1//EN" "http://www.w3.org/Graphics/SVG/1.1/DTD/svg11.dtd">
<svg version="1.1" id="_x31__x5F_General_x5F_Setup_x5F_Advanced"
	 xmlns="http://www.w3.org/2000/svg" xmlns:xlink="http://www.w3.org/1999/xlink" x="0px" y="0px" width="538.583px"
	 height="283.465px" viewBox="0 0 538.583 283.465" style="enable-background:new 0 0 538.583 283.465;" xml:space="preserve">
<g>
	<path style="fill:#FFFFFF;" d="M355.751,166.293c8.276-1.444,17.374-3.034,18.903-3.316c-0.425-2.477-2.675-15.194-3.106-17.668
		c-1.518,0.284-10.624,1.877-18.908,3.322c-2.159-5.58-5.381-10.661-9.53-14.989c4.822-6.876,10.127-14.442,11.015-15.726
		c-2.05-1.429-12.624-8.837-14.684-10.294c-0.896,1.279-6.202,8.851-11.024,15.723c-5.479-2.425-11.348-3.715-17.331-3.852
		c-1.445-8.268-3.064-17.382-3.32-18.913c-2.481,0.452-15.191,2.677-17.681,3.124c0.275,1.526,1.875,10.609,3.337,18.882
		c-5.604,2.171-10.675,5.406-14.993,9.541c-6.872-4.832-14.442-10.106-15.719-11.011c-1.438,2.063-8.851,12.62-10.294,14.697
		c1.277,0.879,8.832,6.195,15.712,11.012c-2.415,5.457-3.726,11.339-3.859,17.326c-8.278,1.478-17.382,3.077-18.893,3.321
		c0.431,2.508,2.672,15.206,3.096,17.68c1.535-0.285,10.625-1.858,18.9-3.319c2.167,5.577,5.396,10.659,9.546,14.983
		c-4.831,6.898-10.144,14.455-11.022,15.713c2.059,1.449,12.632,8.849,14.699,10.31c0.89-1.276,6.178-8.832,11.007-15.738
		c5.472,2.441,11.349,3.74,17.343,3.869c1.461,8.285,3.054,17.382,3.326,18.91c2.466-0.45,15.191-2.673,17.672-3.106
		c-0.264-1.543-1.875-10.624-3.334-18.888c5.595-2.179,10.674-5.395,14.991-9.555c6.888,4.818,14.442,10.131,15.721,11.012
		c1.444-2.059,8.849-12.634,10.284-14.678c-1.254-0.896-8.831-6.204-15.697-11.018C354.316,178.144,355.611,172.307,355.751,166.293
		z M310.022,179.815c-8.051,0-14.609-6.532-14.609-14.58c0-8.055,6.558-14.576,14.609-14.576c8.035,0,14.578,6.521,14.578,14.576
		C324.6,173.283,318.057,179.815,310.022,179.815z"/>
	<path style="fill:#FFFFFF;" d="M142.681,137.701v32.238h32.239l5.755-5.755l0,0.001c0.006-0.007,0.014-0.015,0.02-0.021
		l84.049-84.05c3.18-3.182,9.006-12.149-5.543-26.696c-6.238-6.238-12.135-9.401-17.526-9.401c-3.475,0-6.646,1.335-9.17,3.858
		L142.681,137.701z M156.213,139.724c0.448-0.447,1.196-1.195,3.905,0.058c2.134,0.987,4.637,2.885,7.238,5.484
		c2.6,2.601,4.497,5.103,5.484,7.237c1.243,2.687,0.519,3.444,0.07,3.893l-2.546,2.547h-16.685v-16.685L156.213,139.724
		L156.213,139.724z M256.968,72.337l-74.612,74.614c-1.578-3.059-3.998-6.236-7.224-9.462c-3.227-3.228-6.404-5.646-9.462-7.224
		l74.612-74.614c0.53-0.53,0.927-0.637,1.394-0.637c1.726,0,5.193,1.623,9.75,6.18C254.524,64.293,259.178,70.126,256.968,72.337z"
		/>
</g>
</svg>
