<?xml version="1.0" encoding="iso-8859-1"?>
<!-- Generator: Adobe Illustrator 15.0.0, SVG Export Plug-In . SVG Version: 6.00 Build 0)  -->
<!DOCTYPE svg PUBLIC "-//W3C//DTD SVG 1.1//EN" "http://www.w3.org/Graphics/SVG/1.1/DTD/svg11.dtd">
<svg version="1.1" id="_x31__x5F_General_x5F_Restore"
	 xmlns="http://www.w3.org/2000/svg" xmlns:xlink="http://www.w3.org/1999/xlink" x="0px" y="0px" width="538.583px"
	 height="283.465px" viewBox="0 0 538.583 283.465" style="enable-background:new 0 0 538.583 283.465;" xml:space="preserve">
<g>
	<path style="fill:#FFFFFF;" d="M309.1,156.918l-17.631,4.917c3.362-8.25,5.217-17.208,5.217-26.499c0-2.94-0.18-5.897-0.557-8.885
		c-4.494-35.562-34.749-61.518-69.68-61.533c-2.926,0-5.881,0.183-8.868,0.558c-35.548,4.479-61.532,34.749-61.532,69.695
		c0,2.925,0.179,5.881,0.557,8.853c4.495,35.532,34.764,61.519,69.694,61.519c2.926,0,5.867-0.166,8.853-0.527l-1.675-13.288l0,0
		c-2.398,0.303-4.795,0.453-7.178,0.453c-28.249,0-52.818-21.055-56.421-49.831c-0.302-2.412-0.454-4.81-0.454-7.178
		c-0.015-28.25,21.056-52.818,49.829-56.408c2.429-0.316,4.827-0.468,7.195-0.468c28.234,0,52.786,21.04,56.422,49.832
		c0.302,2.412,0.439,4.826,0.439,7.209c0,6.394-1.089,12.608-3.107,18.415l-4.344-15.596l-11.026,3.063l10.302,37.041l37.04-10.3
		L309.1,156.918z"/>
	<g>
		<path style="fill:#FFFFFF;" d="M220.246,87.201c-4.98,0.621-9.702,2-14.069,3.995l-0.407,0.407V179.1
			c5.247,2.465,10.988,4.009,17.008,4.439V98.648l11.232-11.232c-2.488-0.398-5.032-0.617-7.621-0.617
			C224.362,86.799,222.311,86.933,220.246,87.201z"/>
		<path style="fill:#FFFFFF;" d="M243.515,53.858l-3.729,3.729c11.673,2.027,22.524,6.647,31.905,13.279h60.577v141.734h-89.083
			l-7.073,0.856c-3.229,0.391-6.551,0.589-9.874,0.589c-7.059,0-13.92-0.959-20.47-2.732v18.295h143.508V53.858H243.515z"/>
	</g>
</g>
</svg>
