<?xml version="1.0" encoding="iso-8859-1"?>
<!-- Generator: Adobe Illustrator 15.0.0, SVG Export Plug-In . SVG Version: 6.00 Build 0)  -->
<!DOCTYPE svg PUBLIC "-//W3C//DTD SVG 1.1//EN" "http://www.w3.org/Graphics/SVG/1.1/DTD/svg11.dtd">
<svg version="1.1" id="_x31__x5F_General_x5F_Admin"
	 xmlns="http://www.w3.org/2000/svg" xmlns:xlink="http://www.w3.org/1999/xlink" x="0px" y="0px" width="538.583px"
	 height="283.465px" viewBox="0 0 538.583 283.465" style="enable-background:new 0 0 538.583 283.465;" xml:space="preserve">
<g>
	<path style="fill:#FFFFFF;" d="M180.782,74.374c9.438,0,19.596,5.294,19.596,16.918c0,6.206-0.89,8.374-3.04,13.611
		c-0.823,2.006-1.756,4.279-2.73,7.015l-3.586,10.074l7.525,7.598c18.5,18.681,30.067,46.278,30.311,72.211
		c-0.918,0.975-4.33,3.912-13.981,6.647c-9.448,2.678-21.556,4.152-34.099,4.152c-12.537,0-24.644-1.475-34.091-4.152
		c-9.65-2.735-13.062-5.673-13.98-6.647c0.244-25.934,11.811-53.53,30.312-72.211l7.524-7.598l-3.586-10.073
		c-0.974-2.737-1.908-5.012-2.731-7.019c-2.149-5.236-3.039-7.404-3.039-13.608C161.186,79.668,171.344,74.374,180.782,74.374
		 M180.782,57.366c-20.223,0-36.604,13.717-36.604,33.926c0,12.617,3.295,16.608,6.755,26.33
		c-23.057,23.281-35.239,56.251-35.239,85.013c0,17.983,32.544,26.975,65.088,26.974c32.543,0.001,65.087-8.99,65.087-26.974
		c0-28.762-12.182-61.731-35.238-85.013c3.461-9.722,6.755-13.713,6.755-26.33C217.386,71.083,201.005,57.366,180.782,57.366
		L180.782,57.366z"/>
	<path style="fill:#FFFFFF;" d="M321.609,110.466c17.097-3.276,29.745-14.366,29.745-27.665c0-1.132-0.289-2.224-0.468-3.306
		c-0.346-2.13-0.973-4.179-1.925-6.141c-0.011-0.03-0.02-0.063-0.04-0.075c-5.49-11.162-20.174-19.199-37.606-19.199
		c-22.12,0-40.041,12.841-40.041,28.721c0,13.299,12.647,24.389,29.725,27.639v108.93c0,0,4.527,1.439,10.315,1.439
		s10.294-1.439,10.294-1.439v-10.365h22.16v-11.333h-6.899v-9.56h6.899v-11.561h-22.16V110.466z M318.492,99.674
		c-2.282,0.496-4.665,0.868-7.177,0.868c-2.442,0-4.745-0.338-6.97-0.824c-10.226-2.169-17.732-8.866-17.732-16.937
		c0-9.764,11.061-17.717,24.702-17.717c7.872,0,14.802,2.691,19.329,6.811c2.979,2.721,4.845,6.047,5.202,9.715
		c0.04,0.401,0.169,0.784,0.169,1.191C336.015,90.782,328.609,97.46,318.492,99.674z M424.352,199.058l-4.795-10.276l-6.254,2.884
		l-4.031-8.642l6.255-2.909l-4.875-10.474l-20.104,9.352l-27.907-59.919c14.117-10.202,20.909-25.596,15.299-37.637
		c-3.406-7.288-10.663-11.924-19.598-13.503c2.334,4.567,3.684,9.576,3.684,14.867c0,0.645-0.14,1.246-0.179,1.887
		c0.863,0.963,1.618,2.021,2.174,3.216c4.141,8.876-2.521,20.74-14.891,26.503c-4.756,2.238-9.65,3.183-14.118,3.058
		c-0.923,0.382-1.787,0.829-2.739,1.167v10.607c3.771-0.01,7.714-0.471,11.694-1.483l45.995,98.737c0,0,4.706-0.601,9.938-3.053
		c5.253-2.446,8.736-5.63,8.736-5.63l-4.388-9.401L424.352,199.058z M320.369,77.813c-4.716,3.465-8.558,7.446-11.396,11.764
		c0.793,0.085,1.479,0.27,2.343,0.27c8.438,0,14.028-4.25,14.028-7.064C325.343,81.366,323.457,79.342,320.369,77.813z"/>
</g>
</svg>
