<?xml version="1.0" encoding="iso-8859-1"?>
<!-- Generator: Adobe Illustrator 15.0.0, SVG Export Plug-In . SVG Version: 6.00 Build 0)  -->
<!DOCTYPE svg PUBLIC "-//W3C//DTD SVG 1.1//EN" "http://www.w3.org/Graphics/SVG/1.1/DTD/svg11.dtd">
<svg version="1.1" id="_x31__x5F_General_x5F_Status_x5F_Advanced"
	 xmlns="http://www.w3.org/2000/svg" xmlns:xlink="http://www.w3.org/1999/xlink" x="0px" y="0px" width="538.583px"
	 height="283.465px" viewBox="0 0 538.583 283.465" style="enable-background:new 0 0 538.583 283.465;" xml:space="preserve">
<g>
	<g>
		<g>
			<path style="fill:#FFFFFF;" d="M346.785,49.249c-35.75,0-64.745,28.949-64.766,64.737c0.01,16.634,6.296,31.799,16.611,43.266
				l-3.471,3.47l3.212,3.241l-6.702-6.716l-65.55,60.836l16.544,16.572l60.813-65.575l-3.439-3.447l3.49-3.486
				c11.471,10.306,26.631,16.582,43.258,16.582c35.762,0,64.756-28.988,64.777-64.742C411.541,78.198,382.546,49.249,346.785,49.249
				z M346.785,164.846c-28.098-0.011-50.821-22.785-50.865-50.859c0.043-28.127,22.767-50.843,50.865-50.882
				c28.109,0.039,50.83,22.755,50.898,50.882C397.615,142.061,374.894,164.835,346.785,164.846z"/>
		</g>
	</g>
	<g>
		<path style="fill:#FFFFFF;" d="M236.751,119.571c8.276-1.444,17.374-3.034,18.903-3.316c-0.425-2.477-2.675-15.194-3.106-17.668
			c-1.518,0.284-10.624,1.877-18.908,3.322c-2.159-5.58-5.381-10.661-9.53-14.989c4.822-6.876,10.127-14.442,11.015-15.726
			c-2.05-1.429-12.624-8.837-14.684-10.294c-0.896,1.279-6.202,8.851-11.024,15.723c-5.479-2.425-11.348-3.715-17.331-3.852
			c-1.445-8.268-3.064-17.382-3.32-18.913c-2.481,0.452-15.191,2.677-17.682,3.124c0.275,1.526,1.875,10.609,3.338,18.882
			c-5.604,2.171-10.676,5.406-14.994,9.541c-6.871-4.832-14.441-10.106-15.719-11.011c-1.438,2.063-8.851,12.62-10.293,14.697
			c1.276,0.879,8.832,6.195,15.711,11.012c-2.414,5.457-3.726,11.339-3.858,17.326c-8.278,1.478-17.382,3.077-18.893,3.321
			c0.431,2.508,2.673,15.206,3.097,17.68c1.534-0.285,10.624-1.858,18.899-3.319c2.167,5.577,5.396,10.659,9.546,14.983
			c-4.831,6.898-10.144,14.455-11.021,15.713c2.059,1.449,12.632,8.849,14.698,10.31c0.89-1.276,6.179-8.832,11.007-15.738
			c5.473,2.441,11.35,3.74,17.344,3.869c1.461,8.285,3.054,17.382,3.326,18.91c2.466-0.45,15.191-2.673,17.672-3.106
			c-0.264-1.543-1.875-10.624-3.334-18.888c5.595-2.179,10.674-5.395,14.991-9.555c6.888,4.818,14.442,10.131,15.721,11.012
			c1.444-2.059,8.849-12.634,10.284-14.678c-1.254-0.896-8.831-6.204-15.697-11.018
			C235.316,131.422,236.611,125.585,236.751,119.571z M191.022,133.094c-8.051,0-14.608-6.532-14.608-14.58
			c0-8.055,6.558-14.576,14.608-14.576c8.035,0,14.578,6.521,14.578,14.576C205.6,126.562,199.057,133.094,191.022,133.094z"/>
	</g>
</g>
</svg>
