<?xml version="1.0" encoding="UTF-8" standalone="no"?>
<!-- Generator: Adobe Illustrator 15.0.0, SVG Export Plug-In . SVG Version: 6.00 Build 0)  -->

<svg
   xmlns:dc="http://purl.org/dc/elements/1.1/"
   xmlns:cc="http://creativecommons.org/ns#"
   xmlns:rdf="http://www.w3.org/1999/02/22-rdf-syntax-ns#"
   xmlns:svg="http://www.w3.org/2000/svg"
   xmlns="http://www.w3.org/2000/svg"
   xmlns:sodipodi="http://sodipodi.sourceforge.net/DTD/sodipodi-0.dtd"
   xmlns:inkscape="http://www.inkscape.org/namespaces/inkscape"
   version="1.1"
   id="_x31__x5F_General_x5F_Service"
   x="0px"
   y="0px"
   width="409.57999"
   height="283.465"
   viewBox="0 0 409.57998 283.465"
   xml:space="preserve"
   inkscape:version="0.48.3.1 r9886"
   sodipodi:docname="1_General_Production.svg"><metadata
   id="metadata3057"><rdf:RDF><cc:Work
       rdf:about=""><dc:format>image/svg+xml</dc:format><dc:type
         rdf:resource="http://purl.org/dc/dcmitype/StillImage" /><dc:title></dc:title></cc:Work></rdf:RDF></metadata><defs
   id="defs3055" /><sodipodi:namedview
   pagecolor="#ffffff"
   bordercolor="#666666"
   borderopacity="1"
   objecttolerance="10"
   gridtolerance="10"
   guidetolerance="10"
   inkscape:pageopacity="0"
   inkscape:pageshadow="2"
   inkscape:window-width="1195"
   inkscape:window-height="956"
   id="namedview3053"
   showgrid="false"
   inkscape:zoom="1.2328647"
   inkscape:cx="269.2915"
   inkscape:cy="141.7325"
   inkscape:window-x="693"
   inkscape:window-y="119"
   inkscape:window-maximized="0"
   inkscape:current-layer="_x31__x5F_General_x5F_Service" />

<g
   id="g3"
   transform="translate(-136.26321,8.2230278)"><path
     style="fill:#ffffff"
     d="M 335.159,130.277 V 87.1 l -58.154,43.178 V 87.1 l -58.154,43.178 V 87.1 l -66.133,51.151 v 91.357 H 385.34 V 87.1 l -50.181,43.177 z m 34.227,83.378 H 168.67 V 146.08 l 34.227,-26.473 v 10.67 31.714 l 25.463,-18.906 32.691,-24.271 v 11.464 31.715 l 25.463,-18.907 32.69,-24.271 v 11.463 34.771 l 26.357,-22.679 23.823,-20.498 v 91.783 z"
     id="path5"
     inkscape:connector-curvature="0" /><polygon
     style="fill:#ffffff"
     points="259.278,41.851 230.056,41.851 227.354,113.646 238.711,105.214 240.708,52.896 248.626,52.896 250.311,96.603 261.072,88.612 "
     id="polygon7" /><polygon
     style="fill:#ffffff"
     points="200.995,41.851 171.773,41.851 169.016,115.174 180.386,106.378 182.424,52.896 190.343,52.896 192.055,97.354 202.805,89.038 "
     id="polygon9" /></g><g
   transform="matrix(0.60573964,0,0,0.60573964,191.5539,93.72634)"
   id="g3101"><g
     id="g3103"><path
       inkscape:connector-curvature="0"
       style="fill:#ffffff"
       d="M 315.964,122.193 V 92.32 c 0,-25.964 -21.047,-47.012 -47.011,-47.012 -25.963,0 -47.011,21.048 -47.011,47.012 v 29.873 H 201.061 V 229.607 H 336.844 V 122.193 h -20.88 z M 239.778,92.32 c 0,-16.088 13.088,-29.177 29.176,-29.177 16.087,0 29.176,13.089 29.176,29.177 v 29.873 H 239.778 V 92.32 z m 7.68,115.308 13.785,-34.724 c -5.722,-2.454 -9.67,-7.425 -9.67,-13.266 0,-8.206 7.789,-14.858 17.38,-14.858 9.582,0 17.352,6.652 17.352,14.858 0,5.841 -3.939,10.812 -9.651,13.266 l 13.795,34.724 h -42.991 z"
       id="path3105" /></g></g></svg>