<?xml version="1.0" encoding="iso-8859-1"?>
<!-- Generator: Adobe Illustrator 15.0.0, SVG Export Plug-In . SVG Version: 6.00 Build 0)  -->
<!DOCTYPE svg PUBLIC "-//W3C//DTD SVG 1.1//EN" "http://www.w3.org/Graphics/SVG/1.1/DTD/svg11.dtd">
<svg version="1.1" id="_x31__x5F_General_x5F_Cleaning_x5F_Program_1_"
	 xmlns="http://www.w3.org/2000/svg" xmlns:xlink="http://www.w3.org/1999/xlink" x="0px" y="0px" width="538.583px"
	 height="283.465px" viewBox="0 0 538.583 283.465" style="enable-background:new 0 0 538.583 283.465;" xml:space="preserve">
<g id="_x31__x5F_General_x5F_Cleaning_x5F_Program">
	<path style="fill:#FFFFFF;" d="M237.279,86.485H147.13c-4.697,0-8.504,3.808-8.504,8.504s3.807,8.504,8.504,8.504h90.148
		c4.697,0,8.504-3.808,8.504-8.504S241.976,86.485,237.279,86.485z"/>
	<circle style="fill:#FFFFFF;" cx="114.346" cy="94.989" r="8.504"/>
	<path style="fill:#FFFFFF;" d="M237.279,135.687H147.13c-4.697,0-8.504,3.808-8.504,8.504s3.807,8.504,8.504,8.504h90.148
		c4.697,0,8.504-3.808,8.504-8.504S241.976,135.687,237.279,135.687z"/>
	<circle style="fill:#FFFFFF;" cx="114.346" cy="144.19" r="8.504"/>
	<path style="fill:#FFFFFF;" d="M237.279,184.888H147.13c-4.697,0-8.504,3.808-8.504,8.504s3.807,8.504,8.504,8.504h90.148
		c4.697,0,8.504-3.808,8.504-8.504S241.976,184.888,237.279,184.888z"/>
	<circle style="fill:#FFFFFF;" cx="114.346" cy="193.392" r="8.504"/>
	<path style="fill:#FFFFFF;" d="M436.98,89.308c-2.775-2.474-6.521-4.052-11.393-5.591c-11.07-3.396-28.217-5.813-48.448-6.777
		c-10.517-10.567-21.489-20.393-30.189-26.914c-6.306-4.732-12.121-8.449-17.307-11.059c-6.449-3.209-11.459-4.661-16.268-4.705
		c-0.039,0-0.079-0.001-0.118-0.001c-4.409,0-8.478,1.489-11.466,4.199c-3.549,3.212-5.488,7.982-5.459,13.499
		c0.138,8.649,4.186,19.106,13.142,33.94c8.058,13.161,19.058,27.595,31.811,41.736c3.321,3.679,6.664,7.235,10.008,10.647
		c0,0,4.681,3.445,8.405,0s0.573-8.979,0.573-8.979c-3.189-3.257-6.382-6.656-9.557-10.174
		c-12.239-13.571-22.756-27.354-30.392-39.829c-7.608-12.6-11.197-21.353-11.296-27.477c-0.007-1.268,0.211-2.979,1.288-3.955
		c0.887-0.803,2.233-0.892,2.964-0.911c2.767,0.024,6.068,1.066,10.682,3.363c4.492,2.26,9.663,5.578,15.369,9.86
		c5.521,4.14,12.194,9.874,19.068,16.296c-0.276-0.001-0.551-0.003-0.828-0.003c-9.762,0-19.101,0.334-27.747,0.944
		c2.528,3.964,5.345,8.053,8.41,12.217c6.229-0.304,12.708-0.463,19.327-0.463c25.913,0.021,49.323,2.375,63.088,6.322
		c-2.66,0.765-5.812,1.491-9.431,2.171c-14.288,2.676-33.34,4.147-53.641,4.147c-3.364-0.002-6.683-0.045-9.947-0.124
		c3.11,3.782,6.383,7.585,9.803,11.377c0.437,0.483,0.875,0.96,1.313,1.439c21.305-0.058,40.562-1.69,54.81-4.357
		c0.2-0.037,0.391-0.078,0.589-0.116l-20.786,97.61c-6.587,1.801-19.392,3.864-35.787,3.864c-16.397,0-29.204-2.063-35.793-3.865
		l-20.626-97.576c4.704,0.899,9.964,1.678,15.66,2.323c-3.683-4.811-7.105-9.573-10.222-14.23c-4.568-0.78-8.641-1.674-12.103-2.668
		c2.557-0.734,5.573-1.431,9.003-2.086c-0.59-0.933-1.169-1.859-1.733-2.78l-0.014-0.023l-0.014-0.023
		c-1.851-3.064-3.509-5.972-4.986-8.743c-5.098,1.139-9.409,2.436-12.85,3.951c-2.243,1.006-4.135,2.075-5.729,3.521
		c-1.549,1.397-2.993,3.501-3.013,6.187c0.02,2.69,1.463,4.789,3.013,6.187c0.938,0.835,1.996,1.563,3.159,2.228l24.229,114.484
		c0,5.382,23.294,11.216,52.019,11.216c28.733,0,52.014-5.834,52.014-11.216l24.234-114.491c1.161-0.654,2.222-1.367,3.162-2.221
		c1.549-1.397,2.999-3.496,3.008-6.187C439.979,92.809,438.529,90.705,436.98,89.308z"/>
</g>
</svg>
