<?xml version="1.0" encoding="iso-8859-1"?>
<!-- Generator: Adobe Illustrator 15.0.0, SVG Export Plug-In . SVG Version: 6.00 Build 0)  -->
<!DOCTYPE svg PUBLIC "-//W3C//DTD SVG 1.1//EN" "http://www.w3.org/Graphics/SVG/1.1/DTD/svg11.dtd">
<svg version="1.1" id="_x31__x5F_General_x5F_Number_x5F_Input"
	 xmlns="http://www.w3.org/2000/svg" xmlns:xlink="http://www.w3.org/1999/xlink" x="0px" y="0px" width="538.583px"
	 height="283.465px" viewBox="0 0 538.583 283.465" style="enable-background:new 0 0 538.583 283.465;" xml:space="preserve">
<g>
	<g>
		<path style="fill:#FFFFFF;" d="M163.403,116.385h-0.28l-17.36,8.26l-3.5-15.96l24.22-11.2h17.5v91h-20.58V116.385z"/>
		<path style="fill:#FFFFFF;" d="M214.082,188.484v-12.88l11.62-10.5c20.02-17.92,29.68-28.14,29.82-38.78
			c0-7.42-4.34-13.3-14.84-13.3c-7.84,0-14.7,3.92-19.459,7.42l-6.02-15.119c6.72-5.181,17.5-9.381,29.68-9.381
			c20.72,0,31.919,12.04,31.919,28.561c0,15.26-10.919,27.439-24.219,39.199l-8.4,7v0.28h34.44v17.5H214.082z"/>
		<path style="fill:#FFFFFF;" d="M295.421,167.624c3.78,2.101,12.46,5.601,21.14,5.601c11.06,0,16.66-5.32,16.66-12.04
			c0-9.1-8.96-13.16-18.2-13.16h-8.68v-15.26h8.26c7.14,0,16.1-2.8,16.1-10.5c0-5.46-4.34-9.52-13.439-9.52
			c-7.42,0-15.26,3.22-18.9,5.46l-4.34-15.4c5.46-3.5,16.24-6.86,28.14-6.86c19.32,0,30.101,10.221,30.101,22.681
			c0,9.659-5.46,17.359-16.66,21.14v0.28c10.92,1.96,19.74,10.22,19.74,22.26c0,15.96-14.141,27.72-37.24,27.72
			c-11.76,0-21.7-3.08-27.02-6.3L295.421,167.624z"/>
	</g>
	<polygon style="fill:#FFFFFF;" points="393.033,68.044 404.679,73.4 409.417,63.1 370.049,44.992 365.311,55.293 381.695,62.829 
		381.695,213.473 370.049,208.116 365.311,218.417 404.679,236.524 409.417,226.224 393.033,218.688 	"/>
</g>
</svg>
