<?xml version="1.0" encoding="iso-8859-1"?>
<!-- Generator: Adobe Illustrator 15.0.0, SVG Export Plug-In . SVG Version: 6.00 Build 0)  -->
<!DOCTYPE svg PUBLIC "-//W3C//DTD SVG 1.1//EN" "http://www.w3.org/Graphics/SVG/1.1/DTD/svg11.dtd">
<svg version="1.1" id="_x31__x5F_General_x5F_Weight_x5F_Reset"
	 xmlns="http://www.w3.org/2000/svg" xmlns:xlink="http://www.w3.org/1999/xlink" x="0px" y="0px" width="538.583px"
	 height="283.465px" viewBox="0 0 538.583 283.465" style="enable-background:new 0 0 538.583 283.465;" xml:space="preserve">
<g>
	<path style="fill:#FFFFFF;" d="M381.706,106.988h-16.063V91.581l-0.003-0.271c-0.44-12.954-8.89-37.451-37.719-37.451
		c-28.685,0-37.714,25.069-38.482,38.325l-0.011,15.16h-15.81L231.401,229.07h194.959L381.706,106.988z M285.722,124.352h3.707
		h16.996l0.013-16.996l0.01-14.599c0.306-3.874,1.87-9.831,5.375-14.507c3.775-5.037,8.891-7.384,16.1-7.384
		c7.255,0,12.297,2.231,15.868,7.023c3.33,4.469,4.686,10.192,4.846,13.822v15.276v17.008h17.008h4.174l32.213,88.066H255.302
		L285.722,124.352z"/>
	<path style="fill:#FFFFFF;" d="M328.183,83.214c-8.243,0-8.755,12.187-8.755,12.187v11.36l17.288,0.048V94.976
		C336.716,94.976,336.425,83.214,328.183,83.214z"/>
	<polygon style="fill:#FFFFFF;" points="186.84,51.061 176.85,51.061 176.85,62.398 186.84,62.398 186.84,71.04 176.85,71.04 
		176.85,82.378 186.84,82.378 186.84,91.021 165.51,91.021 165.51,102.359 186.84,102.359 186.84,111.002 176.85,111.002 
		176.85,122.34 186.84,122.34 186.84,130.982 176.85,130.982 176.85,142.32 186.84,142.32 186.84,150.963 165.51,150.963 
		165.51,162.301 186.84,162.301 186.84,195.396 144.179,195.396 144.179,43.938 132.84,43.938 132.84,206.734 198.179,206.734 
		198.179,43.938 186.84,43.938 	"/>
</g>
</svg>
