<?xml version="1.0" encoding="UTF-8" standalone="no"?>
<!-- Generator: Adobe Illustrator 15.0.0, SVG Export Plug-In . SVG Version: 6.00 Build 0)  -->

<svg
   xmlns:dc="http://purl.org/dc/elements/1.1/"
   xmlns:cc="http://creativecommons.org/ns#"
   xmlns:rdf="http://www.w3.org/1999/02/22-rdf-syntax-ns#"
   xmlns:svg="http://www.w3.org/2000/svg"
   xmlns="http://www.w3.org/2000/svg"
   xmlns:sodipodi="http://sodipodi.sourceforge.net/DTD/sodipodi-0.dtd"
   xmlns:inkscape="http://www.inkscape.org/namespaces/inkscape"
   version="1.1"
   id="_x31__x5F_General_x5F_Cleaning"
   x="0px"
   y="0px"
   width="409.57999"
   height="283.465"
   viewBox="0 0 409.57998 283.465"
   xml:space="preserve"
   inkscape:version="0.48.3.1 r9886"
   sodipodi:docname="1_General_Cleaning_locked.svg"><metadata
   id="metadata3423"><rdf:RDF><cc:Work
       rdf:about=""><dc:format>image/svg+xml</dc:format><dc:type
         rdf:resource="http://purl.org/dc/dcmitype/StillImage" /><dc:title></dc:title></cc:Work></rdf:RDF></metadata><defs
   id="defs3421" /><sodipodi:namedview
   pagecolor="#ffffff"
   bordercolor="#666666"
   borderopacity="1"
   objecttolerance="10"
   gridtolerance="10"
   guidetolerance="10"
   inkscape:pageopacity="0"
   inkscape:pageshadow="2"
   inkscape:window-width="1237"
   inkscape:window-height="869"
   id="namedview3419"
   showgrid="false"
   inkscape:zoom="0.60157858"
   inkscape:cx="269.2915"
   inkscape:cy="141.7325"
   inkscape:window-x="0"
   inkscape:window-y="24"
   inkscape:window-maximized="0"
   inkscape:current-layer="_x31__x5F_General_x5F_Cleaning" />
<g
   id="g3407"
   transform="translate(-128.20001,0)">
	<g
   id="g3409">
		<g
   id="g3411">
			<path
   style="fill:#ffffff"
   d="M 290.459,81.042 C 278.774,68.949 266.062,57.385 256.243,50.025 c -6.306,-4.732 -12.122,-8.449 -17.308,-11.059 -6.449,-3.209 -11.459,-4.661 -16.268,-4.705 -0.039,0 -0.079,-0.001 -0.118,-0.001 -4.409,0 -8.478,1.489 -11.467,4.199 -3.55,3.212 -5.489,7.982 -5.46,13.499 0.138,8.649 4.187,19.106 13.145,33.94 8.058,13.161 19.058,27.595 31.812,41.736 3.321,3.679 6.664,7.235 10.008,10.647 0,0 4.681,3.445 8.405,0 3.725,-3.445 0.573,-8.979 0.573,-8.979 -3.189,-3.257 -6.382,-6.656 -9.557,-10.174 -12.24,-13.571 -22.757,-27.354 -30.393,-39.829 -7.608,-12.6 -11.198,-21.353 -11.296,-27.477 -0.007,-1.268 0.211,-2.979 1.288,-3.955 0.886,-0.803 2.233,-0.892 2.964,-0.911 2.766,0.024 6.069,1.066 10.682,3.363 4.493,2.26 9.664,5.578 15.37,9.86 6.804,5.101 15.349,12.604 23.874,20.858 l 17.962,0.005 z"
   id="path3413"
   inkscape:connector-curvature="0" />
		</g>
	</g>
	<g
   id="g3415">
		<path
   style="fill:#ffffff"
   d="m 346.275,89.308 c -2.775,-2.474 -6.521,-4.052 -11.393,-5.591 -14.494,-4.445 -39.398,-7.219 -68.019,-7.241 -9.761,0 -19.101,0.334 -27.748,0.944 2.529,3.964 5.345,8.053 8.411,12.217 6.229,-0.304 12.709,-0.463 19.328,-0.463 25.915,0.021 49.325,2.375 63.089,6.322 -2.66,0.765 -5.812,1.491 -9.431,2.171 -14.288,2.676 -33.34,4.147 -53.642,4.147 -3.364,-0.002 -6.683,-0.045 -9.947,-0.124 3.11,3.782 6.383,7.585 9.803,11.377 0.436,0.483 0.875,0.96 1.313,1.439 21.305,-0.058 40.563,-1.69 54.811,-4.357 0.2,-0.037 0.391,-0.078 0.589,-0.116 l -20.786,97.61 c -6.587,1.801 -19.392,3.864 -35.789,3.864 -16.397,0 -29.205,-2.063 -35.793,-3.865 l -20.628,-97.576 c 4.706,0.899 9.965,1.678 15.662,2.323 -3.683,-4.811 -7.106,-9.573 -10.222,-14.23 -4.569,-0.78 -8.643,-1.674 -12.104,-2.668 2.557,-0.734 5.574,-1.431 9.005,-2.086 -0.59,-0.933 -1.17,-1.859 -1.734,-2.78 l -0.014,-0.023 -0.014,-0.023 c -1.851,-3.064 -3.51,-5.972 -4.987,-8.743 -5.098,1.139 -9.409,2.436 -12.85,3.951 -2.243,1.006 -4.135,2.075 -5.729,3.521 -1.549,1.397 -2.993,3.501 -3.013,6.187 0.02,2.69 1.463,4.789 3.013,6.187 0.938,0.835 1.996,1.563 3.159,2.228 l 24.23,114.484 c 0,5.382 23.294,11.216 52.02,11.216 28.735,0 52.015,-5.834 52.015,-11.216 l 24.234,-114.491 c 1.161,-0.654 2.222,-1.367 3.162,-2.221 1.549,-1.397 2.999,-3.496 3.008,-6.187 -0.01,-2.686 -1.46,-4.79 -3.009,-6.187 z"
   id="path3417"
   inkscape:connector-curvature="0" />
	</g>
</g>
<g
   transform="matrix(0.60573964,0,0,0.60573964,154.37938,88.827897)"
   id="g3101"><g
     id="g3103"><path
       inkscape:connector-curvature="0"
       style="fill:#ffffff"
       d="M 315.964,122.193 V 92.32 c 0,-25.964 -21.047,-47.012 -47.011,-47.012 -25.963,0 -47.011,21.048 -47.011,47.012 v 29.873 H 201.061 V 229.607 H 336.844 V 122.193 h -20.88 z M 239.778,92.32 c 0,-16.088 13.088,-29.177 29.176,-29.177 16.087,0 29.176,13.089 29.176,29.177 v 29.873 H 239.778 V 92.32 z m 7.68,115.308 13.785,-34.724 c -5.722,-2.454 -9.67,-7.425 -9.67,-13.266 0,-8.206 7.789,-14.858 17.38,-14.858 9.582,0 17.352,6.652 17.352,14.858 0,5.841 -3.939,10.812 -9.651,13.266 l 13.795,34.724 h -42.991 z"
       id="path3105" /></g></g></svg>