<?xml version="1.0" encoding="iso-8859-1"?>
<!-- Generator: Adobe Illustrator 15.0.0, SVG Export Plug-In . SVG Version: 6.00 Build 0)  -->
<!DOCTYPE svg PUBLIC "-//W3C//DTD SVG 1.1//EN" "http://www.w3.org/Graphics/SVG/1.1/DTD/svg11.dtd">
<svg version="1.1" id="_x31__x5F_General_x5F_Locked_x5F_Advanced"
	 xmlns="http://www.w3.org/2000/svg" xmlns:xlink="http://www.w3.org/1999/xlink" x="0px" y="0px" width="538.583px"
	 height="283.465px" viewBox="0 0 538.583 283.465" style="enable-background:new 0 0 538.583 283.465;" xml:space="preserve">
<g>
	<path style="fill:#FFFFFF;" d="M435.751,119.609c8.276-1.444,17.374-3.034,18.903-3.316c-0.425-2.477-2.675-15.194-3.106-17.668
		c-1.518,0.284-10.624,1.877-18.908,3.322c-2.159-5.58-5.381-10.661-9.53-14.989c4.822-6.876,10.127-14.442,11.015-15.726
		c-2.05-1.429-12.624-8.837-14.684-10.294c-0.896,1.279-6.202,8.851-11.024,15.723c-5.479-2.425-11.348-3.715-17.331-3.852
		c-1.445-8.268-3.064-17.382-3.32-18.913c-2.481,0.452-15.191,2.677-17.682,3.124c0.275,1.526,1.875,10.609,3.338,18.882
		c-5.604,2.171-10.676,5.406-14.994,9.541c-6.871-4.832-14.441-10.106-15.719-11.011c-1.438,2.063-8.851,12.62-10.293,14.697
		c1.276,0.879,8.832,6.195,15.711,11.012c-2.414,5.457-3.726,11.339-3.858,17.326c-8.278,1.478-17.382,3.077-18.893,3.321
		c0.431,2.508,2.673,15.206,3.097,17.68c1.534-0.285,10.624-1.858,18.899-3.319c2.167,5.577,5.396,10.659,9.546,14.983
		c-4.831,6.898-10.144,14.455-11.021,15.713c2.059,1.449,12.632,8.849,14.698,10.31c0.89-1.276,6.179-8.832,11.007-15.738
		c5.473,2.441,11.35,3.74,17.344,3.869c1.461,8.285,3.054,17.382,3.326,18.91c2.466-0.45,15.191-2.673,17.672-3.106
		c-0.264-1.543-1.875-10.624-3.334-18.888c5.595-2.179,10.674-5.395,14.991-9.555c6.888,4.818,14.442,10.131,15.721,11.012
		c1.444-2.059,8.849-12.634,10.284-14.678c-1.254-0.896-8.831-6.204-15.697-11.018C434.316,131.46,435.611,125.623,435.751,119.609z
		 M390.022,133.132c-8.051,0-14.608-6.532-14.608-14.58c0-8.055,6.558-14.576,14.608-14.576c8.035,0,14.578,6.521,14.578,14.576
		C404.6,126.6,398.057,133.132,390.022,133.132z M332.871,166.478c4.508-4.101,9.479-8.617,10.318-9.376
		c-1.237-1.351-7.538-8.292-8.766-9.646c-0.848,0.76-5.811,5.276-10.309,9.393c-3.506-2.603-7.463-4.465-11.689-5.512
		c0.283-6.094,0.605-12.795,0.657-13.929c-1.827-0.101-11.2-0.548-13.026-0.616c-0.033,1.113-0.373,7.825-0.653,13.934
		c-4.309,0.627-8.419,2.127-12.145,4.366c-4.103-4.514-8.618-9.484-9.382-10.313c-1.346,1.228-8.301,7.536-9.646,8.769
		c0.747,0.835,5.28,5.811,9.373,10.308c-2.583,3.501-4.442,7.47-5.487,11.686c-6.111-0.298-12.801-0.61-13.93-0.662
		c-0.083,1.826-0.53,11.188-0.631,13.015c1.137,0.07,7.836,0.37,13.947,0.664c0.619,4.301,2.115,8.416,4.363,12.136
		c-4.522,4.1-9.496,8.633-10.316,9.384c1.221,1.375,7.547,8.297,8.773,9.642c0.822-0.746,5.793-5.259,10.319-9.374
		c3.495,2.58,7.444,4.46,11.662,5.506c-0.292,6.092-0.613,12.801-0.665,13.93c1.826,0.082,11.208,0.515,13.025,0.614
		c0.057-1.131,0.365-7.819,0.672-13.933c4.291-0.645,8.402-2.127,12.152-4.363c4.101,4.517,8.608,9.463,9.379,10.325
		c1.346-1.243,8.277-7.547,9.624-8.803c-0.747-0.808-5.272-5.789-9.357-10.289c2.582-3.505,4.433-7.47,5.478-11.686
		c6.104,0.301,12.802,0.615,13.938,0.663c0.084-1.827,0.523-11.189,0.614-13.016c-1.136-0.066-7.835-0.378-13.92-0.659
		C336.599,174.308,335.104,170.213,332.871,166.478z M314.699,185.918c-1.277,5.712-6.955,9.292-12.65,8.019
		c-5.709-1.277-9.313-6.969-8.027-12.667c1.287-5.712,6.981-9.294,12.686-8.035C312.391,174.529,315.996,180.208,314.699,185.918z"
		/>
	<g>
		<path style="fill:#FFFFFF;" d="M211.784,127.177V98.689c0-24.76-20.07-44.831-44.83-44.831c-24.759,0-44.83,20.071-44.83,44.831
			v28.487h-19.912v102.431h129.484V127.177H211.784z M139.132,98.689c0-15.342,12.481-27.823,27.822-27.823
			s27.822,12.481,27.822,27.823v28.487h-55.645V98.689z M146.455,208.647l13.146-33.112c-5.457-2.341-9.222-7.081-9.222-12.65
			c0-7.825,7.428-14.169,16.574-14.169c9.138,0,16.547,6.344,16.547,14.169c0,5.569-3.756,10.31-9.203,12.65l13.155,33.112H146.455z
			"/>
	</g>
</g>
</svg>
