<?xml version="1.0" encoding="iso-8859-1"?>
<!-- Generator: Adobe Illustrator 15.0.0, SVG Export Plug-In . SVG Version: 6.00 Build 0)  -->
<!DOCTYPE svg PUBLIC "-//W3C//DTD SVG 1.1//EN" "http://www.w3.org/Graphics/SVG/1.1/DTD/svg11.dtd">
<svg version="1.1" id="_x31__x5F_General_x5F_Language"
	 xmlns="http://www.w3.org/2000/svg" xmlns:xlink="http://www.w3.org/1999/xlink" x="0px" y="0px" width="538.583px"
	 height="283.465px" viewBox="0 0 538.583 283.465" style="enable-background:new 0 0 538.583 283.465;" xml:space="preserve">
<path style="fill:#FFFFFF;" d="M372.883,114.458c-8.86,3.632-16.241,5.335-22.843,5.919V80.035l-8.194,3.369
	c-7.682,3.128-14.194,4.764-20.105,5.573V51.734l-8.184,3.376c-11.409,4.669-20.442,6.217-28.39,6.217
	c-19.191,0.246-34.099-10.14-58.944-10.387c-28.919,0.024-47.481,9.024-48.039,9.278l-3.334,1.633v85.818h0.009v24.837h11.885
	V142.14c1.882-0.719,4.476-1.615,7.965-2.566c2.412-0.667,5.315-1.304,8.422-1.882v38.264l0.019-0.013v24.853h11.893V170.41
	c1.864-0.706,4.477-1.612,7.948-2.562c3.087-0.849,6.996-1.617,11.208-2.309v66.313H246.1v-30.376
	c1.882-0.713,4.476-1.604,7.964-2.56c7.464-2.055,18.298-4.132,31.516-4.132c20.778-0.225,35.347,10.12,58.925,10.375
	c9.546,0,20.303-1.945,32.894-7.106l3.706-1.507v-85.46L372.883,114.458z M186.752,129.538V69.507
	c1.873-0.702,4.53-1.606,7.956-2.548c7.482-2.052,18.306-4.121,31.515-4.121c20.781-0.227,35.377,10.112,58.944,10.392
	c7.407,0,15.537-1.179,24.708-4.12v20.329c-17.511-0.954-32.098-9.979-55.363-10.203c-28.911,0.014-47.49,9.025-48.03,9.271
	l-3.352,1.632v35.509C196.462,126.788,190.854,128.213,186.752,129.538z M215.042,157.822V97.796
	c1.864-0.707,4.539-1.616,7.948-2.558c7.472-2.037,18.306-4.11,31.522-4.11c20.763-0.251,35.378,10.099,58.926,10.377
	c7.417,0,15.557-1.164,24.719-4.101v22.938c-16.334-1.664-30.545-9.846-52.577-10.055c-28.921,0.023-47.501,9.03-48.047,9.286
	l-3.335,1.617v32.271C226.278,154.648,219.7,156.302,215.042,157.822z M369.202,188.482c-9.706,3.563-17.618,4.777-24.697,4.795
	c-19.191,0.253-34.08-10.14-58.925-10.368c-17.521,0-31.26,3.308-39.479,5.971v-60.027c1.882-0.703,4.54-1.611,7.964-2.544
	c7.464-2.045,18.298-4.113,31.516-4.113c20.752-0.253,35.347,10.097,58.941,10.375c7.391,0,15.529-1.172,24.681-4.114V188.482z"/>
</svg>
