<?xml version="1.0" encoding="iso-8859-1"?>
<!-- Generator: Adobe Illustrator 15.0.0, SVG Export Plug-In . SVG Version: 6.00 Build 0)  -->
<!DOCTYPE svg PUBLIC "-//W3C//DTD SVG 1.1//EN" "http://www.w3.org/Graphics/SVG/1.1/DTD/svg11.dtd">
<svg version="1.1" id="_x31__x5F_General_x5F_Weight_x5F_Max_x5F_Limit"
	 xmlns="http://www.w3.org/2000/svg" xmlns:xlink="http://www.w3.org/1999/xlink" x="0px" y="0px" width="538.583px"
	 height="283.465px" viewBox="0 0 538.583 283.465" style="enable-background:new 0 0 538.583 283.465;" xml:space="preserve">
<g>
	<g>
		<path style="fill:#FFFFFF;" d="M315.223,106.988h-16.063V91.581l-0.003-0.271c-0.44-12.954-8.89-37.451-37.72-37.451
			c-28.686,0-37.716,25.069-38.483,38.325l-0.01,15.16h-15.811L164.917,229.07h194.961L315.223,106.988z M219.238,124.352h3.707
			h16.995l0.013-16.996l0.01-14.599c0.306-3.874,1.87-9.831,5.375-14.507c3.775-5.037,8.891-7.384,16.101-7.384
			c7.255,0,12.297,2.231,15.868,7.023c3.33,4.469,4.686,10.192,4.846,13.822v15.276v17.008h17.009h4.174l32.213,88.066h-146.73
			L219.238,124.352z"/>
		<path style="fill:#FFFFFF;" d="M261.7,83.214c-8.243,0-8.755,12.187-8.755,12.187v11.36l17.288,0.048V94.976
			C270.233,94.976,269.942,83.214,261.7,83.214z"/>
	</g>
	<g>
		<path style="fill:#FFFFFF;" d="M237.805,193.843c-0.186-4.613-0.354-10.186-0.354-15.763h-0.108
			c-1.25,4.891-2.839,10.354-4.321,14.853l-4.676,14.968h-6.758l-4.105-14.799c-1.25-4.552-2.5-10.015-3.472-15.021h-0.108
			c-0.169,5.176-0.402,11.095-0.633,15.871l-0.74,14.566h-8.025l2.455-38.346H218.5l3.765,12.799
			c1.25,4.438,2.393,9.222,3.241,13.711h0.231c1.019-4.429,2.33-9.506,3.642-13.765l4.043-12.745h11.373l2.053,38.346h-8.426
			L237.805,193.843z"/>
		<path style="fill:#FFFFFF;" d="M262.249,198.674l-2.731,9.844h-8.936l11.667-38.346h11.388l11.944,38.346h-9.383l-2.962-9.844
			H262.249z M271.986,192.192l-2.393-8.134c-0.679-2.284-1.374-5.123-1.944-7.406h-0.108c-0.57,2.283-1.141,5.185-1.759,7.406
			l-2.283,8.134H271.986z"/>
		<path style="fill:#FFFFFF;" d="M309.468,208.518l-3.472-6.937c-1.419-2.677-2.33-4.668-3.411-6.891h-0.108
			c-0.801,2.223-1.774,4.214-3.023,6.891l-3.134,6.937h-9.891l11.095-19.397l-10.693-18.948h9.953l3.349,6.997
			c1.141,2.339,2.006,4.206,2.917,6.382h0.106c0.912-2.455,1.652-4.167,2.624-6.382l3.241-6.997h9.892l-10.802,18.718l11.372,19.628
			H309.468z"/>
	</g>
</g>
</svg>
