<?xml version="1.0" encoding="iso-8859-1"?>
<!-- Generator: Adobe Illustrator 15.0.0, SVG Export Plug-In . SVG Version: 6.00 Build 0)  -->
<!DOCTYPE svg PUBLIC "-//W3C//DTD SVG 1.1//EN" "http://www.w3.org/Graphics/SVG/1.1/DTD/svg11.dtd">
<svg version="1.1" id="_x31__x5F_General_x5F_Setup_x5F_Wizard"
	 xmlns="http://www.w3.org/2000/svg" xmlns:xlink="http://www.w3.org/1999/xlink" x="0px" y="0px" width="538.583px"
	 height="283.465px" viewBox="0 0 538.583 283.465" style="enable-background:new 0 0 538.583 283.465;" xml:space="preserve">
<g>
	<g>
		<g>
			<path style="fill:#FFFFFF;" d="M180.58,150.014h-0.251l-15.561,7.403l-3.135-14.311l21.707-10.042h15.698v81.605H180.58V150.014z
				"/>
			<path style="fill:#FFFFFF;" d="M220.77,229.608c4.02-11.169,7.414-24.232,9.173-35.657l19.458-1.247
				c-4.146,12.802-9.793,25.982-15.82,35.777L220.77,229.608z"/>
			<path style="fill:#FFFFFF;" d="M258.703,214.67v-11.553l10.413-9.412c17.959-16.07,26.621-25.233,26.743-34.777
				c0-6.656-3.898-11.921-13.31-11.921c-7.026,0-13.174,3.519-17.45,6.651l-5.396-13.563c6.027-4.642,15.69-8.41,26.621-8.41
				c18.573,0,28.621,10.803,28.621,25.481c0,13.813-9.792,24.735-21.721,35.277l-7.538,6.286v0.25h30.891v15.689H258.703z"/>
			<path style="fill:#FFFFFF;" d="M323.119,229.608c4.017-11.169,7.414-24.232,9.174-35.657l19.455-1.247
				c-4.146,12.802-9.793,25.982-15.818,35.777L323.119,229.608z"/>
			<path style="fill:#FFFFFF;" d="M364.31,195.963c3.397,1.889,11.173,5.024,18.967,5.024c9.912,0,14.931-4.774,14.931-10.8
				c0-8.157-8.036-11.802-16.45-11.802h-7.775v-13.684h7.534c6.397,0,14.432-2.507,14.432-9.413c0-4.896-3.896-8.534-12.052-8.534
				c-6.654,0-13.69,2.889-16.948,4.894l-3.897-13.808c4.897-3.14,14.57-6.155,25.242-6.155c17.329,0,26.983,9.166,26.983,20.336
				c0,8.665-4.896,15.571-14.931,18.958v0.251c9.793,1.758,17.698,9.163,17.698,19.963c0,14.313-12.681,24.855-33.39,24.855
				c-10.552,0-19.465-2.759-24.233-5.646L364.31,195.963z"/>
			<path style="fill:#FFFFFF;" d="M431.624,204.497c0-6.905,4.644-11.673,11.292-11.673c6.535,0,11.052,4.645,11.18,11.673
				c0,6.654-4.523,11.552-11.423,11.552C436.267,216.049,431.624,211.151,431.624,204.497z"/>
			<path style="fill:#FFFFFF;" d="M464.279,204.497c0-6.905,4.639-11.673,11.29-11.673c6.539,0,11.055,4.645,11.176,11.673
				c0,6.654-4.518,11.552-11.423,11.552C468.917,216.049,464.279,211.151,464.279,204.497z"/>
		</g>
	</g>
	<g>
		<path style="fill:#FFFFFF;" d="M66.681,137.701v32.238H98.92l5.755-5.755l0,0.001c0.006-0.007,0.014-0.015,0.02-0.021
			l84.049-84.05c3.18-3.182,9.006-12.149-5.543-26.696c-6.238-6.238-12.135-9.401-17.526-9.401c-3.475,0-6.646,1.335-9.17,3.858
			L66.681,137.701z M80.213,139.724c0.448-0.447,1.196-1.195,3.905,0.058c2.134,0.987,4.637,2.885,7.238,5.484
			c2.6,2.601,4.497,5.103,5.484,7.237c1.243,2.687,0.519,3.444,0.07,3.893l-2.546,2.547H77.679v-16.685L80.213,139.724
			L80.213,139.724z M180.968,72.337l-74.612,74.614c-1.578-3.059-3.998-6.236-7.224-9.462c-3.227-3.228-6.404-5.646-9.462-7.224
			l74.612-74.614c0.53-0.53,0.927-0.637,1.394-0.637c1.726,0,5.193,1.623,9.75,6.18C178.524,64.293,183.178,70.126,180.968,72.337z"
			/>
	</g>
</g>
</svg>
