<?xml version="1.0" encoding="iso-8859-1"?>
<!-- Generator: Adobe Illustrator 15.0.0, SVG Export Plug-In . SVG Version: 6.00 Build 0)  -->
<!DOCTYPE svg PUBLIC "-//W3C//DTD SVG 1.1//EN" "http://www.w3.org/Graphics/SVG/1.1/DTD/svg11.dtd">
<svg version="1.1" id="_x31__x5F_General_x5F_SaveAs"
	 xmlns="http://www.w3.org/2000/svg" xmlns:xlink="http://www.w3.org/1999/xlink" x="0px" y="0px" width="538.583px"
	 height="283.465px" viewBox="0 0 538.583 283.465" style="enable-background:new 0 0 538.583 283.465;" xml:space="preserve">
<path style="fill:#FFFFFF;" d="M368.9,43.643c-6.252-6.251-12.163-9.421-17.566-9.421c-3.482,0-6.661,1.337-9.19,3.865
	l-43.587,43.588H180.242v113.342l34.59,34.592h113.477v-113.06L374.456,70.4C377.643,67.213,383.482,58.225,368.9,43.643z
	 M280.353,213.073h-46.285v-32.591h46.285V213.073z M311.773,213.073h-20.397V169.46h-68.331v43.613h-1.364l-24.904-24.906V98.21
	h85.245l-29.909,29.91v32.312h32.313l5.768-5.768l0,0.001c0.006-0.008,0.014-0.015,0.02-0.021l21.559-21.56V213.073z
	 M265.675,130.147c0.449-0.448,1.199-1.198,3.914,0.057c2.139,0.99,4.648,2.892,7.255,5.498c2.605,2.606,4.507,5.113,5.497,7.254
	c1.245,2.692,0.52,3.451,0.07,3.9l-2.552,2.554h-16.724v-16.724L265.675,130.147L265.675,130.147z M366.661,62.606l-74.782,74.784
	c-1.582-3.066-4.007-6.251-7.24-9.483c-3.234-3.234-6.419-5.659-9.484-7.24l74.783-74.785c0.531-0.532,0.928-0.638,1.396-0.638
	c1.729,0,5.205,1.627,9.771,6.193C364.211,54.544,368.876,60.391,366.661,62.606z"/>
</svg>
