<?xml version="1.0" encoding="UTF-8" standalone="no"?>
<!-- Generator: Adobe Illustrator 15.0.0, SVG Export Plug-In . SVG Version: 6.00 Build 0)  -->

<svg
   xmlns:dc="http://purl.org/dc/elements/1.1/"
   xmlns:cc="http://creativecommons.org/ns#"
   xmlns:rdf="http://www.w3.org/1999/02/22-rdf-syntax-ns#"
   xmlns:svg="http://www.w3.org/2000/svg"
   xmlns="http://www.w3.org/2000/svg"
   xmlns:sodipodi="http://sodipodi.sourceforge.net/DTD/sodipodi-0.dtd"
   xmlns:inkscape="http://www.inkscape.org/namespaces/inkscape"
   version="1.1"
   id="_x31__x5F_General_x5F_Advanced"
   x="0px"
   y="0px"
   width="409.57999"
   height="283.465"
   viewBox="0 0 409.57998 283.465"
   xml:space="preserve"
   inkscape:version="0.48.3.1 r9886"
   sodipodi:docname="1_General_Advanced.svg"><metadata
   id="metadata3029"><rdf:RDF><cc:Work
       rdf:about=""><dc:format>image/svg+xml</dc:format><dc:type
         rdf:resource="http://purl.org/dc/dcmitype/StillImage" /><dc:title></dc:title></cc:Work></rdf:RDF></metadata><defs
   id="defs3027" /><sodipodi:namedview
   pagecolor="#ffffff"
   bordercolor="#666666"
   borderopacity="1"
   objecttolerance="10"
   gridtolerance="10"
   guidetolerance="10"
   inkscape:pageopacity="0"
   inkscape:pageshadow="2"
   inkscape:window-width="1097"
   inkscape:window-height="713"
   id="namedview3025"
   showgrid="false"
   inkscape:zoom="0.62942944"
   inkscape:cx="269.2915"
   inkscape:cy="141.7325"
   inkscape:window-x="7"
   inkscape:window-y="24"
   inkscape:window-maximized="0"
   inkscape:current-layer="_x31__x5F_General_x5F_Advanced" />
<path
   style="fill:#ffffff"
   d="m 277.15099,119.609 c 8.276,-1.444 17.374,-3.034 18.903,-3.316 -0.425,-2.477 -2.675,-15.194 -3.106,-17.668 -1.518,0.284 -10.624,1.877 -18.908,3.322 -2.159,-5.58 -5.381,-10.661 -9.53,-14.989 4.822,-6.876 10.127,-14.442 11.015,-15.726 -2.05,-1.429 -12.624,-8.837 -14.684,-10.294 -0.896,1.279 -6.202,8.851 -11.024,15.723 -5.479,-2.425 -11.348,-3.715 -17.331,-3.852 -1.445,-8.268 -3.065,-17.382 -3.321,-18.913 -2.481,0.452 -15.191,2.677 -17.681,3.124 0.275,1.526 1.875,10.609 3.337,18.882 -5.604,2.171 -10.675,5.406 -14.993,9.541 -6.872,-4.832 -14.442,-10.106 -15.719,-11.011 -1.438,2.063 -8.851,12.62 -10.294,14.697 1.277,0.879 8.832,6.195 15.712,11.012 -2.415,5.457 -3.726,11.339 -3.859,17.326 -8.278,1.478 -17.382,3.077 -18.893,3.321 0.431,2.508 2.672,15.206 3.096,17.68 1.535,-0.285 10.625,-1.858 18.9,-3.319 2.167,5.577 5.396,10.659 9.546,14.983 -4.831,6.898 -10.144,14.455 -11.022,15.713 2.059,1.449 12.632,8.849 14.699,10.31 0.89,-1.276 6.178,-8.832 11.007,-15.738 5.472,2.441 11.35,3.74 17.343,3.869 1.461,8.285 3.054,17.382 3.326,18.91 2.466,-0.45 15.191,-2.673 17.672,-3.106 -0.264,-1.543 -1.875,-10.624 -3.334,-18.888 5.595,-2.179 10.674,-5.395 14.991,-9.555 6.888,4.818 14.442,10.131 15.721,11.012 1.444,-2.059 8.849,-12.634 10.284,-14.678 -1.254,-0.896 -8.831,-6.204 -15.697,-11.018 2.409,-5.503 3.704,-11.34 3.844,-17.354 z m -45.729,13.523 c -8.051,0 -14.609,-6.532 -14.609,-14.58 0,-8.055 6.558,-14.576 14.609,-14.576 8.035,0 14.578,6.521 14.578,14.576 0,8.048 -6.543,14.58 -14.578,14.58 z m -57.152,33.346 c 4.508,-4.101 9.479,-8.617 10.319,-9.376 -1.237,-1.351 -7.538,-8.292 -8.766,-9.646 -0.848,0.76 -5.81,5.276 -10.309,9.393 -3.506,-2.603 -7.463,-4.465 -11.689,-5.512 0.283,-6.094 0.605,-12.795 0.657,-13.929 -1.827,-0.101 -11.2,-0.548 -13.026,-0.616 -0.034,1.113 -0.374,7.825 -0.653,13.934 -4.309,0.627 -8.41799,2.127 -12.14499,4.366 -4.102,-4.514 -8.619,-9.484 -9.382,-10.313 -1.345,1.228 -8.301,7.536 -9.645,8.769 0.748,0.835 5.28,5.811 9.373,10.308 -2.583,3.501 -4.443,7.47 -5.487,11.686 -6.111,-0.298 -12.801,-0.61 -13.930005,-0.662 -0.083,1.826 -0.53,11.188 -0.63,13.015 1.136005,0.07 7.835005,0.37 13.946005,0.664 0.62,4.301 2.115,8.416 4.364,12.136 -4.523,4.1 -9.497,8.633 -10.317,9.384 1.221,1.375 7.547,8.297 8.773,9.642 0.823,-0.746 5.794,-5.259 10.32,-9.374 3.495,2.58 7.444,4.46 11.66199,5.506 -0.292,6.092 -0.613,12.801 -0.666,13.93 1.827,0.082 11.208,0.515 13.026,0.614 0.057,-1.131 0.365,-7.819 0.672,-13.933 4.292,-0.645 8.402,-2.127 12.152,-4.363 4.101,4.517 8.609,9.463 9.379,10.325 1.346,-1.243 8.278,-7.547 9.624,-8.803 -0.748,-0.808 -5.272,-5.789 -9.357,-10.289 2.582,-3.505 4.433,-7.47 5.478,-11.686 6.104,0.301 12.802,0.615 13.938,0.663 0.084,-1.827 0.524,-11.189 0.614,-13.016 -1.136,-0.066 -7.835,-0.378 -13.92,-0.659 -0.646,-4.328 -2.141,-8.423 -4.375,-12.158 z m -18.171,19.44 c -1.277,5.712 -6.955,9.292 -12.65,8.019 -5.71,-1.277 -9.31299,-6.969 -8.02799,-12.667 1.28699,-5.712 6.98099,-9.294 12.68599,-8.035 5.684,1.294 9.289,6.973 7.992,12.683 z"
   id="path3023"
   inkscape:connector-curvature="0" />
</svg>