<?xml version="1.0" encoding="iso-8859-1"?>
<!-- Generator: Adobe Illustrator 15.0.0, SVG Export Plug-In . SVG Version: 6.00 Build 0)  -->
<!DOCTYPE svg PUBLIC "-//W3C//DTD SVG 1.1//EN" "http://www.w3.org/Graphics/SVG/1.1/DTD/svg11.dtd">
<svg version="1.1" id="_x31__x5F_General_x5F_Backup"
	 xmlns="http://www.w3.org/2000/svg" xmlns:xlink="http://www.w3.org/1999/xlink" x="0px" y="0px" width="538.583px"
	 height="283.465px" viewBox="0 0 538.583 283.465" style="enable-background:new 0 0 538.583 283.465;" xml:space="preserve">
<g>
	<g>
		<path style="fill:#FFFFFF;" d="M224.302,136.753l34.679,59.151l5.187-5.344c0.269-0.276,26.61-26.953,64.854-36.491l24.305,36.118
			l20.297-78.268L278.35,78.775l17.632,26.198c-39.815,9.089-66.308,27.913-67.489,28.764L224.302,136.753z M239.425,140.129
			c9.601-5.954,34.483-19.775,67.002-25.731l8.515-1.56l-8.196-12.18l53.277,18.535l-11.351,43.77l-14.569-21.65l-3.753,0.809
			c-33.398,7.19-58.436,26.329-68.934,35.519L239.425,140.129z"/>
	</g>
	<g>
		<path style="fill:#FFFFFF;" d="M270.271,196.483l-5.188,5.344l-6.379,6.573v4.2H149.21V98.648l27.783-27.782h81.709v37.198
			c5.2-2.171,10.888-4.316,17.008-6.303V53.858H169.949l-37.746,37.745v138.005H275.71v-38.026
			C272.247,194.508,270.33,196.424,270.271,196.483z"/>
	</g>
	<g>
		<polygon style="fill:#FFFFFF;" points="354.458,185.819 350.386,185.819 353.326,190.188 		"/>
		<polygon style="fill:#FFFFFF;" points="330.234,53.858 305.037,79.055 316.933,83.193 334.93,65.197 405.129,65.197 
			405.129,185.819 363.244,185.819 361.557,192.322 360.303,197.158 416.468,197.158 416.468,53.858 		"/>
		<path style="fill:#FFFFFF;" d="M346.27,194.936l-6.135-9.116h-29.34v-16.412c-4.024,1.806-7.809,3.748-11.339,5.731v22.02h48.31
			L346.27,194.936z"/>
	</g>
</g>
</svg>
