<?xml version="1.0" encoding="iso-8859-1"?>
<!-- Generator: Adobe Illustrator 15.0.0, SVG Export Plug-In . SVG Version: 6.00 Build 0)  -->
<!DOCTYPE svg PUBLIC "-//W3C//DTD SVG 1.1//EN" "http://www.w3.org/Graphics/SVG/1.1/DTD/svg11.dtd">
<svg version="1.1" id="_x31__x5F_General_x5F_ConveyorBelt_x5F_Pause"
	 xmlns="http://www.w3.org/2000/svg" xmlns:xlink="http://www.w3.org/1999/xlink" x="0px" y="0px" width="538.583px"
	 height="283.465px" viewBox="0 0 538.583 283.465" style="enable-background:new 0 0 538.583 283.465;" xml:space="preserve">
<g>
	<g>
		<path style="fill:#FFFFFF;" d="M416.191,172.397c12.647,0,22.937,10.289,22.937,22.937c0,12.646-10.289,22.936-22.937,22.936
			H127.125c-12.647,0-22.937-10.289-22.937-22.936c0-12.647,10.29-22.937,22.937-22.937H416.191 M416.191,161.059H127.125
			c-18.93,0-34.275,15.346-34.275,34.275c0,18.929,15.345,34.274,34.275,34.274h289.065c18.931,0,34.275-15.346,34.275-34.274
			C450.466,176.404,435.122,161.059,416.191,161.059L416.191,161.059z"/>
		<circle style="fill:#FFFFFF;" cx="127.125" cy="195.334" r="14.173"/>
		<circle style="fill:#FFFFFF;" cx="416.191" cy="195.333" r="14.173"/>
	</g>
	<rect x="236.359" y="53.858" style="fill:#FFFFFF;" width="70.597" height="70.598"/>
</g>
</svg>
