<?xml version="1.0" encoding="iso-8859-1"?>
<!-- Generator: Adobe Illustrator 15.0.0, SVG Export Plug-In . SVG Version: 6.00 Build 0)  -->
<!DOCTYPE svg PUBLIC "-//W3C//DTD SVG 1.1//EN" "http://www.w3.org/Graphics/SVG/1.1/DTD/svg11.dtd">
<svg version="1.1" id="_x31__x5F_General_x5F_Status"
	 xmlns="http://www.w3.org/2000/svg" xmlns:xlink="http://www.w3.org/1999/xlink" x="0px" y="0px" width="538.583px"
	 height="283.465px" viewBox="0 0 538.583 283.465" style="enable-background:new 0 0 538.583 283.465;" xml:space="preserve">
<g>
	<g>
		<path style="fill:#FFFFFF;" d="M297.05,49.249c-35.75,0-64.746,28.949-64.767,64.737c0.01,16.634,6.296,31.799,16.611,43.266
			l-3.471,3.47l3.212,3.241l-6.701-6.716l-65.55,60.836l16.544,16.572l60.813-65.575l-3.439-3.447l3.491-3.486
			c11.47,10.306,26.63,16.582,43.258,16.582c35.762,0,64.756-28.988,64.777-64.742C361.806,78.198,332.812,49.249,297.05,49.249z
			 M297.05,164.846c-28.099-0.011-50.822-22.785-50.865-50.859c0.043-28.127,22.767-50.843,50.865-50.882
			c28.108,0.039,50.829,22.755,50.898,50.882C347.879,142.061,325.159,164.835,297.05,164.846z"/>
	</g>
</g>
</svg>
