<?xml version="1.0" encoding="iso-8859-1"?>
<!-- Generator: Adobe Illustrator 15.0.0, SVG Export Plug-In . SVG Version: 6.00 Build 0)  -->
<!DOCTYPE svg PUBLIC "-//W3C//DTD SVG 1.1//EN" "http://www.w3.org/Graphics/SVG/1.1/DTD/svg11.dtd">
<svg version="1.1" id="_x31__x5F_General_x5F_Speed"
	 xmlns="http://www.w3.org/2000/svg" xmlns:xlink="http://www.w3.org/1999/xlink" x="0px" y="0px" width="538.583px"
	 height="283.465px" viewBox="0 0 538.583 283.465" style="enable-background:new 0 0 538.583 283.465;" xml:space="preserve">
<g>
	<path style="fill:#FFFFFF;" d="M278.764,53.858c-48.532,0-87.875,39.343-87.875,87.876c0,48.531,39.343,87.874,87.875,87.874
		c48.535,0,87.878-39.343,87.878-87.874C366.642,93.201,327.298,53.858,278.764,53.858z M278.764,212.601
		c-39.076,0-70.867-31.79-70.867-70.866c0-39.077,31.791-70.868,70.867-70.868c39.08,0,70.871,31.791,70.871,70.868
		C349.634,180.811,317.843,212.601,278.764,212.601z"/>
	<path style="fill:#FFFFFF;" d="M278.764,79.371V90.71c28.137,0,51.027,22.89,51.027,51.024h11.339
		C341.129,107.347,313.154,79.371,278.764,79.371z"/>
	<path style="fill:#FFFFFF;" d="M276.696,133.163c-1.04,0.248-2.054,0.682-2.986,1.326c-3.982,2.772-4.974,8.279-2.212,12.283
		c2.796,4.005,8.304,4.984,12.329,2.189c0.86-0.599,1.571-1.331,2.145-2.143l32.045-32.011L276.696,133.163z"/>
</g>
</svg>
