<?xml version="1.0" encoding="iso-8859-1"?>
<!-- Generator: Adobe Illustrator 15.0.0, SVG Export Plug-In . SVG Version: 6.00 Build 0)  -->
<!DOCTYPE svg PUBLIC "-//W3C//DTD SVG 1.1//EN" "http://www.w3.org/Graphics/SVG/1.1/DTD/svg11.dtd">
<svg version="1.1" id="_x31__x5F_General_x5F_Edit_x5F_Program"
	 xmlns="http://www.w3.org/2000/svg" xmlns:xlink="http://www.w3.org/1999/xlink" x="0px" y="0px" width="538.583px"
	 height="283.465px" viewBox="0 0 538.583 283.465" style="enable-background:new 0 0 538.583 283.465;" xml:space="preserve">
<g>
	<g>
		<path style="fill:#FFFFFF;" d="M285.094,134.216v32.238h32.239l5.756-5.755v0.001c0.006-0.007,0.014-0.015,0.02-0.021l84.05-84.05
			c3.18-3.182,9.006-12.149-5.543-26.696c-6.238-6.238-12.136-9.401-17.526-9.401c-3.475,0-6.646,1.335-9.17,3.858L285.094,134.216z
			 M298.625,136.238c0.448-0.447,1.197-1.195,3.906,0.058c2.134,0.987,4.637,2.885,7.237,5.484c2.601,2.601,4.497,5.103,5.484,7.237
			c1.243,2.687,0.519,3.444,0.07,3.893l-2.546,2.547h-16.686v-16.685L298.625,136.238L298.625,136.238z M399.38,68.852
			l-74.611,74.614c-1.578-3.059-3.997-6.236-7.224-9.462c-3.227-3.228-6.404-5.646-9.463-7.224l74.612-74.614
			c0.53-0.53,0.927-0.637,1.394-0.637c1.727,0,5.193,1.623,9.75,6.18C396.937,60.808,401.591,66.641,399.38,68.852z"/>
	</g>
	<g>
		<g>
			<g>
				<path style="fill:#FFFFFF;" d="M290.167,103.493h-90.148c-4.697,0-8.504-3.808-8.504-8.504s3.807-8.504,8.504-8.504h90.148
					c4.696,0,8.503,3.808,8.503,8.504S294.863,103.493,290.167,103.493z"/>
			</g>
			<g>
				<circle style="fill:#FFFFFF;" cx="167.233" cy="94.989" r="8.504"/>
			</g>
			<g>
				<path style="fill:#FFFFFF;" d="M260.403,152.694h-60.384c-4.697,0-8.504-3.808-8.504-8.504s3.807-8.504,8.504-8.504h60.384
					c4.696,0,8.503,3.808,8.503,8.504S265.099,152.694,260.403,152.694z"/>
			</g>
			<g>
				<circle style="fill:#FFFFFF;" cx="167.233" cy="144.19" r="8.504"/>
			</g>
			<g>
				<path style="fill:#FFFFFF;" d="M290.167,201.896h-90.148c-4.697,0-8.504-3.808-8.504-8.504s3.807-8.504,8.504-8.504h90.148
					c4.696,0,8.503,3.808,8.503,8.504S294.863,201.896,290.167,201.896z"/>
			</g>
			<g>
				<circle style="fill:#FFFFFF;" cx="167.233" cy="193.392" r="8.504"/>
			</g>
		</g>
	</g>
</g>
</svg>
