<?xml version="1.0" encoding="iso-8859-1"?>
<!-- Generator: Adobe Illustrator 15.0.0, SVG Export Plug-In . SVG Version: 6.00 Build 0)  -->
<!DOCTYPE svg PUBLIC "-//W3C//DTD SVG 1.1//EN" "http://www.w3.org/Graphics/SVG/1.1/DTD/svg11.dtd">
<svg version="1.1" id="_x31__x5F_General_x5F_Alarm_x5F_Log"
	 xmlns="http://www.w3.org/2000/svg" xmlns:xlink="http://www.w3.org/1999/xlink" x="0px" y="0px" width="538.583px"
	 height="283.465px" viewBox="0 0 538.583 283.465" style="enable-background:new 0 0 538.583 283.465;" xml:space="preserve">
<path style="fill:#FFFFFF;" d="M200.801,106.328h60.172c3.131,0,5.669,2.538,5.669,5.669s-2.538,5.669-5.669,5.669h-60.172
	c-3.131,0-5.669-2.538-5.669-5.669S197.67,106.328,200.801,106.328z M249.642,176.386c0,3.131-2.538,5.669-5.669,5.669h-43.172
	c-3.131,0-5.669-2.538-5.669-5.669s2.538-5.669,5.669-5.669h43.172C247.104,170.717,249.642,173.255,249.642,176.386z
	 M243.973,149.86h-43.172c-3.131,0-5.669-2.538-5.669-5.669s2.538-5.669,5.669-5.669h43.172c3.131,0,5.669,2.538,5.669,5.669
	S247.104,149.86,243.973,149.86z"/>
<g>
	<path style="fill:#FFFFFF;" d="M243.973,170.717h-43.172c-3.131,0-5.669,2.538-5.669,5.669s2.538,5.669,5.669,5.669h43.172
		c3.131,0,5.669-2.538,5.669-5.669S247.104,170.717,243.973,170.717z"/>
	<path style="fill:#FFFFFF;" d="M243.973,138.522h-43.172c-3.131,0-5.669,2.538-5.669,5.669s2.538,5.669,5.669,5.669h43.172
		c3.131,0,5.669-2.538,5.669-5.669S247.104,138.522,243.973,138.522z"/>
	<path style="fill:#FFFFFF;" d="M266.642,111.997c0-3.131-2.538-5.669-5.669-5.669h-60.172c-3.131,0-5.669,2.538-5.669,5.669
		s2.538,5.669,5.669,5.669h60.172C264.104,117.666,266.642,115.128,266.642,111.997z"/>
	<path style="fill:#FFFFFF;" d="M408.655,151.997L350.8,51.768c-3.27-5.662-8.158-8.909-13.413-8.909s-10.144,3.248-13.413,8.911
		l-21.333,36.958V53.858H196.879l-37.746,37.745v138.005h143.508v-54.379h92.599c6.539,0,11.796-2.61,14.424-7.161
		C412.292,163.517,411.923,157.659,408.655,151.997z M285.633,212.601H176.141V98.648l27.783-27.782h81.709v47.325l-19.513,33.805
		c-3.269,5.663-3.637,11.521-1.009,16.072c2.628,4.551,7.885,7.161,14.424,7.161h6.098V212.601z M399.844,162.398
		c-0.397,0.688-1.842,1.493-4.604,1.493h-92.599h-17.008h-6.098c-2.763,0-4.207-0.805-4.604-1.493s-0.372-2.342,1.01-4.734
		l9.692-16.791l17.008-29.465l31.153-53.971c1.381-2.392,2.799-3.241,3.593-3.241c0.795,0,2.212,0.849,3.593,3.24l57.854,100.229
		C400.216,160.058,400.242,161.71,399.844,162.398z"/>
	<path style="fill:#FFFFFF;" d="M337.389,140.944c-3.845,0-6.961,3.155-6.961,6.971c0,3.854,3.116,6.97,6.961,6.97
		s6.958-3.115,6.958-6.97C344.347,144.1,341.234,140.944,337.389,140.944z"/>
	<path style="fill:#FFFFFF;" d="M337.388,136.888c2.769,0,4.998-2.239,4.998-4.989l1.229-43.821c0-3.473-2.79-6.26-6.228-6.26
		c-3.441,0-6.229,2.787-6.229,6.26l1.228,43.821C332.387,134.648,334.619,136.888,337.388,136.888z"/>
</g>
</svg>
