<?xml version="1.0" encoding="iso-8859-1"?>
<!-- Generator: Adobe Illustrator 15.0.0, SVG Export Plug-In . SVG Version: 6.00 Build 0)  -->
<!DOCTYPE svg PUBLIC "-//W3C//DTD SVG 1.1//EN" "http://www.w3.org/Graphics/SVG/1.1/DTD/svg11.dtd">
<svg version="1.1" id="_x31__x5F_General_x5F_Locked"
	 xmlns="http://www.w3.org/2000/svg" xmlns:xlink="http://www.w3.org/1999/xlink" x="0px" y="0px" width="538.583px"
	 height="283.465px" viewBox="0 0 538.583 283.465" style="enable-background:new 0 0 538.583 283.465;" xml:space="preserve">
<g>
	<g>
		<path style="fill:#FFFFFF;" d="M315.964,122.193V92.32c0-25.964-21.047-47.012-47.011-47.012
			c-25.963,0-47.011,21.048-47.011,47.012v29.873h-20.881v107.414h135.783V122.193H315.964z M239.778,92.32
			c0-16.088,13.088-29.177,29.176-29.177c16.087,0,29.176,13.089,29.176,29.177v29.873h-58.352V92.32z M247.458,207.628
			l13.785-34.724c-5.722-2.454-9.67-7.425-9.67-13.266c0-8.206,7.789-14.858,17.38-14.858c9.582,0,17.352,6.652,17.352,14.858
			c0,5.841-3.939,10.812-9.651,13.266l13.795,34.724H247.458z"/>
	</g>
</g>
</svg>
