<?xml version="1.0" encoding="iso-8859-1"?>
<!-- Generator: Adobe Illustrator 15.0.0, SVG Export Plug-In . SVG Version: 6.00 Build 0)  -->
<!DOCTYPE svg PUBLIC "-//W3C//DTD SVG 1.1//EN" "http://www.w3.org/Graphics/SVG/1.1/DTD/svg11.dtd">
<svg version="1.1" id="_x31__x5F_General_x5F_Text_x5F_Input"
	 xmlns="http://www.w3.org/2000/svg" xmlns:xlink="http://www.w3.org/1999/xlink" x="0px" y="0px" width="538.583px"
	 height="283.465px" viewBox="0 0 538.583 283.465" style="enable-background:new 0 0 538.583 283.465;" xml:space="preserve">
<g>
	<polygon style="fill:#FFFFFF;" points="393.033,68.044 404.679,73.4 409.417,63.1 370.049,44.992 365.311,55.293 381.695,62.829 
		381.695,213.473 370.049,208.116 365.311,218.417 404.679,236.524 409.417,226.224 393.033,218.688 	"/>
	<g>
		<path style="fill:#FFFFFF;" d="M154.767,164.265l-6.58,24.22h-22.12l28.84-94.359h27.86l29.4,94.359h-22.96l-7.28-24.22H154.767z
			 M178.707,148.305l-5.88-20.02c-1.54-5.601-3.22-12.74-4.62-18.2h-0.42c-1.26,5.6-2.8,12.739-4.2,18.2l-5.74,20.02H178.707z"/>
		<path style="fill:#FFFFFF;" d="M223.382,89.085h21.28v39.06h0.279c4.061-5.88,11.2-9.66,20.72-9.66
			c16.381,0,28.28,13.58,28.141,34.58c0,24.641-15.54,36.96-31.22,36.96c-7.98,0-15.82-2.94-20.58-11.06h-0.28l-0.84,9.52h-18.061
			c0.28-4.48,0.561-12.74,0.561-20.439V89.085z M244.663,159.364c0,1.4,0.14,2.66,0.42,3.78c1.399,5.6,6.3,10.08,12.46,10.08
			c9.1,0,14.699-7,14.699-19.32c0-10.64-4.76-19.039-14.699-19.039c-5.74,0-11.061,4.34-12.46,10.5c-0.28,1.26-0.42,2.52-0.42,3.92
			V159.364z"/>
		<path style="fill:#FFFFFF;" d="M358.891,186.805c-3.78,1.82-10.92,3.22-19.04,3.22c-22.12,0-36.26-13.58-36.26-35.14
			c0-20.02,13.72-36.4,39.199-36.4c5.601,0,11.761,0.98,16.24,2.66l-3.359,15.82c-2.521-1.12-6.301-2.1-11.9-2.1
			c-11.2,0-18.479,7.979-18.34,19.18c0,12.6,8.399,19.319,18.76,19.319c5.04,0,8.96-0.84,12.18-2.239L358.891,186.805z"/>
	</g>
</g>
</svg>
