<?xml version="1.0" encoding="iso-8859-1"?>
<!-- Generator: Adobe Illustrator 15.0.0, SVG Export Plug-In . SVG Version: 6.00 Build 0)  -->
<!DOCTYPE svg PUBLIC "-//W3C//DTD SVG 1.1//EN" "http://www.w3.org/Graphics/SVG/1.1/DTD/svg11.dtd">
<svg version="1.1" id="_x31__x5F_General_x5F_Delete_x5F_Program"
	 xmlns="http://www.w3.org/2000/svg" xmlns:xlink="http://www.w3.org/1999/xlink" x="0px" y="0px" width="538.583px"
	 height="283.465px" viewBox="0 0 538.583 283.465" style="enable-background:new 0 0 538.583 283.465;" xml:space="preserve">
<g>
	<g>
		<g>
			<g>
				<path style="fill:#FFFFFF;" d="M261.82,103.493h-61.802c-4.697,0-8.504-3.808-8.504-8.504s3.807-8.504,8.504-8.504h61.802
					c4.696,0,8.503,3.808,8.503,8.504S266.517,103.493,261.82,103.493z"/>
			</g>
			<g>
				<circle style="fill:#FFFFFF;" cx="167.233" cy="94.989" r="8.504"/>
			</g>
			<g>
				<path style="fill:#FFFFFF;" d="M261.82,152.694h-61.802c-4.697,0-8.504-3.808-8.504-8.504s3.807-8.504,8.504-8.504h61.802
					c4.696,0,8.503,3.808,8.503,8.504S266.517,152.694,261.82,152.694z"/>
			</g>
			<g>
				<circle style="fill:#FFFFFF;" cx="167.233" cy="144.19" r="8.504"/>
			</g>
			<g>
				<path style="fill:#FFFFFF;" d="M290.167,201.896h-90.148c-4.697,0-8.504-3.808-8.504-8.504s3.807-8.504,8.504-8.504h90.148
					c4.696,0,8.503,3.808,8.503,8.504S294.863,201.896,290.167,201.896z"/>
			</g>
			<g>
				<circle style="fill:#FFFFFF;" cx="167.233" cy="193.392" r="8.504"/>
			</g>
		</g>
	</g>
	<path style="fill:#FFFFFF;" d="M352.307,59.145l12.026,12.026l-24.801,24.8l24.801,24.801l-12.026,12.026l-24.801-24.801
		l-24.8,24.801l-12.027-12.026l24.8-24.801l-24.799-24.799l12.027-12.026l24.799,24.799L352.307,59.145 M352.307,43.109
		l-8.018,8.018l-16.783,16.782l-16.781-16.781l-8.018-8.018l-8.018,8.018l-12.027,12.026l-8.018,8.018l8.018,8.018l16.782,16.781
		l-16.783,16.783l-8.018,8.018l8.018,8.018l12.027,12.026l8.018,8.018l8.018-8.018l16.782-16.783l16.783,16.783l8.018,8.018
		l8.018-8.018l12.026-12.026l8.018-8.018l-8.018-8.018l-16.783-16.783l16.783-16.782l8.018-8.018l-8.018-8.018l-12.026-12.026
		L352.307,43.109L352.307,43.109z"/>
</g>
</svg>
