<?xml version="1.0" encoding="iso-8859-1"?>
<!-- Generator: Adobe Illustrator 15.0.0, SVG Export Plug-In . SVG Version: 6.00 Build 0)  -->
<!DOCTYPE svg PUBLIC "-//W3C//DTD SVG 1.1//EN" "http://www.w3.org/Graphics/SVG/1.1/DTD/svg11.dtd">
<svg version="1.1" id="_x31__x5F_General_x5F_Cut_x5F_Unit"
	 xmlns="http://www.w3.org/2000/svg" xmlns:xlink="http://www.w3.org/1999/xlink" x="0px" y="0px" width="538.583px"
	 height="283.465px" viewBox="0 0 538.583 283.465" style="enable-background:new 0 0 538.583 283.465;" xml:space="preserve">
<path style="fill:#FFFFFF;" d="M410.458,114.864l-8.191-11.129l-17.576-2.721l11.282,15.384l-37.26-5.725l11.26,15.343
	l-37.264-5.721l11.246,15.369l-37.25-5.694l11.259,15.316l-37.264-5.721l11.259,15.393l-37.263-5.747l11.285,15.316l-37.289-5.708
	l11.259,15.383l-37.263-5.722l11.262,15.344l-37.28-5.725l11.276,15.347l-53.323-8.168l-3.158-3.434l-38.863,13.705l24.689,26.781
	l42.23,6.502l-11.285-15.367l37.29,5.695l-11.272-15.343l37.263,5.721l-11.272-15.344l37.289,5.725l-11.286-15.346l37.29,5.697
	l-11.272-15.343l37.275,5.721l-11.271-15.342l37.274,5.72l-11.27-15.339l37.273,5.69l-11.258-15.339l37.275,5.72l-11.272-15.368
	l37.263,5.746l-11.259-15.342l41.149,6.295L410.458,114.864z M141.843,178.207l27.979,4.289l-8.244-11.258l-3.015-4.107
	l10.206,1.561l27.056,4.157l-7.985-10.867l-3.273-4.499l11.129,1.69l26.143,4.03l-7.722-10.506l-3.549-4.811l12.015,1.819
	l25.247,3.875l-7.438-10.144l-3.795-5.227l12.926,1.979l24.311,3.745l-7.152-9.78l-4.107-5.565l13.862,2.135l23.414,3.576
	l-6.902-9.403l-4.344-5.927l14.756,2.235l22.508,3.459l-6.643-9.024l-4.619-6.318l15.631,2.42l21.622,3.302l-6.358-8.66
	l-4.913-6.656l16.59,2.51l20.686,3.184l-6.1-8.32l-5.149-7.018l17.474,2.676l11.419,1.729l8.347,1.288l-5.462-7.436l-5.787-7.88
	l41.334,6.318l-7.397-10.376l-16.538-22.544L119.116,156.466l19.553,21.233L141.843,178.207z M375.992,95.62l-0.339-0.053
	l0.103,0.133L375.992,95.62z"/>
</svg>
