<?xml version="1.0" encoding="iso-8859-1"?>
<!-- Generator: Adobe Illustrator 15.0.0, SVG Export Plug-In . SVG Version: 6.00 Build 0)  -->
<!DOCTYPE svg PUBLIC "-//W3C//DTD SVG 1.1//EN" "http://www.w3.org/Graphics/SVG/1.1/DTD/svg11.dtd">
<svg version="1.1" id="_x31__x5F_General_x5F_Weight"
	 xmlns="http://www.w3.org/2000/svg" xmlns:xlink="http://www.w3.org/1999/xlink" x="0px" y="0px" width="538.583px"
	 height="283.465px" viewBox="0 0 538.583 283.465" style="enable-background:new 0 0 538.583 283.465;" xml:space="preserve">
<g>
	<path style="fill:#FFFFFF;" d="M325.014,106.988h-16.063V91.581l-0.003-0.271c-0.44-12.954-8.89-37.451-37.72-37.451
		c-28.686,0-37.715,25.069-38.483,38.325l-0.011,15.16h-15.81L174.708,229.07h194.961L325.014,106.988z M229.028,124.352h3.707
		h16.996l0.013-16.996l0.01-14.599c0.306-3.874,1.87-9.831,5.375-14.507c3.776-5.037,8.891-7.384,16.101-7.384
		c7.255,0,12.297,2.231,15.869,7.023c3.33,4.469,4.686,10.192,4.846,13.822v15.276v17.008h17.008h4.174l32.213,88.066h-146.73
		L229.028,124.352z"/>
	<path style="fill:#FFFFFF;" d="M271.491,83.214c-8.244,0-8.755,12.187-8.755,12.187v11.36l17.289,0.048V94.976
		C280.024,94.976,279.733,83.214,271.491,83.214z"/>
</g>
</svg>
