<?xml version="1.0" encoding="iso-8859-1"?>
<!-- Generator: Adobe Illustrator 15.0.0, SVG Export Plug-In . SVG Version: 6.00 Build 0)  -->
<!DOCTYPE svg PUBLIC "-//W3C//DTD SVG 1.1//EN" "http://www.w3.org/Graphics/SVG/1.1/DTD/svg11.dtd">
<svg version="1.1" id="_x31__x5F_General_x5F_Alarm"
	 xmlns="http://www.w3.org/2000/svg" xmlns:xlink="http://www.w3.org/1999/xlink" x="0px" y="0px" width="538.583px"
	 height="283.465px" viewBox="0 0 538.583 283.465" style="enable-background:new 0 0 538.583 283.465;" xml:space="preserve">
<g>
	<path style="fill:#FFFFFF;" d="M277.387,70.869c0.308,0.081,1.651,0.849,3.079,3.321l76.814,133.075
		c1.465,2.538,1.421,4.099,1.353,4.313c-0.172,0.203-1.503,1.022-4.434,1.022H231.254h-22.582h-8.096
		c-2.931,0-4.262-0.819-4.413-0.985c-0.09-0.25-0.134-1.811,1.332-4.352l25.906-44.882l22.582-39.12l28.324-49.068
		C275.737,71.719,277.08,70.95,277.387,70.869 M277.387,53.858c-6.978,0-13.468,4.313-17.809,11.831l-28.324,49.069l-22.582,39.12
		l-25.907,44.883c-4.34,7.519-4.829,15.295-1.34,21.339c3.489,6.042,10.469,9.508,19.151,9.508h8.096h22.582h122.944
		c8.682,0,15.661-3.466,19.15-9.508c3.489-6.044,3-13.82-1.34-21.338L295.196,65.688C290.855,58.17,284.364,53.858,277.387,53.858
		L277.387,53.858z"/>
	<path style="fill:#FFFFFF;" d="M277.39,184.088c-5.105,0-9.242,4.189-9.242,9.255c0,5.118,4.137,9.254,9.242,9.254
		c5.104,0,9.237-4.136,9.237-9.254C286.627,188.277,282.495,184.088,277.39,184.088z"/>
	<path style="fill:#FFFFFF;" d="M277.388,178.702c3.676,0,6.636-2.974,6.636-6.625l1.633-58.182c0-4.61-3.704-8.311-8.269-8.311
		c-4.569,0-8.27,3.7-8.27,8.311l1.63,58.182C270.749,175.729,273.711,178.702,277.388,178.702z"/>
</g>
</svg>
