<?xml version="1.0" encoding="UTF-8" standalone="no"?>
<!-- Generator: Adobe Illustrator 15.0.0, SVG Export Plug-In . SVG Version: 6.00 Build 0)  -->

<svg
   xmlns:dc="http://purl.org/dc/elements/1.1/"
   xmlns:cc="http://creativecommons.org/ns#"
   xmlns:rdf="http://www.w3.org/1999/02/22-rdf-syntax-ns#"
   xmlns:svg="http://www.w3.org/2000/svg"
   xmlns="http://www.w3.org/2000/svg"
   xmlns:sodipodi="http://sodipodi.sourceforge.net/DTD/sodipodi-0.dtd"
   xmlns:inkscape="http://www.inkscape.org/namespaces/inkscape"
   version="1.1"
   id="_x31__x5F_General_x5F_Authorities"
   x="0px"
   y="0px"
   width="409.57999"
   height="283.465"
   viewBox="0 0 409.57998 283.465"
   xml:space="preserve"
   inkscape:version="0.48.3.1 r9886"
   sodipodi:docname="1_General_Authorities.svg"><metadata
   id="metadata3208"><rdf:RDF><cc:Work
       rdf:about=""><dc:format>image/svg+xml</dc:format><dc:type
         rdf:resource="http://purl.org/dc/dcmitype/StillImage" /><dc:title></dc:title></cc:Work></rdf:RDF></metadata><defs
   id="defs3206" /><sodipodi:namedview
   pagecolor="#ffffff"
   bordercolor="#666666"
   borderopacity="1"
   objecttolerance="10"
   gridtolerance="10"
   guidetolerance="10"
   inkscape:pageopacity="0"
   inkscape:pageshadow="2"
   inkscape:window-width="1103"
   inkscape:window-height="857"
   id="namedview3204"
   showgrid="false"
   inkscape:zoom="0.60157858"
   inkscape:cx="308.5155"
   inkscape:cy="141.7325"
   inkscape:window-x="0"
   inkscape:window-y="24"
   inkscape:window-maximized="0"
   inkscape:current-layer="_x31__x5F_General_x5F_Authorities" />
<g
   id="g3198"
   transform="translate(-76.500005,0)">
	<path
   style="fill:#ffffff"
   d="m 269.292,53.858 c -48.532,0 -87.876,39.343 -87.876,87.875 0,48.532 39.344,87.875 87.876,87.875 48.53,0 87.874,-39.343 87.874,-87.875 0,-48.532 -39.343,-87.875 -87.874,-87.875 z m 0,164.412 c -42.203,0 -76.538,-34.334 -76.538,-76.536 0,-42.202 34.335,-76.536 76.538,-76.536 42.202,0 76.535,34.334 76.535,76.536 0,42.202 -34.332,76.536 -76.535,76.536 z"
   id="path3200"
   inkscape:connector-curvature="0" />
	<path
   style="fill:#ffffff"
   d="m 301.122,142.912 c 0,-5.99 -1.817,-10.896 -5.449,-14.719 -3.633,-3.824 -10.313,-7.84 -20.042,-12.045 -5.479,-2.336 -9.526,-4.502 -12.139,-6.5 -2.612,-1.996 -3.919,-3.887 -3.919,-5.67 0,-2.508 0.902,-4.504 2.709,-5.992 1.805,-1.486 4.237,-2.229 7.296,-2.229 2.845,0 5.098,0.881 6.754,2.645 1.657,1.762 2.486,4.152 2.486,7.168 h 17.269 c 0,-7.307 -2.39,-13.096 -7.169,-17.363 -4.78,-4.271 -11.226,-6.404 -19.34,-6.404 -8.115,0 -14.55,2.166 -19.308,6.498 -4.758,4.334 -7.137,10.195 -7.137,17.588 0,5.268 2.06,10.047 6.181,14.338 l 0.192,0.127 c -1.233,0.553 -2.38,1.189 -3.442,1.912 -5.734,3.824 -8.603,9.008 -8.603,15.549 0,6.457 1.688,11.471 5.066,15.039 3.377,3.568 10.396,7.752 21.06,12.553 5.649,2.549 9.824,4.885 12.521,7.01 2.698,2.123 4.046,4.143 4.046,6.053 0,2.846 -0.946,5.098 -2.835,6.756 -1.892,1.656 -4.451,2.484 -7.679,2.484 -3.356,0 -6.012,-1.041 -7.966,-3.123 -1.955,-2.082 -2.931,-4.906 -2.931,-8.475 h -16.886 c 0,7.816 2.495,14.029 7.487,18.639 4.992,4.61 11.756,6.914 20.296,6.914 8.496,0 15.24,-2.262 20.231,-6.785 4.992,-4.525 7.488,-10.633 7.488,-18.32 0,-5.184 -2.146,-9.984 -6.437,-14.402 l -2.42,-2.23 c 1.443,-0.594 2.781,-1.295 4.014,-2.104 5.737,-3.697 8.606,-8.668 8.606,-14.912 z m -20.583,9.813 -1.465,0.766 c -2.464,-1.402 -5.205,-2.783 -8.221,-4.143 -7.137,-3.229 -11.747,-5.756 -13.829,-7.582 -2.081,-1.826 -3.122,-4.291 -3.122,-7.393 0,-2.932 1.38,-5.246 4.141,-6.945 l 0.384,-0.254 c 2.93,1.783 6.329,3.504 10.195,5.16 5.904,2.549 10.057,4.875 12.457,6.979 2.4,2.102 3.601,4.492 3.601,7.168 10e-4,2.634 -1.381,4.714 -4.141,6.244 z"
   id="path3202"
   inkscape:connector-curvature="0" />
</g>
</svg>