<?xml version="1.0" encoding="iso-8859-1"?>
<!-- Generator: Adobe Illustrator 15.0.0, SVG Export Plug-In . SVG Version: 6.00 Build 0)  -->
<!DOCTYPE svg PUBLIC "-//W3C//DTD SVG 1.1//EN" "http://www.w3.org/Graphics/SVG/1.1/DTD/svg11.dtd">
<svg version="1.1" id="_x31__x5F_General_x5F_Weight_x5F_Min_x5F_Limit"
	 xmlns="http://www.w3.org/2000/svg" xmlns:xlink="http://www.w3.org/1999/xlink" x="0px" y="0px" width="538.583px"
	 height="283.465px" viewBox="0 0 538.583 283.465" style="enable-background:new 0 0 538.583 283.465;" xml:space="preserve">
<g>
	<g>
		<path style="fill:#FFFFFF;" d="M315.223,106.988h-16.063V91.581l-0.003-0.271c-0.44-12.954-8.89-37.451-37.72-37.451
			c-28.686,0-37.716,25.069-38.483,38.325l-0.01,15.16h-15.811L164.917,229.07h194.961L315.223,106.988z M219.238,124.352h3.707
			h16.995l0.013-16.996l0.01-14.599c0.306-3.874,1.87-9.831,5.375-14.507c3.775-5.037,8.891-7.384,16.101-7.384
			c7.255,0,12.297,2.231,15.868,7.023c3.33,4.469,4.686,10.192,4.846,13.822v15.276v17.008h17.009h4.174l32.213,88.066h-146.73
			L219.238,124.352z"/>
		<path style="fill:#FFFFFF;" d="M261.7,83.214c-8.243,0-8.755,12.187-8.755,12.187v11.36l17.288,0.048V94.976
			C270.233,94.976,269.942,83.214,261.7,83.214z"/>
	</g>
	<g>
		<path style="fill:#FFFFFF;" d="M246.978,190.383c-0.177-4.604-0.348-10.175-0.348-15.76h-0.115c-1.25,4.899-2.84,10.36-4.32,14.85
			l-4.667,14.974h-6.764l-4.098-14.804c-1.257-4.552-2.507-10.014-3.471-15.02h-0.116c-0.171,5.184-0.4,11.093-0.625,15.876
			l-0.74,14.563h-8.022l2.445-38.346h11.548l3.756,12.806c1.25,4.437,2.392,9.21,3.242,13.707h0.23
			c1.024-4.429,2.329-9.503,3.64-13.771l4.043-12.742h11.379l2.044,38.346h-8.416L246.978,190.383z"/>
		<path style="fill:#FFFFFF;" d="M271.363,166.717v38.346h-8.649v-38.346H271.363z"/>
		<path style="fill:#FFFFFF;" d="M278.867,205.063v-38.346h10.121l7.97,14.055c2.274,4.035,4.496,8.816,6.255,13.138h0.117
			c-0.51-5.061-0.688-10.237-0.688-16.039v-11.153h7.969v38.346h-9.103l-8.191-14.795c-2.276-4.089-4.838-9.041-6.658-13.537h-0.225
			c0.284,5.121,0.394,10.529,0.394,16.784v11.548H278.867z"/>
	</g>
</g>
</svg>
