<?xml version="1.0" encoding="iso-8859-1"?>
<!-- Generator: Adobe Illustrator 15.0.0, SVG Export Plug-In . SVG Version: 6.00 Build 0)  -->
<!DOCTYPE svg PUBLIC "-//W3C//DTD SVG 1.1//EN" "http://www.w3.org/Graphics/SVG/1.1/DTD/svg11.dtd">
<svg version="1.1" id="_x31__x5F_General_x5F_New_x5F_Program"
	 xmlns="http://www.w3.org/2000/svg" xmlns:xlink="http://www.w3.org/1999/xlink" x="0px" y="0px" width="538.583px"
	 height="283.465px" viewBox="0 0 538.583 283.465" style="enable-background:new 0 0 538.583 283.465;" xml:space="preserve">
<g>
	<path style="fill:#FFFFFF;" d="M348.766,52.395v35.073h35.073v17.008h-35.073v35.073h-17.008v-35.073h-35.072V87.468h35.072V52.395
		H348.766 M360.105,41.056h-11.339h-17.008h-11.339v11.339v23.734h-23.733h-11.339v11.339v17.008v11.339h11.339h23.733v23.734
		v11.339h11.339h17.008h11.339v-11.339v-23.734h23.734h11.339v-11.339V87.468V76.129h-11.339h-23.734V52.395V41.056L360.105,41.056z
		"/>
	<g>
		<g>
			<g>
				<path style="fill:#FFFFFF;" d="M259.501,103.493h-58.967c-4.697,0-8.504-3.808-8.504-8.504s3.807-8.504,8.504-8.504h58.967
					c4.696,0,8.503,3.808,8.503,8.504S264.197,103.493,259.501,103.493z"/>
			</g>
			<g>
				<circle style="fill:#FFFFFF;" cx="167.75" cy="94.989" r="8.504"/>
			</g>
			<g>
				<path style="fill:#FFFFFF;" d="M290.683,152.694h-90.148c-4.697,0-8.504-3.808-8.504-8.504s3.807-8.504,8.504-8.504h90.148
					c4.696,0,8.505,3.808,8.505,8.504S295.379,152.694,290.683,152.694z"/>
			</g>
			<g>
				<circle style="fill:#FFFFFF;" cx="167.75" cy="144.19" r="8.504"/>
			</g>
			<g>
				<path style="fill:#FFFFFF;" d="M290.683,201.896h-90.148c-4.697,0-8.504-3.808-8.504-8.504s3.807-8.504,8.504-8.504h90.148
					c4.696,0,8.505,3.808,8.505,8.504S295.379,201.896,290.683,201.896z"/>
			</g>
			<g>
				<circle style="fill:#FFFFFF;" cx="167.75" cy="193.392" r="8.504"/>
			</g>
		</g>
	</g>
</g>
</svg>
