<?xml version="1.0" encoding="UTF-8" standalone="no"?>
<!-- Generator: Adobe Illustrator 15.0.0, SVG Export Plug-In . SVG Version: 6.00 Build 0)  -->

<svg
   xmlns:dc="http://purl.org/dc/elements/1.1/"
   xmlns:cc="http://creativecommons.org/ns#"
   xmlns:rdf="http://www.w3.org/1999/02/22-rdf-syntax-ns#"
   xmlns:svg="http://www.w3.org/2000/svg"
   xmlns="http://www.w3.org/2000/svg"
   xmlns:sodipodi="http://sodipodi.sourceforge.net/DTD/sodipodi-0.dtd"
   xmlns:inkscape="http://www.inkscape.org/namespaces/inkscape"
   version="1.1"
   id="_x31__x5F_General_x5F_Service"
   x="0px"
   y="0px"
   width="409.57999"
   height="283.465"
   viewBox="0 0 409.57998 283.465"
   xml:space="preserve"
   inkscape:version="0.48.3.1 r9886"
   sodipodi:docname="1_General_Service_locked.svg"><metadata
   id="metadata3057"><rdf:RDF><cc:Work
       rdf:about=""><dc:format>image/svg+xml</dc:format><dc:type
         rdf:resource="http://purl.org/dc/dcmitype/StillImage" /><dc:title></dc:title></cc:Work></rdf:RDF></metadata><defs
   id="defs3055" /><sodipodi:namedview
   pagecolor="#ffffff"
   bordercolor="#666666"
   borderopacity="1"
   objecttolerance="10"
   gridtolerance="10"
   guidetolerance="10"
   inkscape:pageopacity="0"
   inkscape:pageshadow="2"
   inkscape:window-width="1195"
   inkscape:window-height="956"
   id="namedview3053"
   showgrid="false"
   inkscape:zoom="1.2328647"
   inkscape:cx="269.2915"
   inkscape:cy="141.7325"
   inkscape:window-x="567"
   inkscape:window-y="109"
   inkscape:window-maximized="0"
   inkscape:current-layer="_x31__x5F_General_x5F_Service" />
<path
   style="fill:#ffffff"
   d="m 77.464995,66.065 c 2.017,0 4.021,0.214 5.979,0.644 14.451995,3.139 24.720995,16.632 25.006995,32.836 -0.018,5.89 2.498,11.508 7.101,15.842 l 0.092,0.087 0.094,0.085 109.827,99.232 0.062,0.056 0.063,0.055 c 1.858,1.634 2.962,3.879 3.104,6.312 0.144,2.481 -0.678,4.788 -2.387,6.681 -1.746,1.939 -4.248,3.052 -6.866,3.052 -2.318,0 -4.579,-0.861 -6.373,-2.427 l -100.28,-90.57 c -3.882,-3.576 -8.907,-5.544 -14.161,-5.544 -3.884995,0 -7.703995,1.052 -11.077995,3.046 l -0.008,0.005 c -3.976,1.746 -8.656,2.705 -13.222,2.705 -2.125,0 -4.192,-0.203 -6.146,-0.604 -9.999,-2.18 -18.178,-9.528 -22.172,-19.323 l 19.354,4.124 6.882,1.467 4.718,-5.223 6.91,-7.646 4.769,-5.277 -2.24,-6.75 -3.594,-10.834 -2.183,-6.58 -6.77,-1.496 -19.136,-4.226 c 6.129,-6.139 14.264,-9.729 22.654,-9.729 m 0,-12.207 c -15.528,0 -30.357,8.748 -38.658,22.834 l -4.213,7.135 36.72,8.11 3.595,10.834 -6.91,7.647 -37.425,-7.975 1.076,8.4 c 2.467,19.246 16.147,34.773 34.092,38.652 2.811,0.584 5.733,0.87 8.677,0.87 6.383,0 12.875,-1.348 18.582,-3.938 l 0.667,-0.354 c 1.551995,-0.965 3.296995,-1.465 5.058995,-1.465 1.554,0 3.827,0.396 5.924,2.347 l 100.399,90.678 c 4.037,3.563 9.183,5.518 14.491,5.518 6.083,0 11.883,-2.586 15.938,-7.091 3.877,-4.297 5.833,-9.823 5.5,-15.555 -0.336,-5.729 -2.927,-10.989 -7.23,-14.773 L 123.92199,106.5 c -2.135,-2.011 -3.298,-4.436 -3.262,-7.009 -0.319,-21.961 -14.543,-40.351 -34.624995,-44.712 -2.802,-0.613 -5.676,-0.921 -8.57,-0.921 l 0,0 z"
   id="path3051"
   inkscape:connector-curvature="0" />
<g
   transform="matrix(0.60573964,0,0,0.60573964,177.66744,107.09232)"
   id="g3101"><g
     id="g3103"><path
       inkscape:connector-curvature="0"
       style="fill:#ffffff"
       d="M 315.964,122.193 V 92.32 c 0,-25.964 -21.047,-47.012 -47.011,-47.012 -25.963,0 -47.011,21.048 -47.011,47.012 v 29.873 H 201.061 V 229.607 H 336.844 V 122.193 h -20.88 z M 239.778,92.32 c 0,-16.088 13.088,-29.177 29.176,-29.177 16.087,0 29.176,13.089 29.176,29.177 v 29.873 H 239.778 V 92.32 z m 7.68,115.308 13.785,-34.724 c -5.722,-2.454 -9.67,-7.425 -9.67,-13.266 0,-8.206 7.789,-14.858 17.38,-14.858 9.582,0 17.352,6.652 17.352,14.858 0,5.841 -3.939,10.812 -9.651,13.266 l 13.795,34.724 h -42.991 z"
       id="path3105" /></g></g></svg>