<?xml version="1.0" encoding="iso-8859-1"?>
<!-- Generator: Adobe Illustrator 15.0.0, SVG Export Plug-In . SVG Version: 6.00 Build 0)  -->
<!DOCTYPE svg PUBLIC "-//W3C//DTD SVG 1.1//EN" "http://www.w3.org/Graphics/SVG/1.1/DTD/svg11.dtd">
<svg version="1.1" id="_x31__x5F_Navigation_x5F_Login"
	 xmlns="http://www.w3.org/2000/svg" xmlns:xlink="http://www.w3.org/1999/xlink" x="0px" y="0px" width="538.583px"
	 height="283.465px" viewBox="0 0 538.583 283.465" style="enable-background:new 0 0 538.583 283.465;" xml:space="preserve">
<g>
	<path style="fill:#FFFFFF;" d="M358.496,117.511c3.461-9.722,6.756-13.713,6.756-26.33c0-20.209-16.381-33.926-36.604-33.926
		s-36.604,13.717-36.604,33.926c0,12.617,3.295,16.608,6.755,26.33c-23.057,23.281-35.238,56.251-35.238,85.013
		c0,17.983,32.543,26.975,65.088,26.974c32.543,0.001,65.086-8.99,65.086-26.974C393.734,173.762,381.552,140.792,358.496,117.511z
		 M362.742,208.337c-9.448,2.678-21.557,4.152-34.1,4.152c-12.537,0-24.644-1.475-34.09-4.152
		c-9.651-2.735-13.062-5.673-13.98-6.647c0.243-25.934,11.811-53.53,30.311-72.211l7.525-7.598l-3.586-10.073
		c-0.975-2.737-1.908-5.012-2.732-7.019c-2.148-5.236-3.039-7.404-3.039-13.608c0-11.624,10.158-16.918,19.597-16.918
		s19.597,5.294,19.597,16.918c0,6.206-0.891,8.374-3.04,13.611c-0.823,2.006-1.757,4.279-2.73,7.015l-3.587,10.074l7.525,7.598
		c18.5,18.681,30.067,46.278,30.311,72.211C375.804,202.664,372.392,205.602,362.742,208.337z"/>
	<path style="fill:#FFFFFF;" d="M118.435,119.422c1.181,0.851,27.674,19.675,67.485,28.764l-17.629,26.198l95.269-33.145
		l-20.296-78.268L218.958,99.09c-38.241-9.538-64.579-36.215-64.849-36.491l-5.187-5.344l-34.679,59.151L118.435,119.422z
		 M151.359,75.52c10.496,9.189,35.532,28.328,68.929,35.519l3.753,0.809l14.569-21.65l11.35,43.77l-53.277,18.535l8.196-12.18
		l-8.515-1.56c-32.516-5.956-57.396-19.777-66.997-25.731L151.359,75.52z"/>
</g>
</svg>
