<?xml version="1.0" encoding="iso-8859-1"?>
<!-- Generator: Adobe Illustrator 15.0.0, SVG Export Plug-In . SVG Version: 6.00 Build 0)  -->
<!DOCTYPE svg PUBLIC "-//W3C//DTD SVG 1.1//EN" "http://www.w3.org/Graphics/SVG/1.1/DTD/svg11.dtd">
<svg version="1.1" id="_x32__x5F_End_x5F_Line_x5F_Can_x5F_Motor"
	 xmlns="http://www.w3.org/2000/svg" xmlns:xlink="http://www.w3.org/1999/xlink" x="0px" y="0px" width="538.583px"
	 height="283.465px" viewBox="0 0 538.583 283.465" style="enable-background:new 0 0 538.583 283.465;" xml:space="preserve">
<g>
	<path style="fill:#FFFFFF;" d="M294.463,108.24 M298.341,97.586l-8.185,22.486l-3.878,10.655l10.655,3.878l14.21,5.172
		l-30.568,83.983l-84.568-30.78l30.567-83.983l14.211,5.173l10.655,3.878l3.878-10.655l8.185-22.486l-10.655-3.878l-8.185,22.486
		l-24.866-9.051l-38.324,105.293l105.878,38.537L325.677,133l-24.865-9.05l8.185-22.486"/>
	<path style="fill:#FFFFFF;" d="M328.55,91.896c0.005,0.006,0.01,0.012,0.013,0.014c0.002,0,0.003,0,0.004-0.002l-3.401,9.37
		c-0.01,0.01-0.033,0.021-0.024,0.026l-84.535-30.758c-0.007-0.008-0.016-0.024-0.022-0.026c-0.002-0.001-0.004,0-0.005,0.001
		l3.401-9.37c0.01-0.009,0.034-0.021,0.024-0.026L328.55,91.896 M332.447,81.248l-84.569-30.78
		c-5.859-2.133-12.399,0.917-14.533,6.777l-3.422,9.403c-2.133,5.86,0.917,12.4,6.776,14.533l84.569,30.78
		c5.86,2.133,12.4-0.917,14.533-6.777l3.423-9.403C341.357,89.921,338.307,83.382,332.447,81.248L332.447,81.248z"/>
</g>
</svg>
