<?xml version="1.0" encoding="iso-8859-1"?>
<!-- Generator: Adobe Illustrator 15.0.0, SVG Export Plug-In . SVG Version: 6.00 Build 0)  -->
<!DOCTYPE svg PUBLIC "-//W3C//DTD SVG 1.1//EN" "http://www.w3.org/Graphics/SVG/1.1/DTD/svg11.dtd">
<svg version="1.1" id="_x32__x5F_End_x5F_Line_x5F_Pan"
	 xmlns="http://www.w3.org/2000/svg" xmlns:xlink="http://www.w3.org/1999/xlink" x="0px" y="0px" width="538.583px"
	 height="283.465px" viewBox="0 0 538.583 283.465" style="enable-background:new 0 0 538.583 283.465;" xml:space="preserve">
<path style="fill:#FFFFFF;" d="M264.765,61.64c4.598,0,8.332,3.178,8.332,7.118v57.852c2.666,1.095,5.189,2.399,7.523,3.902V78.389
	c0-3.928,3.734-7.117,8.331-7.117c4.599,0,8.333,3.189,8.333,7.117v72.606l9.543-22.035c1.247-2.868,4.436-4.646,7.821-4.646
	c0.961,0,1.938,0.144,2.891,0.445c4.322,1.368,6.515,5.469,4.93,9.151l-25.084,57.851c-4.266,17.182-22.112,30.063-43.475,30.063
	c-24.548,0-44.454-17.009-44.454-37.983v-4.101c-0.131-0.519-0.217-1.061-0.217-1.614V90.988c0-3.93,3.733-7.105,8.331-7.105
	c4.613,0,8.333,3.176,8.333,7.105v40.398c2.191-1.517,4.541-2.857,7.049-4.002V74.474c0-3.93,3.718-7.117,8.331-7.117
	c4.599,0,8.332,3.188,8.332,7.117v48.6c1.413-0.112,2.839-0.184,4.296-0.184c0.851,0,1.687,0.037,2.522,0.071V68.758
	C256.433,64.817,260.166,61.64,264.765,61.64 M264.765,50.301c-6.36,0-12.025,2.848-15.624,7.254
	c-2.408-0.988-5.066-1.537-7.858-1.537c-10.299,0-18.775,7.465-19.603,16.932c-1.326-0.266-2.701-0.405-4.109-0.405
	c-10.846,0-19.67,8.274-19.67,18.444v87.139c0,0.892,0.073,1.799,0.217,2.711v3.004c0,27.196,25.029,49.322,55.793,49.322
	c12.549,0,24.856-3.779,34.653-10.64c9.746-6.826,16.665-16.401,19.571-27.052l24.737-57.051c1.972-4.58,1.912-9.776-0.15-14.286
	c-2.195-4.803-6.482-8.516-11.76-10.186c-2.036-0.646-4.162-0.975-6.313-0.975c-2.087,0-4.115,0.304-6.026,0.875V78.389
	c0-10.177-8.824-18.456-19.671-18.456c-2.23,0-4.375,0.351-6.375,0.995C279.431,54.654,272.63,50.301,264.765,50.301L264.765,50.301
	z"/>
</svg>
