<?xml version="1.0" encoding="iso-8859-1"?>
<!-- Generator: Adobe Illustrator 15.0.0, SVG Export Plug-In . SVG Version: 6.00 Build 0)  -->
<!DOCTYPE svg PUBLIC "-//W3C//DTD SVG 1.1//EN" "http://www.w3.org/Graphics/SVG/1.1/DTD/svg11.dtd">
<svg version="1.1" id="_x32__x5F_End_x5F_Line_x5F_Program"
	 xmlns="http://www.w3.org/2000/svg" xmlns:xlink="http://www.w3.org/1999/xlink" x="0px" y="0px" width="538.583px"
	 height="283.465px" viewBox="0 0 538.583 283.465" style="enable-background:new 0 0 538.583 283.465;" xml:space="preserve">
<g>
	<g>
		<g>
			<path style="fill:#FFFFFF;" d="M238.696,103.493h-90.148c-4.697,0-8.504-3.808-8.504-8.504s3.807-8.504,8.504-8.504h90.148
				c4.697,0,8.504,3.808,8.504,8.504S243.393,103.493,238.696,103.493z"/>
		</g>
		<g>
			<circle style="fill:#FFFFFF;" cx="115.764" cy="94.989" r="8.504"/>
		</g>
		<g>
			<path style="fill:#FFFFFF;" d="M238.696,152.694h-90.148c-4.697,0-8.504-3.808-8.504-8.504s3.807-8.504,8.504-8.504h90.148
				c4.697,0,8.504,3.808,8.504,8.504S243.393,152.694,238.696,152.694z"/>
		</g>
		<g>
			<circle style="fill:#FFFFFF;" cx="115.764" cy="144.19" r="8.504"/>
		</g>
		<g>
			<path style="fill:#FFFFFF;" d="M238.696,201.896h-90.148c-4.697,0-8.504-3.808-8.504-8.504s3.807-8.504,8.504-8.504h90.148
				c4.697,0,8.504,3.808,8.504,8.504S243.393,201.896,238.696,201.896z"/>
		</g>
		<g>
			<circle style="fill:#FFFFFF;" cx="115.764" cy="193.392" r="8.504"/>
		</g>
	</g>
	<path style="fill:#FFFFFF;" d="M274.051,53.858v175.75h151.852V53.858H274.051z M408.895,212.601H291.06V70.866h117.835V212.601z"
		/>
	<rect x="305.23" y="86.485" style="fill:#FFFFFF;" width="48.791" height="15.573"/>
	<rect x="305.23" y="110.378" style="fill:#FFFFFF;" width="48.791" height="7.931"/>
	<rect x="305.23" y="126.392" style="fill:#FFFFFF;" width="48.791" height="20.25"/>
	<rect x="305.23" y="154.528" style="fill:#FFFFFF;" width="48.791" height="6.78"/>
	<rect x="305.23" y="169.939" style="fill:#FFFFFF;" width="48.791" height="14.12"/>
	<rect x="305.23" y="192.309" style="fill:#FFFFFF;" width="48.791" height="6.086"/>
</g>
</svg>
