<?xml version="1.0" encoding="iso-8859-1"?>
<!-- Generator: Adobe Illustrator 15.0.0, SVG Export Plug-In . SVG Version: 6.00 Build 0)  -->
<!DOCTYPE svg PUBLIC "-//W3C//DTD SVG 1.1//EN" "http://www.w3.org/Graphics/SVG/1.1/DTD/svg11.dtd">
<svg version="1.1" id="_x32__x5F_End_x5F_Line_x5F_Font_x5F_Edit"
	 xmlns="http://www.w3.org/2000/svg" xmlns:xlink="http://www.w3.org/1999/xlink" x="0px" y="0px" width="538.583px"
	 height="283.465px" viewBox="0 0 538.583 283.465" style="enable-background:new 0 0 538.583 283.465;" xml:space="preserve">
<g>
	<g>
		<g>
			<path style="fill:#FFFFFF;" d="M215.532,204.9l-6.729,24.254h-22.012l28.74-94.493h28.039l29.444,94.493h-23.134L242.6,204.9
				H215.532z M239.503,188.921l-5.876-20.046c-1.69-5.607-3.364-12.621-4.77-18.229h-0.285c-1.405,5.607-2.795,12.755-4.335,18.229
				l-5.607,20.046H239.503z"/>
			<path style="fill:#FFFFFF;" d="M341.863,212.615c0,6.443,0.269,12.756,1.121,16.539h-19.217l-1.255-6.871h-0.418
				c-4.487,5.463-11.5,8.411-19.635,8.411c-13.877,0-22.146-10.095-22.146-21.026c0-17.809,15.986-26.211,40.24-26.211v-0.847
				c0-3.783-1.975-8.973-12.487-8.973c-6.997,0-14.428,2.386-18.914,5.189l-3.934-13.742c4.771-2.662,14.162-6.169,26.632-6.169
				c22.864,0,30.013,13.458,30.013,29.721V212.615z M321.257,196.771c-11.217,0-19.92,2.661-19.92,10.788
				c0,5.475,3.649,8.136,8.42,8.136c5.188,0,9.674-3.507,11.063-7.852c0.285-1.121,0.437-2.384,0.437-3.648V196.771z"/>
			<path style="fill:#FFFFFF;" d="M357.28,217.797c0-7.71,5.188-13.031,12.621-13.031c7.298,0,12.337,5.18,12.487,13.031
				c0,7.432-5.057,12.897-12.773,12.897C362.467,230.694,357.28,225.229,357.28,217.797z"/>
			<path style="fill:#FFFFFF;" d="M393.737,217.797c0-7.71,5.189-13.031,12.621-13.031c7.282,0,12.338,5.18,12.471,13.031
				c0,7.432-5.038,12.897-12.755,12.897C398.926,230.694,393.737,225.229,393.737,217.797z"/>
			<path style="fill:#FFFFFF;" d="M430.195,217.797c0-7.71,5.188-13.031,12.621-13.031c7.282,0,12.337,5.18,12.47,13.031
				c0,7.432-5.038,12.897-12.754,12.897C435.383,230.694,430.195,225.229,430.195,217.797z"/>
		</g>
	</g>
	<g>
		<g>
			<path style="fill:#FFFFFF;" d="M95.028,137.701v32.238h32.239l5.755-5.755l0,0.001c0.006-0.007,0.014-0.015,0.02-0.021
				l84.049-84.05c3.18-3.182,9.006-12.149-5.543-26.696c-6.238-6.238-12.135-9.401-17.526-9.401c-3.475,0-6.646,1.335-9.17,3.858
				L95.028,137.701z M108.56,139.724c0.448-0.447,1.196-1.195,3.905,0.058c2.134,0.987,4.637,2.885,7.238,5.484
				c2.6,2.601,4.497,5.103,5.484,7.237c1.243,2.687,0.519,3.444,0.07,3.893l-2.546,2.547h-16.685v-16.685L108.56,139.724
				L108.56,139.724z M209.314,72.337l-74.612,74.614c-1.578-3.059-3.998-6.236-7.224-9.462c-3.227-3.228-6.404-5.646-9.462-7.224
				l74.612-74.614c0.53-0.53,0.927-0.637,1.394-0.637c1.726,0,5.193,1.623,9.75,6.18C206.871,64.293,211.525,70.126,209.314,72.337z
				"/>
		</g>
	</g>
</g>
</svg>
