<?xml version="1.0" encoding="iso-8859-1"?>
<!-- Generator: Adobe Illustrator 15.0.0, SVG Export Plug-In . SVG Version: 6.00 Build 0)  -->
<!DOCTYPE svg PUBLIC "-//W3C//DTD SVG 1.1//EN" "http://www.w3.org/Graphics/SVG/1.1/DTD/svg11.dtd">
<svg version="1.1" id="_x32__x5F_End_x5F_Line_x5F_Bitmaps_x5F_Images"
	 xmlns="http://www.w3.org/2000/svg" xmlns:xlink="http://www.w3.org/1999/xlink" x="0px" y="0px" width="538.583px"
	 height="283.465px" viewBox="0 0 538.583 283.465" style="enable-background:new 0 0 538.583 283.465;" xml:space="preserve">
<g>
	<g>
		<g>
			<g>
				<path style="fill:#FFFFFF;" d="M284.683,137.701v32.238h32.24l5.755-5.755v0.001c0.007-0.007,0.014-0.015,0.021-0.021
					l84.05-84.05c3.18-3.182,9.006-12.149-5.543-26.696c-6.238-6.238-12.136-9.401-17.526-9.401c-3.476,0-6.646,1.335-9.171,3.858
					L284.683,137.701z M298.214,139.724c0.45-0.447,1.198-1.195,3.907,0.058c2.135,0.987,4.637,2.885,7.238,5.484
					c2.6,2.601,4.496,5.103,5.484,7.237c1.242,2.687,0.519,3.444,0.07,3.893l-2.547,2.547h-16.686v-16.685L298.214,139.724
					L298.214,139.724z M398.97,72.337l-74.611,74.614c-1.578-3.059-3.998-6.236-7.225-9.462c-3.227-3.228-6.403-5.646-9.462-7.224
					l74.612-74.614c0.529-0.53,0.926-0.637,1.394-0.637c1.726,0,5.192,1.623,9.749,6.18
					C396.527,64.293,401.181,70.126,398.97,72.337z"/>
			</g>
		</g>
	</g>
	<path style="fill:#FFFFFF;" d="M322.7,164.164c-0.007,0.007-0.014,0.015-0.021,0.021v-0.001l-2.17,2.17v46.246H202.677V70.866
		h117.832v31.01l17.008-17.008v-31.01H185.669v175.75h151.848v-80.262L322.7,164.164z"/>
	<polygon style="fill:#FFFFFF;" points="300.667,169.939 300.667,192.758 222.52,192.758 222.52,90.709 300.667,90.709 
		300.667,121.717 312.005,110.378 312.005,79.37 211.181,79.37 211.181,204.097 312.005,204.097 312.005,169.939 	"/>
</g>
</svg>
