<?xml version="1.0" encoding="iso-8859-1"?>
<!-- Generator: Adobe Illustrator 15.0.0, SVG Export Plug-In . SVG Version: 6.00 Build 0)  -->
<!DOCTYPE svg PUBLIC "-//W3C//DTD SVG 1.1//EN" "http://www.w3.org/Graphics/SVG/1.1/DTD/svg11.dtd">
<svg version="1.1" id="_x32__x5F_Further_x5F_Processing_x5F_Soak_x5F_Section_x5F_Fill"
	 xmlns="http://www.w3.org/2000/svg" xmlns:xlink="http://www.w3.org/1999/xlink" x="0px" y="0px" width="538.583px"
	 height="283.465px" viewBox="0 0 538.583 283.465" style="enable-background:new 0 0 538.583 283.465;" xml:space="preserve">
<g>
	<g>
		<path style="fill:#FFFFFF;" d="M385.48,117.427c-17.331,0-23.338-15.077-23.585-15.719c-0.336-0.819-3.724-8.455-13.007-8.455
			c-9.638,0-12.974,8.37-13.007,8.455c-0.247,0.643-6.257,15.719-23.587,15.719c-17.331,0-23.337-15.077-23.584-15.719
			c-0.336-0.818-3.726-8.455-13.006-8.455c-9.639,0-12.975,8.37-13.008,8.455c-0.247,0.643-6.257,15.719-23.585,15.719
			c-17.334,0-23.341-15.077-23.588-15.719c-0.335-0.819-3.723-8.455-13.005-8.455c-9.637,0-12.973,8.37-13.005,8.455
			c-0.248,0.643-6.257,15.719-23.587,15.719v-11.338c9.283,0,12.671-7.638,13.027-8.508c0.227-0.591,6.234-15.666,23.566-15.666
			c17.331,0,23.339,15.074,23.586,15.717c0.336,0.82,3.723,8.457,13.008,8.457c9.635,0,12.973-8.373,13.005-8.458
			c0.247-0.641,6.254-15.716,23.588-15.716c17.328,0,23.338,15.073,23.586,15.715c0.336,0.822,3.723,8.459,13.005,8.459
			c9.636,0,12.975-8.373,13.007-8.458c0.247-0.641,6.254-15.716,23.587-15.716c17.33,0,23.34,15.074,23.587,15.716
			c0.336,0.821,3.723,8.458,13.005,8.458V117.427z"/>
	</g>
	<polygon style="fill:#FFFFFF;" points="189.392,213.576 362.011,213.576 387.681,53.259 403.919,53.259 375.681,229.608 
		175.724,229.608 147.486,53.259 163.722,53.259 	"/>
</g>
</svg>
