<?xml version="1.0" encoding="iso-8859-1"?>
<!-- Generator: Adobe Illustrator 15.0.0, SVG Export Plug-In . SVG Version: 6.00 Build 0)  -->
<!DOCTYPE svg PUBLIC "-//W3C//DTD SVG 1.1//EN" "http://www.w3.org/Graphics/SVG/1.1/DTD/svg11.dtd">
<svg version="1.1" id="_x32__x5F_Further_x5F_Processing_x5F_Recipe"
	 xmlns="http://www.w3.org/2000/svg" xmlns:xlink="http://www.w3.org/1999/xlink" x="0px" y="0px" width="538.583px"
	 height="283.465px" viewBox="0 0 538.583 283.465" style="enable-background:new 0 0 538.583 283.465;" xml:space="preserve">
<g>
	<g>
		<g>
			<path style="fill:#FFFFFF;" d="M341.699,235.277c-7.968,0-16.846-6.337-16.846-15.43v-93.512
				c-9.799-6.897-15.549-20.25-15.549-36.542c0-22.941,14.532-41.604,32.395-41.604s32.395,18.663,32.395,41.604
				c0,16.284-5.761,29.645-15.578,36.559v93.495C358.515,228.94,349.653,235.277,341.699,235.277z M341.699,59.527
				c-11.61,0-21.057,13.578-21.057,30.267c0,13.419,4.8,24.289,12.526,28.367l3.022,1.596v100.091c0,1.912,2.935,4.092,5.508,4.092
				c2.56,0,5.479-2.18,5.479-4.092V119.78l3.017-1.597c7.748-4.102,12.562-14.979,12.562-28.39
				C362.755,73.105,353.309,59.527,341.699,59.527z"/>
		</g>
	</g>
	<g>
		<path style="fill:#FFFFFF;" d="M269.878,103.493h-90.148c-4.697,0-8.504-3.808-8.504-8.504s3.807-8.504,8.504-8.504h90.148
			c4.697,0,8.504,3.808,8.504,8.504S274.575,103.493,269.878,103.493z"/>
	</g>
	<g>
		<circle style="fill:#FFFFFF;" cx="146.945" cy="94.989" r="8.504"/>
	</g>
	<g>
		<path style="fill:#FFFFFF;" d="M269.878,152.694h-90.148c-4.697,0-8.504-3.808-8.504-8.504s3.807-8.504,8.504-8.504h90.148
			c4.697,0,8.504,3.808,8.504,8.504S274.575,152.694,269.878,152.694z"/>
	</g>
	<g>
		<circle style="fill:#FFFFFF;" cx="146.945" cy="144.19" r="8.504"/>
	</g>
	<g>
		<path style="fill:#FFFFFF;" d="M269.878,201.896h-90.148c-4.697,0-8.504-3.808-8.504-8.504s3.807-8.504,8.504-8.504h90.148
			c4.697,0,8.504,3.808,8.504,8.504S274.575,201.896,269.878,201.896z"/>
	</g>
	<g>
		<circle style="fill:#FFFFFF;" cx="146.945" cy="193.392" r="8.504"/>
	</g>
</g>
</svg>
