<?xml version="1.0" encoding="iso-8859-1"?>
<!-- Generator: Adobe Illustrator 15.0.0, SVG Export Plug-In . SVG Version: 6.00 Build 0)  -->
<!DOCTYPE svg PUBLIC "-//W3C//DTD SVG 1.1//EN" "http://www.w3.org/Graphics/SVG/1.1/DTD/svg11.dtd">
<svg version="1.1" id="_x32__x5F_Further_x5F_Processing_x5F_Recipe_x5F_Setup"
	 xmlns="http://www.w3.org/2000/svg" xmlns:xlink="http://www.w3.org/1999/xlink" x="0px" y="0px" width="538.583px"
	 height="283.465px" viewBox="0 0 538.583 283.465" style="enable-background:new 0 0 538.583 283.465;" xml:space="preserve">
<g>
	<g>
		<g>
			<g>
				<path style="fill:#FFFFFF;" d="M297.763,235.277c-7.968,0-16.847-6.337-16.847-15.43v-93.512
					c-9.799-6.897-15.549-20.25-15.549-36.542c0-22.941,14.533-41.604,32.396-41.604c17.863,0,32.395,18.663,32.395,41.604
					c0,16.284-5.761,29.645-15.578,36.559v93.495C314.58,228.94,305.717,235.277,297.763,235.277z M297.763,59.527
					c-11.611,0-21.058,13.578-21.058,30.267c0,13.419,4.8,24.289,12.527,28.367l3.022,1.596v100.091
					c0,1.912,2.935,4.092,5.508,4.092c2.56,0,5.479-2.18,5.479-4.092V119.78l3.017-1.597c7.748-4.102,12.562-14.979,12.562-28.39
					C318.82,73.105,309.374,59.527,297.763,59.527z"/>
			</g>
		</g>
		<g>
			<path style="fill:#FFFFFF;" d="M225.94,103.493h-90.148c-4.697,0-8.504-3.808-8.504-8.504s3.807-8.504,8.504-8.504h90.148
				c4.697,0,8.504,3.808,8.504,8.504S230.637,103.493,225.94,103.493z"/>
		</g>
		<g>
			<circle style="fill:#FFFFFF;" cx="103.008" cy="94.989" r="8.504"/>
		</g>
		<g>
			<path style="fill:#FFFFFF;" d="M225.94,152.694h-90.148c-4.697,0-8.504-3.808-8.504-8.504s3.807-8.504,8.504-8.504h90.148
				c4.697,0,8.504,3.808,8.504,8.504S230.637,152.694,225.94,152.694z"/>
		</g>
		<g>
			<circle style="fill:#FFFFFF;" cx="103.008" cy="144.19" r="8.504"/>
		</g>
		<g>
			<path style="fill:#FFFFFF;" d="M225.94,201.896h-90.148c-4.697,0-8.504-3.808-8.504-8.504s3.807-8.504,8.504-8.504h90.148
				c4.697,0,8.504,3.808,8.504,8.504S230.637,201.896,225.94,201.896z"/>
		</g>
		<g>
			<circle style="fill:#FFFFFF;" cx="103.008" cy="193.392" r="8.504"/>
		</g>
	</g>
	<g>
		<path style="fill:#FFFFFF;" d="M344.516,166.41v32.238h32.239l5.755-5.755v0.001c0.007-0.007,0.014-0.015,0.021-0.021l84.05-84.05
			c3.18-3.182,9.006-12.149-5.543-26.696c-6.238-6.238-12.136-9.401-17.526-9.401c-3.476,0-6.646,1.335-9.171,3.858L344.516,166.41z
			 M358.048,168.433c0.448-0.447,1.196-1.195,3.905,0.058c2.135,0.987,4.637,2.885,7.238,5.484c2.6,2.601,4.496,5.103,5.484,7.237
			c1.242,2.687,0.519,3.444,0.07,3.893l-2.547,2.547h-16.686v-16.685L358.048,168.433L358.048,168.433z M458.803,101.046
			l-74.611,74.614c-1.578-3.059-3.998-6.236-7.225-9.462c-3.227-3.228-6.403-5.646-9.462-7.224l74.612-74.614
			c0.529-0.53,0.926-0.637,1.394-0.637c1.726,0,5.192,1.623,9.749,6.18C456.36,93.002,461.014,98.835,458.803,101.046z"/>
	</g>
</g>
</svg>
