<?xml version="1.0" encoding="iso-8859-1"?>
<!-- Generator: Adobe Illustrator 15.0.0, SVG Export Plug-In . SVG Version: 6.00 Build 0)  -->
<!DOCTYPE svg PUBLIC "-//W3C//DTD SVG 1.1//EN" "http://www.w3.org/Graphics/SVG/1.1/DTD/svg11.dtd">
<svg version="1.1" id="_x32__x5F_Further_x5F_Processing_x5F_Hood_x5F_Down"
	 xmlns="http://www.w3.org/2000/svg" xmlns:xlink="http://www.w3.org/1999/xlink" x="0px" y="0px" width="538.583px"
	 height="283.465px" viewBox="0 0 538.583 283.465" style="enable-background:new 0 0 538.583 283.465;" xml:space="preserve">
<g>
	<g>
		<g>
			<path style="fill:#FFFFFF;" d="M365.426,184.893h-11.338v-80.062c0-3.126-2.544-5.67-5.67-5.67H113.327
				c-3.126,0-5.669,2.544-5.669,5.67v80.062H96.319v-80.062c0-9.378,7.63-17.008,17.008-17.008h235.091
				c9.378,0,17.008,7.63,17.008,17.008V184.893z"/>
		</g>
	</g>
	<g>
		<g>
			<path style="fill:#FFFFFF;" d="M319.27,199.958H142.477c-10.941,0-19.842-8.901-19.842-19.843v-67.041h17.008v67.041
				c0,1.537,1.298,2.835,2.834,2.835H319.27c1.537,0,2.835-1.298,2.835-2.835v-67.041h17.008v67.041
				C339.113,191.057,330.211,199.958,319.27,199.958z"/>
		</g>
	</g>
	<g>
		<g>
			<rect x="417.364" y="95.446" style="fill:#FFFFFF;" width="17.008" height="74.228"/>
		</g>
		<g>
			<g>
				<polygon style="fill:#FFFFFF;" points="391.267,129.022 425.868,163.643 460.468,129.022 460.468,158.4 425.868,193.001 
					391.267,158.4 				"/>
			</g>
		</g>
	</g>
</g>
</svg>
