<?xml version="1.0" encoding="iso-8859-1"?>
<!-- Generator: Adobe Illustrator 15.0.0, SVG Export Plug-In . SVG Version: 6.00 Build 0)  -->
<!DOCTYPE svg PUBLIC "-//W3C//DTD SVG 1.1//EN" "http://www.w3.org/Graphics/SVG/1.1/DTD/svg11.dtd">
<svg version="1.1" id="_x32__x5F_Further_x5F_Processing_x5F_CIP_x5F_Tank_x5F_Drain"
	 xmlns="http://www.w3.org/2000/svg" xmlns:xlink="http://www.w3.org/1999/xlink" x="0px" y="0px" width="538.583px"
	 height="283.465px" viewBox="0 0 538.583 283.465" style="enable-background:new 0 0 538.583 283.465;" xml:space="preserve">
<g>
	<g>
		<path style="fill:#FFFFFF;" d="M410.992,117.427c-17.331,0-23.338-15.077-23.585-15.719c-0.336-0.819-3.724-8.455-13.007-8.455
			c-9.638,0-12.974,8.37-13.007,8.455c-0.247,0.643-6.257,15.719-23.587,15.719c-17.331,0-23.338-15.077-23.585-15.719
			c-0.336-0.818-3.726-8.455-13.006-8.455c-9.639,0-12.975,8.37-13.008,8.455c-0.247,0.643-6.257,15.719-23.585,15.719
			c-17.334,0-23.341-15.077-23.588-15.719c-0.335-0.819-3.723-8.455-13.005-8.455c-9.637,0-12.973,8.37-13.005,8.455
			c-0.248,0.643-6.257,15.719-23.587,15.719v-11.338c9.283,0,12.671-7.638,13.027-8.508c0.227-0.591,6.234-15.666,23.566-15.666
			c17.331,0,23.339,15.074,23.586,15.717c0.336,0.82,3.723,8.457,13.008,8.457c9.635,0,12.973-8.373,13.005-8.458
			c0.247-0.641,6.254-15.716,23.588-15.716c17.327,0,23.338,15.073,23.586,15.715c0.336,0.822,3.723,8.459,13.005,8.459
			c9.636,0,12.975-8.373,13.007-8.458c0.247-0.641,6.254-15.716,23.587-15.716c17.33,0,23.34,15.074,23.587,15.716
			c0.336,0.821,3.723,8.458,13.005,8.458V117.427z"/>
	</g>
	<g>
		<g>
			<path style="fill:#FFFFFF;" d="M147.919,219.642h-17.008V158.74c0-12.504,10.173-22.677,22.677-22.677h107.546v17.008H153.588
				c-3.073,0-5.669,2.596-5.669,5.669V219.642z"/>
		</g>
		<g>
			<g>
				<polygon style="fill:#FFFFFF;" points="104.814,178.99 139.415,213.61 174.016,178.99 174.016,208.368 139.415,242.969 
					104.814,208.368 				"/>
			</g>
		</g>
	</g>
	<g>
		<g>
			<polygon style="fill:#FFFFFF;" points="413.193,53.259 387.523,213.576 214.903,213.576 206.849,163.271 190.612,163.271 
				201.235,229.608 401.193,229.608 429.431,53.259 			"/>
		</g>
		<g>
			<polygon style="fill:#FFFFFF;" points="200.858,125.863 189.233,53.259 172.998,53.259 184.624,125.863 			"/>
		</g>
	</g>
</g>
</svg>
