<?xml version="1.0" encoding="iso-8859-1"?>
<!-- Generator: Adobe Illustrator 15.0.0, SVG Export Plug-In . SVG Version: 6.00 Build 0)  -->
<!DOCTYPE svg PUBLIC "-//W3C//DTD SVG 1.1//EN" "http://www.w3.org/Graphics/SVG/1.1/DTD/svg11.dtd">
<svg version="1.1" id="_x32__x5F_Further_x5F_Processing_x5F_Drum_x5F_Out"
	 xmlns="http://www.w3.org/2000/svg" xmlns:xlink="http://www.w3.org/1999/xlink" x="0px" y="0px" width="538.583px"
	 height="283.465px" viewBox="0 0 538.583 283.465" style="enable-background:new 0 0 538.583 283.465;" xml:space="preserve">
<g>
	<path style="fill:#FFFFFF;" d="M234.667,53.858h-79.314c-34.05,0-61.652,39.343-61.652,87.875s27.603,87.875,61.652,87.875h79.314
		c34.05,0,61.656-39.343,61.656-87.875S268.717,53.858,234.667,53.858z M229.902,213.646c-27.864,0-50.453-32.196-50.453-71.912
		s22.589-71.912,50.453-71.912c27.865,0,50.455,32.196,50.455,71.912S257.768,213.646,229.902,213.646z M109.664,141.733
		c0-38.98,20.923-71.912,45.689-71.912h43.175c-4.953,3.912-9.528,8.77-13.584,14.551c-10.856,15.473-16.834,35.844-16.834,57.361
		s5.978,41.889,16.834,57.361c4.056,5.781,8.631,10.639,13.584,14.551h-43.175C130.587,213.646,109.664,180.714,109.664,141.733z"/>
	<g>
		<g>
			<g>
				<rect x="314.95" y="136.545" style="fill:#FFFFFF;" width="70.959" height="17.008"/>
			</g>
			<g>
				<g>
					<polygon style="fill:#FFFFFF;" points="345.256,179.649 379.877,145.049 345.256,110.448 374.635,110.448 409.235,145.049 
						374.635,179.649 					"/>
				</g>
			</g>
		</g>
		<g>
			<g>
				<g>
					<polygon style="fill:#FFFFFF;" points="401.589,179.649 436.21,145.049 401.589,110.448 430.968,110.448 465.568,145.049 
						430.968,179.649 					"/>
				</g>
			</g>
		</g>
	</g>
</g>
</svg>
