<?xml version="1.0" encoding="iso-8859-1"?>
<!-- Generator: Adobe Illustrator 15.0.0, SVG Export Plug-In . SVG Version: 6.00 Build 0)  -->
<!DOCTYPE svg PUBLIC "-//W3C//DTD SVG 1.1//EN" "http://www.w3.org/Graphics/SVG/1.1/DTD/svg11.dtd">
<svg version="1.1" id="_x32__x5F_Further_x5F_Processing_x5F_BinWithLiquid"
	 xmlns="http://www.w3.org/2000/svg" xmlns:xlink="http://www.w3.org/1999/xlink" x="0px" y="0px" width="538.583px"
	 height="283.465px" viewBox="0 0 538.583 283.465" style="enable-background:new 0 0 538.583 283.465;" xml:space="preserve">
<g>
	<g>
		<path style="fill:#FFFFFF;" d="M172.045,118.24c17.332,0,23.339-15.077,23.586-15.719c0.336-0.819,3.724-8.455,13.006-8.455
			c9.284,0,12.672,7.636,13.027,8.506c0.228,0.591,6.235,15.668,23.566,15.668c17.333,0,23.34-15.077,23.587-15.719
			c0.336-0.819,3.725-8.455,13.007-8.455c9.285,0,12.67,7.635,13.026,8.505c0.228,0.593,6.237,15.669,23.566,15.669
			c17.334,0,23.341-15.077,23.589-15.719c0.335-0.819,3.723-8.455,13.005-8.455c9.637,0,12.974,8.37,13.006,8.455
			c0.247,0.643,6.257,15.719,23.587,15.719v-11.338c-9.282,0-12.671-7.638-13.026-8.508c-0.228-0.591-6.234-15.666-23.566-15.666
			c-17.33,0-23.339,15.074-23.586,15.717c-0.336,0.82-3.723,8.457-13.008,8.457c-9.282,0-12.67-7.638-13.025-8.508
			c-0.228-0.591-6.233-15.666-23.567-15.666c-17.33,0-23.34,15.074-23.588,15.716c-0.336,0.821-3.723,8.458-13.006,8.458
			c-9.282,0-12.67-7.637-13.025-8.508c-0.228-0.592-6.236-15.666-23.568-15.666c-17.329,0-23.339,15.074-23.586,15.716
			c-0.336,0.821-3.723,8.458-13.006,8.458V118.24z"/>
	</g>
	<g>
		<g>
			<polygon style="fill:#FFFFFF;" points="391.604,214.39 195.514,214.39 169.844,54.072 153.607,54.072 181.845,230.422 
				391.604,230.422 			"/>
		</g>
	</g>
</g>
</svg>
