<?xml version="1.0" encoding="iso-8859-1"?>
<!-- Generator: Adobe Illustrator 15.0.0, SVG Export Plug-In . SVG Version: 6.00 Build 0)  -->
<!DOCTYPE svg PUBLIC "-//W3C//DTD SVG 1.1//EN" "http://www.w3.org/Graphics/SVG/1.1/DTD/svg11.dtd">
<svg version="1.1" id="_x32__x5F_Further_x5F_Processing_x5F_BeltWasher_x5F_Run"
	 xmlns="http://www.w3.org/2000/svg" xmlns:xlink="http://www.w3.org/1999/xlink" x="0px" y="0px" width="538.583px"
	 height="283.465px" viewBox="0 0 538.583 283.465" style="enable-background:new 0 0 538.583 283.465;" xml:space="preserve">
<g>
	<path style="fill:#FFFFFF;" d="M242.59,162.139l-0.017,65.321c0,4.314,3.502,7.833,7.833,7.816c4.315,0,7.817-3.502,7.833-7.833
		v-65.305c0.016-4.332-3.486-7.834-7.817-7.816C246.076,154.305,242.59,157.807,242.59,162.139z"/>
	<path style="fill:#FFFFFF;" d="M208.536,193.404c0,4.332,3.501,7.833,7.816,7.833l65.322-0.016c4.332,0,7.817-3.502,7.817-7.817
		c0.017-4.348-3.485-7.85-7.833-7.85l-65.306,0.017C212.037,185.588,208.552,189.09,208.536,193.404z"/>
	<path style="fill:#FFFFFF;" d="M222.775,176.825l46.187,46.187c3.037,3.054,7.982,3.07,11.053,0
		c3.054-3.053,3.054-7.999,0.017-11.069l-46.204-46.187c-3.054-3.037-8.016-3.037-11.053,0
		C219.688,168.826,219.721,173.772,222.775,176.825z"/>
	<path style="fill:#FFFFFF;" d="M242.59,56.007l-0.017,65.305c0,4.315,3.502,7.851,7.833,7.833c4.315-0.016,7.817-3.502,7.833-7.833
		V56.007c0.016-4.331-3.486-7.833-7.817-7.816C246.076,48.174,242.59,51.676,242.59,56.007z"/>
	<path style="fill:#FFFFFF;" d="M220.816,105.811c-3.054,3.055-3.07,8,0,11.054c3.054,3.054,8.016,3.07,11.053,0l46.187-46.17
		c3.054-3.036,3.054-8-0.017-11.069c-3.037-3.054-8.016-3.054-11.036,0L220.816,105.811z"/>
	<path style="fill:#FFFFFF;" d="M208.536,87.274c0,4.331,3.501,7.815,7.816,7.815h65.322c4.332,0,7.817-3.501,7.817-7.833
		c0.017-4.331-3.485-7.833-7.833-7.833l-65.306,0.017C212.037,79.457,208.552,82.959,208.536,87.274z"/>
	<path style="fill:#FFFFFF;" d="M220.816,211.942c-3.054,3.07-3.07,7.999,0,11.053c3.054,3.054,8.016,3.07,11.053,0l46.187-46.17
		c3.054-3.037,3.054-7.999-0.017-11.069c-3.037-3.053-8.016-3.037-11.036,0L220.816,211.942z"/>
	<path style="fill:#FFFFFF;" d="M222.775,70.694l46.187,46.203c3.037,3.037,7.982,3.054,11.053-0.018
		c3.054-3.053,3.054-8.015,0.017-11.069l-46.204-46.186c-3.054-3.054-8.016-3.054-11.053,0
		C219.688,62.694,219.721,67.641,222.775,70.694z"/>
	<path style="fill:#FFFFFF;" d="M347.46,147.384H152.342c-2.805,0-5.062-2.257-5.062-5.061c0-2.788,2.257-5.046,5.062-5.046H347.46
		c2.787,0,5.045,2.258,5.045,5.046C352.505,145.127,350.248,147.384,347.46,147.384z"/>
</g>
</svg>
