<?xml version="1.0" encoding="iso-8859-1"?>
<!-- Generator: Adobe Illustrator 15.0.0, SVG Export Plug-In . SVG Version: 6.00 Build 0)  -->
<!DOCTYPE svg PUBLIC "-//W3C//DTD SVG 1.1//EN" "http://www.w3.org/Graphics/SVG/1.1/DTD/svg11.dtd">
<svg version="1.1" id="_x32__x5F_Further_x5F_Processing_x5F_Valve"
	 xmlns="http://www.w3.org/2000/svg" xmlns:xlink="http://www.w3.org/1999/xlink" x="0px" y="0px" width="538.583px"
	 height="283.465px" viewBox="0 0 538.583 283.465" style="enable-background:new 0 0 538.583 283.465;" xml:space="preserve">
<path style="fill:#FFFFFF;" d="M269.174,83.722l3.312,24.421l1.331,9.815h9.112v11.193v11.339h11.338h30.713h11.339v-11.339v-7.667
	h11.013v96.785H336.32v-7.65V199.28h-11.339H204.81h-11.338v11.339v7.65h-11.014v-96.785h11.014v7.667v11.339h11.338h30.712h11.338
	v-11.339v-11.193h9.128l1.332-9.814l3.313-24.422H269.174 M311.021,53.858h-92.252v14.353h41.446v4.172h-9.486l-4.644,34.236
	h-10.562v22.532H204.81v-10.502c0-4.677-3.827-8.504-8.504-8.504h-16.683c-4.677,0-8.504,3.827-8.504,8.504v102.455
	c0,4.677,3.827,8.504,8.504,8.504h16.683c4.677,0,8.504-3.827,8.504-8.504v-10.485h120.171v10.485c0,4.677,3.827,8.504,8.504,8.504
	h16.683c4.678,0,8.504-3.827,8.504-8.504V118.649c0-4.677-3.826-8.504-8.504-8.504h-16.683c-4.677,0-8.504,3.827-8.504,8.504v10.502
	h-30.713v-22.532h-10.545l-4.643-34.236h-9.503v-4.172h41.445V53.858L311.021,53.858z"/>
</svg>
