<?xml version="1.0" encoding="iso-8859-1"?>
<!-- Generator: Adobe Illustrator 15.0.0, SVG Export Plug-In . SVG Version: 6.00 Build 0)  -->
<!DOCTYPE svg PUBLIC "-//W3C//DTD SVG 1.1//EN" "http://www.w3.org/Graphics/SVG/1.1/DTD/svg11.dtd">
<svg version="1.1" id="_x32__x5F_Further_x5F_Processing_x5F_Sprayer"
	 xmlns="http://www.w3.org/2000/svg" xmlns:xlink="http://www.w3.org/1999/xlink" x="0px" y="0px" width="538.583px"
	 height="283.465px" viewBox="0 0 538.583 283.465" style="enable-background:new 0 0 538.583 283.465;" xml:space="preserve">
<g>
	<path style="fill:#FFFFFF;" d="M305.169,138.273l47.697-47.706c2.057-2.086,2.057-5.479-0.046-7.572
		c-2.087-2.076-5.46-2.076-7.564,0l-47.641,47.753c-2.067,2.076-2.086,5.45,0.027,7.525
		C299.719,140.368,303.129,140.368,305.169,138.273z"/>
	<path style="fill:#FFFFFF;" d="M277.873,119.069l17.249-65.226c0.77-2.826-0.964-5.783-3.8-6.506
		c-2.874-0.777-5.783,0.936-6.544,3.8l-17.25,65.215c-0.741,2.8,0.937,5.729,3.837,6.472
		C274.184,123.602,277.131,121.887,277.873,119.069z"/>
	<path style="fill:#FFFFFF;" d="M233.809,119.588l-17.277-65.216c-0.742-2.891,1.001-5.792,3.819-6.533
		c2.864-0.751,5.756,0.936,6.534,3.8l17.24,65.216c0.742,2.836-0.945,5.756-3.81,6.507
		C237.479,124.14,234.541,122.425,233.809,119.588z"/>
	<path style="fill:#FFFFFF;" d="M206.475,138.534l-47.641-47.717c-2.095-2.094-2.048-5.524,0.009-7.563
		c2.123-2.131,5.469-2.094,7.582,0l47.642,47.736c2.067,2.094,2.067,5.449-0.046,7.544
		C211.972,140.61,208.551,140.61,206.475,138.534z"/>
	<path style="fill:#FFFFFF;" d="M268.086,218.574l-24.213-0.039v-38.774v-11.036h-11.036h-10.621
		c4.643-14.064,17.907-24.243,33.504-24.243c15.588,0,28.846,10.179,33.486,24.243h-10.084h-11.036v11.036V218.574 M279.122,229.628
		v-49.867h22.886c0-25.571-20.744-46.315-46.288-46.315c-25.591,0-46.307,20.744-46.307,46.315h23.424v49.793L279.122,229.628
		L279.122,229.628z"/>
</g>
</svg>
