<?xml version="1.0" encoding="iso-8859-1"?>
<!-- Generator: Adobe Illustrator 15.0.0, SVG Export Plug-In . SVG Version: 6.00 Build 0)  -->
<!DOCTYPE svg PUBLIC "-//W3C//DTD SVG 1.1//EN" "http://www.w3.org/Graphics/SVG/1.1/DTD/svg11.dtd">
<svg version="1.1" id="_x32__x5F_Further_x5F_Processing_x5F_Cleaning_x5F_Manual"
	 xmlns="http://www.w3.org/2000/svg" xmlns:xlink="http://www.w3.org/1999/xlink" x="0px" y="0px" width="538.583px"
	 height="283.465px" viewBox="0 0 538.583 283.465" style="enable-background:new 0 0 538.583 283.465;" xml:space="preserve">
<g>
	<g>
		<g>
			<g>
				<g>
					<path style="fill:#FFFFFF;" d="M219.743,119.571c8.276-1.444,17.374-3.034,18.903-3.316
						c-0.425-2.477-2.675-15.194-3.106-17.668c-1.518,0.284-10.624,1.877-18.908,3.322c-2.159-5.58-5.381-10.661-9.53-14.989
						c4.822-6.876,10.127-14.442,11.015-15.726c-2.05-1.429-12.624-8.837-14.684-10.294c-0.896,1.279-6.202,8.851-11.024,15.723
						c-5.479-2.425-11.348-3.715-17.331-3.852c-1.445-8.268-3.064-17.382-3.32-18.913c-2.481,0.452-15.191,2.677-17.682,3.124
						c0.275,1.526,1.875,10.609,3.338,18.882c-5.604,2.171-10.676,5.406-14.994,9.541c-6.871-4.832-14.441-10.106-15.719-11.011
						c-1.438,2.063-8.851,12.62-10.293,14.697c1.276,0.879,8.832,6.195,15.711,11.012c-2.414,5.457-3.726,11.339-3.858,17.326
						c-8.278,1.478-17.382,3.077-18.893,3.321c0.431,2.508,2.673,15.206,3.097,17.68c1.534-0.285,10.624-1.858,18.899-3.319
						c2.167,5.577,5.396,10.659,9.546,14.983c-4.831,6.898-10.144,14.455-11.021,15.713c2.059,1.449,12.632,8.849,14.698,10.31
						c0.89-1.276,6.179-8.832,11.007-15.738c5.473,2.441,11.35,3.74,17.344,3.869c1.461,8.285,3.054,17.382,3.326,18.91
						c2.466-0.45,15.191-2.673,17.672-3.106c-0.264-1.543-1.875-10.624-3.334-18.888c5.595-2.179,10.674-5.395,14.991-9.555
						c6.888,4.818,14.442,10.131,15.721,11.012c1.444-2.059,8.849-12.634,10.284-14.678c-1.254-0.896-8.831-6.204-15.697-11.018
						C218.308,131.422,219.603,125.585,219.743,119.571z M174.014,133.094c-8.051,0-14.608-6.532-14.608-14.58
						c0-8.055,6.558-14.576,14.608-14.576c8.035,0,14.578,6.521,14.578,14.576C188.592,126.562,182.049,133.094,174.014,133.094z"/>
				</g>
			</g>
		</g>
	</g>
	<g>
		<g>
			<g>
				<path style="fill:#FFFFFF;" d="M381.165,81.042c-11.685-12.093-24.396-23.657-34.215-31.017
					c-6.306-4.732-12.121-8.449-17.307-11.059c-6.449-3.209-11.459-4.661-16.268-4.705c-0.039,0-0.079-0.001-0.118-0.001
					c-4.409,0-8.478,1.489-11.466,4.199c-3.549,3.212-5.488,7.982-5.459,13.499c0.138,8.649,4.186,19.106,13.142,33.94
					c8.058,13.161,19.058,27.595,31.811,41.736c3.321,3.679,6.664,7.235,10.008,10.647c0,0,4.681,3.445,8.405,0
					s0.573-8.979,0.573-8.979c-3.189-3.257-6.382-6.656-9.557-10.174c-12.239-13.571-22.756-27.354-30.392-39.829
					c-7.608-12.6-11.197-21.353-11.296-27.477c-0.007-1.268,0.211-2.979,1.288-3.955c0.887-0.803,2.233-0.892,2.964-0.911
					c2.767,0.024,6.068,1.066,10.682,3.363c4.492,2.26,9.663,5.578,15.369,9.86c6.804,5.101,15.349,12.604,23.873,20.858
					L381.165,81.042z"/>
			</g>
		</g>
		<g>
			<path style="fill:#FFFFFF;" d="M436.98,89.308c-2.775-2.474-6.521-4.052-11.393-5.591c-14.494-4.445-39.398-7.219-68.018-7.241
				c-9.762,0-19.101,0.334-27.747,0.944c2.528,3.964,5.345,8.053,8.41,12.217c6.229-0.304,12.708-0.463,19.327-0.463
				c25.913,0.021,49.323,2.375,63.088,6.322c-2.66,0.765-5.812,1.491-9.431,2.171c-14.288,2.676-33.34,4.147-53.641,4.147
				c-3.364-0.002-6.683-0.045-9.947-0.124c3.11,3.782,6.383,7.585,9.803,11.377c0.437,0.483,0.875,0.96,1.313,1.439
				c21.305-0.058,40.562-1.69,54.81-4.357c0.2-0.037,0.391-0.078,0.589-0.116l-20.786,97.61c-6.587,1.801-19.392,3.864-35.787,3.864
				c-16.397,0-29.204-2.063-35.793-3.865l-20.626-97.576c4.704,0.899,9.964,1.678,15.66,2.323
				c-3.683-4.811-7.105-9.573-10.222-14.23c-4.568-0.78-8.641-1.674-12.103-2.668c2.557-0.734,5.573-1.431,9.003-2.086
				c-0.59-0.933-1.169-1.859-1.733-2.78l-0.014-0.023l-0.014-0.023c-1.851-3.064-3.509-5.972-4.986-8.743
				c-5.098,1.139-9.409,2.436-12.85,3.951c-2.243,1.006-4.135,2.075-5.729,3.521c-1.549,1.397-2.993,3.501-3.013,6.187
				c0.02,2.69,1.463,4.789,3.013,6.187c0.938,0.835,1.996,1.563,3.159,2.228l24.229,114.484c0,5.382,23.294,11.216,52.019,11.216
				c28.733,0,52.014-5.834,52.014-11.216l24.234-114.491c1.161-0.654,2.222-1.367,3.162-2.221c1.549-1.397,2.999-3.496,3.008-6.187
				C439.979,92.809,438.529,90.705,436.98,89.308z"/>
		</g>
	</g>
</g>
</svg>
