<?xml version="1.0" encoding="iso-8859-1"?>
<!-- Generator: Adobe Illustrator 15.0.0, SVG Export Plug-In . SVG Version: 6.00 Build 0)  -->
<!DOCTYPE svg PUBLIC "-//W3C//DTD SVG 1.1//EN" "http://www.w3.org/Graphics/SVG/1.1/DTD/svg11.dtd">
<svg version="1.1" id="_x32__x5F_Further_x5F_Processing_x5F_Batch_x5F_Intake"
	 xmlns="http://www.w3.org/2000/svg" xmlns:xlink="http://www.w3.org/1999/xlink" x="0px" y="0px" width="538.583px"
	 height="283.465px" viewBox="0 0 538.583 283.465" style="enable-background:new 0 0 538.583 283.465;" xml:space="preserve">
<g>
	<g>
		<path style="fill:#FFFFFF;" d="M417.544,172.46c12.647,0,22.937,10.289,22.937,22.937c0,12.646-10.289,22.936-22.937,22.936
			H128.478c-12.647,0-22.937-10.289-22.937-22.936c0-12.647,10.29-22.937,22.937-22.937H417.544 M417.544,161.121H128.478
			c-18.93,0-34.275,15.346-34.275,34.275c0,18.929,15.345,34.274,34.275,34.274h289.067c18.931,0,34.275-15.346,34.275-34.274
			C451.82,176.467,436.475,161.121,417.544,161.121L417.544,161.121z"/>
	</g>
	<g>
		<circle style="fill:#FFFFFF;" cx="128.478" cy="195.396" r="14.173"/>
	</g>
	<g>
		<circle style="fill:#FFFFFF;" cx="417.545" cy="195.396" r="14.173"/>
	</g>
	<g>
		<g>
			<rect x="101.105" y="108.199" style="fill:#FFFFFF;" width="70.959" height="17.008"/>
		</g>
		<g>
			<g>
				<polygon style="fill:#FFFFFF;" points="131.412,151.304 166.033,116.703 131.412,82.103 160.791,82.103 195.39,116.703 
					160.791,151.304 				"/>
			</g>
		</g>
	</g>
	<g>
		<g>
			<g>
				<polygon style="fill:#FFFFFF;" points="187.745,151.304 222.366,116.703 187.745,82.103 217.124,82.103 251.723,116.703 
					217.124,151.304 				"/>
			</g>
		</g>
	</g>
</g>
</svg>
