<?xml version="1.0" encoding="iso-8859-1"?>
<!-- Generator: Adobe Illustrator 15.0.0, SVG Export Plug-In . SVG Version: 6.00 Build 0)  -->
<!DOCTYPE svg PUBLIC "-//W3C//DTD SVG 1.1//EN" "http://www.w3.org/Graphics/SVG/1.1/DTD/svg11.dtd">
<svg version="1.1" id="_x32__x5F_Further_x5F_Processing_x5F_Belt_x5F_Speed_x5F_Unloading"
	 xmlns="http://www.w3.org/2000/svg" xmlns:xlink="http://www.w3.org/1999/xlink" x="0px" y="0px" width="538.583px"
	 height="283.465px" viewBox="0 0 538.583 283.465" style="enable-background:new 0 0 538.583 283.465;" xml:space="preserve">
<g>
	<g>
		<path style="fill:#FFFFFF;" d="M195.619,79.434v11.339c28.137,0,51.027,22.89,51.027,51.024h11.339
			C257.985,107.409,230.009,79.434,195.619,79.434z"/>
	</g>
	<g>
		<path style="fill:#FFFFFF;" d="M193.552,133.226c-1.04,0.248-2.054,0.682-2.986,1.326c-3.982,2.772-4.974,8.279-2.212,12.283
			c2.796,4.005,8.304,4.984,12.329,2.189c0.86-0.599,1.571-1.331,2.145-2.143l32.045-32.011L193.552,133.226z"/>
	</g>
	<g>
		<path style="fill:#FFFFFF;" d="M417.544,172.46c12.647,0,22.937,10.289,22.937,22.937c0,12.646-10.289,22.936-22.937,22.936
			H128.478c-12.647,0-22.937-10.289-22.937-22.936c0-12.647,10.29-22.937,22.937-22.937H417.544 M417.544,161.121H128.478
			c-18.93,0-34.275,15.346-34.275,34.275c0,18.929,15.345,34.274,34.275,34.274h289.067c18.931,0,34.275-15.346,34.275-34.274
			C451.82,176.467,436.475,161.121,417.544,161.121L417.544,161.121z"/>
	</g>
	<g>
		<g>
			<path style="fill:#FFFFFF;" d="M125.597,152.725c-0.554-3.563-0.845-7.212-0.845-10.928c0-39.077,31.791-70.868,70.867-70.868
				c39.08,0,70.871,31.791,70.871,70.868c0,3.678-0.283,7.292-0.826,10.82h17.17c0.436-3.546,0.664-7.156,0.664-10.82
				c0-48.533-39.344-87.876-87.878-87.876c-48.532,0-87.875,39.343-87.875,87.876c0,5.281,0.467,10.453,1.36,15.478
				C114.116,154.717,119.693,153.12,125.597,152.725z"/>
		</g>
	</g>
	<g>
		<circle style="fill:#FFFFFF;" cx="128.478" cy="195.396" r="14.173"/>
	</g>
	<g>
		<circle style="fill:#FFFFFF;" cx="417.545" cy="195.396" r="14.173"/>
	</g>
	<g>
		<g>
			<rect x="305.44" y="108.199" style="fill:#FFFFFF;" width="99.306" height="17.008"/>
		</g>
		<g>
			<g>
				<polygon style="fill:#FFFFFF;" points="364.093,151.304 398.714,116.703 364.093,82.103 393.472,82.103 428.072,116.703 
					393.472,151.304 				"/>
			</g>
		</g>
	</g>
</g>
</svg>
