<?xml version="1.0" encoding="iso-8859-1"?>
<!-- Generator: Adobe Illustrator 15.0.0, SVG Export Plug-In . SVG Version: 6.00 Build 0)  -->
<!DOCTYPE svg PUBLIC "-//W3C//DTD SVG 1.1//EN" "http://www.w3.org/Graphics/SVG/1.1/DTD/svg11.dtd">
<svg version="1.1" id="_x32__x5F_Further_x5F_Processing_x5F_Air"
	 xmlns="http://www.w3.org/2000/svg" xmlns:xlink="http://www.w3.org/1999/xlink" x="0px" y="0px" width="538.583px"
	 height="283.465px" viewBox="0 0 538.583 283.465" style="enable-background:new 0 0 538.583 283.465;" xml:space="preserve">
<path style="fill:#FFFFFF;" d="M259.139,229.55c-2.901,0-5.851-0.305-8.863-0.911l0,0c-16.912-3.572-29.779-16.345-29.939-31.608
	l0,0c0-1.751,0.192-3.493,0.543-5.18l0,0c2.253-9.224,11.221-19.699,20.517-28.994l0,0c-1.231-1.566-2.319-3.23-3.253-4.987l0,0
	c-10.422,4.163-21.779,7.593-30.394,7.688l0,0c-1.478,0-2.925-0.112-4.379-0.414l0,0c-14.434-3.126-22.962-17.327-22.929-32.681l0,0
	c0-2.94,0.32-5.962,0.951-8.936l0,0c3.516-16.935,16.295-29.763,31.577-29.954l0,0c1.742,0,3.461,0.191,5.187,0.56l0,0
	c9.231,2.229,19.677,11.222,28.939,20.524l0,0c1.583-1.232,3.253-2.326,5.012-3.277l0,0c-4.164-10.446-7.608-21.778-7.681-30.419
	l0,0c0-1.518,0.104-2.941,0.4-4.362l0,0c3.132-14.426,17.343-22.962,32.703-22.93l0,0c2.941,0,5.946,0.327,8.936,0.951l0,0
	c16.951,3.477,29.787,16.304,29.963,31.575l0,0c0,1.711-0.176,3.446-0.544,5.172l0,0c-2.238,9.255-11.221,19.717-20.54,28.955l0,0
	c1.231,1.575,2.341,3.237,3.285,4.996l0,0c10.414-4.164,21.756-7.577,30.369-7.656l0,0c1.479,0,2.935,0.104,4.381,0.414l0,0v-0.016
	c14.465,3.116,22.992,17.352,22.961,32.735l0,0c0,2.918-0.304,5.907-0.936,8.952l0,0c-3.587,16.863-16.352,29.698-31.592,29.898l0,0
	c-1.727,0-3.47-0.2-5.171-0.561l0,0c-9.231-2.246-19.692-11.212-28.98-20.515l0,0c-1.559,1.23-3.229,2.317-4.987,3.276l0,0
	c4.147,10.406,7.576,21.771,7.664,30.386l0,0c0,1.479-0.087,2.91-0.391,4.372l0,0c-3.141,14.435-17.367,22.945-32.704,22.945l0,0
	C259.211,229.55,259.179,229.55,259.139,229.55L259.139,229.55z M246.096,149.133c1.279,3.853,3.516,7.225,6.466,9.936l0,0
	l4.363,3.947l-4.308,4.004c-9.862,8.862-20.588,22.426-21.155,27.069l0,0c-0.223,0.983-0.327,1.966-0.327,2.941l0,0
	c-0.176,8.52,8.263,18.334,21.362,21.019l0,0c2.262,0.464,4.483,0.695,6.642,0.695l0,0c11.765-0.04,20.7-6.386,22.226-14.33l0,0
	c0.104-0.486,0.175-1.23,0.175-2.182l0,0c0.088-6.665-4.099-20.395-8.847-31.05l0,0l-2.35-5.394l5.586-1.887
	c3.836-1.295,7.193-3.508,9.934-6.489l0,0l3.957-4.339l3.996,4.306c8.855,9.839,22.418,20.565,27.038,21.148l0,0
	c0.967,0.208,1.948,0.304,2.957,0.304l0,0c8.486,0.169,18.302-8.287,21.025-21.308l0,0c0.458-2.286,0.689-4.532,0.689-6.729l0,0
	c-0.041-11.757-6.371-20.618-14.33-22.146l0,0l1.087-5.291l-1.129,5.268c-0.47-0.089-1.229-0.167-2.157-0.167l0,0
	c-6.649-0.098-20.379,4.09-31.016,8.831l0,0l-5.395,2.356l-1.887-5.554c-1.318-3.845-3.532-7.25-6.521-9.942l0,0l-4.38-3.965
	l4.323-4.004c9.87-8.848,20.627-22.418,21.188-27.006l0,0c0.215-0.991,0.303-1.988,0.303-2.981l0,0
	c0.177-8.559-8.264-18.372-21.331-21.011l0,0c-2.301-0.463-4.572-0.711-6.753-0.711l0,0c-11.74,0.041-20.588,6.37-22.13,14.338l0,0
	c-0.088,0.504-0.176,1.23-0.176,2.149l0,0c-0.111,6.658,4.092,20.38,8.856,31.05l0,0l2.341,5.388l-5.554,1.893
	c-3.836,1.295-7.225,3.541-9.935,6.522l0,0l-3.956,4.372l-4.012-4.316c-8.879-9.887-22.418-20.611-27.021-21.179l0,0
	c-1.007-0.2-2.007-0.313-2.974-0.313l0,0c-8.544-0.152-18.342,8.257-20.995,21.331l0,0c-0.488,2.302-0.719,4.564-0.719,6.754l0,0
	c0.032,11.725,6.361,20.563,14.314,22.114l0,0c0.471,0.096,1.214,0.16,2.181,0.16l0,0c6.625,0.104,20.372-4.102,31.065-8.831l0,0
	l5.379-2.366L246.096,149.133L246.096,149.133z"/>
</svg>
