<?xml version="1.0" encoding="iso-8859-1"?>
<!-- Generator: Adobe Illustrator 15.0.0, SVG Export Plug-In . SVG Version: 6.00 Build 0)  -->
<!DOCTYPE svg PUBLIC "-//W3C//DTD SVG 1.1//EN" "http://www.w3.org/Graphics/SVG/1.1/DTD/svg11.dtd">
<svg version="1.1" id="_x32__x5F_Further_x5F_Processing_x5F_Additives"
	 xmlns="http://www.w3.org/2000/svg" xmlns:xlink="http://www.w3.org/1999/xlink" x="0px" y="0px" width="538.583px"
	 height="283.465px" viewBox="0 0 538.583 283.465" style="enable-background:new 0 0 538.583 283.465;" xml:space="preserve">
<g>
	<path style="fill:#FFFFFF;" d="M346.526,63.124c4.744,4.063,13.432,14.673,21.796,31.508c8.373,16.835,11.571,30.171,11.962,36.393
		l-69.578,23.232c-0.355-0.236-0.832-0.604-1.415-1.102l-6.699-5.922l-8.007,3.978l-6.927,3.456l-7.996,3.978l0.67,8.904
		c0.042,0.627,0.064,1.145,0.042,1.534l-7.066,3.502c-2.68-1.924-8.483-8.104-15.82-22.845c-7.325-14.782-8.752-23.145-8.676-26.431
		l7.055-3.521c0.324,0.237,0.724,0.561,1.189,0.971l6.699,5.922l8.018-3.977l6.936-3.458l7.998-3.976l-0.67-8.903
		c-0.064-0.779-0.064-1.362-0.043-1.793L346.526,63.124 M345.944,48.428c-0.778,0-1.491,0.151-2.142,0.476l-65.891,45.104
		c-3.674,1.835-5.663,6.223-5.124,13.354l-6.936,3.458c-3.727-3.307-7.142-4.841-10.114-4.841c-1.296,0-2.496,0.303-3.609,0.843
		l-11.367,5.662c-7.37,3.651-7.91,17.504,4.84,43.157c10.805,21.74,20.639,30.752,27.847,30.752c1.296,0,2.506-0.302,3.618-0.842
		l11.389-5.641c3.697-1.838,5.662-6.226,5.123-13.356l6.916-3.457c3.749,3.308,7.152,4.84,10.123,4.84
		c1.287,0,2.496-0.302,3.621-0.841l75.745-25.309c7.35-3.651,2.982-27.424-9.766-53.077
		C368.58,65.307,353.994,48.428,345.944,48.428L345.944,48.428z"/>
	<path style="fill:#FFFFFF;" d="M219.885,150.887c0,5.532-4.495,10.027-10.027,10.027c-5.533,0-10.028-4.495-10.028-10.027
		c0-5.534,4.496-10.027,10.028-10.027C215.39,140.859,219.885,145.353,219.885,150.887z"/>
	<path style="fill:#FFFFFF;" d="M241.777,188.057c0,5.533-4.495,10.029-10.027,10.029c-5.533,0-10.028-4.496-10.028-10.029
		c0-5.532,4.495-10.027,10.028-10.027C237.282,178.029,241.777,182.524,241.777,188.057z"/>
	<path style="fill:#FFFFFF;" d="M196.329,188.057c0,5.533-4.494,10.029-10.027,10.029c-5.533,0-10.028-4.496-10.028-10.029
		c0-5.532,4.495-10.027,10.028-10.027C191.834,178.029,196.329,182.524,196.329,188.057z"/>
	<path style="fill:#FFFFFF;" d="M174.437,150.887c0,5.532-4.495,10.027-10.027,10.027c-5.533,0-10.028-4.495-10.028-10.027
		c0-5.534,4.495-10.027,10.028-10.027C169.941,140.859,174.437,145.353,174.437,150.887z"/>
	<path style="fill:#FFFFFF;" d="M196.329,188.057c0,5.533-4.494,10.029-10.027,10.029c-5.533,0-10.028-4.496-10.028-10.029
		c0-5.532,4.495-10.027,10.028-10.027C191.834,178.029,196.329,182.524,196.329,188.057z"/>
	<path style="fill:#FFFFFF;" d="M150.858,188.057c0,5.533-4.495,10.029-10.027,10.029s-10.028-4.496-10.028-10.029
		c0-5.532,4.496-10.027,10.028-10.027S150.858,182.524,150.858,188.057z"/>
	<path style="fill:#FFFFFF;" d="M218.222,225.229c0,5.53-4.496,10.026-10.028,10.026s-10.027-4.496-10.027-10.026
		c0-5.533,4.495-10.029,10.027-10.029S218.222,219.696,218.222,225.229z"/>
	<path style="fill:#FFFFFF;" d="M172.752,225.229c0,5.53-4.495,10.026-10.028,10.026c-5.532,0-10.027-4.496-10.027-10.026
		c0-5.533,4.495-10.029,10.027-10.029C168.257,215.2,172.752,219.696,172.752,225.229z"/>
</g>
</svg>
