<?xml version="1.0" encoding="iso-8859-1"?>
<!-- Generator: Adobe Illustrator 15.0.0, SVG Export Plug-In . SVG Version: 6.00 Build 0)  -->
<!DOCTYPE svg PUBLIC "-//W3C//DTD SVG 1.1//EN" "http://www.w3.org/Graphics/SVG/1.1/DTD/svg11.dtd">
<svg version="1.1" id="_x32__x5F_Further_x5F_Processing_x5F_Humidity"
	 xmlns="http://www.w3.org/2000/svg" xmlns:xlink="http://www.w3.org/1999/xlink" x="0px" y="0px" width="538.583px"
	 height="283.465px" viewBox="0 0 538.583 283.465" style="enable-background:new 0 0 538.583 283.465;" xml:space="preserve">
<g>
	<g>
		<path style="fill:#FFFFFF;" d="M338.972,94.521c-8.431-14.595-49.075-42.045-53.162-39.695
			c-4.043,2.357-0.602,51.269,7.839,65.854c8.414,14.568,25.355,20.513,37.856,13.293
			C344.043,126.743,347.383,109.099,338.972,94.521z M325.37,123.319c-1.639,0.947-3.479,1.403-5.463,1.403
			c-5.91,0-12.017-3.998-15.604-10.225c-4.007-6.901-6.83-26.85-7.677-40.98c11.801,7.775,27.67,20.203,31.693,27.151
			C333.246,109.181,331.88,119.561,325.37,123.319z"/>
	</g>
	<g>
		<path style="fill:#FFFFFF;" d="M243.128,121.964c-11.436-19.821-66.683-57.123-72.228-53.918
			c-5.509,3.195-0.838,69.679,10.597,89.48c11.436,19.83,34.471,27.896,51.496,18.063
			C250.038,165.757,254.563,141.758,243.128,121.964z M236.663,150.242c-1.248,6.528-4.734,11.754-9.842,14.704
			c-2.904,1.675-6.146,2.531-9.669,2.531c-9.515,0-19.347-6.3-24.983-16.106c-6.665-11.544-10.971-46.761-11.317-66.126
			c16.607,9.95,44.932,31.329,51.624,42.873C236.536,135.155,238.02,143.005,236.663,150.242z"/>
	</g>
	<g>
		<path style="fill:#FFFFFF;" d="M328.157,187.116c-8.432-14.604-49.029-42.046-53.118-39.687
			c-4.068,2.349-0.665,51.24,7.794,65.862c8.385,14.55,25.357,20.458,37.875,13.238
			C333.181,219.311,336.569,201.647,328.157,187.116z M320.189,207.292c-0.428,2.231-1.73,6.328-5.654,8.604
			c-1.62,0.929-3.459,1.401-5.491,1.401c-5.88,0-11.99-3.979-15.54-10.159c-4.024-6.938-6.829-26.887-7.647-41.018
			c11.772,7.766,27.641,20.193,31.647,27.15C320.109,197.77,321.064,202.731,320.189,207.292z"/>
	</g>
</g>
</svg>
