<?xml version="1.0" encoding="iso-8859-1"?>
<!-- Generator: Adobe Illustrator 15.0.0, SVG Export Plug-In . SVG Version: 6.00 Build 0)  -->
<!DOCTYPE svg PUBLIC "-//W3C//DTD SVG 1.1//EN" "http://www.w3.org/Graphics/SVG/1.1/DTD/svg11.dtd">
<svg version="1.1" id="_x32__x5F_Further_x5F_Processing_x5F_Heating"
	 xmlns="http://www.w3.org/2000/svg" xmlns:xlink="http://www.w3.org/1999/xlink" x="0px" y="0px" width="538.583px"
	 height="283.465px" viewBox="0 0 538.583 283.465" style="enable-background:new 0 0 538.583 283.465;" xml:space="preserve">
<g>
	<path style="fill:#FFFFFF;" d="M302.971,229.511h-17.008c0-14.871,10.611-22.981,16.954-25.465c1.114-0.48,6.252-3.057,6.252-9.666
		c0-7.174-6.097-9.606-6.158-9.63c-6.332-2.44-17.048-10.557-17.048-25.501c0-14.87,10.61-22.98,16.953-25.464
		c1.115-0.48,6.253-3.057,6.253-9.666c0-6.612-5.142-9.188-6.254-9.667c-6.344-2.485-16.952-10.596-16.952-25.464
		s10.61-22.979,16.953-25.463c1.115-0.481,6.253-3.058,6.253-9.667h17.008c0,14.868-10.61,22.979-16.955,25.464
		c-1.114,0.48-6.251,3.057-6.251,9.666c0,7.175,6.094,9.606,6.155,9.63c6.333,2.44,17.051,10.557,17.051,25.501
		c0,14.868-10.61,22.978-16.955,25.463c-1.114,0.48-6.251,3.058-6.251,9.667c0,7.175,6.094,9.606,6.155,9.63
		c6.333,2.44,17.051,10.558,17.051,25.501c0,14.869-10.61,22.979-16.955,25.463C308.107,220.323,302.971,222.9,302.971,229.511z"/>
	<path style="fill:#FFFFFF;" d="M244.932,229.511h-17.008c0-14.871,10.612-22.981,16.956-25.465c1.114-0.48,6.252-3.057,6.252-9.666
		c0-6.607-5.136-9.185-6.253-9.667c-6.344-2.483-16.956-10.594-16.956-25.464s10.612-22.98,16.956-25.464
		c1.116-0.481,6.252-3.058,6.252-9.666c0-7.175-6.097-9.606-6.158-9.63c-6.333-2.44-17.05-10.557-17.05-25.501
		c0-14.868,10.611-22.979,16.955-25.463c1.116-0.481,6.253-3.059,6.253-9.667h17.008c0,14.868-10.611,22.979-16.956,25.464
		c-1.114,0.479-6.253,3.057-6.253,9.666c0,7.175,6.095,9.606,6.157,9.63c6.333,2.44,17.051,10.557,17.051,25.501
		c0,14.869-10.612,22.979-16.957,25.463c-1.117,0.481-6.252,3.059-6.252,9.667c0,7.175,6.095,9.606,6.157,9.63
		c6.333,2.44,17.051,10.558,17.051,25.501c0,14.87-10.612,22.979-16.957,25.463C250.067,220.324,244.932,222.902,244.932,229.511z"
		/>
	<path style="fill:#FFFFFF;" d="M186.893,229.511h-17.008c0-14.871,10.612-22.981,16.956-25.465c1.114-0.48,6.252-3.057,6.252-9.666
		c0-6.607-5.136-9.185-6.253-9.667c-6.344-2.483-16.956-10.594-16.956-25.464s10.612-22.98,16.956-25.464
		c1.116-0.481,6.252-3.058,6.252-9.666c0-7.175-6.097-9.606-6.158-9.63c-6.333-2.44-17.05-10.557-17.05-25.501
		c0-14.868,10.611-22.979,16.955-25.463c1.116-0.481,6.253-3.059,6.253-9.667h17.008c0,14.868-10.611,22.979-16.956,25.464
		c-1.114,0.479-6.253,3.057-6.253,9.666c0,7.175,6.095,9.606,6.157,9.63c6.333,2.44,17.051,10.557,17.051,25.501
		c0,14.869-10.612,22.979-16.957,25.463c-1.117,0.481-6.252,3.059-6.252,9.667c0,7.175,6.095,9.606,6.157,9.63
		c6.333,2.44,17.051,10.558,17.051,25.501c0,14.87-10.612,22.979-16.957,25.463C192.028,220.324,186.893,222.902,186.893,229.511z"
		/>
</g>
</svg>
