<?xml version="1.0" encoding="iso-8859-1"?>
<!-- Generator: Adobe Illustrator 15.0.0, SVG Export Plug-In . SVG Version: 6.00 Build 0)  -->
<!DOCTYPE svg PUBLIC "-//W3C//DTD SVG 1.1//EN" "http://www.w3.org/Graphics/SVG/1.1/DTD/svg11.dtd">
<svg version="1.1" id="_x32__x5F_Further_x5F_Processing_x5F_Drum"
	 xmlns="http://www.w3.org/2000/svg" xmlns:xlink="http://www.w3.org/1999/xlink" x="0px" y="0px" width="538.583px"
	 height="283.465px" viewBox="0 0 538.583 283.465" style="enable-background:new 0 0 538.583 283.465;" xml:space="preserve">
<path style="fill:#FFFFFF;" d="M314.04,53.858h-79.314c-34.05,0-61.652,39.343-61.652,87.875s27.603,87.875,61.652,87.875h79.314
	c34.049,0,61.651-39.343,61.651-87.875S348.088,53.858,314.04,53.858z M309.275,213.646c-27.865,0-50.454-32.196-50.454-71.912
	s22.589-71.912,50.454-71.912c27.864,0,50.453,32.196,50.453,71.912S337.139,213.646,309.275,213.646z M189.036,141.733
	c0-38.98,20.923-71.912,45.689-71.912H277.9c-4.953,3.912-9.528,8.77-13.584,14.551c-10.856,15.473-16.834,35.844-16.834,57.361
	s5.978,41.889,16.834,57.361c4.056,5.781,8.631,10.639,13.584,14.551h-43.175C209.959,213.646,189.036,180.714,189.036,141.733z"/>
</svg>
