<?xml version="1.0" encoding="iso-8859-1"?>
<!-- Generator: Adobe Illustrator 15.0.0, SVG Export Plug-In . SVG Version: 6.00 Build 0)  -->
<!DOCTYPE svg PUBLIC "-//W3C//DTD SVG 1.1//EN" "http://www.w3.org/Graphics/SVG/1.1/DTD/svg11.dtd">
<svg version="1.1" id="_x32__x5F_Further_x5F_Processing_x5F_Belt_x5F_Speed_x5F_Loading"
	 xmlns="http://www.w3.org/2000/svg" xmlns:xlink="http://www.w3.org/1999/xlink" x="0px" y="0px" width="538.583px"
	 height="283.465px" viewBox="0 0 538.583 283.465" style="enable-background:new 0 0 538.583 283.465;" xml:space="preserve">
<g>
	<g>
		<path style="fill:#FFFFFF;" d="M417.544,172.46c12.647,0,22.937,10.289,22.937,22.937c0,12.646-10.289,22.936-22.937,22.936
			H128.478c-12.647,0-22.937-10.289-22.937-22.936c0-12.647,10.29-22.937,22.937-22.937H417.544 M417.544,161.121H128.478
			c-18.93,0-34.275,15.346-34.275,34.275c0,18.929,15.345,34.274,34.275,34.274h289.067c18.931,0,34.275-15.346,34.275-34.274
			C451.82,176.467,436.475,161.121,417.544,161.121L417.544,161.121z"/>
	</g>
	<g>
		<circle style="fill:#FFFFFF;" cx="128.478" cy="195.396" r="14.173"/>
	</g>
	<g>
		<circle style="fill:#FFFFFF;" cx="417.545" cy="195.396" r="14.173"/>
	</g>
	<g>
		<g>
			<rect x="121.187" y="108.199" style="fill:#FFFFFF;" width="99.309" height="17.008"/>
		</g>
		<g>
			<g>
				<polygon style="fill:#FFFFFF;" points="179.842,151.304 214.464,116.703 179.842,82.103 209.222,82.103 243.823,116.703 
					209.222,151.304 				"/>
			</g>
		</g>
	</g>
	<path style="fill:#FFFFFF;" d="M349.628,79.371V90.71c28.137,0,51.026,22.89,51.026,51.024h11.339
		C411.994,107.347,384.018,79.371,349.628,79.371z"/>
	<path style="fill:#FFFFFF;" d="M347.561,133.163c-1.04,0.248-2.054,0.682-2.986,1.326c-3.981,2.772-4.973,8.279-2.212,12.283
		c2.796,4.005,8.304,4.984,12.329,2.189c0.859-0.599,1.57-1.331,2.144-2.143l32.045-32.011L347.561,133.163z"/>
	<g>
		<path style="fill:#FFFFFF;" d="M279.6,152.617c-0.549-3.549-0.837-7.183-0.837-10.883c0-39.077,31.791-70.868,70.865-70.868
			c39.079,0,70.87,31.791,70.87,70.868c0,3.719-0.292,7.37-0.847,10.937c5.906,0.288,11.501,1.78,16.546,4.234
			c0.857-4.929,1.309-9.997,1.309-15.171c0-48.533-39.344-87.876-87.878-87.876c-48.53,0-87.873,39.343-87.873,87.876
			c0,3.686,0.23,7.316,0.671,10.883H279.6z"/>
	</g>
</g>
</svg>
