<?xml version="1.0" encoding="iso-8859-1"?>
<!-- Generator: Adobe Illustrator 15.0.0, SVG Export Plug-In . SVG Version: 6.00 Build 0)  -->
<!DOCTYPE svg PUBLIC "-//W3C//DTD SVG 1.1//EN" "http://www.w3.org/Graphics/SVG/1.1/DTD/svg11.dtd">
<svg version="1.1" id="_x32__x5F_Further_x5F_Processing_x5F_Sprayer_x5F_2"
	 xmlns="http://www.w3.org/2000/svg" xmlns:xlink="http://www.w3.org/1999/xlink" x="0px" y="0px" width="538.583px"
	 height="283.465px" viewBox="0 0 538.583 283.465" style="enable-background:new 0 0 538.583 283.465;" xml:space="preserve">
<g>
	<path style="fill:#FFFFFF;" d="M305.169,145.004l47.697,47.706c2.057,2.086,2.057,5.479-0.046,7.572
		c-2.087,2.076-5.46,2.076-7.564,0l-47.641-47.753c-2.067-2.076-2.086-5.45,0.027-7.525
		C299.719,142.909,303.129,142.909,305.169,145.004z"/>
	<path style="fill:#FFFFFF;" d="M277.873,164.208l17.249,65.226c0.77,2.826-0.964,5.783-3.8,6.506
		c-2.874,0.777-5.783-0.936-6.544-3.8l-17.25-65.215c-0.741-2.8,0.937-5.729,3.837-6.472
		C274.184,159.676,277.131,161.391,277.873,164.208z"/>
	<path style="fill:#FFFFFF;" d="M233.809,163.689l-17.277,65.216c-0.742,2.891,1.001,5.792,3.819,6.533
		c2.864,0.751,5.756-0.936,6.534-3.8l17.24-65.216c0.742-2.836-0.945-5.756-3.81-6.507
		C237.479,159.138,234.541,160.853,233.809,163.689z"/>
	<path style="fill:#FFFFFF;" d="M206.475,144.743l-47.641,47.717c-2.095,2.094-2.048,5.524,0.009,7.563
		c2.123,2.131,5.469,2.094,7.582,0l47.642-47.736c2.067-2.094,2.067-5.449-0.046-7.544
		C211.972,142.667,208.551,142.667,206.475,144.743z"/>
	<path style="fill:#FFFFFF;" d="M268.086,64.703v38.813v11.036h11.036h10.084c-4.64,14.064-17.898,24.243-33.486,24.243
		c-15.597,0-28.861-10.179-33.504-24.243h10.621h11.036v-11.036V64.742L268.086,64.703 M279.122,53.649l-46.285,0.074v49.793
		h-23.424c0,25.571,20.716,46.315,46.307,46.315c25.544,0,46.288-20.744,46.288-46.315h-22.886V53.649L279.122,53.649z"/>
</g>
</svg>
