<?xml version="1.0" encoding="iso-8859-1"?>
<!-- Generator: Adobe Illustrator 15.0.0, SVG Export Plug-In . SVG Version: 6.00 Build 0)  -->
<!DOCTYPE svg PUBLIC "-//W3C//DTD SVG 1.1//EN" "http://www.w3.org/Graphics/SVG/1.1/DTD/svg11.dtd">
<svg version="1.1" id="_x32__x5F_Further_x5F_Processing_x5F_Temperature"
	 xmlns="http://www.w3.org/2000/svg" xmlns:xlink="http://www.w3.org/1999/xlink" x="0px" y="0px" width="538.583px"
	 height="283.465px" viewBox="0 0 538.583 283.465" style="enable-background:new 0 0 538.583 283.465;" xml:space="preserve">
<path style="fill:#FFFFFF;" d="M208.454,57.203l-4.409,2.367c-10.852,5.768-15.009,19.256-9.268,30.062l45.494,85.85
	c-4.598,10.815-4.157,22.989,1.403,33.453c10.051,19.004,33.833,26.203,52.872,16.106c19.103-10.177,26.364-33.877,16.269-52.916
	c-5.516-10.493-15.342-17.627-26.796-19.904l-45.494-85.84C232.766,55.574,219.287,51.462,208.454,57.203z M228.348,71.771
	l27.596,52.062l-23.439,12.453l-27.569-52.054c-2.205-4.102-1.413-9.285,1.916-12.596c0.756-0.756,1.62-1.387,2.591-1.9l4.499-2.465
	C219.062,64.554,225.576,66.57,228.348,71.771z"/>
</svg>
