<?xml version="1.0" encoding="iso-8859-1"?>
<!-- Generator: Adobe Illustrator 15.0.0, SVG Export Plug-In . SVG Version: 6.00 Build 0)  -->
<!DOCTYPE svg PUBLIC "-//W3C//DTD SVG 1.1//EN" "http://www.w3.org/Graphics/SVG/1.1/DTD/svg11.dtd">
<svg version="1.1" id="_x32__x5F_Further_x5F_Processing_x5F_Belt_x5F_Run"
	 xmlns="http://www.w3.org/2000/svg" xmlns:xlink="http://www.w3.org/1999/xlink" x="0px" y="0px" width="538.583px"
	 height="283.465px" viewBox="0 0 538.583 283.465" style="enable-background:new 0 0 538.583 283.465;" xml:space="preserve">
<g>
	<path style="fill:#FFFFFF;" d="M339.613,186.614c-24.732,0-44.854-20.12-44.854-44.851s20.121-44.851,44.854-44.851
		c24.734,0,44.857,20.12,44.857,44.851S364.347,186.614,339.613,186.614z M339.613,113.921c-15.354,0-27.846,12.49-27.846,27.843
		s12.491,27.843,27.846,27.843c15.356,0,27.85-12.49,27.85-27.843S354.969,113.921,339.613,113.921z"/>
	<g>
		<path style="fill:#FFFFFF;" d="M339.613,53.858H224.581l-10.492,17.008h125.524c39.094,0,70.899,31.806,70.899,70.899
			c0,39.093-31.806,70.897-70.899,70.897H126.614l-10.492,17.008h223.491c48.553,0,87.907-39.358,87.907-87.905
			C427.52,93.217,388.166,53.858,339.613,53.858z"/>
	</g>
</g>
</svg>
