<?xml version="1.0" encoding="iso-8859-1"?>
<!-- Generator: Adobe Illustrator 15.0.0, SVG Export Plug-In . SVG Version: 6.00 Build 0)  -->
<!DOCTYPE svg PUBLIC "-//W3C//DTD SVG 1.1//EN" "http://www.w3.org/Graphics/SVG/1.1/DTD/svg11.dtd">
<svg version="1.1" id="_x32__x5F_Grading_x5F_Batching_x5F_Head_x5F_Linestate"
	 xmlns="http://www.w3.org/2000/svg" xmlns:xlink="http://www.w3.org/1999/xlink" x="0px" y="0px" width="538.583px"
	 height="283.465px" viewBox="0 0 538.583 283.465" style="enable-background:new 0 0 538.583 283.465;" xml:space="preserve">
<g>
	<g>
		<circle style="fill:#FFFFFF;" cx="289.006" cy="185.222" r="7.974"/>
		<path style="fill:#FFFFFF;" d="M273.882,184.539l-36.201,15.874c-0.126,0.048-0.256,0.095-0.38,0.15
			c-3.357,1.54-4.829,5.512-3.289,8.866c1.521,3.317,5.42,4.79,8.75,3.336l0.003,0.005l36.457-15.985
			C275.54,193.678,273.68,189.11,273.882,184.539z"/>
		<path style="fill:#FFFFFF;" d="M296.228,70.387c-18.992-2.792-95.674-13.944-96.34-14.041l-17.116-2.487l28.334,175.784
			l11.969-5.277L198.01,68.861l0.057,0.009c0.667,0.098,77.336,11.247,96.321,14.039c8.531,1.255,15.938,5.92,20.857,13.136
			c6.832,10.021,8.543,24.385,4.814,40.441c-1.638,7.056-4.778,19.334-7.548,30.166c-2.146,8.393-4.063,15.884-5.192,20.571
			l14.654-6.461c0.857-3.382,1.818-7.139,2.8-10.975c2.786-10.896,5.944-23.246,7.614-30.439
			c4.536-19.543,2.163-37.453-6.685-50.433C318.767,78.743,308.3,72.162,296.228,70.387z"/>
	</g>
	<g>
		<polygon style="fill:#FFFFFF;" points="408.66,153.359 384.147,177.872 359.633,153.359 350.836,162.155 375.35,186.669 
			350.834,211.183 359.631,219.979 384.147,195.465 408.66,219.979 417.457,211.182 392.944,186.669 417.457,162.155 		"/>
	</g>
	<g>
		<path style="fill:#FFFFFF;" d="M382.341,140.098c-2.706,0-5.332-1.198-7.308-3.358l-20.824-22.732l12.541-11.488l14.824,16.182
			l37.438-52.931l13.885,9.822l-42.532,60.132c-1.768,2.546-4.423,4.125-7.312,4.346
			C382.817,140.088,382.579,140.098,382.341,140.098z"/>
	</g>
</g>
</svg>
