<?xml version="1.0" encoding="iso-8859-1"?>
<!-- Generator: Adobe Illustrator 15.0.0, SVG Export Plug-In . SVG Version: 6.00 Build 0)  -->
<!DOCTYPE svg PUBLIC "-//W3C//DTD SVG 1.1//EN" "http://www.w3.org/Graphics/SVG/1.1/DTD/svg11.dtd">
<svg version="1.1" id="_x32__x5F_Grading_x5F_Batching_x5F_Hopper_x5F_Reset_x5F_Limit"
	 xmlns="http://www.w3.org/2000/svg" xmlns:xlink="http://www.w3.org/1999/xlink" x="0px" y="0px" width="538.583px"
	 height="283.465px" viewBox="0 0 538.583 283.465" style="enable-background:new 0 0 538.583 283.465;" xml:space="preserve">
<g>
	<polygon style="fill:#FFFFFF;" points="301.764,60.98 291.772,60.98 291.772,72.318 301.764,72.318 301.764,80.96 291.772,80.96 
		291.772,92.298 301.764,92.298 301.764,100.941 280.433,100.941 280.433,112.279 301.764,112.279 301.764,120.922 291.772,120.922 
		291.772,132.26 301.764,132.26 301.764,140.902 291.772,140.902 291.772,152.24 301.764,152.24 301.764,160.883 280.433,160.883 
		280.433,172.221 301.764,172.221 301.764,205.316 259.103,205.316 259.103,53.858 247.764,53.858 247.764,216.654 313.103,216.654 
		313.103,53.858 301.764,53.858 	"/>
	<g>
		<g>
			<path style="fill:#FFFFFF;" d="M373.402,147.769c-0.186-4.613-0.354-10.186-0.354-15.763h-0.109
				c-1.25,4.891-2.838,10.354-4.32,14.853l-4.676,14.968h-6.758l-4.105-14.799c-1.25-4.552-2.5-10.015-3.473-15.021H349.5
				c-0.17,5.176-0.402,11.095-0.633,15.871l-0.74,14.566h-8.025l2.455-38.346h11.541l3.766,12.799
				c1.25,4.438,2.393,9.222,3.24,13.711h0.232c1.018-4.429,2.33-9.506,3.641-13.765l4.043-12.745h11.374l2.053,38.346h-8.427
				L373.402,147.769z"/>
			<path style="fill:#FFFFFF;" d="M397.845,152.6l-2.73,9.844h-8.936l11.666-38.346h11.389l11.943,38.346h-9.382l-2.962-9.844
				H397.845z M407.583,146.118l-2.393-8.134c-0.68-2.284-1.375-5.123-1.945-7.406h-0.107c-0.57,2.283-1.141,5.185-1.76,7.406
				l-2.283,8.134H407.583z"/>
			<path style="fill:#FFFFFF;" d="M445.068,162.443l-3.473-6.937c-1.418-2.677-2.33-4.668-3.412-6.891h-0.107
				c-0.801,2.223-1.775,4.214-3.025,6.891l-3.133,6.937h-9.891l11.094-19.397l-10.693-18.948h9.953l3.35,6.997
				c1.141,2.339,2.006,4.206,2.918,6.382h0.106c0.913-2.455,1.653-4.167,2.624-6.382l3.242-6.997h9.891l-10.801,18.718
				l11.371,19.628H445.068z"/>
		</g>
	</g>
	<g>
		<circle style="fill:#FFFFFF;" cx="180.958" cy="180.051" r="7.144"/>
		<path style="fill:#FFFFFF;" d="M167.409,179.438l-32.433,14.222c-0.113,0.043-0.229,0.085-0.341,0.135
			c-3.008,1.38-4.326,4.938-2.946,7.943c1.363,2.972,4.855,4.291,7.839,2.988l0.003,0.005l32.662-14.321
			C168.895,187.626,167.229,183.534,167.409,179.438z"/>
		<path style="fill:#FFFFFF;" d="M187.428,77.17c-17.014-2.501-85.714-12.492-86.311-12.579l-15.334-2.229l25.385,157.484
			l10.723-4.728L99.436,75.804l0.051,0.008c0.598,0.087,69.285,10.076,86.293,12.577c7.643,1.124,14.279,5.304,18.687,11.769
			c6.121,8.979,7.653,21.846,4.313,36.231c-1.468,6.321-4.281,17.321-6.763,27.025c-1.923,7.519-3.64,14.23-4.651,18.43
			l13.129-5.788c0.768-3.03,1.629-6.396,2.508-9.832c2.496-9.762,5.326-20.826,6.822-27.271c4.064-17.509,1.938-33.555-5.989-45.183
			C207.622,84.656,198.244,78.761,187.428,77.17z"/>
	</g>
</g>
</svg>
