<?xml version="1.0" encoding="iso-8859-1"?>
<!-- Generator: Adobe Illustrator 15.0.0, SVG Export Plug-In . SVG Version: 6.00 Build 0)  -->
<!DOCTYPE svg PUBLIC "-//W3C//DTD SVG 1.1//EN" "http://www.w3.org/Graphics/SVG/1.1/DTD/svg11.dtd">
<svg version="1.1" id="_x32__x5F_Grading_x5F_Batching_x5F_Number_x5F_of_x5F_Heads"
	 xmlns="http://www.w3.org/2000/svg" xmlns:xlink="http://www.w3.org/1999/xlink" x="0px" y="0px" width="538.583px"
	 height="283.465px" viewBox="0 0 538.583 283.465" style="enable-background:new 0 0 538.583 283.465;" xml:space="preserve">
<g>
	<path style="fill:#FFFFFF;" d="M403.529,126.864l12.26-18.324h-12.564l-3.275,6.213c-0.988,1.967-1.901,3.854-2.893,5.977h-0.151
		c-0.991-1.886-1.98-3.774-3.047-5.74l-3.655-6.449h-12.945l12.336,18.875l-12.641,19.582h12.717l3.503-6.921
		c0.914-1.887,1.904-3.774,2.818-5.819h0.229c0.837,1.966,1.828,3.933,2.893,5.819l3.731,6.921h13.098L403.529,126.864z"/>
	<circle style="fill:#FFFFFF;" cx="228.778" cy="209.654" r="7.144"/>
	<path style="fill:#FFFFFF;" d="M215.229,209.042l-32.433,14.222c-0.113,0.043-0.229,0.085-0.34,0.135
		c-3.008,1.38-4.326,4.938-2.946,7.943c1.363,2.972,4.855,4.291,7.838,2.988l0.003,0.005l32.663-14.321
		C216.715,217.229,215.048,213.138,215.229,209.042z"/>
	<path style="fill:#FFFFFF;" d="M235.248,106.773c-17.014-2.501-85.714-12.492-86.312-12.579l-15.333-2.229l25.384,157.484
		l10.723-4.728l-22.456-139.315l0.052,0.008c0.598,0.087,69.284,10.076,86.292,12.577c7.644,1.124,14.28,5.304,18.687,11.769
		c6.121,8.979,7.653,21.846,4.313,36.231c-1.467,6.321-4.28,17.321-6.762,27.025c-1.923,7.519-3.639,14.23-4.651,18.43l13.128-5.788
		c0.769-3.03,1.629-6.396,2.508-9.832c2.497-9.762,5.326-20.826,6.822-27.271c4.064-17.509,1.938-33.555-5.989-45.183
		C255.442,114.26,246.064,108.364,235.248,106.773z"/>
	<path style="fill:#FFFFFF;" d="M274.828,79.159c-17.014-2.501-85.714-12.492-86.312-12.579l-15.333-2.229l3.617,22.439
		c3.753,0.546,7.718,1.123,11.761,1.712l-1.727-10.71l0.052,0.008c0.598,0.087,69.284,10.076,86.292,12.577
		c7.644,1.124,14.28,5.304,18.687,11.769c6.122,8.979,7.654,21.846,4.313,36.231c-1.468,6.321-4.281,17.321-6.763,27.025
		c-1.923,7.519-3.639,14.23-4.651,18.43l13.129-5.788c0.769-3.03,1.629-6.396,2.508-9.832c2.497-9.762,5.326-20.826,6.822-27.271
		c4.064-17.509,1.938-33.555-5.989-45.183C295.021,86.646,285.644,80.75,274.828,79.159z"/>
	<path style="fill:#FFFFFF;" d="M314.41,51.545c-17.014-2.501-85.716-12.492-86.313-12.579l-15.333-2.229l3.617,22.439
		c3.753,0.546,7.718,1.123,11.761,1.712l-1.727-10.71l0.052,0.008c0.598,0.087,69.285,10.076,86.293,12.577
		c7.644,1.124,14.28,5.304,18.687,11.769c6.121,8.979,7.653,21.846,4.313,36.231c-1.468,6.321-4.28,17.321-6.763,27.025
		c-1.922,7.519-3.639,14.23-4.65,18.43l13.128-5.788c0.769-3.03,1.629-6.396,2.508-9.832c2.497-9.762,5.326-20.826,6.822-27.271
		c4.064-17.509,1.938-33.555-5.989-45.183C334.603,59.031,325.226,53.136,314.41,51.545z"/>
</g>
</svg>
