<?xml version="1.0" encoding="iso-8859-1"?>
<!-- Generator: Adobe Illustrator 15.0.0, SVG Export Plug-In . SVG Version: 6.00 Build 0)  -->
<!DOCTYPE svg PUBLIC "-//W3C//DTD SVG 1.1//EN" "http://www.w3.org/Graphics/SVG/1.1/DTD/svg11.dtd">
<svg version="1.1" id="_x32__x5F_Grading_x5F_Batching_x5F_Profile_x5F_Settings"
	 xmlns="http://www.w3.org/2000/svg" xmlns:xlink="http://www.w3.org/1999/xlink" x="0px" y="0px" width="538.583px"
	 height="283.465px" viewBox="0 0 538.583 283.465" style="enable-background:new 0 0 538.583 283.465;" xml:space="preserve">
<g>
	<g>
		<path style="fill:#FFFFFF;" d="M207.712,74.374c9.438,0,19.596,5.294,19.596,16.918c0,6.206-0.89,8.374-3.04,13.611
			c-0.823,2.006-1.756,4.279-2.73,7.015l-3.586,10.074l7.525,7.598c18.5,18.681,30.067,46.278,30.311,72.211
			c-0.918,0.975-4.33,3.912-13.981,6.647c-9.448,2.678-21.556,4.152-34.099,4.152c-12.537,0-24.644-1.475-34.091-4.152
			c-9.65-2.735-13.062-5.673-13.98-6.647c0.244-25.934,11.811-53.53,30.312-72.211l7.524-7.598l-3.586-10.073
			c-0.974-2.737-1.908-5.012-2.731-7.019c-2.149-5.236-3.039-7.404-3.039-13.608C188.116,79.668,198.274,74.374,207.712,74.374
			 M207.712,57.366c-20.223,0-36.604,13.717-36.604,33.926c0,12.617,3.295,16.608,6.755,26.33
			c-23.057,23.281-35.239,56.251-35.239,85.013c0,17.983,32.544,26.975,65.088,26.974c32.543,0.001,65.087-8.99,65.087-26.974
			c0-28.762-12.182-61.731-35.238-85.013c3.461-9.722,6.755-13.713,6.755-26.33C244.316,71.083,227.936,57.366,207.712,57.366
			L207.712,57.366z"/>
	</g>
	<path style="fill:#FFFFFF;" d="M400.66,123.079c8.276-1.444,17.374-3.034,18.903-3.316c-0.425-2.477-2.675-15.194-3.106-17.668
		c-1.518,0.284-10.624,1.877-18.908,3.322c-2.159-5.58-5.381-10.661-9.53-14.989c4.822-6.876,10.127-14.442,11.015-15.726
		c-2.05-1.429-12.624-8.837-14.684-10.294c-0.896,1.279-6.202,8.851-11.024,15.723c-5.479-2.425-11.348-3.715-17.331-3.852
		c-1.445-8.268-3.065-17.382-3.321-18.913c-2.48,0.452-15.19,2.677-17.68,3.124c0.274,1.526,1.874,10.609,3.336,18.882
		c-5.604,2.171-10.675,5.406-14.992,9.541c-6.873-4.832-14.443-10.106-15.719-11.011c-1.438,2.063-8.852,12.62-10.295,14.697
		c1.278,0.879,8.833,6.195,15.713,11.012c-2.415,5.457-3.727,11.339-3.859,17.326c-8.278,1.478-17.384,3.077-18.894,3.321
		c0.431,2.508,2.672,15.206,3.096,17.68c1.535-0.285,10.626-1.858,18.902-3.319c2.167,5.577,5.396,10.659,9.546,14.983
		c-4.831,6.898-10.144,14.455-11.022,15.713c2.06,1.449,12.633,8.849,14.699,10.31c0.89-1.276,6.178-8.832,11.008-15.738
		c5.472,2.441,11.35,3.74,17.343,3.869c1.461,8.285,3.054,17.382,3.326,18.91c2.466-0.45,15.191-2.673,17.672-3.106
		c-0.264-1.543-1.875-10.624-3.334-18.888c5.595-2.179,10.674-5.395,14.991-9.555c6.888,4.818,14.442,10.131,15.721,11.012
		c1.444-2.059,8.849-12.634,10.284-14.678c-1.254-0.896-8.831-6.204-15.697-11.018C399.224,134.93,400.519,129.093,400.66,123.079z
		 M354.93,136.602c-8.051,0-14.609-6.532-14.609-14.58c0-8.055,6.559-14.576,14.609-14.576c8.035,0,14.578,6.521,14.578,14.576
		C369.508,130.069,362.965,136.602,354.93,136.602z"/>
</g>
</svg>
