<?xml version="1.0" encoding="iso-8859-1"?>
<!-- Generator: Adobe Illustrator 15.0.0, SVG Export Plug-In . SVG Version: 6.00 Build 0)  -->
<!DOCTYPE svg PUBLIC "-//W3C//DTD SVG 1.1//EN" "http://www.w3.org/Graphics/SVG/1.1/DTD/svg11.dtd">
<svg version="1.1" id="_x32__x5F_Grading_x5F_Batching_x5F_Max_x5F_Vibrator_x5F_Time"
	 xmlns="http://www.w3.org/2000/svg" xmlns:xlink="http://www.w3.org/1999/xlink" x="0px" y="0px" width="538.583px"
	 height="283.465px" viewBox="0 0 538.583 283.465" style="enable-background:new 0 0 538.583 283.465;" xml:space="preserve">
<g>
	<g>
		<path style="fill:#FFFFFF;" d="M179.216,106.95c3.594-2.234,7.563-3.913,11.795-4.929V53.458
			c-17.375,1.846-33.238,8.738-46.105,19.183L179.216,106.95z"/>
		<path style="fill:#FFFFFF;" d="M161.397,150.892h-48.601c1.899,17.238,8.765,32.976,19.14,45.757l34.312-34.311
			C164.074,158.844,162.422,154.993,161.397,150.892z"/>
		<path style="fill:#FFFFFF;" d="M165.979,120.344l-34.348-34.347c-10.342,12.886-17.152,28.726-18.924,46.064h48.529
			C162.204,127.868,163.816,123.922,165.979,120.344z"/>
		<path style="fill:#FFFFFF;" d="M255.946,72.642c-12.869-10.445-28.73-17.338-46.105-19.184v48.563
			c4.23,1.016,8.202,2.695,11.796,4.93L255.946,72.642z"/>
		<path style="fill:#FFFFFF;" d="M221.212,175.572c-3.48,2.104-7.309,3.688-11.371,4.662v48.563
			c17.203-1.827,32.918-8.607,45.718-18.879L221.212,175.572z"/>
		<path style="fill:#FFFFFF;" d="M234.604,162.336l34.312,34.31c10.374-12.78,17.24-28.517,19.14-45.754h-48.604
			C238.431,154.992,236.776,158.842,234.604,162.336z"/>
		<path style="fill:#FFFFFF;" d="M239.612,132.062h48.531c-1.771-17.338-8.584-33.177-18.924-46.063l-34.348,34.347
			C237.036,123.923,238.646,127.869,239.612,132.062z"/>
		<path style="fill:#FFFFFF;" d="M145.293,209.922c12.8,10.27,28.515,17.05,45.718,18.876v-48.563
			c-4.064-0.975-7.891-2.557-11.369-4.661L145.293,209.922z"/>
		<path style="fill:#FFFFFF;" d="M312.75,161.977c0-11.445-2.419-22.321-6.747-32.168c0.438,3.915,0.67,7.893,0.67,11.925
			c0,46.28-29.597,85.642-70.889,100.211C278.56,240.322,312.75,205.151,312.75,161.977z"/>
		<path style="fill:#FFFFFF;" d="M325.352,168.495c-1.205,21.898-10.133,42.453-25.469,58.34
			c-5.442,5.637-11.508,10.473-18.034,14.479c23.018-1.853,46.459-24.874,46.459-51.922
			C328.308,181.958,328.158,174.894,325.352,168.495z"/>
		<path style="fill:#FFFFFF;" d="M165.064,41.647c-42.777,1.622-76.964,36.793-76.964,79.968c0,11.445,2.419,22.321,6.747,32.168
			c-0.438-3.915-0.67-7.893-0.67-11.925C94.178,95.578,123.771,56.217,165.064,41.647z"/>
		<path style="fill:#FFFFFF;" d="M118.999,42.277C95.983,44.13,72.542,67.151,72.542,94.199c0,7.435,0.15,14.499,2.956,20.897
			c1.205-21.898,10.133-42.453,25.469-58.34C106.408,51.12,112.475,46.284,118.999,42.277z"/>
	</g>
	<path style="fill:#FFFFFF;" d="M324.781,129.454c2.74,4.995,4.283,9.989,5.149,13.902l29.185-29.153L324.781,129.454z"/>
	<path style="fill:#FFFFFF;" d="M319.863,53.253c-15.987,0-30.977,4.271-43.893,11.733c4.568,3.817,8.789,8.037,12.606,12.604
		c7.837-3.874,16.482-6.355,25.618-7.083v11.089h11.338V70.508c34.563,2.751,62.203,30.391,64.954,64.952h-11.092v11.338h11.092
		c-2.441,30.669-24.487,55.87-53.572,63.083c-2.979,8.008-7.24,14.335-11.089,18.916c45.753-3.065,81.916-41.141,81.916-87.668
		C407.741,92.596,368.397,53.253,319.863,53.253z"/>
</g>
</svg>
