<?xml version="1.0" encoding="iso-8859-1"?>
<!-- Generator: Adobe Illustrator 15.0.0, SVG Export Plug-In . SVG Version: 6.00 Build 0)  -->
<!DOCTYPE svg PUBLIC "-//W3C//DTD SVG 1.1//EN" "http://www.w3.org/Graphics/SVG/1.1/DTD/svg11.dtd">
<svg version="1.1" id="_x32__x5F_Grading_x5F_Batching_x5F_Histogram_x5F_Drop"
	 xmlns="http://www.w3.org/2000/svg" xmlns:xlink="http://www.w3.org/1999/xlink" x="0px" y="0px" width="538.583px"
	 height="283.465px" viewBox="0 0 538.583 283.465" style="enable-background:new 0 0 538.583 283.465;" xml:space="preserve">
<g>
	<g>
		<g>
			<g>
				<polygon style="fill:#FFFFFF;" points="371.414,229.642 193.277,229.642 193.277,57.175 204.615,57.175 204.615,218.304 
					371.414,218.304 				"/>
			</g>
			<g>
				<g>
					<polygon style="fill:#FFFFFF;" points="179.723,79.759 198.946,60.525 218.168,79.759 218.168,63.438 198.946,44.215 
						179.723,63.438 					"/>
				</g>
			</g>
			<g>
				<g>
					<polygon style="fill:#FFFFFF;" points="348.83,243.195 368.062,223.973 348.83,204.75 365.15,204.75 384.373,223.973 
						365.15,243.195 					"/>
				</g>
			</g>
		</g>
		<rect x="218.789" y="133.304" style="fill:#FFFFFF;" width="17.008" height="70.827"/>
		<rect x="249.97" y="147.477" style="fill:#FFFFFF;" width="17.008" height="56.654"/>
		<rect x="281.151" y="53.858" style="fill:#FFFFFF;" width="17.007" height="150.272"/>
	</g>
	<g>
		<g>
			<path style="fill:#FFFFFF;" d="M359.387,147.063c0-5.532-4.494-10.027-10.026-10.027c-5.534,0-10.029,4.495-10.029,10.027
				c0,5.533,4.495,10.029,10.029,10.029C354.893,157.092,359.387,152.596,359.387,147.063z"/>
		</g>
		<g>
			<path style="fill:#FFFFFF;" d="M366.424,165.704c-5.533,0-10.027,4.496-10.027,10.029c0,5.53,4.494,10.026,10.027,10.026
				c5.531,0,10.027-4.496,10.027-10.026C376.452,170.2,371.956,165.704,366.424,165.704z"/>
		</g>
		<g>
			<path style="fill:#FFFFFF;" d="M332.293,165.704c-5.532,0-10.026,4.496-10.026,10.029c0,5.53,4.494,10.026,10.026,10.026
				c5.533,0,10.028-4.496,10.028-10.026C342.322,170.2,337.827,165.704,332.293,165.704z"/>
		</g>
		<g>
			<polygon style="fill:#FFFFFF;" points="357.863,80.509 357.863,34.995 340.856,34.995 340.856,80.509 314.759,54.397 
				314.759,83.776 349.36,118.376 383.959,83.776 383.959,54.397 			"/>
		</g>
	</g>
</g>
</svg>
