<?xml version="1.0" encoding="iso-8859-1"?>
<!-- Generator: Adobe Illustrator 15.0.0, SVG Export Plug-In . SVG Version: 6.00 Build 0)  -->
<!DOCTYPE svg PUBLIC "-//W3C//DTD SVG 1.1//EN" "http://www.w3.org/Graphics/SVG/1.1/DTD/svg11.dtd">
<svg version="1.1" id="_x32__x5F_Grading_x5F_Batching_x5F_Calibrate_x5F_Weight"
	 xmlns="http://www.w3.org/2000/svg" xmlns:xlink="http://www.w3.org/1999/xlink" x="0px" y="0px" width="538.583px"
	 height="283.465px" viewBox="0 0 538.583 283.465" style="enable-background:new 0 0 538.583 283.465;" xml:space="preserve">
<g>
	<g>
		<path style="fill:#FFFFFF;" d="M370.579,106.988h-16.063V91.581l-0.003-0.271c-0.44-12.954-8.89-37.451-37.72-37.451
			c-28.683,0-37.713,25.069-38.481,38.325l-0.01,15.16h-15.811L220.274,229.07h194.96L370.579,106.988z M274.596,124.352h3.707
			h16.996l0.013-16.996l0.01-14.599c0.306-3.874,1.87-9.831,5.373-14.507c3.774-5.037,8.89-7.384,16.1-7.384
			c7.255,0,12.297,2.231,15.868,7.023c3.33,4.469,4.686,10.192,4.846,13.822v15.276v17.008h17.009h4.174l32.213,88.066H244.175
			L274.596,124.352z"/>
	</g>
	<g>
		<path style="fill:#FFFFFF;" d="M317.055,83.214c-8.243,0-8.755,12.187-8.755,12.187v11.36l17.288,0.048V94.976
			C325.588,94.976,325.297,83.214,317.055,83.214z"/>
	</g>
	<g>
		<path style="fill:#FFFFFF;" d="M187.896,158.115v20.938c0,3.131,2.538,5.67,5.669,5.67s5.669-2.539,5.669-5.67v-20.939
			c-1.79,0.568-3.694,0.878-5.67,0.878C191.589,158.992,189.686,158.683,187.896,158.115z"/>
	</g>
	<g>
		<path style="fill:#FFFFFF;" d="M199.234,122.263v-73.18c0-3.131-2.538-5.67-5.669-5.67s-5.669,2.539-5.669,5.67v73.179
			c1.79-0.567,3.693-0.877,5.668-0.877C195.54,121.385,197.444,121.694,199.234,122.263z"/>
	</g>
	<g>
		<circle style="fill:#FFFFFF;" cx="193.564" cy="140.188" r="13.135"/>
	</g>
	<g>
		<path style="fill:#FFFFFF;" d="M145.011,109.927v69.127c0,3.131,2.538,5.67,5.669,5.67s5.669-2.539,5.669-5.67v-69.128
			c-1.79,0.568-3.694,0.878-5.67,0.878C148.705,110.804,146.801,110.494,145.011,109.927z"/>
	</g>
	<g>
		<path style="fill:#FFFFFF;" d="M156.349,74.074V49.083c0-3.131-2.538-5.67-5.669-5.67s-5.669,2.539-5.669,5.67v24.99
			c1.79-0.567,3.693-0.877,5.668-0.877C152.655,73.196,154.559,73.506,156.349,74.074z"/>
	</g>
	<g>
		<circle style="fill:#FFFFFF;" cx="150.679" cy="92" r="13.135"/>
	</g>
	<g>
		<path style="fill:#FFFFFF;" d="M113.464,101.003v-51.92c0-3.131-2.538-5.67-5.669-5.67s-5.669,2.539-5.669,5.67v51.919
			c1.79-0.566,3.693-0.877,5.668-0.877C109.77,100.125,111.674,100.436,113.464,101.003z"/>
	</g>
	<g>
		<path style="fill:#FFFFFF;" d="M102.126,136.856v42.197c0,3.131,2.538,5.67,5.669,5.67s5.669-2.539,5.669-5.67v-42.198
			c-1.79,0.567-3.694,0.878-5.67,0.878C105.82,137.733,103.917,137.423,102.126,136.856z"/>
	</g>
	<g>
		<circle style="fill:#FFFFFF;" cx="107.794" cy="118.929" r="13.134"/>
	</g>
</g>
</svg>
