<?xml version="1.0" encoding="iso-8859-1"?>
<!-- Generator: Adobe Illustrator 15.0.0, SVG Export Plug-In . SVG Version: 6.00 Build 0)  -->
<!DOCTYPE svg PUBLIC "-//W3C//DTD SVG 1.1//EN" "http://www.w3.org/Graphics/SVG/1.1/DTD/svg11.dtd">
<svg version="1.1" id="_x32__x5F_Grading_x5F_Batching_x5F_Max_x5F_Drops_x5F_Per_x5F_Minute"
	 xmlns="http://www.w3.org/2000/svg" xmlns:xlink="http://www.w3.org/1999/xlink" x="0px" y="0px" width="538.583px"
	 height="283.465px" viewBox="0 0 538.583 283.465" style="enable-background:new 0 0 538.583 283.465;" xml:space="preserve">
<g>
	<path style="fill:#FFFFFF;" d="M203.391,175.173c0-5.532-4.494-10.027-10.027-10.027c-5.534,0-10.029,4.495-10.029,10.027
		c0,5.533,4.495,10.029,10.029,10.029C198.896,185.202,203.391,180.706,203.391,175.173z"/>
	<path style="fill:#FFFFFF;" d="M210.428,193.814c-5.533,0-10.027,4.496-10.027,10.029c0,5.53,4.494,10.026,10.027,10.026
		c5.531,0,10.027-4.496,10.027-10.026C220.455,198.311,215.959,193.814,210.428,193.814z"/>
	<path style="fill:#FFFFFF;" d="M176.296,193.814c-5.532,0-10.027,4.496-10.027,10.029c0,5.53,4.495,10.026,10.027,10.026
		c5.533,0,10.028-4.496,10.028-10.026C186.324,198.311,181.829,193.814,176.296,193.814z"/>
	<polygon style="fill:#FFFFFF;" points="171.723,75.423 145.625,101.534 145.625,56.021 128.617,56.021 128.617,101.534 
		102.52,75.423 102.52,104.802 137.121,139.401 171.723,104.802 	"/>
	<polygon style="fill:#FFFFFF;" points="193.365,139.401 227.968,104.802 227.968,75.423 201.869,101.534 201.869,56.021 
		184.861,56.021 184.861,101.534 180.227,96.897 180.227,104.802 180.227,108.324 177.735,110.815 171.257,117.294 	"/>
	<polygon style="fill:#FFFFFF;" points="284.214,75.423 258.115,101.534 258.115,56.021 241.106,56.021 241.106,101.534 
		236.472,96.897 236.472,104.802 236.472,108.324 233.98,110.815 227.502,117.294 249.611,139.401 284.214,104.802 	"/>
	<path style="fill:#FFFFFF;" d="M339.639,150.545c1.793,0.026,3.612-0.479,5.201-1.583c0.86-0.599,1.571-1.331,2.145-2.143
		l32.045-32.011l-37.388,16.608L304.21,89.976l26.576,53.816c0.248,1.04,0.682,2.054,1.326,2.986
		C333.878,149.313,336.751,150.631,339.639,150.545z"/>
	<path style="fill:#FFFFFF;" d="M339.777,53.858c-16.126,0-31.234,4.348-44.225,11.929v9.636v11.021
		c10.745-8.611,24.035-14.174,38.556-15.33v11.089h11.339V71.113c34.563,2.752,62.203,30.391,64.954,64.952h-11.092v11.338h11.092
		c-2.751,34.561-30.391,62.199-64.954,64.95v-11.089h-11.339v11.089c-34.561-2.751-62.2-30.39-64.952-64.95h11.089v-11.338h-11.089
		c0.005-0.065,0.015-0.129,0.02-0.193l-11.548,11.547l-5.071,5.07c5.304,43.457,42.329,77.119,87.22,77.119
		c48.535,0,87.879-39.343,87.879-87.874C427.656,93.201,388.312,53.858,339.777,53.858z"/>
</g>
</svg>
