<?xml version="1.0" encoding="iso-8859-1"?>
<!-- Generator: Adobe Illustrator 15.0.0, SVG Export Plug-In . SVG Version: 6.00 Build 0)  -->
<!DOCTYPE svg PUBLIC "-//W3C//DTD SVG 1.1//EN" "http://www.w3.org/Graphics/SVG/1.1/DTD/svg11.dtd">
<svg version="1.1" id="_x32__x5F_Grading_x5F_Batching_x5F_Storage_x5F_Hopper_x5F_Speed"
	 xmlns="http://www.w3.org/2000/svg" xmlns:xlink="http://www.w3.org/1999/xlink" x="0px" y="0px" width="538.583px"
	 height="283.465px" viewBox="0 0 538.583 283.465" style="enable-background:new 0 0 538.583 283.465;" xml:space="preserve">
<g>
	<g>
		<circle style="fill:#FFFFFF;" cx="200.337" cy="155.172" r="7.144"/>
		<path style="fill:#FFFFFF;" d="M186.788,154.56l-32.433,14.222c-0.113,0.043-0.229,0.085-0.34,0.135
			c-3.008,1.38-4.326,4.938-2.946,7.943c1.363,2.972,4.855,4.291,7.838,2.988l0.003,0.005l32.663-14.321
			C188.273,162.747,186.606,158.655,186.788,154.56z"/>
		<path style="fill:#FFFFFF;" d="M206.807,52.291c-17.014-2.501-85.714-12.492-86.312-12.579l-15.333-2.229l25.384,157.484
			l10.723-4.728L118.813,50.925l0.052,0.008c0.598,0.087,69.284,10.076,86.292,12.577c7.644,1.124,14.28,5.304,18.687,11.769
			c6.121,8.979,7.653,21.846,4.313,36.231c-1.467,6.321-4.28,17.321-6.762,27.025c-1.923,7.519-3.639,14.23-4.651,18.43
			l13.128-5.788c0.769-3.03,1.629-6.396,2.508-9.832c2.497-9.762,5.326-20.826,6.822-27.271c4.064-17.509,1.938-33.555-5.989-45.183
			C227,59.777,217.623,53.882,206.807,52.291z"/>
	</g>
	<g>
		<path style="fill:#FFFFFF;" d="M368.046,65.269c-48.529,0-87.87,39.343-87.87,87.876c0,48.531,39.34,87.874,87.87,87.874
			c48.534,0,87.878-39.343,87.878-87.874C455.924,104.611,416.581,65.269,368.046,65.269z M368.046,224.011
			c-39.073,0-70.862-31.79-70.862-70.866c0-39.077,31.789-70.868,70.862-70.868c39.079,0,70.87,31.791,70.87,70.868
			C438.917,192.221,407.125,224.011,368.046,224.011z"/>
		<path style="fill:#FFFFFF;" d="M368.046,90.781v11.339c28.137,0,51.026,22.89,51.026,51.024h11.339
			C430.412,118.757,402.436,90.781,368.046,90.781z"/>
		<path style="fill:#FFFFFF;" d="M362.993,145.899c-3.981,2.772-4.973,8.279-2.212,12.283c2.796,4.005,8.304,4.984,12.329,2.189
			c0.859-0.599,1.57-1.331,2.144-2.143l32.045-32.011l-41.319,18.354C364.939,144.821,363.925,145.255,362.993,145.899z"/>
	</g>
	<g>
		<g>
			<path style="fill:#FFFFFF;" d="M190.79,236.579c-8.771-10.508-18.451-23.334-29.796-45.838l15.188-7.656
				c9.984,19.804,18.281,31.351,27.667,42.596L190.79,236.579z"/>
		</g>
		<g>
			<g>
				<polygon style="fill:#FFFFFF;" points="144.617,222.736 193.416,226.529 197.181,177.728 216.289,200.043 212.511,248.829 
					163.725,245.052 				"/>
			</g>
		</g>
	</g>
</g>
</svg>
