<?xml version="1.0" encoding="iso-8859-1"?>
<!-- Generator: Adobe Illustrator 15.0.0, SVG Export Plug-In . SVG Version: 6.00 Build 0)  -->
<!DOCTYPE svg PUBLIC "-//W3C//DTD SVG 1.1//EN" "http://www.w3.org/Graphics/SVG/1.1/DTD/svg11.dtd">
<svg version="1.1" id="_x32__x5F_Grading_x5F_Batching_x5F_Vibrator_x5F_Auto"
	 xmlns="http://www.w3.org/2000/svg" xmlns:xlink="http://www.w3.org/1999/xlink" x="0px" y="0px" width="538.583px"
	 height="283.465px" viewBox="0 0 538.583 283.465" style="enable-background:new 0 0 538.583 283.465;" xml:space="preserve">
<g>
	<g>
		<path style="fill:#FFFFFF;" d="M343.167,129.91l-6.579,24.22h-22.119l28.838-94.359h27.859l29.399,94.359h-22.96l-7.279-24.22
			H343.167z M367.105,113.95l-5.879-20.021c-1.54-5.6-3.22-12.739-4.62-18.199h-0.42c-1.26,5.6-2.8,12.739-4.199,18.199
			l-5.74,20.021H367.105z"/>
	</g>
	<g>
		<path style="fill:#FFFFFF;" d="M228.823,106.95c3.594-2.234,7.563-3.913,11.795-4.929V53.458
			c-17.375,1.846-33.238,8.738-46.105,19.183L228.823,106.95z"/>
		<path style="fill:#FFFFFF;" d="M211.005,150.892h-48.601c1.899,17.238,8.765,32.976,19.14,45.757l34.312-34.311
			C213.682,158.844,212.029,154.993,211.005,150.892z"/>
		<path style="fill:#FFFFFF;" d="M215.587,120.344l-34.348-34.347c-10.342,12.886-17.152,28.726-18.924,46.064h48.529
			C211.812,127.868,213.424,123.922,215.587,120.344z"/>
		<path style="fill:#FFFFFF;" d="M305.551,72.642c-12.866-10.445-28.728-17.338-46.103-19.184v48.563
			c4.23,1.016,8.202,2.695,11.796,4.93L305.551,72.642z"/>
		<path style="fill:#FFFFFF;" d="M270.819,175.572c-3.48,2.104-7.309,3.688-11.371,4.662v48.563
			c17.203-1.827,32.919-8.607,45.716-18.879L270.819,175.572z"/>
		<path style="fill:#FFFFFF;" d="M194.9,209.922c12.8,10.27,28.515,17.05,45.718,18.876v-48.563
			c-4.064-0.975-7.891-2.557-11.369-4.661L194.9,209.922z"/>
		<path style="fill:#FFFFFF;" d="M374.956,168.495c-1.205,21.898-10.133,42.453-25.469,58.34
			c-5.441,5.637-11.508,10.473-18.033,14.479c23.017-1.853,46.458-24.874,46.458-51.922
			C377.912,181.958,377.761,174.894,374.956,168.495z"/>
		<path style="fill:#FFFFFF;" d="M214.672,41.647c-42.777,1.622-76.964,36.793-76.964,79.968c0,11.445,2.419,22.321,6.747,32.168
			c-0.438-3.915-0.67-7.893-0.67-11.925C143.785,95.578,173.379,56.217,214.672,41.647z"/>
		<path style="fill:#FFFFFF;" d="M168.606,42.277c-23.016,1.853-46.457,24.874-46.457,51.922c0,7.435,0.15,14.499,2.956,20.897
			c1.205-21.898,10.133-42.453,25.469-58.34C156.016,51.12,162.082,46.284,168.606,42.277z"/>
		<path style="fill:#FFFFFF;" d="M362.353,161.977c0-7.171-0.95-14.117-2.725-20.728h-3.359c0.001,0.162,0.007,0.322,0.007,0.484
			c0,46.28-29.596,85.642-70.885,100.211C328.165,240.322,362.353,205.151,362.353,161.977z"/>
		<path style="fill:#FFFFFF;" d="M289.22,132.062h20.136l12.743-41.697c-1.05-1.487-2.138-2.947-3.274-4.365l-34.345,34.347
			C286.644,123.923,288.254,127.869,289.22,132.062z"/>
		<path style="fill:#FFFFFF;" d="M289.06,150.892c-1.021,4.101-2.676,7.95-4.848,11.444l34.309,34.31
			c7.365-9.074,12.95-19.644,16.257-31.177h-20.31h-15.319l4.453-14.577H289.06z"/>
	</g>
</g>
</svg>
