<?xml version="1.0" encoding="iso-8859-1"?>
<!-- Generator: Adobe Illustrator 15.0.0, SVG Export Plug-In . SVG Version: 6.00 Build 0)  -->
<!DOCTYPE svg PUBLIC "-//W3C//DTD SVG 1.1//EN" "http://www.w3.org/Graphics/SVG/1.1/DTD/svg11.dtd">
<svg version="1.1" id="_x32__x5F_Grading_x5F_Batching_x5F_Cone"
	 xmlns="http://www.w3.org/2000/svg" xmlns:xlink="http://www.w3.org/1999/xlink" x="0px" y="0px" width="538.583px"
	 height="283.465px" viewBox="0 0 538.583 283.465" style="enable-background:new 0 0 538.583 283.465;" xml:space="preserve">
<g>
	<path style="fill:#FFFFFF;" d="M250.083,106.95c3.594-2.234,7.563-3.913,11.795-4.929V53.458
		c-17.375,1.846-33.238,8.738-46.105,19.183L250.083,106.95z"/>
	<path style="fill:#FFFFFF;" d="M232.264,150.892h-48.601c1.899,17.238,8.765,32.976,19.14,45.757l34.312-34.311
		C234.941,158.844,233.289,154.993,232.264,150.892z"/>
	<path style="fill:#FFFFFF;" d="M236.846,120.344l-34.348-34.347c-10.342,12.886-17.152,28.726-18.924,46.064h48.529
		C233.071,127.868,234.683,123.922,236.846,120.344z"/>
	<path style="fill:#FFFFFF;" d="M326.812,72.642c-12.868-10.445-28.729-17.338-46.104-19.184v48.563
		c4.23,1.016,8.202,2.695,11.796,4.93L326.812,72.642z"/>
	<path style="fill:#FFFFFF;" d="M292.079,175.572c-3.48,2.104-7.309,3.688-11.371,4.662v48.563
		c17.203-1.827,32.918-8.607,45.718-18.879L292.079,175.572z"/>
	<path style="fill:#FFFFFF;" d="M305.471,162.336l34.311,34.31c10.373-12.78,17.239-28.517,19.139-45.754h-48.602
		C309.297,154.992,307.643,158.842,305.471,162.336z"/>
	<path style="fill:#FFFFFF;" d="M310.479,132.062h48.529c-1.771-17.338-8.584-33.177-18.923-46.063l-34.347,34.347
		C307.903,123.923,309.513,127.869,310.479,132.062z"/>
	<path style="fill:#FFFFFF;" d="M216.16,209.922c12.8,10.27,28.515,17.05,45.718,18.876v-48.563
		c-4.064-0.975-7.891-2.557-11.369-4.661L216.16,209.922z"/>
</g>
</svg>
