<?xml version="1.0" encoding="iso-8859-1"?>
<!-- Generator: Adobe Illustrator 15.0.0, SVG Export Plug-In . SVG Version: 6.00 Build 0)  -->
<!DOCTYPE svg PUBLIC "-//W3C//DTD SVG 1.1//EN" "http://www.w3.org/Graphics/SVG/1.1/DTD/svg11.dtd">
<svg version="1.1" id="_x32__x5F_Grading_x5F_Batching_x5F_Average_x5F_Weight"
	 xmlns="http://www.w3.org/2000/svg" xmlns:xlink="http://www.w3.org/1999/xlink" x="0px" y="0px" width="538.583px"
	 height="283.465px" viewBox="0 0 538.583 283.465" style="enable-background:new 0 0 538.583 283.465;" xml:space="preserve">
<g>
	<path style="fill:#FFFFFF;" d="M298.373,106.988V91.581l-0.004-0.271c-0.44-12.954-8.889-37.451-37.719-37.451
		c-28.686,0-37.715,25.069-38.483,38.325l-0.011,15.16h-15.81L164.128,229.07h194.961l-44.654-122.082H298.373z M317.321,164.388
		l17.438,47.675h-146.73l16.25-46.853v1.701h22.608v-13.205h-18.619l10.181-29.354h3.707h16.996l0.013-16.996l0.01-14.599
		c0.306-3.874,1.87-9.831,5.375-14.507c3.776-5.037,8.891-7.384,16.101-7.384c7.255,0,12.297,2.231,15.868,7.023
		c3.33,4.469,4.686,10.192,4.846,13.822v15.276v17.008h17.009h4.174l10.867,29.71h-18.702v13.205h22.609V164.388z"/>
	<path style="fill:#FFFFFF;" d="M269.444,94.976c0,0-0.291-11.762-8.533-11.762c-8.244,0-8.755,12.187-8.755,12.187v11.36
		l17.289,0.048V94.976z"/>
	<rect x="113.845" y="153.706" style="fill:#FFFFFF;" width="22.608" height="13.205"/>
	<rect x="159.062" y="153.706" style="fill:#FFFFFF;" width="22.608" height="13.205"/>
	<rect x="385.146" y="153.706" style="fill:#FFFFFF;" width="22.608" height="13.205"/>
	<rect x="339.929" y="153.706" style="fill:#FFFFFF;" width="22.608" height="13.205"/>
	<rect x="249.495" y="153.706" style="fill:#FFFFFF;" width="22.608" height="13.205"/>
</g>
</svg>
