<?xml version="1.0" encoding="iso-8859-1"?>
<!-- Generator: Adobe Illustrator 15.0.0, SVG Export Plug-In . SVG Version: 6.00 Build 0)  -->
<!DOCTYPE svg PUBLIC "-//W3C//DTD SVG 1.1//EN" "http://www.w3.org/Graphics/SVG/1.1/DTD/svg11.dtd">
<svg version="1.1" id="_x32__x5F_Grading_x5F_Batching_x5F_Vibrator_x5F_Stop"
	 xmlns="http://www.w3.org/2000/svg" xmlns:xlink="http://www.w3.org/1999/xlink" x="0px" y="0px" width="538.583px"
	 height="283.465px" viewBox="0 0 538.583 283.465" style="enable-background:new 0 0 538.583 283.465;" xml:space="preserve">
<g>
	<g>
		<path style="fill:#FFFFFF;" d="M193.389,106.95c3.594-2.234,7.563-3.913,11.795-4.929V53.458
			c-17.375,1.846-33.238,8.738-46.105,19.183L193.389,106.95z"/>
		<path style="fill:#FFFFFF;" d="M175.571,150.892H126.97c1.899,17.238,8.765,32.976,19.14,45.757l34.312-34.311
			C178.248,158.844,176.595,154.993,175.571,150.892z"/>
		<path style="fill:#FFFFFF;" d="M180.153,120.344l-34.348-34.347c-10.342,12.886-17.152,28.726-18.924,46.064h48.529
			C176.377,127.868,177.99,123.922,180.153,120.344z"/>
		<path style="fill:#FFFFFF;" d="M270.12,72.642c-12.868-10.445-28.73-17.338-46.105-19.184v48.563
			c4.23,1.016,8.202,2.695,11.796,4.93L270.12,72.642z"/>
		<path style="fill:#FFFFFF;" d="M235.385,175.572c-3.48,2.104-7.309,3.688-11.371,4.662v48.563
			c17.203-1.827,32.919-8.607,45.719-18.879L235.385,175.572z"/>
		<path style="fill:#FFFFFF;" d="M248.778,162.336l34.312,34.31c10.374-12.78,17.24-28.517,19.14-45.754h-48.604
			C252.604,154.992,250.95,158.842,248.778,162.336z"/>
		<path style="fill:#FFFFFF;" d="M253.786,132.062h48.531c-1.771-17.338-8.584-33.177-18.924-46.063l-34.348,34.347
			C251.209,123.923,252.82,127.869,253.786,132.062z"/>
		<path style="fill:#FFFFFF;" d="M159.466,209.922c12.8,10.27,28.515,17.05,45.718,18.876v-48.563
			c-4.064-0.975-7.891-2.557-11.369-4.661L159.466,209.922z"/>
		<path style="fill:#FFFFFF;" d="M326.922,161.977c0-11.445-2.419-22.321-6.747-32.168c0.438,3.915,0.67,7.893,0.67,11.925
			c0,46.28-29.596,85.642-70.889,100.211C292.734,240.322,326.922,205.151,326.922,161.977z"/>
		<path style="fill:#FFFFFF;" d="M339.525,168.495c-1.205,21.898-10.133,42.453-25.469,58.34
			c-5.441,5.637-11.508,10.473-18.033,14.479c23.017-1.853,46.458-24.874,46.458-51.922
			C342.481,181.958,342.331,174.894,339.525,168.495z"/>
		<path style="fill:#FFFFFF;" d="M179.238,41.647c-42.777,1.622-76.964,36.793-76.964,79.968c0,11.445,2.419,22.321,6.747,32.168
			c-0.438-3.915-0.67-7.893-0.67-11.925C108.351,95.578,137.945,56.217,179.238,41.647z"/>
		<path style="fill:#FFFFFF;" d="M133.172,42.277c-23.016,1.853-46.457,24.874-46.457,51.922c0,7.435,0.15,14.499,2.956,20.897
			c1.205-21.898,10.133-42.453,25.469-58.34C120.582,51.12,126.648,46.284,133.172,42.277z"/>
	</g>
	<rect x="379.507" y="107.716" style="fill:#FFFFFF;" width="70.595" height="70.598"/>
</g>
</svg>
