<?xml version="1.0" encoding="iso-8859-1"?>
<!-- Generator: Adobe Illustrator 15.0.0, SVG Export Plug-In . SVG Version: 6.00 Build 0)  -->
<!DOCTYPE svg PUBLIC "-//W3C//DTD SVG 1.1//EN" "http://www.w3.org/Graphics/SVG/1.1/DTD/svg11.dtd">
<svg version="1.1" id="_x32__x5F_Grading_x5F_Batching_x5F_Cone_x5F_Turning_x5F_Time"
	 xmlns="http://www.w3.org/2000/svg" xmlns:xlink="http://www.w3.org/1999/xlink" x="0px" y="0px" width="538.583px"
	 height="283.465px" viewBox="0 0 538.583 283.465" style="enable-background:new 0 0 538.583 283.465;" xml:space="preserve">
<g>
	<g>
		<path style="fill:#FFFFFF;" d="M259.717,102.021V53.458c-17.374,1.846-33.236,8.738-46.104,19.183l34.31,34.31
			C251.517,104.716,255.486,103.037,259.717,102.021z"/>
		<path style="fill:#FFFFFF;" d="M234.956,162.338c-2.174-3.494-3.826-7.345-4.85-11.446h-48.599
			c1.899,17.238,8.764,32.976,19.139,45.757L234.956,162.338z"/>
		<path style="fill:#FFFFFF;" d="M229.945,132.062c0.966-4.193,2.579-8.14,4.742-11.718L200.34,85.997
			c-10.34,12.886-17.151,28.726-18.922,46.064H229.945z"/>
		<path style="fill:#FFFFFF;" d="M324.651,72.642c-12.867-10.445-28.729-17.338-46.104-19.184v48.563
			c4.232,1.016,8.203,2.695,11.796,4.93L324.651,72.642z"/>
		<path style="fill:#FFFFFF;" d="M289.917,175.572c-3.48,2.104-7.307,3.688-11.371,4.662v48.563
			c17.203-1.827,32.919-8.607,45.717-18.879L289.917,175.572z"/>
		<path style="fill:#FFFFFF;" d="M308.158,150.892c-1.022,4.101-2.676,7.95-4.849,11.444l34.311,34.31
			c10.372-12.78,17.236-28.517,19.136-45.754H308.158z"/>
		<path style="fill:#FFFFFF;" d="M303.578,120.346c2.163,3.577,3.774,7.523,4.74,11.716h48.525
			c-1.771-17.338-8.581-33.177-18.92-46.063L303.578,120.346z"/>
		<path style="fill:#FFFFFF;" d="M259.717,180.234c-4.063-0.975-7.889-2.557-11.368-4.661l-34.348,34.349
			c12.799,10.27,28.514,17.05,45.716,18.876V180.234z"/>
	</g>
	<g>
		<path style="fill:#FFFFFF;" d="M376.554,53.253c-15.987,0-30.977,4.271-43.892,11.733c4.568,3.817,8.788,8.037,12.605,12.604
			c7.837-3.874,16.481-6.355,25.617-7.083v11.089h11.338V70.508c34.563,2.751,62.203,30.391,64.954,64.952h-11.092v11.338h11.092
			c-2.751,34.561-30.391,62.199-64.954,64.95v-11.089h-11.338v11.089c-9.136-0.728-17.78-3.209-25.617-7.083
			c-3.817,4.567-8.038,8.787-12.605,12.604c12.915,7.462,27.903,11.733,43.892,11.733c48.534,0,87.878-39.343,87.878-87.874
			C464.432,92.596,425.088,53.253,376.554,53.253z"/>
		<path style="fill:#FFFFFF;" d="M368.89,146.173c1.765,2.535,4.639,3.853,7.526,3.767c1.793,0.026,3.612-0.479,5.201-1.583
			c0.859-0.599,1.57-1.331,2.144-2.143l32.045-32.011l-37.387,16.607l-13.269-14.689c2.083,7.992,3.194,16.372,3.194,25.007
			c0,1.325-0.034,2.643-0.086,3.956C368.444,145.455,368.647,145.821,368.89,146.173z"/>
	</g>
	<rect x="79.726" y="106.497" style="fill:#FFFFFF;" width="23.965" height="70.598"/>
	<rect x="126.355" y="106.497" style="fill:#FFFFFF;" width="23.965" height="70.598"/>
</g>
</svg>
