<?xml version="1.0" encoding="iso-8859-1"?>
<!-- Generator: Adobe Illustrator 15.0.0, SVG Export Plug-In . SVG Version: 6.00 Build 0)  -->
<!DOCTYPE svg PUBLIC "-//W3C//DTD SVG 1.1//EN" "http://www.w3.org/Graphics/SVG/1.1/DTD/svg11.dtd">
<svg version="1.1" id="_x32__x5F_Grading_x5F_Batching_x5F_Delay_x5F_Of_x5F_Next_x5F_Drop"
	 xmlns="http://www.w3.org/2000/svg" xmlns:xlink="http://www.w3.org/1999/xlink" x="0px" y="0px" width="538.583px"
	 height="283.465px" viewBox="0 0 538.583 283.465" style="enable-background:new 0 0 538.583 283.465;" xml:space="preserve">
<g>
	<g>
		<path style="fill:#FFFFFF;" d="M344.187,53.858c-48.529,0-87.873,39.343-87.873,87.876c0,48.531,39.343,87.874,87.873,87.874
			c48.534,0,87.878-39.343,87.878-87.874C432.065,93.201,392.721,53.858,344.187,53.858z M344.187,212.601
			c-39.074,0-70.865-31.79-70.865-70.866c0-39.077,31.791-70.868,70.865-70.868c39.079,0,70.87,31.791,70.87,70.868
			C415.057,180.811,383.266,212.601,344.187,212.601z"/>
		<path style="fill:#FFFFFF;" d="M342.121,133.163c-1.041,0.248-2.054,0.682-2.985,1.326c-3.982,2.772-4.975,8.279-2.213,12.283
			c2.797,4.005,8.304,4.984,12.328,2.189c0.86-0.599,1.571-1.331,2.145-2.143l32.045-32.011L342.121,133.163z"/>
		<path style="fill:#FFFFFF;" d="M335.198,143.792c0.248,1.04,0.682,2.054,1.326,2.986c2.773,3.982,8.278,4.974,12.282,2.212
			c4.006-2.796,4.984-8.304,2.189-12.328c-0.598-0.86-1.33-1.571-2.143-2.145l-40.23-44.542L335.198,143.792z"/>
		<g>
			<rect x="338.519" y="59.526" style="fill:#FFFFFF;" width="11.338" height="22.676"/>
		</g>
		<g>
			<rect x="338.519" y="201.265" style="fill:#FFFFFF;" width="11.338" height="22.676"/>
		</g>
		<g>
			<rect x="261.982" y="136.065" style="fill:#FFFFFF;" width="22.675" height="11.338"/>
		</g>
		<g>
			<rect x="403.719" y="136.065" style="fill:#FFFFFF;" width="22.676" height="11.338"/>
		</g>
	</g>
	<g>
		<path style="fill:#FFFFFF;" d="M202.113,183.678c0,5.533-4.494,10.029-10.027,10.029c-5.534,0-10.029-4.496-10.029-10.029
			c0-5.532,4.495-10.027,10.029-10.027C197.619,173.65,202.113,178.146,202.113,183.678z"/>
		<path style="fill:#FFFFFF;" d="M219.178,212.349c0,5.53-4.496,10.026-10.027,10.026c-5.533,0-10.027-4.496-10.027-10.026
			c0-5.533,4.494-10.029,10.027-10.029C214.682,202.319,219.178,206.815,219.178,212.349z"/>
		<path style="fill:#FFFFFF;" d="M185.047,212.349c0,5.53-4.495,10.026-10.028,10.026c-5.532,0-10.027-4.496-10.027-10.026
			c0-5.533,4.495-10.029,10.027-10.029C180.552,202.319,185.047,206.815,185.047,212.349z"/>
	</g>
	<g>
		<g>
			<polygon style="fill:#FFFFFF;" points="226.687,91.013 200.589,117.124 200.589,57.438 183.581,57.438 183.581,117.124 
				157.483,91.013 157.483,120.392 192.085,154.991 226.687,120.392 			"/>
		</g>
	</g>
</g>
</svg>
