<?xml version="1.0" encoding="iso-8859-1"?>
<!-- Generator: Adobe Illustrator 15.0.0, SVG Export Plug-In . SVG Version: 6.00 Build 0)  -->
<!DOCTYPE svg PUBLIC "-//W3C//DTD SVG 1.1//EN" "http://www.w3.org/Graphics/SVG/1.1/DTD/svg11.dtd">
<svg version="1.1" id="_x32__x5F_Grading_x5F_Batching_x5F_Fall_x5F_Time_x5F_To_x5F_Gates"
	 xmlns="http://www.w3.org/2000/svg" xmlns:xlink="http://www.w3.org/1999/xlink" x="0px" y="0px" width="538.583px"
	 height="283.465px" viewBox="0 0 538.583 283.465" style="enable-background:new 0 0 538.583 283.465;" xml:space="preserve">
<g>
	<g>
		<path style="fill:#FFFFFF;" d="M394.852,53.857c-48.531,0-87.875,39.343-87.875,87.876c0,48.531,39.344,87.874,87.875,87.874
			c48.535,0,87.879-39.343,87.879-87.874C482.731,93.2,443.387,53.857,394.852,53.857z M400.522,212.353v-11.089h-11.34v11.089
			c-34.561-2.752-62.199-30.39-64.95-64.95h11.089v-11.338h-11.089c2.751-34.562,30.39-62.2,64.95-64.952v11.089h11.34V71.112
			c34.563,2.751,62.203,30.391,64.954,64.952h-11.093v11.338h11.093C462.725,181.963,435.085,209.602,400.522,212.353z"/>
		<path style="fill:#FFFFFF;" d="M359.286,89.975l26.576,53.816c0.248,1.04,0.682,2.054,1.326,2.986
			c1.766,2.535,4.639,3.853,7.526,3.767c1.793,0.026,3.612-0.479,5.2-1.583c0.861-0.599,1.572-1.331,2.145-2.143l32.045-32.011
			l-37.387,16.608L359.286,89.975z"/>
	</g>
	<g>
		<circle style="fill:#FFFFFF;" cx="63.82" cy="169.203" r="12.691"/>
		<path style="fill:#FFFFFF;" d="M68.717,186.179c5.984-1.723,10.403-6.359,12.064-11.989l52.6,52.856
			c0.126,0.117,0.257,0.231,0.378,0.357c3.255,3.393,3.141,8.783-0.252,12.035c-3.353,3.217-8.656,3.137-11.919-0.143l-0.006,0.005
			L68.717,186.179z"/>
	</g>
	<g>
		<circle style="fill:#FFFFFF;" cx="272.16" cy="169.203" r="12.69"/>
		<path style="fill:#FFFFFF;" d="M267.264,186.179c-5.984-1.723-10.402-6.359-12.064-11.989l-52.6,52.856
			c-0.127,0.117-0.258,0.231-0.379,0.357c-3.255,3.393-3.141,8.783,0.252,12.035c3.354,3.217,8.656,3.137,11.92-0.143l0.006,0.005
			L267.264,186.179z"/>
	</g>
	<g>
		<path style="fill:#FFFFFF;" d="M178.019,169.505c0,5.533-4.494,10.029-10.027,10.029c-5.534,0-10.029-4.496-10.029-10.029
			c0-5.532,4.495-10.027,10.029-10.027C173.525,159.478,178.019,163.973,178.019,169.505z"/>
		<path style="fill:#FFFFFF;" d="M195.083,198.176c0,5.53-4.496,10.026-10.027,10.026c-5.533,0-10.027-4.496-10.027-10.026
			c0-5.533,4.494-10.029,10.027-10.029C190.587,188.146,195.083,192.643,195.083,198.176z"/>
		<path style="fill:#FFFFFF;" d="M160.953,198.176c0,5.53-4.495,10.026-10.028,10.026c-5.532,0-10.027-4.496-10.027-10.026
			c0-5.533,4.495-10.029,10.027-10.029C156.458,188.146,160.953,192.643,160.953,198.176z"/>
	</g>
	<g>
		<g>
			<polygon style="fill:#FFFFFF;" points="202.592,76.84 176.495,102.951 176.495,57.438 159.487,57.438 159.487,102.951 
				133.389,76.84 133.389,106.219 167.991,140.818 202.592,106.219 			"/>
		</g>
	</g>
</g>
</svg>
