<?xml version="1.0" encoding="iso-8859-1"?>
<!-- Generator: Adobe Illustrator 15.0.0, SVG Export Plug-In . SVG Version: 6.00 Build 0)  -->
<!DOCTYPE svg PUBLIC "-//W3C//DTD SVG 1.1//EN" "http://www.w3.org/Graphics/SVG/1.1/DTD/svg11.dtd">
<svg version="1.1" id="_x32__x5F_Grading_x5F_Batching_x5F_Program"
	 xmlns="http://www.w3.org/2000/svg" xmlns:xlink="http://www.w3.org/1999/xlink" x="0px" y="0px" width="538.583px"
	 height="283.465px" viewBox="0 0 538.583 283.465" style="enable-background:new 0 0 538.583 283.465;" xml:space="preserve">
<g>
	<path style="fill:#FFFFFF;" d="M336.295,106.95c3.592-2.234,7.563-3.913,11.793-4.929V53.458
		c-17.374,1.846-33.236,8.738-46.104,19.183L336.295,106.95z"/>
	<path style="fill:#FFFFFF;" d="M318.477,150.892h-48.598c1.899,17.238,8.764,32.976,19.139,45.757l34.309-34.311
		C321.153,158.844,319.5,154.993,318.477,150.892z"/>
	<path style="fill:#FFFFFF;" d="M323.059,120.344l-34.346-34.347c-10.34,12.886-17.151,28.726-18.922,46.064h48.526
		C319.283,127.868,320.895,123.922,323.059,120.344z"/>
	<path style="fill:#FFFFFF;" d="M413.023,72.642c-12.868-10.445-28.729-17.338-46.105-19.184v48.563
		c4.231,1.016,8.202,2.695,11.796,4.93L413.023,72.642z"/>
	<path style="fill:#FFFFFF;" d="M366.917,180.234v48.563c17.202-1.827,32.919-8.607,45.718-18.879l-34.347-34.347
		C374.809,177.677,370.981,179.26,366.917,180.234z"/>
	<path style="fill:#FFFFFF;" d="M391.68,162.336l34.312,34.31c10.373-12.78,17.237-28.517,19.137-45.754H396.53
		C395.506,154.992,393.853,158.842,391.68,162.336z"/>
	<path style="fill:#FFFFFF;" d="M396.69,132.062h48.526c-1.771-17.338-8.581-33.177-18.921-46.063l-34.347,34.347
		C394.112,123.923,395.723,127.869,396.69,132.062z"/>
	<path style="fill:#FFFFFF;" d="M302.373,209.922c12.8,10.27,28.515,17.05,45.716,18.876v-48.563
		c-4.063-0.975-7.889-2.557-11.367-4.661L302.373,209.922z"/>
	<path style="fill:#FFFFFF;" d="M224.069,86.485H133.92c-4.697,0-8.504,3.808-8.504,8.504s3.807,8.504,8.504,8.504h90.148
		c4.696,0,8.504-3.808,8.504-8.504S228.765,86.485,224.069,86.485z"/>
	<circle style="fill:#FFFFFF;" cx="101.135" cy="94.989" r="8.504"/>
	<path style="fill:#FFFFFF;" d="M224.069,135.687H133.92c-4.697,0-8.504,3.808-8.504,8.504s3.807,8.504,8.504,8.504h90.148
		c4.696,0,8.504-3.808,8.504-8.504S228.765,135.687,224.069,135.687z"/>
	<circle style="fill:#FFFFFF;" cx="101.135" cy="144.19" r="8.504"/>
	<path style="fill:#FFFFFF;" d="M224.069,184.888H133.92c-4.697,0-8.504,3.808-8.504,8.504s3.807,8.504,8.504,8.504h90.148
		c4.696,0,8.504-3.808,8.504-8.504S228.765,184.888,224.069,184.888z"/>
	<circle style="fill:#FFFFFF;" cx="101.135" cy="193.392" r="8.504"/>
</g>
</svg>
