<?xml version="1.0" encoding="iso-8859-1"?>
<!-- Generator: Adobe Illustrator 15.0.0, SVG Export Plug-In . SVG Version: 6.00 Build 0)  -->
<!DOCTYPE svg PUBLIC "-//W3C//DTD SVG 1.1//EN" "http://www.w3.org/Graphics/SVG/1.1/DTD/svg11.dtd">
<svg version="1.1" id="_x32__x5F_Grading_x5F_Batching_x5F_Target_x5F_Weight"
	 xmlns="http://www.w3.org/2000/svg" xmlns:xlink="http://www.w3.org/1999/xlink" x="0px" y="0px" width="538.583px"
	 height="283.465px" viewBox="0 0 538.583 283.465" style="enable-background:new 0 0 538.583 283.465;" xml:space="preserve">
<g>
	<path style="fill:#FFFFFF;" d="M150.879,58.99c-35.752,0-64.838,29.086-64.838,64.838s29.086,64.838,64.838,64.838
		s64.838-29.086,64.838-64.838S186.631,58.99,150.879,58.99z M156.446,171.324v-30.598h-11.339v30.571
		c-21.748-2.63-39.036-19.902-41.69-41.643h30.62v-11.338h-30.661c2.528-21.924,19.932-39.372,41.833-41.972v30.901h11.339V76.346
		c21.936,2.604,39.362,20.103,41.847,42.075h-30.879v11.338h30.812C195.624,151.519,178.256,168.783,156.446,171.324z"/>
	<path style="fill:#FFFFFF;" d="M370.579,106.988h-16.063V91.581l-0.003-0.271c-0.44-12.954-8.89-37.451-37.72-37.451
		c-28.686,0-37.715,25.069-38.483,38.325l-0.011,15.16h-15.81L220.272,229.07h194.961L370.579,106.988z M274.593,124.352h3.707
		h16.996l0.013-16.996l0.01-14.599c0.306-3.874,1.87-9.831,5.375-14.507c3.775-5.037,8.891-7.384,16.101-7.384
		c7.255,0,12.297,2.231,15.868,7.023c3.33,4.469,4.686,10.192,4.846,13.822v15.276v17.008h17.009h4.174l32.213,88.066h-146.73
		L274.593,124.352z"/>
	<path style="fill:#FFFFFF;" d="M317.055,83.214c-8.243,0-8.755,12.187-8.755,12.187v11.36l17.288,0.048V94.976
		C325.588,94.976,325.297,83.214,317.055,83.214z"/>
</g>
</svg>
