<?xml version="1.0" encoding="iso-8859-1"?>
<!-- Generator: Adobe Illustrator 15.0.0, SVG Export Plug-In . SVG Version: 6.00 Build 0)  -->
<!DOCTYPE svg PUBLIC "-//W3C//DTD SVG 1.1//EN" "http://www.w3.org/Graphics/SVG/1.1/DTD/svg11.dtd">
<svg version="1.1" id="_x32__x5F_Grading_x5F_Batching_x5F_Openening_x5F_Time_x5F_Of_x5F_Gates"
	 xmlns="http://www.w3.org/2000/svg" xmlns:xlink="http://www.w3.org/1999/xlink" x="0px" y="0px" width="538.583px"
	 height="283.465px" viewBox="0 0 538.583 283.465" style="enable-background:new 0 0 538.583 283.465;" xml:space="preserve">
<g>
	<g>
		<circle style="fill:#FFFFFF;" cx="116.955" cy="130.59" r="12.691"/>
		<path style="fill:#FFFFFF;" d="M121.852,147.566c5.984-1.723,10.403-6.359,12.064-11.989l52.6,52.856
			c0.126,0.117,0.257,0.231,0.378,0.357c3.255,3.393,3.141,8.783-0.252,12.035c-3.353,3.217-8.656,3.137-11.919-0.143l-0.006,0.005
			L121.852,147.566z"/>
	</g>
	<g>
		<path style="fill:#FFFFFF;" d="M260.162,55.313c-48.532,0-87.875,39.343-87.875,87.876c0,1.905,0.066,3.794,0.186,5.669h17.069
			h11.089v-11.338h-11.089c2.751-34.562,30.39-62.2,64.951-64.952v11.089h11.339V72.568c34.563,2.751,62.203,30.391,64.954,64.952
			h-11.092v11.338h11.092h17.07c0.119-1.875,0.185-3.765,0.185-5.669C348.041,94.656,308.697,55.313,260.162,55.313z"/>
		<path style="fill:#FFFFFF;" d="M224.595,91.431l26.577,53.816c0.248,1.04,0.682,2.054,1.326,2.986
			c1.765,2.535,4.638,3.853,7.526,3.767c1.793,0.026,3.612-0.479,5.201-1.583c0.86-0.599,1.571-1.331,2.145-2.143l32.045-32.011
			l-37.388,16.607L224.595,91.431z"/>
	</g>
	<g>
		<g>
			
				<rect x="111.045" y="175.923" transform="matrix(0.7071 0.7071 -0.7071 0.7071 177.4164 -23.2009)" style="fill:#FFFFFF;" width="11.339" height="53.275"/>
		</g>
		<g>
			<g>
				<polygon style="fill:#FFFFFF;" points="100.255,191.834 100.248,219.026 127.44,219.019 115.899,230.56 88.714,230.56 
					88.714,203.375 				"/>
			</g>
		</g>
	</g>
	<g>
		<circle style="fill:#FFFFFF;" cx="399.795" cy="130.59" r="12.691"/>
		<path style="fill:#FFFFFF;" d="M394.898,147.566c-5.984-1.723-10.402-6.359-12.064-11.989l-52.6,52.856
			c-0.127,0.117-0.258,0.231-0.379,0.357c-3.255,3.393-3.141,8.783,0.252,12.035c3.354,3.217,8.656,3.137,11.92-0.143l0.006,0.005
			L394.898,147.566z"/>
	</g>
	<g>
		<g>
			
				<rect x="373.399" y="196.891" transform="matrix(0.7071 0.7071 -0.7071 0.7071 260.3995 -223.5398)" style="fill:#FFFFFF;" width="53.275" height="11.339"/>
		</g>
		<g>
			<g>
				<polygon style="fill:#FFFFFF;" points="389.31,219.019 416.502,219.026 416.495,191.834 428.036,203.375 428.036,230.56 
					400.851,230.56 				"/>
			</g>
		</g>
	</g>
</g>
</svg>
