<?xml version="1.0" encoding="iso-8859-1"?>
<!-- Generator: Adobe Illustrator 15.0.0, SVG Export Plug-In . SVG Version: 6.00 Build 0)  -->
<!DOCTYPE svg PUBLIC "-//W3C//DTD SVG 1.1//EN" "http://www.w3.org/Graphics/SVG/1.1/DTD/svg11.dtd">
<svg version="1.1" id="_x32__x5F_Grading_x5F_Batching_x5F_Infeed_x5F_Start_x5F_Delay"
	 xmlns="http://www.w3.org/2000/svg" xmlns:xlink="http://www.w3.org/1999/xlink" x="0px" y="0px" width="538.583px"
	 height="283.465px" viewBox="0 0 538.583 283.465" style="enable-background:new 0 0 538.583 283.465;" xml:space="preserve">
<g>
	<g>
		<path style="fill:#FFFFFF;" d="M404.714,172.397c12.647,0,22.937,10.289,22.937,22.937c0,12.646-10.289,22.936-22.937,22.936
			H115.649c-12.647,0-22.937-10.289-22.937-22.936c0-12.647,10.29-22.937,22.937-22.937H404.714 M404.714,161.059H115.649
			c-18.93,0-34.275,15.346-34.275,34.275c0,18.929,15.345,34.274,34.275,34.274h289.065c18.931,0,34.275-15.346,34.275-34.274
			C438.99,176.404,423.645,161.059,404.714,161.059L404.714,161.059z"/>
		<circle style="fill:#FFFFFF;" cx="115.649" cy="195.334" r="14.173"/>
		<circle style="fill:#FFFFFF;" cx="404.715" cy="195.333" r="14.173"/>
	</g>
	<g>
		<path style="fill:#FFFFFF;" d="M189.351,53.858c-48.532,0-87.875,39.343-87.875,87.876c0,1.905,0.066,3.794,0.186,5.669h17.069
			h11.089v-11.338H118.73c2.751-34.562,30.39-62.2,64.951-64.952v11.089h11.339V71.113c34.563,2.751,62.203,30.391,64.954,64.952
			h-11.092v11.338h11.092h17.07c0.12-1.875,0.185-3.765,0.185-5.669C277.229,93.201,237.885,53.858,189.351,53.858z"/>
		<path style="fill:#FFFFFF;" d="M153.783,89.976l26.577,53.816c0.248,1.04,0.682,2.054,1.326,2.986
			c1.765,2.535,4.638,3.853,7.526,3.767c1.793,0.026,3.612-0.479,5.201-1.583c0.86-0.599,1.571-1.331,2.145-2.143l32.045-32.011
			l-37.388,16.607L153.783,89.976z"/>
	</g>
	<polygon style="fill:#FFFFFF;" points="324.446,134.746 384.364,94.826 324.446,54.906 	"/>
</g>
</svg>
