<?xml version="1.0" encoding="iso-8859-1"?>
<!-- Generator: Adobe Illustrator 15.0.0, SVG Export Plug-In . SVG Version: 6.00 Build 0)  -->
<!DOCTYPE svg PUBLIC "-//W3C//DTD SVG 1.1//EN" "http://www.w3.org/Graphics/SVG/1.1/DTD/svg11.dtd">
<svg version="1.1" id="_x32__x5F_Grading_x5F_Batching_x5F_Head_x5F_Enable"
	 xmlns="http://www.w3.org/2000/svg" xmlns:xlink="http://www.w3.org/1999/xlink" x="0px" y="0px" width="538.583px"
	 height="283.465px" viewBox="0 0 538.583 283.465" style="enable-background:new 0 0 538.583 283.465;" xml:space="preserve">
<g>
	<g>
		<circle style="fill:#FFFFFF;" cx="317.352" cy="185.222" r="7.974"/>
		<path style="fill:#FFFFFF;" d="M302.229,184.539l-36.201,15.874c-0.126,0.048-0.256,0.095-0.38,0.15
			c-3.357,1.54-4.829,5.512-3.289,8.866c1.521,3.317,5.42,4.79,8.75,3.336l0.003,0.005l36.457-15.985
			C303.886,193.678,302.027,189.11,302.229,184.539z"/>
		<path style="fill:#FFFFFF;" d="M324.574,70.387c-18.991-2.792-95.674-13.944-96.34-14.041l-17.116-2.487l28.334,175.784
			l11.969-5.277L226.357,68.861l0.057,0.009c0.667,0.098,77.336,11.247,96.32,14.039c8.53,1.255,15.938,5.92,20.856,13.136
			c6.832,10.021,8.543,24.385,4.814,40.441c-1.638,7.056-4.778,19.334-7.548,30.166c-2.146,8.393-4.063,15.884-5.192,20.571
			l14.654-6.461c0.857-3.382,1.818-7.139,2.8-10.975c2.786-10.896,5.944-23.246,7.614-30.439
			c4.536-19.543,2.163-37.453-6.685-50.433C347.113,78.743,336.646,72.162,324.574,70.387z"/>
	</g>
	<g>
		<path style="fill:#FFFFFF;" d="M281.717,172.694c-2.707,0-5.333-1.198-7.309-3.358l-20.825-22.732l12.541-11.488l14.824,16.182
			l37.44-52.931l13.885,9.822l-42.533,60.132c-1.764,2.541-4.414,4.119-7.295,4.345
			C282.202,172.685,281.959,172.694,281.717,172.694z"/>
	</g>
</g>
</svg>
