<?xml version="1.0" encoding="iso-8859-1"?>
<!-- Generator: Adobe Illustrator 15.0.0, SVG Export Plug-In . SVG Version: 6.00 Build 0)  -->
<!DOCTYPE svg PUBLIC "-//W3C//DTD SVG 1.1//EN" "http://www.w3.org/Graphics/SVG/1.1/DTD/svg11.dtd">
<svg version="1.1" id="_x32__x5F_Grading_x5F_Batching_x5F_Program_x5F_Setup"
	 xmlns="http://www.w3.org/2000/svg" xmlns:xlink="http://www.w3.org/1999/xlink" x="0px" y="0px" width="538.583px"
	 height="283.465px" viewBox="0 0 538.583 283.465" style="enable-background:new 0 0 538.583 283.465;" xml:space="preserve">
<g>
	<g>
		<g>
			<g>
				<path style="fill:#FFFFFF;" d="M224.069,103.493H133.92c-4.697,0-8.504-3.808-8.504-8.504s3.807-8.504,8.504-8.504h90.148
					c4.696,0,8.504,3.808,8.504,8.504S228.765,103.493,224.069,103.493z"/>
			</g>
			<g>
				<circle style="fill:#FFFFFF;" cx="101.135" cy="94.989" r="8.504"/>
			</g>
			<g>
				<path style="fill:#FFFFFF;" d="M224.069,152.694H133.92c-4.697,0-8.504-3.808-8.504-8.504s3.807-8.504,8.504-8.504h90.148
					c4.696,0,8.504,3.808,8.504,8.504S228.765,152.694,224.069,152.694z"/>
			</g>
			<g>
				<circle style="fill:#FFFFFF;" cx="101.135" cy="144.19" r="8.504"/>
			</g>
			<g>
				<path style="fill:#FFFFFF;" d="M224.069,201.896H133.92c-4.697,0-8.504-3.808-8.504-8.504s3.807-8.504,8.504-8.504h90.148
					c4.696,0,8.504,3.808,8.504,8.504S228.765,201.896,224.069,201.896z"/>
			</g>
			<g>
				<circle style="fill:#FFFFFF;" cx="101.135" cy="193.392" r="8.504"/>
			</g>
		</g>
	</g>
	<g>
		<path style="fill:#FFFFFF;" d="M348.088,102.021V53.458c-17.374,1.846-33.236,8.738-46.104,19.183l34.311,34.31
			C339.887,104.716,343.858,103.037,348.088,102.021z"/>
		<path style="fill:#FFFFFF;" d="M318.477,150.892h-48.598c1.899,17.238,8.764,32.976,19.139,45.757l34.309-34.311
			C321.153,158.844,319.5,154.993,318.477,150.892z"/>
		<path style="fill:#FFFFFF;" d="M323.059,120.344l-34.346-34.347c-10.34,12.886-17.151,28.726-18.922,46.064h48.526
			C319.283,127.868,320.895,123.922,323.059,120.344z"/>
		<path style="fill:#FFFFFF;" d="M366.917,180.234v48.563c17.202-1.827,32.919-8.607,45.718-18.879l-34.347-34.347
			C374.809,177.677,370.981,179.26,366.917,180.234z"/>
		<path style="fill:#FFFFFF;" d="M391.68,162.336l34.312,34.31c10.373-12.78,17.237-28.517,19.137-45.754H396.53
			C395.506,154.992,393.853,158.842,391.68,162.336z"/>
		<path style="fill:#FFFFFF;" d="M302.373,209.922c12.8,10.27,28.515,17.05,45.716,18.876v-48.563
			c-4.063-0.975-7.889-2.557-11.367-4.661L302.373,209.922z"/>
		<path style="fill:#FFFFFF;" d="M454.884,43.418c-6.238-6.238-12.136-9.401-17.526-9.401c-3.475,0-6.646,1.335-9.17,3.858
			l-89.824,89.826v32.238h32.238l5.756-5.755v0.001c0.006-0.007,0.014-0.015,0.02-0.021l84.05-84.05
			C463.607,66.933,469.433,57.965,454.884,43.418z M368.593,146.396l-2.546,2.547h-16.686v-16.685l2.533-2.534
			c0.448-0.447,1.197-1.195,3.906,0.058c2.134,0.987,4.637,2.885,7.237,5.484c2.601,2.601,4.497,5.103,5.484,7.237
			C369.766,145.189,369.042,145.947,368.593,146.396z M452.651,62.337l-74.612,74.614c-1.578-3.059-3.997-6.236-7.224-9.462
			c-3.227-3.228-6.404-5.646-9.463-7.224l74.612-74.614c0.53-0.53,0.927-0.637,1.394-0.637c1.727,0,5.193,1.623,9.75,6.18
			C450.207,54.293,454.861,60.126,452.651,62.337z"/>
		<path style="fill:#FFFFFF;" d="M414.515,132.062h30.701c-0.879-8.604-3.002-16.836-6.178-24.523L414.515,132.062z"/>
		<path style="fill:#FFFFFF;" d="M366.917,53.458v29.653l23.702-23.702C383.17,56.386,375.22,54.34,366.917,53.458z"/>
	</g>
</g>
</svg>
