<?xml version="1.0" encoding="iso-8859-1"?>
<!-- Generator: Adobe Illustrator 15.0.0, SVG Export Plug-In . SVG Version: 6.00 Build 0)  -->
<!DOCTYPE svg PUBLIC "-//W3C//DTD SVG 1.1//EN" "http://www.w3.org/Graphics/SVG/1.1/DTD/svg11.dtd">
<svg version="1.1" id="_x32__x5F_Grading_x5F_Batching_x5F_Histogram_x5F_Head"
	 xmlns="http://www.w3.org/2000/svg" xmlns:xlink="http://www.w3.org/1999/xlink" x="0px" y="0px" width="538.583px"
	 height="283.465px" viewBox="0 0 538.583 283.465" style="enable-background:new 0 0 538.583 283.465;" xml:space="preserve">
<g>
	<g>
		<g>
			<polygon style="fill:#FFFFFF;" points="371.414,229.642 193.277,229.642 193.277,57.175 204.615,57.175 204.615,218.304 
				371.414,218.304 			"/>
		</g>
		<g>
			<g>
				<polygon style="fill:#FFFFFF;" points="179.723,79.759 198.946,60.525 218.168,79.759 218.168,63.438 198.946,44.215 
					179.723,63.438 				"/>
			</g>
		</g>
		<g>
			<g>
				<polygon style="fill:#FFFFFF;" points="348.83,243.195 368.062,223.973 348.83,204.75 365.15,204.75 384.373,223.973 
					365.15,243.195 				"/>
			</g>
		</g>
	</g>
	<rect x="218.789" y="133.304" style="fill:#FFFFFF;" width="17.008" height="70.827"/>
	<rect x="249.97" y="147.477" style="fill:#FFFFFF;" width="17.008" height="56.654"/>
	<g>
		<circle style="fill:#FFFFFF;" cx="382.971" cy="155.172" r="7.144"/>
		<path style="fill:#FFFFFF;" d="M369.421,154.56l-32.433,14.222c-0.113,0.043-0.229,0.085-0.341,0.135
			c-3.008,1.38-4.326,4.938-2.945,7.943c1.363,2.972,4.855,4.291,7.838,2.988l0.004,0.005l32.662-14.321
			C370.908,162.747,369.241,158.655,369.421,154.56z"/>
		<path style="fill:#FFFFFF;" d="M389.441,52.291c-17.014-2.501-85.715-12.492-86.312-12.579l-15.335-2.229l25.387,157.484
			l10.723-4.728L301.448,50.925l0.052,0.008c0.598,0.087,69.284,10.076,86.292,12.577c7.644,1.124,14.28,5.304,18.687,11.769
			c6.121,8.979,7.653,21.846,4.313,36.231c-1.468,6.321-4.28,17.321-6.763,27.025c-1.922,7.519-3.639,14.23-4.65,18.43l13.128-5.788
			c0.769-3.03,1.629-6.396,2.508-9.832c2.497-9.762,5.326-20.826,6.822-27.271c4.064-17.509,1.938-33.555-5.989-45.183
			C409.634,59.777,400.257,53.882,389.441,52.291z"/>
	</g>
	<polygon style="fill:#FFFFFF;" points="298.158,195.916 281.151,90.406 281.151,204.131 298.158,204.131 	"/>
</g>
</svg>
