<?xml version="1.0" encoding="iso-8859-1"?>
<!-- Generator: Adobe Illustrator 15.0.0, SVG Export Plug-In . SVG Version: 6.00 Build 0)  -->
<!DOCTYPE svg PUBLIC "-//W3C//DTD SVG 1.1//EN" "http://www.w3.org/Graphics/SVG/1.1/DTD/svg11.dtd">
<svg version="1.1" id="_x32__x5F_Grading_x5F_Batching_x5F_Vibrator_x5F_Adjust"
	 xmlns="http://www.w3.org/2000/svg" xmlns:xlink="http://www.w3.org/1999/xlink" x="0px" y="0px" width="538.583px"
	 height="283.465px" viewBox="0 0 538.583 283.465" style="enable-background:new 0 0 538.583 283.465;" xml:space="preserve">
<g>
	<g>
		<path style="fill:#FFFFFF;" d="M380.752,43.418c-6.238-6.238-12.136-9.401-17.526-9.401c-3.475,0-6.646,1.335-9.17,3.858
			l-89.822,89.826v32.238h32.238l5.756-5.755v0.001c0.006-0.007,0.014-0.015,0.02-0.021l84.048-84.05
			C389.475,66.933,395.301,57.965,380.752,43.418z M294.463,146.396l-2.546,2.547h-16.686v-16.685l2.533-2.534
			c0.448-0.447,1.197-1.195,3.906,0.058c2.134,0.987,4.637,2.885,7.237,5.484c2.601,2.601,4.497,5.103,5.484,7.237
			C295.636,145.189,294.912,145.947,294.463,146.396z M378.519,62.337l-74.61,74.614c-1.578-3.059-3.997-6.236-7.224-9.462
			c-3.227-3.228-6.404-5.646-9.463-7.224l74.61-74.614c0.53-0.53,0.927-0.637,1.394-0.637c1.727,0,5.193,1.623,9.75,6.18
			C376.075,54.293,380.729,60.126,378.519,62.337z"/>
	</g>
	<g>
		<path style="fill:#FFFFFF;" d="M221.736,106.95c3.594-2.234,7.563-3.913,11.795-4.929V53.458
			c-17.375,1.846-33.238,8.738-46.105,19.183L221.736,106.95z"/>
		<path style="fill:#FFFFFF;" d="M203.917,150.892h-48.601c1.899,17.238,8.765,32.976,19.14,45.757l34.312-34.311
			C206.594,158.844,204.942,154.993,203.917,150.892z"/>
		<path style="fill:#FFFFFF;" d="M208.5,120.344l-34.348-34.347C163.81,98.883,157,114.723,155.228,132.062h48.529
			C204.724,127.868,206.336,123.922,208.5,120.344z"/>
		<path style="fill:#FFFFFF;" d="M298.466,72.642c-12.868-10.445-28.73-17.338-46.105-19.184v48.563
			c4.23,1.016,8.202,2.695,11.796,4.93L298.466,72.642z"/>
		<path style="fill:#FFFFFF;" d="M263.732,175.572c-3.48,2.104-7.309,3.688-11.371,4.662v48.563
			c17.203-1.827,32.919-8.607,45.719-18.879L263.732,175.572z"/>
		<path style="fill:#FFFFFF;" d="M187.813,209.922c12.8,10.27,28.515,17.05,45.718,18.876v-48.563
			c-4.064-0.975-7.891-2.557-11.369-4.661L187.813,209.922z"/>
		<path style="fill:#FFFFFF;" d="M355.268,161.977c0-11.445-2.419-22.321-6.747-32.168c0.438,3.915,0.67,7.893,0.67,11.925
			c0,46.28-29.596,85.642-70.888,100.211C321.08,240.322,355.268,205.151,355.268,161.977z"/>
		<path style="fill:#FFFFFF;" d="M367.871,168.495c-1.205,21.898-10.133,42.453-25.469,58.34
			c-5.441,5.637-11.508,10.473-18.033,14.479c23.017-1.853,46.458-24.874,46.458-51.922
			C370.827,181.958,370.676,174.894,367.871,168.495z"/>
		<path style="fill:#FFFFFF;" d="M207.584,41.647c-42.777,1.622-76.964,36.793-76.964,79.968c0,11.445,2.419,22.321,6.747,32.168
			c-0.438-3.915-0.67-7.893-0.67-11.925C136.698,95.578,166.292,56.217,207.584,41.647z"/>
		<path style="fill:#FFFFFF;" d="M161.519,42.277c-23.016,1.853-46.457,24.874-46.457,51.922c0,7.435,0.15,14.499,2.956,20.897
			c1.205-21.898,10.133-42.453,25.469-58.34C148.928,51.12,154.995,46.284,161.519,42.277z"/>
		<path style="fill:#FFFFFF;" d="M301.167,171.278h-4.695h-10.405l25.369,25.367c10.373-12.78,17.239-28.517,19.139-45.754h-9.021
			l-11.001,11.002l-0.007,0.008l-0.302,0.302l-5.756,5.755L301.167,171.278z"/>
	</g>
</g>
</svg>
