<?xml version="1.0" encoding="iso-8859-1"?>
<!-- Generator: Adobe Illustrator 15.0.0, SVG Export Plug-In . SVG Version: 6.00 Build 0)  -->
<!DOCTYPE svg PUBLIC "-//W3C//DTD SVG 1.1//EN" "http://www.w3.org/Graphics/SVG/1.1/DTD/svg11.dtd">
<svg version="1.1" id="_x32__x5F_Grading_x5F_Batching_x5F_Hopper_x5F_Reset_x5F_Interval"
	 xmlns="http://www.w3.org/2000/svg" xmlns:xlink="http://www.w3.org/1999/xlink" x="0px" y="0px" width="538.583px"
	 height="283.465px" viewBox="0 0 538.583 283.465" style="enable-background:new 0 0 538.583 283.465;" xml:space="preserve">
<g>
	<polygon style="fill:#FFFFFF;" points="301.764,60.98 291.772,60.98 291.772,72.318 301.764,72.318 301.764,80.96 291.772,80.96 
		291.772,92.298 301.764,92.298 301.764,100.941 280.433,100.941 280.433,112.279 301.764,112.279 301.764,120.922 291.772,120.922 
		291.772,132.26 301.764,132.26 301.764,140.902 291.772,140.902 291.772,152.24 301.764,152.24 301.764,160.883 280.433,160.883 
		280.433,172.221 301.764,172.221 301.764,205.316 259.103,205.316 259.103,53.858 247.764,53.858 247.764,216.654 313.103,216.654 
		313.103,53.858 301.764,53.858 	"/>
	<g>
		<circle style="fill:#FFFFFF;" cx="180.958" cy="180.051" r="7.144"/>
		<path style="fill:#FFFFFF;" d="M167.409,179.438l-32.433,14.222c-0.113,0.043-0.229,0.085-0.341,0.135
			c-3.008,1.38-4.326,4.938-2.946,7.943c1.363,2.972,4.855,4.291,7.839,2.988l0.003,0.005l32.662-14.321
			C168.895,187.626,167.229,183.534,167.409,179.438z"/>
		<path style="fill:#FFFFFF;" d="M187.428,77.17c-17.014-2.501-85.714-12.492-86.311-12.579l-15.334-2.229l25.385,157.484
			l10.723-4.728L99.436,75.804l0.051,0.008c0.598,0.087,69.285,10.076,86.293,12.577c7.643,1.124,14.279,5.304,18.687,11.769
			c6.121,8.979,7.653,21.846,4.313,36.231c-1.468,6.321-4.281,17.321-6.763,27.025c-1.923,7.519-3.64,14.23-4.651,18.43
			l13.129-5.788c0.768-3.03,1.629-6.396,2.508-9.832c2.496-9.762,5.326-20.826,6.822-27.271c4.064-17.509,1.938-33.555-5.989-45.183
			C207.622,84.656,198.244,78.761,187.428,77.17z"/>
	</g>
	<g>
		<path style="fill:#FFFFFF;" d="M369.336,150.545c1.793,0.026,3.612-0.479,5.201-1.583c0.86-0.599,1.571-1.331,2.145-2.143
			l32.045-32.011l-37.388,16.608l-37.432-41.441l26.576,53.816c0.248,1.04,0.682,2.054,1.326,2.986
			C363.576,149.313,366.449,150.631,369.336,150.545z"/>
		<path style="fill:#FFFFFF;" d="M369.474,53.858c-15.295,0-29.676,3.911-42.201,10.782V84.88
			c10.372-7.719,22.909-12.683,36.532-13.767v11.089h11.339V71.113c34.563,2.752,62.203,30.391,64.954,64.952h-11.092v11.338h11.092
			c-2.751,34.561-30.391,62.199-64.954,64.95v-11.089h-11.339v11.089c-13.623-1.084-26.16-6.048-36.532-13.766v20.238
			c12.525,6.871,26.906,10.782,42.201,10.782c48.535,0,87.879-39.343,87.879-87.874C457.353,93.201,418.009,53.858,369.474,53.858z"
			/>
	</g>
</g>
</svg>
