<?xml version="1.0" encoding="iso-8859-1"?>
<!-- Generator: Adobe Illustrator 15.0.0, SVG Export Plug-In . SVG Version: 6.00 Build 0)  -->
<!DOCTYPE svg PUBLIC "-//W3C//DTD SVG 1.1//EN" "http://www.w3.org/Graphics/SVG/1.1/DTD/svg11.dtd">
<svg version="1.1" id="_x32__x5F_Grading_x5F_Batching_x5F_Multidrop"
	 xmlns="http://www.w3.org/2000/svg" xmlns:xlink="http://www.w3.org/1999/xlink" x="0px" y="0px" width="538.583px"
	 height="283.465px" viewBox="0 0 538.583 283.465" style="enable-background:new 0 0 538.583 283.465;" xml:space="preserve">
<g>
	<g>
		<path style="fill:#FFFFFF;" d="M350.171,211.197c-0.104,0.564-1.113,1.403-1.687,1.403H179.507c-0.574,0-1.582-0.839-1.687-1.403
			l-12.628-68.355l-16.725,3.09l12.628,68.355c1.587,8.591,9.674,15.321,18.411,15.321h168.978c8.737,0,16.824-6.73,18.411-15.321
			l12.628-68.355l-16.725-3.09L350.171,211.197z"/>
	</g>
	<g>
		<path style="fill:#FFFFFF;" d="M274.023,159.583c0-5.532-4.494-10.027-10.027-10.027c-5.534,0-10.029,4.495-10.029,10.027
			c0,5.533,4.495,10.029,10.029,10.029C269.529,169.612,274.023,165.116,274.023,159.583z"/>
	</g>
	<g>
		<path style="fill:#FFFFFF;" d="M281.061,198.28c5.531,0,10.027-4.496,10.027-10.026c0-5.533-4.496-10.029-10.027-10.029
			c-5.533,0-10.027,4.496-10.027,10.029C271.033,193.784,275.527,198.28,281.061,198.28z"/>
	</g>
	<g>
		<path style="fill:#FFFFFF;" d="M246.929,178.225c-5.532,0-10.027,4.496-10.027,10.029c0,5.53,4.495,10.026,10.027,10.026
			c5.533,0,10.028-4.496,10.028-10.026C256.957,182.721,252.462,178.225,246.929,178.225z"/>
	</g>
	<g>
		<path style="fill:#FFFFFF;" d="M393.266,76.966l12.26-18.324h-12.564l-3.275,6.213c-0.988,1.967-1.901,3.854-2.893,5.977h-0.151
			c-0.991-1.886-1.98-3.774-3.047-5.74l-3.655-6.449h-12.945l12.336,18.875L366.69,97.099h12.717l3.503-6.921
			c0.914-1.887,1.904-3.774,2.818-5.819h0.229c0.837,1.966,1.828,3.933,2.893,5.819l3.731,6.921h13.098L393.266,76.966z"/>
	</g>
	<g>
		<polygon style="fill:#FFFFFF;" points="228.416,89.212 228.416,59.833 202.318,85.944 202.318,40.431 185.311,40.431 
			185.311,85.944 159.213,59.833 159.213,89.212 193.814,123.812 		"/>
	</g>
	<g>
		<polygon style="fill:#FFFFFF;" points="250.059,123.812 284.661,89.212 284.661,59.833 258.563,85.944 258.563,40.431 
			241.555,40.431 241.555,85.944 236.92,81.308 236.92,89.212 236.92,92.734 234.429,95.226 227.95,101.704 		"/>
	</g>
	<g>
		<polygon style="fill:#FFFFFF;" points="306.304,123.812 340.906,89.212 340.906,59.833 314.808,85.944 314.808,40.431 
			297.8,40.431 297.8,85.944 293.165,81.308 293.165,89.212 293.165,92.734 290.674,95.226 284.195,101.704 		"/>
	</g>
</g>
</svg>
