<?xml version="1.0" encoding="iso-8859-1"?>
<!-- Generator: Adobe Illustrator 15.0.0, SVG Export Plug-In . SVG Version: 6.00 Build 0)  -->
<!DOCTYPE svg PUBLIC "-//W3C//DTD SVG 1.1//EN" "http://www.w3.org/Graphics/SVG/1.1/DTD/svg11.dtd">
<svg version="1.1" id="_x32__x5F_Inspection_x5F_Program_x5F_Setup"
	 xmlns="http://www.w3.org/2000/svg" xmlns:xlink="http://www.w3.org/1999/xlink" x="0px" y="0px" width="538.583px"
	 height="283.465px" viewBox="0 0 538.583 283.465" style="enable-background:new 0 0 538.583 283.465;" xml:space="preserve">
<g>
	<path style="fill:#FFFFFF;" d="M346.344,119.92L326.61,85.725c-21.097,12.17-32.831,34.262-32.855,56.981h39.538
		C333.3,133.636,337.894,124.795,346.344,119.92z"/>
	<g>
		<g>
			<g>
				<path style="fill:#FFFFFF;" d="M231.609,103.493H141.46c-4.697,0-8.504-3.808-8.504-8.504s3.807-8.504,8.504-8.504h90.148
					c4.697,0,8.504,3.808,8.504,8.504S236.306,103.493,231.609,103.493z"/>
			</g>
			<g>
				<circle style="fill:#FFFFFF;" cx="108.676" cy="94.989" r="8.504"/>
			</g>
			<g>
				<path style="fill:#FFFFFF;" d="M231.609,152.694H141.46c-4.697,0-8.504-3.808-8.504-8.504s3.807-8.504,8.504-8.504h90.148
					c4.697,0,8.504,3.808,8.504,8.504S236.306,152.694,231.609,152.694z"/>
			</g>
			<g>
				<circle style="fill:#FFFFFF;" cx="108.676" cy="144.19" r="8.504"/>
			</g>
			<g>
				<path style="fill:#FFFFFF;" d="M231.609,201.896H141.46c-4.697,0-8.504-3.808-8.504-8.504s3.807-8.504,8.504-8.504h90.148
					c4.697,0,8.504,3.808,8.504,8.504S236.306,201.896,231.609,201.896z"/>
			</g>
			<g>
				<circle style="fill:#FFFFFF;" cx="108.676" cy="193.392" r="8.504"/>
			</g>
		</g>
	</g>
	<g>
		<g>
			<path style="fill:#FFFFFF;" d="M476.032,43.418c-6.238-6.238-12.136-9.401-17.526-9.401c-3.475,0-6.646,1.335-9.17,3.858
				l-89.824,89.826v32.238h32.238l5.756-5.755v0.001c0.006-0.007,0.014-0.015,0.02-0.021l84.05-84.05
				C484.754,66.933,490.581,57.965,476.032,43.418z M389.741,146.396l-2.546,2.547h-16.686v-16.685l2.533-2.534
				c0.448-0.447,1.197-1.195,3.906,0.058c2.134,0.987,4.637,2.885,7.237,5.484c2.601,2.601,4.497,5.103,5.484,7.237
				C390.914,145.189,390.189,145.947,389.741,146.396z M473.798,62.337l-74.612,74.614c-1.578-3.059-3.997-6.236-7.224-9.462
				c-3.227-3.228-6.404-5.646-9.463-7.224l74.612-74.614c0.53-0.53,0.927-0.637,1.394-0.637c1.727,0,5.193,1.623,9.75,6.18
				C471.354,54.293,476.008,60.126,473.798,62.337z"/>
		</g>
	</g>
	<path style="fill:#FFFFFF;" d="M359.511,171.278h-11.339v-4.938c-0.602-0.29-1.196-0.596-1.777-0.931l-19.77,34.246
		c19.678,11.326,44.685,12.223,65.772,0.048l-16.414-28.426H359.511z"/>
	<g>
		<path style="fill:#FFFFFF;" d="M435.434,132.29c0.383,3.098,0.604,6.244,0.604,9.443c0,42.202-34.334,76.536-76.536,76.536
			s-76.539-34.334-76.539-76.536s34.337-76.536,76.539-76.536c13.391,0,25.982,3.467,36.943,9.534l8.326-8.326
			c-13.222-7.964-28.71-12.547-45.27-12.547c-48.532,0-87.877,39.343-87.877,87.875s39.345,87.875,87.877,87.875
			s87.875-39.343,87.875-87.875c0-6.618-0.736-13.063-2.123-19.263L435.434,132.29z"/>
	</g>
</g>
</svg>
