<?xml version="1.0" encoding="iso-8859-1"?>
<!-- Generator: Adobe Illustrator 15.0.0, SVG Export Plug-In . SVG Version: 6.00 Build 0)  -->
<!DOCTYPE svg PUBLIC "-//W3C//DTD SVG 1.1//EN" "http://www.w3.org/Graphics/SVG/1.1/DTD/svg11.dtd">
<svg version="1.1" id="_x32__x5F_Inspection_x5F_Program"
	 xmlns="http://www.w3.org/2000/svg" xmlns:xlink="http://www.w3.org/1999/xlink" x="0px" y="0px" width="538.583px"
	 height="283.465px" viewBox="0 0 538.583 283.465" style="enable-background:new 0 0 538.583 283.465;" xml:space="preserve">
<g>
	<g>
		<path style="fill:#FFFFFF;" d="M367.404,156.377c7.533-4.339,10.139-14.01,5.773-21.552c-4.35-7.563-14.021-10.151-21.575-5.793
			c-7.552,4.36-10.138,14.032-5.77,21.573C350.192,158.169,359.831,160.754,367.404,156.377z"/>
		<path style="fill:#FFFFFF;" d="M346.344,119.92L326.61,85.725c-21.097,12.17-32.831,34.262-32.855,56.981h39.538
			C333.3,133.636,337.894,124.795,346.344,119.92z"/>
		<path style="fill:#FFFFFF;" d="M346.395,165.41l-19.77,34.246c19.678,11.326,44.685,12.223,65.772,0.048l-19.745-34.194
			C364.212,170.368,354.263,169.953,346.395,165.41z"/>
		<path style="fill:#FFFFFF;" d="M382.299,129.555c2.395,4.146,3.415,8.69,3.415,13.151h39.536
			c0.009-11.179-2.769-22.521-8.764-32.886c-5.997-10.382-14.429-18.475-24.122-24.048l-19.761,34.247
			C376.486,122.241,379.902,125.393,382.299,129.555z"/>
	</g>
	<g>
		<g>
			<g>
				<path style="fill:#FFFFFF;" d="M231.609,103.493H141.46c-4.697,0-8.504-3.808-8.504-8.504s3.807-8.504,8.504-8.504h90.148
					c4.697,0,8.504,3.808,8.504,8.504S236.306,103.493,231.609,103.493z"/>
			</g>
			<g>
				<circle style="fill:#FFFFFF;" cx="108.676" cy="94.989" r="8.504"/>
			</g>
			<g>
				<path style="fill:#FFFFFF;" d="M231.609,152.694H141.46c-4.697,0-8.504-3.808-8.504-8.504s3.807-8.504,8.504-8.504h90.148
					c4.697,0,8.504,3.808,8.504,8.504S236.306,152.694,231.609,152.694z"/>
			</g>
			<g>
				<circle style="fill:#FFFFFF;" cx="108.676" cy="144.19" r="8.504"/>
			</g>
			<g>
				<path style="fill:#FFFFFF;" d="M231.609,201.896H141.46c-4.697,0-8.504-3.808-8.504-8.504s3.807-8.504,8.504-8.504h90.148
					c4.697,0,8.504,3.808,8.504,8.504S236.306,201.896,231.609,201.896z"/>
			</g>
			<g>
				<circle style="fill:#FFFFFF;" cx="108.676" cy="193.392" r="8.504"/>
			</g>
		</g>
	</g>
	<path style="fill:#FFFFFF;" d="M359.501,65.197c42.202,0,76.536,34.334,76.536,76.536s-34.334,76.536-76.536,76.536
		s-76.539-34.334-76.539-76.536S317.299,65.197,359.501,65.197 M359.501,53.858c-48.532,0-87.877,39.343-87.877,87.875
		s39.345,87.875,87.877,87.875s87.875-39.343,87.875-87.875S408.034,53.858,359.501,53.858L359.501,53.858z"/>
</g>
</svg>
