<?xml version="1.0" encoding="iso-8859-1"?>
<!-- Generator: Adobe Illustrator 15.0.0, SVG Export Plug-In . SVG Version: 6.00 Build 0)  -->
<!DOCTYPE svg PUBLIC "-//W3C//DTD SVG 1.1//EN" "http://www.w3.org/Graphics/SVG/1.1/DTD/svg11.dtd">
<svg version="1.1" id="_x32__x5F_Salmon_x5F_Plate_x5F_Rows"
	 xmlns="http://www.w3.org/2000/svg" xmlns:xlink="http://www.w3.org/1999/xlink" x="0px" y="0px" width="538.583px"
	 height="283.465px" viewBox="0 0 538.583 283.465" style="enable-background:new 0 0 538.583 283.465;" xml:space="preserve">
<g>
	<path style="fill:#FFFFFF;" d="M202.845,112.308H69.117c-6.236,0-11.338,5.103-11.338,11.339v88.955
		c0,6.236,5.103,11.339,11.338,11.339h133.728c6.236,0,11.338-5.103,11.338-11.339v-88.955
		C214.183,117.41,209.081,112.308,202.845,112.308z M197.175,206.933H74.786v-77.617h122.389V206.933z"/>
	<path style="fill:#FFFFFF;" d="M228.549,86.604H94.821c-6.236,0-11.338,5.103-11.338,11.339v5.861h11.33l0-5.828
		c0.006-0.012,0.025-0.031,0.014-0.033h133.703c0.006,0.004,0.013,0.008,0.016,0.008c0.002,0,0.003-0.001,0.004-0.003l0.009,88.917
		c-0.006,0.012-0.025,0.031-0.014,0.033h-5.857v11.339h5.862c6.236,0,11.338-5.103,11.338-11.339V97.942
		C239.888,91.706,234.785,86.604,228.549,86.604z"/>
	<path style="fill:#FFFFFF;" d="M254.254,60.899H120.526c-6.236,0-11.338,5.103-11.338,11.339V78.1h11.33l0-5.828
		c0.006-0.012,0.025-0.031,0.014-0.033h133.703c0.006,0.004,0.013,0.008,0.016,0.008c0.002,0,0.003-0.001,0.004-0.003l0.009,88.917
		c-0.006,0.012-0.025,0.031-0.014,0.033h-5.147v11.339h5.152c6.236,0,11.338-5.103,11.338-11.339V72.238
		C265.592,66.002,260.49,60.899,254.254,60.899z"/>
	<path style="fill:#FFFFFF;" d="M420.178,112.308H286.449c-6.236,0-11.338,5.103-11.338,11.339v88.955
		c0,6.236,5.103,11.339,11.338,11.339h133.729c6.236,0,11.338-5.103,11.338-11.339v-88.955
		C431.516,117.41,426.415,112.308,420.178,112.308z M414.508,206.933h-122.39v-77.617h122.39V206.933z"/>
	<path style="fill:#FFFFFF;" d="M445.883,86.604H312.155c-6.237,0-11.339,5.103-11.339,11.339v5.861h11.331l-0.001-5.828
		c0.006-0.012,0.024-0.031,0.014-0.033h133.703c0.007,0.004,0.013,0.008,0.017,0.008c0.002,0,0.003-0.001,0.004-0.003l0.008,88.917
		c-0.006,0.012-0.024,0.031-0.014,0.033h-5.857v11.339h5.863c6.235,0,11.338-5.103,11.338-11.339V97.942
		C457.221,91.706,452.119,86.604,445.883,86.604z"/>
	<path style="fill:#FFFFFF;" d="M471.587,60.899H337.86c-6.236,0-11.339,5.103-11.339,11.339V78.1h11.33l-0.001-5.828
		c0.006-0.012,0.025-0.031,0.014-0.033h133.703c0.007,0.004,0.014,0.008,0.017,0.008c0.002,0,0.003-0.001,0.004-0.003l0.009,88.917
		c-0.006,0.012-0.025,0.031-0.014,0.033h-5.146v11.339h5.151c6.235,0,11.339-5.103,11.339-11.339V72.238
		C482.926,66.002,477.823,60.899,471.587,60.899z"/>
</g>
</svg>
