<?xml version="1.0" encoding="iso-8859-1"?>
<!-- Generator: Adobe Illustrator 15.0.0, SVG Export Plug-In . SVG Version: 6.00 Build 0)  -->
<!DOCTYPE svg PUBLIC "-//W3C//DTD SVG 1.1//EN" "http://www.w3.org/Graphics/SVG/1.1/DTD/svg11.dtd">
<svg version="1.1" id="_x32__x5F_Salmon_x5F_Plate_x5F_Distance"
	 xmlns="http://www.w3.org/2000/svg" xmlns:xlink="http://www.w3.org/1999/xlink" x="0px" y="0px" width="538.583px"
	 height="283.465px" viewBox="0 0 538.583 283.465" style="enable-background:new 0 0 538.583 283.465;" xml:space="preserve">
<g>
	<polygon style="fill:#FFFFFF;" points="278.44,117.08 295.847,134.479 242.702,134.479 260.109,117.08 240.523,117.08 
		217.457,140.148 240.523,163.215 260.109,163.215 242.703,145.818 295.847,145.818 278.44,163.215 298.025,163.215 
		321.091,140.148 298.025,117.08 	"/>
	<path style="fill:#FFFFFF;" d="M197.175,83.962H63.447c-6.236,0-11.338,5.103-11.338,11.339v88.955
		c0,6.236,5.103,11.339,11.338,11.339h133.728c6.236,0,11.338-5.103,11.338-11.339V95.301
		C208.513,89.064,203.411,83.962,197.175,83.962z M191.505,178.587H69.116V100.97h122.389V178.587z"/>
	<path style="fill:#FFFFFF;" d="M475.101,83.962H341.374c-6.235,0-11.339,5.103-11.339,11.339v88.955
		c0,6.236,5.104,11.339,11.339,11.339h133.728c6.236,0,11.339-5.103,11.339-11.339V95.301
		C486.44,89.064,481.337,83.962,475.101,83.962z M469.432,178.587h-122.39V100.97h122.39V178.587z"/>
</g>
</svg>
