<?xml version="1.0" encoding="iso-8859-1"?>
<!-- Generator: Adobe Illustrator 15.0.0, SVG Export Plug-In . SVG Version: 6.00 Build 0)  -->
<!DOCTYPE svg PUBLIC "-//W3C//DTD SVG 1.1//EN" "http://www.w3.org/Graphics/SVG/1.1/DTD/svg11.dtd">
<svg version="1.1" id="_x32__x5F_Salmon_x5F_ITM_x5F_Program"
	 xmlns="http://www.w3.org/2000/svg" xmlns:xlink="http://www.w3.org/1999/xlink" x="0px" y="0px" width="538.583px"
	 height="283.465px" viewBox="0 0 538.583 283.465" style="enable-background:new 0 0 538.583 283.465;" xml:space="preserve">
<g>
	<path style="fill:#FFFFFF;" d="M190.954,86.485h-90.148c-4.697,0-8.504,3.808-8.504,8.504s3.807,8.504,8.504,8.504h90.148
		c4.696,0,8.504-3.808,8.504-8.504S195.65,86.485,190.954,86.485z"/>
	<circle style="fill:#FFFFFF;" cx="68.02" cy="94.989" r="8.504"/>
	<path style="fill:#FFFFFF;" d="M190.954,135.687h-90.148c-4.697,0-8.504,3.808-8.504,8.504s3.807,8.504,8.504,8.504h90.148
		c4.696,0,8.504-3.808,8.504-8.504S195.65,135.687,190.954,135.687z"/>
	<circle style="fill:#FFFFFF;" cx="68.02" cy="144.19" r="8.504"/>
	<path style="fill:#FFFFFF;" d="M190.954,184.888h-90.148c-4.697,0-8.504,3.808-8.504,8.504s3.807,8.504,8.504,8.504h90.148
		c4.696,0,8.504-3.808,8.504-8.504S195.65,184.888,190.954,184.888z"/>
	<circle style="fill:#FFFFFF;" cx="68.02" cy="193.392" r="8.504"/>
	<path style="fill:#FFFFFF;" d="M477.472,98.373c-6.49-4.07-23.976-5.828-42.216-6.21c0,0-33.144-0.104-68.384,3.906
		c-53.62,6.604-118.12,22.187-139.679,51.697c-3.116,33.589,106.065,72.237,187.31,72.237c38.385,0,64.164-8.636,56.466-30.511
		c-8.497-24.658-17.984-54.521,6.005-74.946C479.462,111.99,481.472,101.778,477.472,98.373z M454.889,195.034l0.019,0.053
		l0.019,0.053c0.139,0.394,0.229,0.712,0.287,0.959c-2.056,1.57-11.22,6.897-40.71,6.897c-35.366,0-78.355-7.799-114.994-20.861
		c-17.231-6.144-31.754-13.046-41.998-19.962c-6.406-4.325-9.77-7.709-11.522-9.96c12.119-11.177,35.39-21.374,66.832-29.152
		c10.542-2.608,22.055-4.933,33.968-6.906c21.824-3.846,71.43-6.953,71.43-6.953c3.012-0.068,6.034-0.112,9.053-0.112
		c13.563,0,23.292,0.676,29.933,1.49C435.282,138.128,447.364,173.194,454.889,195.034z"/>
</g>
</svg>
