<?xml version="1.0" encoding="iso-8859-1"?>
<!-- Generator: Adobe Illustrator 15.0.0, SVG Export Plug-In . SVG Version: 6.00 Build 0)  -->
<!DOCTYPE svg PUBLIC "-//W3C//DTD SVG 1.1//EN" "http://www.w3.org/Graphics/SVG/1.1/DTD/svg11.dtd">
<svg version="1.1" id="_x32__x5F_Salmon_x5F_Slice_x5F_Weight_x5F_Max"
	 xmlns="http://www.w3.org/2000/svg" xmlns:xlink="http://www.w3.org/1999/xlink" x="0px" y="0px" width="538.583px"
	 height="283.465px" viewBox="0 0 538.583 283.465" style="enable-background:new 0 0 538.583 283.465;" xml:space="preserve">
<g>
	<path style="fill:#FFFFFF;" d="M407.02,106.988h-16.063V91.581l-0.003-0.271c-0.44-12.954-8.89-37.451-37.72-37.451
		c-28.686,0-37.716,25.069-38.483,38.325l-0.01,15.16h-15.811L256.714,229.07h194.961L407.02,106.988z M311.035,124.352h3.707
		h16.995l0.013-16.996l0.01-14.599c0.306-3.874,1.87-9.831,5.375-14.507c3.775-5.037,8.891-7.384,16.101-7.384
		c7.255,0,12.297,2.231,15.868,7.023c3.33,4.469,4.686,10.192,4.846,13.822v15.276v17.008h17.009h4.174l32.213,88.066h-146.73
		L311.035,124.352z"/>
	<path style="fill:#FFFFFF;" d="M362.03,94.976c0,0-0.291-11.762-8.533-11.762c-8.243,0-8.755,12.187-8.755,12.187v11.36
		l17.288,0.048V94.976z"/>
	<path style="fill:#FFFFFF;" d="M325.219,170.172l-4.043,12.745c-1.312,4.259-2.623,9.336-3.642,13.765h-0.231
		c-0.849-4.489-1.991-9.273-3.241-13.711l-3.765-12.799h-11.542l-2.455,38.346h8.025l0.74-14.566
		c0.23-4.776,0.464-10.695,0.633-15.871h0.108c0.972,5.007,2.222,10.47,3.472,15.021l4.105,14.799h6.758l4.676-14.968
		c1.482-4.499,3.071-9.962,4.321-14.853h0.108c0,5.577,0.169,11.149,0.354,15.763l0.617,14.675h8.426l-2.053-38.346H325.219z"/>
	<path style="fill:#FFFFFF;" d="M354.045,170.172l-11.667,38.346h8.936l2.731-9.844h10.987l2.962,9.844h9.383l-11.944-38.346
		H354.045z M355.295,192.192l2.283-8.134c0.618-2.222,1.188-5.123,1.759-7.406h0.108c0.57,2.283,1.266,5.122,1.944,7.406
		l2.393,8.134H355.295z"/>
	<path style="fill:#FFFFFF;" d="M399.908,188.89l10.802-18.718h-9.892l-3.241,6.997c-0.972,2.215-1.712,3.927-2.624,6.382h-0.106
		c-0.911-2.176-1.776-4.043-2.917-6.382l-3.349-6.997h-9.953l10.693,18.948l-11.095,19.397h9.891l3.134-6.937
		c1.249-2.677,2.223-4.668,3.023-6.891h0.108c1.081,2.223,1.992,4.214,3.411,6.891l3.472,6.937h10.015L399.908,188.89z"/>
	<path style="fill:#FFFFFF;" d="M137.632,53.859c-0.001,0,0,0-0.002,0c-2.963,0-5.568,1.09-7.7,3.486
		c-6.233,7.04-7.921,159.455,0,168.407c2.487,2.811,6.262,4.068,10.89,4.068c28.071,0,87.435-46.313,79.846-73.554
		C214.203,133.019,162.891,53.859,137.632,53.859z M197.389,175.416c-6.896,9.079-18.032,18.942-29.791,26.385
		c-10.269,6.499-18.47,9.646-23.556,10.646c-1.285-10.651-2.608-34.152-2.412-71.499c0.16-30.444,1.242-53.158,2.355-65.942
		c6.403,5,16.712,15.129,30.316,33.881c15.562,21.45,27.678,43.661,29.981,51.946C204.52,161.683,204.045,166.653,197.389,175.416z"
		/>
</g>
</svg>
