<?xml version="1.0" encoding="iso-8859-1"?>
<!-- Generator: Adobe Illustrator 15.0.0, SVG Export Plug-In . SVG Version: 6.00 Build 0)  -->
<!DOCTYPE svg PUBLIC "-//W3C//DTD SVG 1.1//EN" "http://www.w3.org/Graphics/SVG/1.1/DTD/svg11.dtd">
<svg version="1.1" id="_x32__x5F_Salmon_x5F_Cut_x5F_Tail_x5F_Length"
	 xmlns="http://www.w3.org/2000/svg" xmlns:xlink="http://www.w3.org/1999/xlink" x="0px" y="0px" width="538.583px"
	 height="283.465px" viewBox="0 0 538.583 283.465" style="enable-background:new 0 0 538.583 283.465;" xml:space="preserve">
<g>
	<path style="fill:#FFFFFF;" d="M431.5,84.272l-0.279-0.201l-0.385-0.185c-10.83-5.038-33.834-5.825-57.016-5.982
		c-6.234,0-12.4,0.088-18.131,0.288c-42.271,1.371-124.021,7.992-180.074,23.495l-4.263,1.197v64.996l4.035,1.327
		c51.338,16.7,129.472,29.399,184.825,29.435c18.605,0,34.553-1.397,46.553-4.84c11.545-3.275,21.484-9.39,21.748-20.77
		c0-2.899-0.734-5.772-1.957-8.594c-4.838-10.951-9.52-22.707-9.467-32.682c0.158-9.022,2.986-16.533,13.869-24.036
		c4.244-3.859,5.311-8,5.572-12.978C436.548,91.424,435.552,87.076,431.5,84.272z M422.221,97.174
		c-12.556,8.99-18.531,19.934-18.784,34.345l-0.002,0.083v0.084c-0.068,12.936,5.437,26.51,10.609,38.223
		c0.504,1.171,0.783,2.201,0.812,2.992c-0.041,0.927-0.271,1.831-1.82,3.145c-1.442,1.224-4.347,3.019-10.036,4.633
		c-9.97,2.86-24.366,4.311-42.778,4.311c-51.68-0.033-124.283-11.314-175.214-27.054v-44.622
		c55.564-14.329,133.039-20.237,171.159-21.474c5.299-0.186,11.221-0.279,17.602-0.28c11.659,0.079,37.772,0.26,49.023,3.837
		C422.676,96.397,422.504,96.831,422.221,97.174z"/>
	<path style="fill:#FFFFFF;" d="M156.817,167.809l-0.038-61.237c-24.997,6.903-44.96,15.489-54.667,25.964
		C100.727,144.368,123.178,156.867,156.817,167.809z"/>
	<polygon style="fill:#FFFFFF;" points="136.453,188.91 153.86,206.309 105.009,206.309 122.417,188.91 102.833,188.91 
		79.764,211.979 102.833,235.045 122.417,235.045 105.009,217.647 153.86,217.647 136.453,235.045 156.039,235.045 179.105,211.979 
		156.039,188.91 	"/>
</g>
</svg>
