<?xml version="1.0" encoding="iso-8859-1"?>
<!-- Generator: Adobe Illustrator 15.0.0, SVG Export Plug-In . SVG Version: 6.00 Build 0)  -->
<!DOCTYPE svg PUBLIC "-//W3C//DTD SVG 1.1//EN" "http://www.w3.org/Graphics/SVG/1.1/DTD/svg11.dtd">
<svg version="1.1" id="_x32__x5F_Salmon_x5F_Slice_x5F_Weight_x5F_min"
	 xmlns="http://www.w3.org/2000/svg" xmlns:xlink="http://www.w3.org/1999/xlink" x="0px" y="0px" width="538.583px"
	 height="283.465px" viewBox="0 0 538.583 283.465" style="enable-background:new 0 0 538.583 283.465;" xml:space="preserve">
<g>
	<path style="fill:#FFFFFF;" d="M407.02,106.988h-16.063V91.581l-0.003-0.271c-0.44-12.954-8.89-37.451-37.72-37.451
		c-28.686,0-37.716,25.069-38.483,38.325l-0.01,15.16h-15.811L256.714,229.07h194.961L407.02,106.988z M311.035,124.352h3.707
		h16.995l0.013-16.996l0.01-14.599c0.306-3.874,1.87-9.831,5.375-14.507c3.775-5.037,8.891-7.384,16.101-7.384
		c7.255,0,12.297,2.231,15.868,7.023c3.33,4.469,4.686,10.192,4.846,13.822v15.276v17.008h17.009h4.174l32.213,88.066h-146.73
		L311.035,124.352z"/>
	<path style="fill:#FFFFFF;" d="M362.03,94.976c0,0-0.291-11.762-8.533-11.762c-8.243,0-8.755,12.187-8.755,12.187v11.36
		l17.288,0.048V94.976z"/>
	<path style="fill:#FFFFFF;" d="M334.393,166.717l-4.043,12.742c-1.311,4.268-2.615,9.342-3.64,13.771h-0.23
		c-0.851-4.497-1.992-9.271-3.242-13.707l-3.756-12.806h-11.548l-2.445,38.346h8.022l0.74-14.563
		c0.225-4.783,0.454-10.692,0.625-15.876h0.116c0.964,5.006,2.214,10.468,3.471,15.02l4.098,14.804h6.764l4.667-14.974
		c1.48-4.489,3.07-9.95,4.32-14.85h0.115c0,5.585,0.171,11.155,0.348,15.76l0.625,14.68h8.416l-2.044-38.346H334.393z"/>
	<rect x="354.51" y="166.717" style="fill:#FFFFFF;" width="8.649" height="38.346"/>
	<path style="fill:#FFFFFF;" d="M394.439,166.717v11.153c0,5.802,0.178,10.979,0.688,16.039h-0.117
		c-1.759-4.321-3.98-9.103-6.255-13.138l-7.97-14.055h-10.121v38.346h7.961v-11.548c0-6.255-0.109-11.663-0.394-16.784h0.225
		c1.82,4.496,4.382,9.448,6.658,13.537l8.191,14.795h9.103v-38.346H394.439z"/>
	<path style="fill:#FFFFFF;" d="M137.632,53.859c-0.001,0,0,0-0.002,0c-2.963,0-5.568,1.09-7.7,3.486
		c-6.233,7.04-7.921,159.455,0,168.407c2.487,2.811,6.262,4.068,10.89,4.068c28.071,0,87.435-46.313,79.846-73.554
		C214.203,133.019,162.891,53.859,137.632,53.859z M197.389,175.416c-6.896,9.079-18.032,18.942-29.791,26.385
		c-10.269,6.499-18.47,9.646-23.556,10.646c-1.285-10.651-2.608-34.152-2.412-71.499c0.16-30.444,1.242-53.158,2.355-65.942
		c6.403,5,16.712,15.129,30.316,33.881c15.562,21.45,27.678,43.661,29.981,51.946C204.52,161.683,204.045,166.653,197.389,175.416z"
		/>
</g>
</svg>
