<?xml version="1.0" encoding="iso-8859-1"?>
<!-- Generator: Adobe Illustrator 15.0.0, SVG Export Plug-In . SVG Version: 6.00 Build 0)  -->
<!DOCTYPE svg PUBLIC "-//W3C//DTD SVG 1.1//EN" "http://www.w3.org/Graphics/SVG/1.1/DTD/svg11.dtd">
<svg version="1.1" id="_x32__x5F_Salmon_x5F_Ingridient_x5F_Length"
	 xmlns="http://www.w3.org/2000/svg" xmlns:xlink="http://www.w3.org/1999/xlink" x="0px" y="0px" width="538.583px"
	 height="283.465px" viewBox="0 0 538.583 283.465" style="enable-background:new 0 0 538.583 283.465;" xml:space="preserve">
<g>
	<path style="fill:#FFFFFF;" d="M403.828,128.381c-7.875-3.925-31.049-5.264-53.155-5.264c-6.01,0-11.937,0.099-17.46,0.271
		c-57.959,1.838-193.962,14.168-223.483,46.087c-3.288,27.961,142.024,60.132,227.706,60.132c40.492,0,67.664-7.184,59.547-25.392
		c-8.971-20.539-18.975-45.375,6.322-62.396C405.937,139.696,408.052,131.201,403.828,128.381z M337.435,212.6
		c-36.57,0-86.992-6.266-131.591-16.353c-21.986-4.973-41.292-10.602-55.831-16.277c-6.886-2.689-11.884-5.069-15.483-7.044
		c12.25-5.965,35.48-13.914,79.004-20.986c43.628-7.09,90.707-10.615,120.209-11.551c5.58-0.175,11.275-0.264,16.929-0.264
		c12.257,0,21.71,0.397,28.78,0.95c-16.799,22.591-6.563,50.17,0.471,66.555C375.035,209.565,363.253,212.6,337.435,212.6z"/>
	<polygon style="fill:#FFFFFF;" points="148.797,107.043 131.389,89.645 385.119,89.645 367.71,107.043 387.294,107.043 
		410.363,83.976 387.294,60.908 367.71,60.908 385.119,78.307 131.389,78.307 148.797,60.908 129.211,60.908 106.145,83.976 
		129.211,107.043 	"/>
</g>
</svg>
