<?xml version="1.0" encoding="iso-8859-1"?>
<!-- Generator: Adobe Illustrator 15.0.0, SVG Export Plug-In . SVG Version: 6.00 Build 0)  -->
<!DOCTYPE svg PUBLIC "-//W3C//DTD SVG 1.1//EN" "http://www.w3.org/Graphics/SVG/1.1/DTD/svg11.dtd">
<svg version="1.1" id="_x32__x5F_Salmon_x5F_Ingredient"
	 xmlns="http://www.w3.org/2000/svg" xmlns:xlink="http://www.w3.org/1999/xlink" x="0px" y="0px" width="538.583px"
	 height="283.465px" viewBox="0 0 538.583 283.465" style="enable-background:new 0 0 538.583 283.465;" xml:space="preserve">
<g>
	<path style="fill:#FFFFFF;" d="M303.633,137.82c-18.906-17.972-41.085-40.105-29.202-69.286c1.03-3.415-1.891-13.405-7.01-14.585
		c-0.339-0.027-0.697-0.041-1.07-0.041c-9.241,0-28.555,8.33-46.385,17.586c-5.117,2.656-10.115,5.391-14.716,8.023
		c-47.777,27.271-130.018,86.681-137.208,133.578c4.671,11.485,23.133,16.589,48.184,16.589c43.104,0,105.739-15.099,151.343-38.771
		C301.643,173.229,320.543,153.688,303.633,137.82z M186.809,202.684c-25.599,6.444-50.665,9.993-70.582,9.993
		c-16.113,0-25.138-2.335-29.462-4.272c5.6-15.506,21.559-35.285,45.894-56.686c22.686-19.951,52.975-41.42,81.041-57.44
		c4.594-2.63,9.339-5.217,14.103-7.689c12.04-6.249,20.984-10.131,27.254-12.468c-6.765,34.55,20.113,60.107,36.855,76.024
		l0.04,0.039l0.041,0.038c0.305,0.285,0.531,0.527,0.697,0.719c-1.102,2.342-6.782,11.292-32.956,24.877
		C238.92,186.623,213.702,195.912,186.809,202.684z"/>
	<path style="fill:#FFFFFF;" d="M382.959,137.82c-18.901-17.972-41.081-40.105-29.198-69.286c1.03-3.415-1.891-13.405-7.01-14.585
		c-0.339-0.027-0.696-0.041-1.069-0.041c-9.241,0-28.556,8.33-46.386,17.586c-5.119,2.656-10.119,5.391-14.719,8.023
		c-1.535,0.877-3.107,1.787-4.711,2.729c-0.342,4.251,0.197,8.348,1.434,12.344c2.986-1.794,5.961-3.549,8.91-5.231
		c4.667-2.67,9.482-5.294,14.311-7.801c18.04-9.364,31.177-14.43,37.883-15.874c0.046,0.162,0.086,0.32,0.12,0.472
		c-13.363,36.153,15.349,63.457,32.624,79.882l0.027,0.026l0.027,0.025c2.982,2.799,2.765,4.372,2.672,5.043
		c-0.751,5.432-10.682,16.474-36.197,29.719c-21.199,11.004-46.841,20.454-74.157,27.33c-11.71,2.948-23.319,5.295-34.407,6.991
		c-15.485,5.637-31.776,10.446-47.951,14.188c3.314,0.216,6.782,0.325,10.392,0.325c43.104,0,105.743-15.099,151.347-38.771
		C380.969,173.229,399.871,153.688,382.959,137.82z"/>
	<path style="fill:#FFFFFF;" d="M462.286,137.82c-18.9-17.972-41.08-40.105-29.197-69.286c1.029-3.415-1.891-13.405-7.01-14.585
		c-0.34-0.027-0.697-0.041-1.07-0.041c-9.24,0-28.555,8.33-46.385,17.586c-5.117,2.656-10.115,5.391-14.717,8.023
		c-1.574,0.898-3.189,1.835-4.834,2.802c-0.332,4.246,0.213,8.34,1.457,12.331c3.02-1.815,6.028-3.59,9.01-5.292
		c4.664-2.67,9.479-5.294,14.308-7.801c18.04-9.364,31.177-14.43,37.883-15.874c0.046,0.162,0.086,0.32,0.12,0.472
		c-13.363,36.153,15.348,63.457,32.623,79.882l0.027,0.026l0.027,0.025c2.982,2.799,2.766,4.372,2.672,5.043
		c-0.75,5.432-10.682,16.474-36.197,29.719c-21.198,11.004-46.84,20.454-74.153,27.33c-11.782,2.967-23.461,5.323-34.61,7.021
		c-15.453,5.62-31.708,10.417-47.845,14.151c3.343,0.22,6.842,0.331,10.486,0.331c43.107,0,105.742-15.099,151.348-38.771
		C460.295,173.229,479.198,153.688,462.286,137.82z"/>
</g>
</svg>
