<?xml version="1.0" encoding="iso-8859-1"?>
<!-- Generator: Adobe Illustrator 15.0.0, SVG Export Plug-In . SVG Version: 6.00 Build 0)  -->
<!DOCTYPE svg PUBLIC "-//W3C//DTD SVG 1.1//EN" "http://www.w3.org/Graphics/SVG/1.1/DTD/svg11.dtd">
<svg version="1.1" id="_x32__x5F_Salmon_x5F_Plate_x5F_Weight"
	 xmlns="http://www.w3.org/2000/svg" xmlns:xlink="http://www.w3.org/1999/xlink" x="0px" y="0px" width="538.583px"
	 height="283.465px" viewBox="0 0 538.583 283.465" style="enable-background:new 0 0 538.583 283.465;" xml:space="preserve">
<g>
	<path style="fill:#FFFFFF;" d="M119.667,94.886c-1.681,0-3.16,0.618-4.37,1.978c-3.534,3.988-4.489,90.451,0,95.526
		c1.412,1.595,3.554,2.309,6.18,2.309c15.928,0,49.599-26.284,45.302-41.729C163.116,139.789,134.003,94.884,119.667,94.886z
		 M153.793,164.005c-3.933,5.177-10.279,10.798-16.975,15.037c-6.05,3.83-10.861,5.622-13.759,6.133
		c-0.742-5.923-1.519-19.344-1.407-40.884c0.093-17.701,0.733-30.791,1.382-37.953c3.617,2.729,9.602,8.489,17.591,19.48
		c8.89,12.231,15.814,24.918,17.132,29.661C157.933,156.107,157.58,159.022,153.793,164.005z"/>
	<path style="fill:#FFFFFF;" d="M187.917,94.886c-1.682,0-3.16,0.618-4.37,1.978c-3.534,3.988-4.489,90.451,0,95.526
		c1.412,1.595,3.554,2.309,6.18,2.309c15.928,0,49.599-26.284,45.302-41.729C231.366,139.789,202.253,94.884,187.917,94.886z
		 M222.043,164.005c-3.933,5.177-10.279,10.798-16.975,15.037c-6.051,3.83-10.861,5.622-13.759,6.133
		c-0.742-5.923-1.519-19.344-1.406-40.884c0.092-17.701,0.733-30.791,1.381-37.953c3.617,2.729,9.602,8.489,17.591,19.48
		c8.89,12.231,15.814,24.918,17.132,29.661C226.183,156.107,225.83,159.022,222.043,164.005z"/>
	<path style="fill:#FFFFFF;" d="M256.167,94.886c-1.682,0-3.16,0.618-4.37,1.978c-3.534,3.988-4.489,90.451,0,95.526
		c1.412,1.595,3.554,2.309,6.18,2.309c15.928,0,49.599-26.284,45.302-41.729C299.617,139.789,270.502,94.884,256.167,94.886z
		 M290.293,164.005c-3.934,5.177-10.279,10.798-16.976,15.037c-6.05,3.83-10.861,5.622-13.759,6.133
		c-0.742-5.923-1.519-19.344-1.406-40.884c0.092-17.701,0.733-30.791,1.381-37.953c3.617,2.729,9.602,8.489,17.591,19.48
		c8.889,12.231,15.814,24.918,17.132,29.661C294.432,156.107,294.08,159.022,290.293,164.005z"/>
	<path style="fill:#FFFFFF;" d="M390.507,122.102v-8.881l-0.002-0.157c-0.254-7.468-5.125-21.589-21.744-21.589
		c-16.535,0-21.74,14.451-22.183,22.093l-0.007,8.739h-9.113l-24.337,70.172h112.388l-25.742-70.377H390.507z M326.185,183.183
		l17.889-51.581h11.793v-17.61c0.107-1.381,1.356-13.221,12.895-13.221c4.95,0,8.383,1.9,10.494,5.81
		c1.666,3.083,1.929,6.343,1.956,6.755v18.062h12.058l18.941,51.786H326.185z"/>
	<path style="fill:#FFFFFF;" d="M368.913,108.396c-4.752,0-5.047,7.025-5.047,7.025v6.549l9.966,0.027v-6.821
		C373.832,115.177,373.664,108.396,368.913,108.396z"/>
	<path style="fill:#FFFFFF;" d="M453.115,53.859H85.468c-15.591,0-28.347,12.756-28.347,28.347v119.055
		c0,15.591,12.756,28.347,28.347,28.347h367.646c15.591,0,28.347-12.756,28.347-28.347V82.206
		C481.461,66.615,468.706,53.859,453.115,53.859z M470.123,201.261c0,9.378-7.63,17.008-17.008,17.008H85.468
		c-9.378,0-17.008-7.63-17.008-17.008V82.206c0-9.378,7.63-17.008,17.008-17.008h367.646c9.378,0,17.008,7.63,17.008,17.008V201.261
		z"/>
</g>
</svg>
