<?xml version="1.0" encoding="iso-8859-1"?>
<!-- Generator: Adobe Illustrator 15.0.0, SVG Export Plug-In . SVG Version: 6.00 Build 0)  -->
<!DOCTYPE svg PUBLIC "-//W3C//DTD SVG 1.1//EN" "http://www.w3.org/Graphics/SVG/1.1/DTD/svg11.dtd">
<svg version="1.1" id="_x32__x5F_Salmon_x5F_Slice_x5F_Length_x5F_Max"
	 xmlns="http://www.w3.org/2000/svg" xmlns:xlink="http://www.w3.org/1999/xlink" x="0px" y="0px" width="538.583px"
	 height="283.465px" viewBox="0 0 538.583 283.465" style="enable-background:new 0 0 538.583 283.465;" xml:space="preserve">
<g>
	<polygon style="fill:#FFFFFF;" points="302.387,107.63 319.785,90.223 319.785,190.073 302.387,172.666 302.387,192.252 
		325.455,215.318 348.522,192.252 348.522,172.666 331.125,190.073 331.125,90.223 348.522,107.63 348.522,88.046 325.455,64.978 
		302.387,88.046 	"/>
	<path style="fill:#FFFFFF;" d="M188.274,73.934c-0.002,0,0,0-0.002,0c-2.177,0-4.289,0.27-6.315,0.834
		c-32.622,9.07-152.895,88.454-124.225,113.945c4.681,4.145,60.542,6.688,113.748,6.688c47.27,0,92.448-2.009,97.737-6.688
		C292.881,167.774,228.917,73.934,188.274,73.934z M171.48,178.394c-47.939,0-83.864-1.899-99.305-3.728
		c4.174-7.322,16.421-22.204,45.754-43.754c27.986-20.561,57.39-36.646,68.592-39.761c0.5-0.14,1.088-0.21,1.751-0.21h0.001
		c10.188,0,31.246,14.593,50.202,41.638c7.079,10.099,12.748,20.561,15.962,29.459c2.206,6.105,2.83,10.26,2.887,12.676
		C246.869,176.429,219.28,178.394,171.48,178.394z"/>
	<polygon style="fill:#FFFFFF;" points="377.122,64.978 377.122,53.64 273.788,53.64 273.788,64.978 325.455,64.978 	"/>
	<rect x="273.727" y="218.27" style="fill:#FFFFFF;" width="103.334" height="11.338"/>
	<path style="fill:#FFFFFF;" d="M390.775,123.076l-4.043,12.745c-1.312,4.259-2.623,9.336-3.642,13.765h-0.231
		c-0.849-4.489-1.991-9.273-3.241-13.711l-3.765-12.799h-11.542l-2.455,38.346h8.025l0.74-14.566
		c0.23-4.776,0.464-10.695,0.633-15.871h0.108c0.972,5.007,2.222,10.47,3.472,15.021l4.105,14.799h6.758l4.676-14.968
		c1.482-4.499,3.071-9.962,4.321-14.853h0.108c0,5.577,0.169,11.149,0.354,15.763l0.617,14.675h8.426l-2.053-38.346H390.775z"/>
	<path style="fill:#FFFFFF;" d="M419.601,123.076l-11.667,38.346h8.936l2.731-9.844h10.987l2.962,9.844h9.383l-11.944-38.346
		H419.601z M420.851,145.097l2.283-8.134c0.618-2.222,1.188-5.123,1.759-7.406h0.108c0.57,2.283,1.266,5.122,1.944,7.406
		l2.393,8.134H420.851z"/>
	<path style="fill:#FFFFFF;" d="M465.463,141.794l10.802-18.718h-9.892l-3.241,6.997c-0.972,2.215-1.712,3.927-2.624,6.382h-0.106
		c-0.911-2.176-1.776-4.043-2.917-6.382l-3.349-6.997h-9.953l10.693,18.948l-11.095,19.397h9.891l3.134-6.937
		c1.249-2.677,2.223-4.668,3.023-6.891h0.108c1.081,2.223,1.992,4.214,3.411,6.891l3.472,6.937h10.015L465.463,141.794z"/>
</g>
</svg>
