<?xml version="1.0" encoding="iso-8859-1"?>
<!-- Generator: Adobe Illustrator 15.0.0, SVG Export Plug-In . SVG Version: 6.00 Build 0)  -->
<!DOCTYPE svg PUBLIC "-//W3C//DTD SVG 1.1//EN" "http://www.w3.org/Graphics/SVG/1.1/DTD/svg11.dtd">
<svg version="1.1" id="_x32__x5F_Salmon_x5F_Zone_x5F_Length_x5F_Start"
	 xmlns="http://www.w3.org/2000/svg" xmlns:xlink="http://www.w3.org/1999/xlink" x="0px" y="0px" width="538.583px"
	 height="283.465px" viewBox="0 0 538.583 283.465" style="enable-background:new 0 0 538.583 283.465;" xml:space="preserve">
<g>
	<path style="fill:#FFFFFF;" d="M419.813,125.157c-8.125-4.049-32.037-5.431-54.847-5.431c-6.201,0-12.317,0.102-18.017,0.28
		c-59.804,1.896-200.138,14.618-230.6,47.555c-3.393,28.852,146.546,62.046,234.956,62.046c41.783,0,69.82-7.413,61.444-26.2
		c-9.256-21.193-19.579-46.82,6.522-64.382C421.991,136.833,424.172,128.067,419.813,125.157z M348.149,212.041
		c-0.003,0-0.007,0-0.01,0l0,0c-37.443-0.346-87.867-6.736-132.613-16.855c-22.686-5.132-42.606-10.939-57.608-16.796
		c-7.105-2.775-12.262-5.23-15.976-7.269c12.64-6.155,36.61-14.357,81.52-21.654c45.018-7.316,93.596-10.954,124.036-11.919
		l0.642,74.493C348.142,212.041,348.146,212.041,348.149,212.041z"/>
	<polygon style="fill:#FFFFFF;" points="365.515,91.376 348.107,73.978 408.119,73.978 390.71,91.376 410.294,91.376 
		433.363,68.309 410.294,45.241 390.71,45.241 408.119,62.64 348.107,62.64 365.515,45.241 345.929,45.241 322.863,68.309 
		345.929,91.376 	"/>
</g>
</svg>
