<?xml version="1.0" encoding="iso-8859-1"?>
<!-- Generator: Adobe Illustrator 15.0.0, SVG Export Plug-In . SVG Version: 6.00 Build 0)  -->
<!DOCTYPE svg PUBLIC "-//W3C//DTD SVG 1.1//EN" "http://www.w3.org/Graphics/SVG/1.1/DTD/svg11.dtd">
<svg version="1.1" id="_x32__x5F_Salmon_x5F_Cut_x5F_Tail_x5F_Width"
	 xmlns="http://www.w3.org/2000/svg" xmlns:xlink="http://www.w3.org/1999/xlink" x="0px" y="0px" width="538.583px"
	 height="283.465px" viewBox="0 0 538.583 283.465" style="enable-background:new 0 0 538.583 283.465;" xml:space="preserve">
<g>
	<path style="fill:#FFFFFF;" d="M458.714,84.272l-0.279-0.201l-0.384-0.185c-10.83-5.038-33.835-5.825-57.016-5.982
		c-6.235,0-12.401,0.088-18.131,0.288c-42.272,1.371-124.021,7.992-180.074,23.495l-4.263,1.197v64.996l4.035,1.327
		c51.338,16.7,129.471,29.399,184.826,29.435c18.605,0,34.552-1.397,46.552-4.84c11.546-3.275,21.485-9.39,21.749-20.77
		c0-2.899-0.735-5.772-1.957-8.594c-4.839-10.951-9.52-22.707-9.468-32.682c0.158-9.022,2.987-16.533,13.869-24.036
		c4.245-3.859,5.311-8,5.573-12.978C463.763,91.424,462.768,87.076,458.714,84.272z M449.436,97.173
		c-12.555,8.992-18.531,19.936-18.784,34.346l-0.002,0.084v0.085c-0.067,12.937,5.436,26.506,10.608,38.216
		c0.505,1.175,0.785,2.206,0.813,2.997c-0.041,0.927-0.271,1.831-1.82,3.145c-1.442,1.224-4.348,3.019-10.037,4.633
		c-9.97,2.86-24.365,4.311-42.777,4.311c-51.681-0.033-124.283-11.314-175.215-27.054v-44.622
		c55.564-14.329,133.039-20.237,171.159-21.474c5.298-0.186,11.22-0.279,17.602-0.28c11.658,0.079,37.771,0.261,49.022,3.837
		C449.891,96.398,449.72,96.83,449.436,97.173z"/>
	<path style="fill:#FFFFFF;" d="M129.328,132.535c-1.386,11.833,21.065,24.332,54.704,35.273l-0.038-61.237
		C158.998,113.475,139.034,122.061,129.328,132.535z"/>
	<polygon style="fill:#FFFFFF;" points="56.629,111.671 56.629,131.255 74.027,113.848 74.027,162.698 56.629,145.291 
		56.629,164.877 79.696,187.943 102.764,164.877 102.764,145.291 85.366,162.698 85.366,113.848 102.764,131.255 102.764,111.671 
		79.696,88.603 	"/>
</g>
</svg>
