<?xml version="1.0" encoding="iso-8859-1"?>
<!-- Generator: Adobe Illustrator 15.0.0, SVG Export Plug-In . SVG Version: 6.00 Build 0)  -->
<!DOCTYPE svg PUBLIC "-//W3C//DTD SVG 1.1//EN" "http://www.w3.org/Graphics/SVG/1.1/DTD/svg11.dtd">
<svg version="1.1" id="_x32__x5F_Salmon_x5F_Cut_x5F_Head_x5F_Length"
	 xmlns="http://www.w3.org/2000/svg" xmlns:xlink="http://www.w3.org/1999/xlink" x="0px" y="0px" width="538.583px"
	 height="283.465px" viewBox="0 0 538.583 283.465" style="enable-background:new 0 0 538.583 283.465;" xml:space="preserve">
<g>
	<path style="fill:#FFFFFF;" d="M402.341,164.89c-9.469-21.756-20.08-48.004,6.686-66.017c2.805-2.24,5.027-11.238,0.564-14.242
		c-4.316-2.149-12.984-5.438-34.014-6.312v108.582C400.32,182.712,407.115,175.609,402.341,164.89z"/>
	<path style="fill:#FFFFFF;" d="M318.548,73.83c-6.283,0-12.477,0.128-18.23,0.311c-30.09,0.929-80.106,4.598-126.715,12.185
		c-46.719,7.833-89.413,18.341-107.372,37.11l-1.093,1.185l-0.346,1.557c-0.2,1.075-0.182,1.769-0.182,2.158
		c0.911,12.514,12.368,19.298,27.74,26.875c47.029,21.738,146.021,39.807,212.483,39.898c18.814,0,34.953-1.412,47.047-4.928
		l4.207-1.219v-4.354V75.434l-5.391-0.483C340.878,74.141,329.585,73.83,318.548,73.83z M339.08,175.691
		c-8.967,1.601-20.434,2.409-34.223,2.409c-65.333-0.09-161.121-17.949-205.182-38.242c-4.036-1.989-11.76-5.821-15.686-9.273
		c22.401-15.738,74.26-24.44,92.392-27.48c45.423-7.391,94.072-11.026,124.478-11.965c6.313-0.2,12.266-0.302,17.69-0.302
		c7.466,0,14.333,0.142,20.531,0.423V175.691z"/>
	<polygon style="fill:#FFFFFF;" points="438.731,203.315 419.147,203.315 436.555,220.714 387.704,220.714 405.112,203.315 
		385.526,203.315 362.459,226.384 385.526,249.45 405.112,249.45 387.704,232.054 436.555,232.054 419.147,249.45 438.731,249.45 
		461.799,226.384 	"/>
</g>
</svg>
