<?xml version="1.0" encoding="iso-8859-1"?>
<!-- Generator: Adobe Illustrator 15.0.0, SVG Export Plug-In . SVG Version: 6.00 Build 0)  -->
<!DOCTYPE svg PUBLIC "-//W3C//DTD SVG 1.1//EN" "http://www.w3.org/Graphics/SVG/1.1/DTD/svg11.dtd">
<svg version="1.1" id="_x32__x5F_Salmon_x5F_Slice_x5F_Length_x5F_Min"
	 xmlns="http://www.w3.org/2000/svg" xmlns:xlink="http://www.w3.org/1999/xlink" x="0px" y="0px" width="538.583px"
	 height="283.465px" viewBox="0 0 538.583 283.465" style="enable-background:new 0 0 538.583 283.465;" xml:space="preserve">
<g>
	<polygon style="fill:#FFFFFF;" points="302.387,107.63 319.785,90.223 319.785,190.073 302.387,172.666 302.387,192.252 
		325.455,215.318 348.522,192.252 348.522,172.666 331.125,190.073 331.125,90.223 348.522,107.63 348.522,88.046 325.455,64.978 
		302.387,88.046 	"/>
	<path style="fill:#FFFFFF;" d="M188.274,73.934c-0.002,0,0,0-0.002,0c-2.177,0-4.289,0.27-6.315,0.834
		c-32.622,9.07-152.895,88.454-124.225,113.945c4.681,4.145,60.542,6.688,113.748,6.688c47.27,0,92.448-2.009,97.737-6.688
		C292.881,167.774,228.917,73.934,188.274,73.934z M171.48,178.394c-47.939,0-83.864-1.899-99.305-3.728
		c4.174-7.322,16.421-22.204,45.754-43.754c27.986-20.561,57.39-36.646,68.592-39.761c0.5-0.14,1.088-0.21,1.751-0.21h0.001
		c10.188,0,31.246,14.593,50.202,41.638c7.079,10.099,12.748,20.561,15.962,29.459c2.206,6.105,2.83,10.26,2.887,12.676
		C246.869,176.429,219.28,178.394,171.48,178.394z"/>
	<polygon style="fill:#FFFFFF;" points="377.122,64.978 377.122,53.64 273.788,53.64 273.788,64.978 325.455,64.978 	"/>
	<rect x="273.727" y="218.27" style="fill:#FFFFFF;" width="103.334" height="11.338"/>
	<path style="fill:#FFFFFF;" d="M401.592,123.076l-4.043,12.742c-1.311,4.268-2.615,9.342-3.64,13.771h-0.23
		c-0.851-4.497-1.992-9.271-3.242-13.707l-3.756-12.806h-11.548l-2.445,38.346h8.022l0.74-14.563
		c0.225-4.783,0.454-10.692,0.625-15.876h0.116c0.964,5.006,2.214,10.468,3.471,15.02l4.098,14.804h6.764l4.667-14.974
		c1.48-4.489,3.07-9.95,4.32-14.85h0.115c0,5.585,0.171,11.155,0.348,15.76l0.625,14.68h8.416l-2.044-38.346H401.592z"/>
	<rect x="421.709" y="123.076" style="fill:#FFFFFF;" width="8.649" height="38.346"/>
	<path style="fill:#FFFFFF;" d="M461.638,123.076v11.153c0,5.802,0.178,10.979,0.688,16.039h-0.117
		c-1.759-4.321-3.98-9.103-6.255-13.138l-7.97-14.055h-10.121v38.346h7.961v-11.548c0-6.255-0.109-11.663-0.394-16.784h0.225
		c1.82,4.496,4.382,9.448,6.658,13.537l8.191,14.795h9.103v-38.346H461.638z"/>
</g>
</svg>
