<?xml version="1.0" encoding="iso-8859-1"?>
<!-- Generator: Adobe Illustrator 15.0.0, SVG Export Plug-In . SVG Version: 6.00 Build 0)  -->
<!DOCTYPE svg PUBLIC "-//W3C//DTD SVG 1.1//EN" "http://www.w3.org/Graphics/SVG/1.1/DTD/svg11.dtd">
<svg version="1.1" id="_x32__x5F_Salmon_x5F_Ingridient_x5F_Setup"
	 xmlns="http://www.w3.org/2000/svg" xmlns:xlink="http://www.w3.org/1999/xlink" x="0px" y="0px" width="538.583px"
	 height="283.465px" viewBox="0 0 538.583 283.465" style="enable-background:new 0 0 538.583 283.465;" xml:space="preserve">
<g>
	<g>
		<path style="fill:#FFFFFF;" d="M324.894,137.82c-18.905-17.972-41.086-40.105-29.202-69.286c1.03-3.415-1.892-13.405-7.011-14.585
			c-0.339-0.027-0.697-0.041-1.07-0.041c-9.241,0-28.555,8.33-46.385,17.586c-5.117,2.656-10.115,5.391-14.716,8.023
			c-47.777,27.271-130.018,86.681-137.208,133.578c4.671,11.485,23.133,16.589,48.184,16.589
			c43.104,0,105.739-15.099,151.343-38.771C322.904,173.229,341.804,153.688,324.894,137.82z M208.068,202.684
			c-25.599,6.444-50.665,9.993-70.582,9.993c-16.113,0-25.138-2.335-29.462-4.272c5.6-15.506,21.559-35.285,45.894-56.686
			c22.686-19.951,52.975-41.42,81.041-57.44c4.594-2.63,9.339-5.217,14.103-7.689c12.04-6.249,20.984-10.131,27.254-12.468
			c-6.765,34.55,20.114,60.107,36.857,76.024l0.04,0.039l0.041,0.038c0.305,0.285,0.531,0.527,0.697,0.719
			c-1.102,2.342-6.782,11.292-32.958,24.877C260.179,186.623,234.961,195.912,208.068,202.684z"/>
		<path style="fill:#FFFFFF;" d="M404.22,137.82c-18.901-17.972-41.081-40.105-29.198-69.286c1.03-3.415-1.891-13.405-7.01-14.585
			c-0.339-0.027-0.696-0.041-1.069-0.041c-9.241,0-28.556,8.33-46.386,17.586c-5.118,2.656-10.118,5.391-14.719,8.023
			c-1.535,0.877-3.107,1.787-4.711,2.729c-0.342,4.251,0.197,8.348,1.434,12.344c2.986-1.794,5.961-3.549,8.909-5.231
			c4.667-2.67,9.482-5.294,14.311-7.801c18.04-9.364,31.177-14.43,37.883-15.874c0.046,0.162,0.086,0.32,0.12,0.472
			c-13.363,36.153,15.349,63.457,32.624,79.882l0.027,0.026l0.027,0.025c2.982,2.799,2.765,4.372,2.672,5.043
			c-0.751,5.432-10.682,16.474-36.197,29.719c-21.199,11.004-46.841,20.454-74.159,27.33c-11.71,2.948-23.319,5.295-34.407,6.991
			c-15.485,5.637-31.776,10.446-47.951,14.188c3.314,0.216,6.782,0.325,10.392,0.325c43.104,0,105.744-15.099,151.349-38.771
			C402.23,173.229,421.131,153.688,404.22,137.82z"/>
		<path style="fill:#FFFFFF;" d="M483.546,137.82c-18.9-17.972-41.08-40.105-29.197-69.286c1.029-3.415-1.891-13.405-7.01-14.585
			c-0.34-0.027-0.697-0.041-1.07-0.041c-9.24,0-28.555,8.33-46.385,17.586c-5.117,2.656-10.115,5.391-14.717,8.023
			c-1.574,0.898-3.189,1.835-4.834,2.802c-0.332,4.246,0.213,8.34,1.457,12.331c3.02-1.815,6.028-3.59,9.01-5.292
			c4.664-2.67,9.479-5.294,14.308-7.801c18.04-9.364,31.177-14.43,37.883-15.874c0.046,0.162,0.086,0.32,0.12,0.472
			c-13.363,36.153,15.348,63.457,32.623,79.882l0.027,0.026l0.027,0.025c2.982,2.799,2.766,4.372,2.672,5.043
			c-0.75,5.432-10.682,16.474-36.197,29.719c-21.198,11.004-46.84,20.454-74.153,27.33c-11.782,2.967-23.461,5.323-34.61,7.021
			c-15.453,5.62-31.708,10.417-47.847,14.151c3.343,0.22,6.841,0.331,10.487,0.331c43.107,0,105.742-15.099,151.348-38.771
			C481.556,173.229,500.458,153.688,483.546,137.82z"/>
	</g>
	<g>
		<g>
			<g>
				<g>
					<path style="fill:#FFFFFF;" d="M55.167,134.864v32.238h32.238l5.756-5.755v0.001c0.006-0.007,0.014-0.015,0.02-0.021
						l84.05-84.05c3.18-3.182,9.006-12.149-5.543-26.696c-6.238-6.238-12.136-9.401-17.526-9.401c-3.475,0-6.646,1.335-9.17,3.858
						L55.167,134.864z M68.698,136.887c0.448-0.447,1.197-1.195,3.906,0.058c2.134,0.987,4.637,2.885,7.237,5.484
						c2.601,2.601,4.497,5.103,5.484,7.237c1.243,2.687,0.519,3.444,0.07,3.893l-2.546,2.547H66.165v-16.685L68.698,136.887
						L68.698,136.887z M169.454,69.5l-74.612,74.614c-1.578-3.059-3.997-6.236-7.224-9.462c-3.227-3.228-6.404-5.646-9.463-7.224
						l74.612-74.614c0.53-0.53,0.927-0.637,1.394-0.637c1.727,0,5.193,1.623,9.75,6.18C167.009,61.456,171.664,67.289,169.454,69.5z
						"/>
				</g>
			</g>
		</g>
	</g>
</g>
</svg>
