<?xml version="1.0" encoding="iso-8859-1"?>
<!-- Generator: Adobe Illustrator 15.0.0, SVG Export Plug-In . SVG Version: 6.00 Build 0)  -->
<!DOCTYPE svg PUBLIC "-//W3C//DTD SVG 1.1//EN" "http://www.w3.org/Graphics/SVG/1.1/DTD/svg11.dtd">
<svg version="1.1" id="_x32__x5F_Salmon_x5F_ITM_x5F_Program_x5F_Setup"
	 xmlns="http://www.w3.org/2000/svg" xmlns:xlink="http://www.w3.org/1999/xlink" x="0px" y="0px" width="538.583px"
	 height="283.465px" viewBox="0 0 538.583 283.465" style="enable-background:new 0 0 538.583 283.465;" xml:space="preserve">
<g>
	<path style="fill:#FFFFFF;" d="M190.954,86.485h-90.148c-4.697,0-8.504,3.808-8.504,8.504s3.807,8.504,8.504,8.504h90.148
		c4.696,0,8.504-3.808,8.504-8.504S195.65,86.485,190.954,86.485z"/>
	<circle style="fill:#FFFFFF;" cx="68.02" cy="94.989" r="8.504"/>
	<path style="fill:#FFFFFF;" d="M190.954,135.687h-90.148c-4.697,0-8.504,3.808-8.504,8.504s3.807,8.504,8.504,8.504h90.148
		c4.696,0,8.504-3.808,8.504-8.504S195.65,135.687,190.954,135.687z"/>
	<circle style="fill:#FFFFFF;" cx="68.02" cy="144.19" r="8.504"/>
	<path style="fill:#FFFFFF;" d="M190.954,184.888h-90.148c-4.697,0-8.504,3.808-8.504,8.504s3.807,8.504,8.504,8.504h90.148
		c4.696,0,8.504-3.808,8.504-8.504S195.65,184.888,190.954,184.888z"/>
	<circle style="fill:#FFFFFF;" cx="68.02" cy="193.392" r="8.504"/>
	<path style="fill:#FFFFFF;" d="M477.472,98.373c-6.49-4.07-23.975-5.828-42.214-6.21l14.886-14.886
		c3.18-3.182,9.006-12.149-5.543-26.696c-6.238-6.238-12.136-9.401-17.526-9.401c-3.475,0-6.646,1.335-9.17,3.858l-89.824,89.826
		v32.238h32.238l5.756-5.755v0.001c0.006-0.007,0.014-0.015,0.02-0.021l52.126-52.126c3.011-0.068,6.033-0.112,9.051-0.112
		c13.563,0,23.292,0.676,29.933,1.49c-21.922,27.549-9.84,62.615-2.314,84.455l0.019,0.053l0.019,0.053
		c0.139,0.394,0.229,0.712,0.287,0.959c-2.056,1.57-11.22,6.897-40.71,6.897c-35.366,0-78.355-7.799-114.994-20.861
		c-17.231-6.144-31.754-13.046-41.998-19.962c-6.406-4.325-9.77-7.709-11.522-9.96c12.119-11.177,35.39-21.374,66.832-29.152
		c10.542-2.608,22.055-4.933,33.968-6.906l20.084-20.085c-53.62,6.604-118.12,22.187-139.679,51.697
		c-3.116,33.589,106.065,72.237,187.31,72.237c38.385,0,64.164-8.636,56.466-30.511c-8.497-24.658-17.984-54.521,6.005-74.946
		C479.462,111.99,481.472,101.778,477.472,98.373z M358.31,153.559l-2.546,2.547h-16.686v-16.685l2.533-2.534
		c0.448-0.447,1.197-1.195,3.906,0.058c2.134,0.987,4.637,2.885,7.237,5.484c2.601,2.601,4.497,5.103,5.484,7.237
		C359.483,152.353,358.758,153.11,358.31,153.559z M367.755,144.114c-1.578-3.059-3.997-6.236-7.224-9.462
		c-3.227-3.228-6.404-5.646-9.463-7.224l74.612-74.614c0.53-0.53,0.927-0.637,1.394-0.637c1.727,0,5.193,1.623,9.75,6.18
		c3.099,3.099,7.753,8.932,5.543,11.143L367.755,144.114z"/>
</g>
</svg>
