<?xml version="1.0" encoding="iso-8859-1"?>
<!-- Generator: Adobe Illustrator 15.0.0, SVG Export Plug-In . SVG Version: 6.00 Build 0)  -->
<!DOCTYPE svg PUBLIC "-//W3C//DTD SVG 1.1//EN" "http://www.w3.org/Graphics/SVG/1.1/DTD/svg11.dtd">
<svg version="1.1" id="_x32__x5F_Salmon_x5F_HeadTail"
	 xmlns="http://www.w3.org/2000/svg" xmlns:xlink="http://www.w3.org/1999/xlink" x="0px" y="0px" width="538.583px"
	 height="283.465px" viewBox="0 0 538.583 283.465" style="enable-background:new 0 0 538.583 283.465;" xml:space="preserve">
<g>
	<path style="fill:#FFFFFF;" d="M432.814,182.433l-2.803,0.368l-6.329,15.253c-9.204-3.865-26.522-13.429-33.395-17.365l-1.229-0.7
		l-1.402,0.06c-49.139,1.939-86.758-20.255-98.1-27.854l3.26-5.364l-4.961-5.768c44.738-41.056,120.995-40.872,163.103-36.973
		l2.998,0.28l1.596-2.541c0-0.019,3.944-6.284,8.748-13.639c5.803,8.643,16.986,22.49,30.151,24.806l1.684-9.633
		c-11.587-2.033-23.735-19.905-27.436-26.62l-3.874-7.049l-4.47,6.699c-4.575,6.853-9.151,14.007-11.482,17.696
		c-54.52-4.664-127.341-0.667-171.203,43.194l-3.208,3.208l6.311,7.337l-4.189,6.916l3.418,2.674
		c1.823,1.419,44.824,34.394,106.638,32.448c6.205,3.524,29.978,16.83,38.532,19.082l4.119,1.087l7.592-18.266
		c7.94-1.026,31.852-4.095,59.007-7.426l-1.192-9.694C461.303,178.734,432.814,182.433,432.814,182.433z"/>
	<path style="fill:#FFFFFF;" d="M326.739,134.33c0,4.522,3.663,8.188,8.168,8.188c4.507,0,8.171-3.665,8.171-8.188
		c0-4.505-3.664-8.152-8.171-8.152C330.402,126.178,326.739,129.825,326.739,134.33z"/>
	<path style="fill:#FFFFFF;" d="M365.165,171.766c0.771,0.447,1.613,0.666,2.454,0.666c1.684,0,3.331-0.867,4.226-2.427
		c16.005-27.471,6.24-56.659,5.821-57.887c-0.877-2.542-3.647-3.899-6.206-3.023c-2.542,0.868-3.91,3.655-3.032,6.197
		c0.087,0.262,8.676,26.278-5.033,49.785C362.044,167.409,362.834,170.408,365.165,171.766z"/>
	<path style="fill:#FFFFFF;" d="M123.744,172.815c-10.923-12.38-3.41-30.764-0.469-36.758c27.001-4.138,54.684-9.405,73.383-13.158
		c0.946-0.183,1.823-0.648,2.488-1.331l12.692-12.676l3.734,3.743l6.925-6.916l-7.206-7.205c-1.911-1.902-5.013-1.902-6.924,0
		l-15.076,15.094c-19.143,3.822-47.034,9.1-73.925,13.157c-8.134,1.156-40.76-24.938-66.196-49.901
		c-1.718-1.683-4.399-1.876-6.328-0.445c-1.929,1.428-2.543,4.039-1.438,6.169c11.044,21.423,28.312,58.876,27.523,68.22
		c-0.544,6.53-7.539,15.796-14.306,24.746c-6.504,8.606-13.218,17.512-15.883,25.943c-0.577,1.868,0,3.9,1.491,5.182
		c0.912,0.77,2.034,1.173,3.19,1.173c0.719,0,1.473-0.166,2.14-0.507c14.146-6.925,53.941-24.929,68.14-24.929
		c16.83,0,38.952,4.576,64.583,9.852c13.166,2.718,26.787,5.522,41.617,8.152l1.701-9.624c-14.69-2.604-28.242-5.4-41.336-8.1
		C160.976,177.889,140.534,173.682,123.744,172.815z M112.095,173.15c-14.822,2.349-38.651,12.4-53.629,19.204
		c2.419-3.584,5.224-7.274,7.958-10.911c7.941-10.527,15.461-20.468,16.25-29.812c0.772-9.238-8.483-31.588-16.829-49.533
		c15.041,13.388,34.11,28.753,47.016,33.187C109.279,143.769,104.701,159.486,112.095,173.15z"/>
	
		<rect x="156.105" y="135.639" transform="matrix(0.2099 -0.9777 0.9777 0.2099 65.185 363.2796)" style="fill:#FFFFFF;" width="202.51" height="11.338"/>
</g>
</svg>
