<?xml version="1.0" encoding="iso-8859-1"?>
<!-- Generator: Adobe Illustrator 15.0.0, SVG Export Plug-In . SVG Version: 6.00 Build 0)  -->
<!DOCTYPE svg PUBLIC "-//W3C//DTD SVG 1.1//EN" "http://www.w3.org/Graphics/SVG/1.1/DTD/svg11.dtd">
<svg version="1.1" id="_x32__x5F_Salmon_x5F_Cut_x5F_Angle"
	 xmlns="http://www.w3.org/2000/svg" xmlns:xlink="http://www.w3.org/1999/xlink" x="0px" y="0px" width="538.583px"
	 height="283.465px" viewBox="0 0 538.583 283.465" style="enable-background:new 0 0 538.583 283.465;" xml:space="preserve">
<g>
	<polygon style="fill:#FFFFFF;" points="241.052,141.468 272.963,146.353 263.302,133.226 295.231,138.11 285.588,124.983 
		320.804,130.389 309.687,114.766 302.684,105.247 287.635,102.939 297.296,116.094 265.385,111.191 275.046,124.336 
		243.118,119.434 252.762,132.58 220.85,127.677 230.512,140.821 198.583,135.92 208.243,149.082 176.332,144.189 185.976,157.325 
		154.048,152.422 163.69,165.584 131.797,160.684 141.458,173.812 109.53,168.926 119.155,182.071 73.542,175.067 70.795,172.122 
		37.537,183.866 58.673,206.799 94.822,212.349 85.179,199.193 117.09,204.087 107.447,190.943 139.358,195.845 129.714,182.708 
		161.625,187.602 151.964,174.456 183.893,179.359 174.249,166.215 206.16,171.115 196.518,157.962 228.428,162.864 
		218.767,149.729 250.696,154.614 	"/>
	<polygon style="fill:#FFFFFF;" points="270.974,107.479 270.723,107.435 270.795,107.542 	"/>
	<polygon style="fill:#FFFFFF;" points="79.684,168.997 103.657,172.67 96.6,163.036 94.032,159.524 102.759,160.862 
		125.925,164.409 119.083,155.116 116.282,151.255 125.8,152.728 148.193,156.157 141.584,147.161 138.531,143.031 148.839,144.611 
		170.442,147.934 164.085,139.224 160.817,134.788 171.897,136.476 192.729,139.673 186.568,131.305 183.067,126.536 
		194.938,128.341 214.996,131.43 209.088,123.349 205.353,118.276 217.995,120.207 237.263,123.178 231.588,115.429 
		227.621,110.041 241.017,112.107 259.513,114.944 254.072,107.502 249.87,101.781 264.075,103.972 281.799,106.685 276.555,99.555 
		272.174,93.557 287.133,95.838 296.902,97.336 304.047,98.441 299.362,92.065 294.406,85.297 329.818,90.72 323.479,81.83 
		309.329,62.563 60.235,150.393 76.973,168.585 	"/>
	<path style="fill:#FFFFFF;" d="M471.142,63.079c-9.444,0-17.112,7.669-17.112,17.114c0,9.436,7.668,17.115,17.112,17.115
		c9.448,0,17.116-7.68,17.116-17.115C488.258,70.748,480.59,63.079,471.142,63.079z M471.142,89.692
		c-5.243,0-9.517-4.255-9.517-9.499c0-5.243,4.273-9.517,9.517-9.517c5.245,0,9.521,4.273,9.521,9.517
		C480.663,85.438,476.387,89.692,471.142,89.692z"/>
	<polygon style="fill:#FFFFFF;" points="420.048,79.14 407.399,67.771 271.91,218.514 460.402,218.514 460.402,201.506 
		310.065,201.506 	"/>
	<path style="fill:#FFFFFF;" d="M455.106,170.949c-6.086-24.077-14.561-44.204-20.863-57.287l18.842,5.399l-7.92-14.271
		l-26.135-7.481l-7.481,26.135l7.92,14.271l5.131-17.944c5.899,12.394,13.581,30.871,19.231,52.841l-15.576-10.423l3.178,16.009
		l22.598,15.111l15.111-22.598l-3.178-16.009L455.106,170.949z"/>
</g>
</svg>
