<?xml version="1.0" encoding="iso-8859-1"?>
<!-- Generator: Adobe Illustrator 15.0.0, SVG Export Plug-In . SVG Version: 6.00 Build 0)  -->
<!DOCTYPE svg PUBLIC "-//W3C//DTD SVG 1.1//EN" "http://www.w3.org/Graphics/SVG/1.1/DTD/svg11.dtd">
<svg version="1.1" id="_x32__x5F_Salmon_x5F_Plate_x5F_Length"
	 xmlns="http://www.w3.org/2000/svg" xmlns:xlink="http://www.w3.org/1999/xlink" x="0px" y="0px" width="538.583px"
	 height="283.465px" viewBox="0 0 538.583 283.465" style="enable-background:new 0 0 538.583 283.465;" xml:space="preserve">
<g>
	<polygon style="fill:#FFFFFF;" points="393.544,120.241 410.953,137.64 127.633,137.64 145.042,120.241 125.456,120.241 
		102.389,143.309 125.456,166.376 145.042,166.376 127.633,148.978 410.953,148.978 393.544,166.376 413.128,166.376 
		436.197,143.309 413.128,120.241 	"/>
	<path style="fill:#FFFFFF;" d="M453.115,53.859H85.468c-15.591,0-28.347,12.756-28.347,28.347v119.055
		c0,15.591,12.756,28.347,28.347,28.347h367.646c15.591,0,28.347-12.756,28.347-28.347V82.206
		C481.461,66.615,468.706,53.859,453.115,53.859z M470.123,201.261c0,9.378-7.63,17.008-17.008,17.008H85.468
		c-9.378,0-17.008-7.63-17.008-17.008V82.206c0-9.378,7.63-17.008,17.008-17.008h367.646c9.378,0,17.008,7.63,17.008,17.008V201.261
		z"/>
</g>
</svg>
