<?xml version="1.0" encoding="iso-8859-1"?>
<!-- Generator: Adobe Illustrator 15.0.0, SVG Export Plug-In . SVG Version: 6.00 Build 0)  -->
<!DOCTYPE svg PUBLIC "-//W3C//DTD SVG 1.1//EN" "http://www.w3.org/Graphics/SVG/1.1/DTD/svg11.dtd">
<svg version="1.1" id="_x32__x5F_Salmon_x5F_Cut_x5F_Head_x5F_Width"
	 xmlns="http://www.w3.org/2000/svg" xmlns:xlink="http://www.w3.org/1999/xlink" x="0px" y="0px" width="538.583px"
	 height="283.465px" viewBox="0 0 538.583 283.465" style="enable-background:new 0 0 538.583 283.465;" xml:space="preserve">
<g>
	<path style="fill:#FFFFFF;" d="M387.501,89.704c-4.316-2.149-12.984-5.438-34.014-6.312v108.582
		c24.742-4.189,31.537-11.292,26.764-22.012c-9.469-21.756-20.08-48.004,6.686-66.017
		C389.742,101.706,391.964,92.708,387.501,89.704z"/>
	<path style="fill:#FFFFFF;" d="M296.458,78.903c-6.283,0-12.476,0.128-18.23,0.311c-30.091,0.929-80.106,4.598-126.715,12.185
		c-46.719,7.833-89.413,18.341-107.372,37.11l-1.093,1.185l-0.346,1.557c-0.2,1.075-0.182,1.769-0.182,2.158
		c0.911,12.514,12.368,19.298,27.74,26.875c47.029,21.738,146.021,39.807,212.484,39.898c18.814,0,34.953-1.412,47.046-4.928
		l4.207-1.219v-4.354V80.507l-5.391-0.483C318.789,79.214,307.496,78.903,296.458,78.903z M316.99,180.765
		c-8.967,1.601-20.434,2.409-34.222,2.409c-65.334-0.09-161.122-17.949-205.183-38.242c-4.036-1.989-11.76-5.821-15.686-9.273
		c22.401-15.738,74.26-24.44,92.392-27.48c45.423-7.391,94.072-11.026,124.478-11.965c6.313-0.2,12.266-0.302,17.69-0.302
		c7.466,0,14.333,0.142,20.531,0.423V180.765z"/>
	<polygon style="fill:#FFFFFF;" points="471.43,131.255 471.43,111.671 448.363,88.603 425.295,111.671 425.295,131.255 
		442.693,113.848 442.693,162.698 425.295,145.291 425.295,164.877 448.363,187.943 471.43,164.877 471.43,145.291 454.033,162.698 
		454.033,113.848 	"/>
</g>
</svg>
