<?xml version="1.0" encoding="iso-8859-1"?>
<!-- Generator: Adobe Illustrator 15.0.0, SVG Export Plug-In . SVG Version: 6.00 Build 0)  -->
<!DOCTYPE svg PUBLIC "-//W3C//DTD SVG 1.1//EN" "http://www.w3.org/Graphics/SVG/1.1/DTD/svg11.dtd">
<svg version="1.1" id="_x32__x5F_Salmon_x5F_Product_x5F_Setup"
	 xmlns="http://www.w3.org/2000/svg" xmlns:xlink="http://www.w3.org/1999/xlink" x="0px" y="0px" width="538.583px"
	 height="283.465px" viewBox="0 0 538.583 283.465" style="enable-background:new 0 0 538.583 283.465;" xml:space="preserve">
<g>
	<g>
		<g>
			<path style="fill:#FFFFFF;" d="M328.081,127.701v32.238h32.238l5.756-5.755v0.001c0.006-0.007,0.014-0.015,0.02-0.021
				l84.05-84.05c3.18-3.182,9.006-12.149-5.543-26.696c-6.238-6.238-12.136-9.401-17.526-9.401c-3.475,0-6.646,1.335-9.17,3.858
				L328.081,127.701z M341.612,129.724c0.448-0.447,1.197-1.195,3.906,0.058c2.134,0.987,4.637,2.885,7.237,5.484
				c2.601,2.601,4.497,5.103,5.484,7.237c1.243,2.687,0.519,3.444,0.07,3.893l-2.546,2.547h-16.686v-16.685L341.612,129.724
				L341.612,129.724z M442.368,62.337l-74.612,74.614c-1.578-3.059-3.997-6.236-7.224-9.462c-3.227-3.228-6.404-5.646-9.463-7.224
				l74.612-74.614c0.53-0.53,0.927-0.637,1.394-0.637c1.727,0,5.193,1.623,9.75,6.18C439.923,54.293,444.578,60.126,442.368,62.337z
				"/>
		</g>
	</g>
	<g>
		<path style="fill:#FFFFFF;" d="M144.612,107.325c3.53,3.227,8.501,8.646,14.757,17.34c9.253,12.861,15.111,24.286,16.245,28.137
			c-0.021,1.021-1.296,4.911-6.98,10.86c-7.884,8.253-17.975,14.063-23.947,15.909c-0.643-6.616-1.245-19.304-1.144-38.376
			C143.621,126.406,144.087,114.82,144.612,107.325 M139.568,91.922c-1.677,0-3.152,0.617-4.359,1.974
			c-3.529,3.985-4.484,90.27,0,95.337c1.408,1.591,3.545,2.303,6.166,2.303c15.891,0,49.497-26.218,45.202-41.639
			C182.917,136.734,153.867,91.919,139.568,91.922L139.568,91.922z"/>
	</g>
	<g>
		<path style="fill:#FFFFFF;" d="M219.757,107.325c3.531,3.227,8.502,8.646,14.757,17.34c9.253,12.861,15.111,24.286,16.245,28.137
			c-0.021,1.02-1.296,4.91-6.98,10.86c-7.885,8.253-17.975,14.063-23.947,15.909c-0.643-6.616-1.244-19.304-1.144-38.376
			C218.766,126.405,219.232,114.821,219.757,107.325 M214.713,91.922c-1.677,0-3.153,0.617-4.359,1.974
			c-3.528,3.985-4.483,90.27,0,95.337c1.408,1.591,3.545,2.303,6.165,2.303c15.892,0,49.498-26.218,45.202-41.639
			C258.063,136.734,229.013,91.919,214.713,91.922L214.713,91.922z"/>
	</g>
	<g>
		<path style="fill:#FFFFFF;" d="M328.081,168.443h-8.504v-5.482c-0.214,0.232-0.424,0.462-0.652,0.701
			c-7.885,8.253-17.975,14.063-23.947,15.909c-0.643-6.616-1.245-19.304-1.144-38.376c0.078-14.789,0.544-26.374,1.069-33.869
			c3.53,3.226,8.501,8.645,14.757,17.339c3.967,5.513,7.303,10.757,9.917,15.258v-12.222v-3.522l2.109-2.109
			c-10.37-15.178-23.563-30.149-31.828-30.147c-1.677,0-3.152,0.617-4.359,1.974c-3.529,3.985-4.484,90.27,0,95.337
			c1.408,1.591,3.545,2.303,6.165,2.303c10.337,0,28.16-11.094,38.181-23.092H328.081z"/>
	</g>
	<path style="fill:#FFFFFF;" d="M453.115,53.859h-0.794c2.177,4.731,1.975,8.519,0.96,11.348c9.301,0.09,16.842,7.677,16.842,16.999
		v119.055c0,9.378-7.63,17.008-17.008,17.008H85.468c-9.378,0-17.008-7.63-17.008-17.008V82.206c0-9.378,7.63-17.008,17.008-17.008
		h305.114l11.338-11.339H85.468c-15.591,0-28.347,12.756-28.347,28.347v119.055c0,15.591,12.756,28.347,28.347,28.347h367.646
		c15.591,0,28.347-12.756,28.347-28.347V82.206C481.461,66.615,468.706,53.859,453.115,53.859z"/>
</g>
</svg>
