<?xml version="1.0" encoding="iso-8859-1"?>
<!-- Generator: Adobe Illustrator 15.0.0, SVG Export Plug-In . SVG Version: 6.00 Build 0)  -->
<!DOCTYPE svg PUBLIC "-//W3C//DTD SVG 1.1//EN" "http://www.w3.org/Graphics/SVG/1.1/DTD/svg11.dtd">
<svg version="1.1" id="_x32__x5F_Salmon_x5F_Slice_x5F_Weight"
	 xmlns="http://www.w3.org/2000/svg" xmlns:xlink="http://www.w3.org/1999/xlink" x="0px" y="0px" width="538.583px"
	 height="283.465px" viewBox="0 0 538.583 283.465" style="enable-background:new 0 0 538.583 283.465;" xml:space="preserve">
<g>
	<path style="fill:#FFFFFF;" d="M137.406,53.859c-2.963,0-5.568,1.09-7.7,3.486c-6.233,7.04-7.921,159.455,0,168.407
		c2.487,2.811,6.262,4.068,10.89,4.068c28.071,0,87.435-46.313,79.846-73.554C213.979,133.018,162.664,53.855,137.406,53.859z
		 M188.749,180.584c-13.927,14.578-31.751,24.843-42.302,28.103c-1.135-11.688-2.198-34.099-2.02-67.788
		c0.139-26.125,0.961-46.589,1.889-59.828c6.237,5.699,15.017,15.271,26.066,30.629c16.345,22.719,26.693,42.899,28.696,49.7
		C201.042,163.201,198.79,170.073,188.749,180.584z"/>
	<path style="fill:#FFFFFF;" d="M407.02,106.988h-16.063V91.581l-0.003-0.271c-0.44-12.954-8.89-37.451-37.72-37.451
		c-28.686,0-37.716,25.069-38.483,38.325l-0.01,15.16h-15.811L256.714,229.07h194.961L407.02,106.988z M311.035,124.352h3.707
		h16.995l0.013-16.996l0.01-14.599c0.306-3.874,1.87-9.831,5.375-14.507c3.775-5.037,8.891-7.384,16.101-7.384
		c7.255,0,12.297,2.231,15.868,7.023c3.33,4.469,4.686,10.192,4.846,13.822v15.276v17.008h17.009h4.174l32.213,88.066h-146.73
		L311.035,124.352z"/>
	<path style="fill:#FFFFFF;" d="M353.497,83.214c-8.243,0-8.755,12.187-8.755,12.187v11.36l17.288,0.048V94.976
		C362.03,94.976,361.739,83.214,353.497,83.214z"/>
</g>
</svg>
