<?xml version="1.0" encoding="iso-8859-1"?>
<!-- Generator: Adobe Illustrator 15.0.0, SVG Export Plug-In . SVG Version: 6.00 Build 0)  -->
<!DOCTYPE svg PUBLIC "-//W3C//DTD SVG 1.1//EN" "http://www.w3.org/Graphics/SVG/1.1/DTD/svg11.dtd">
<svg version="1.1" id="_x32__x5F_Salmon_x5F_Zone_x5F_Length_x5F_End"
	 xmlns="http://www.w3.org/2000/svg" xmlns:xlink="http://www.w3.org/1999/xlink" x="0px" y="0px" width="538.583px"
	 height="283.465px" viewBox="0 0 538.583 283.465" style="enable-background:new 0 0 538.583 283.465;" xml:space="preserve">
<g>
	<path style="fill:#FFFFFF;" d="M419.813,125.157c-8.125-4.049-32.037-5.431-54.847-5.431c-6.201,0-12.317,0.102-18.017,0.28
		c-59.804,1.896-200.138,14.618-230.6,47.555c-3.393,28.852,146.546,62.046,234.956,62.046c41.783,0,69.82-7.413,61.444-26.2
		c-9.256-21.193-19.579-46.82,6.522-64.382C421.991,136.833,424.172,128.067,419.813,125.157z M221.106,196.324v-46.468v-0.001
		v0.001c0.784-0.13,1.559-0.261,2.355-0.39c45.018-7.316,93.596-10.954,124.036-11.919c5.759-0.181,11.635-0.272,17.469-0.272
		c12.647,0,22.4,0.41,29.696,0.98c-17.334,23.311-6.771,51.768,0.485,68.674c-5.044,1.998-17.2,5.128-43.842,5.128
		C315.092,212.058,265.705,206.004,221.106,196.324z"/>
	<polygon style="fill:#FFFFFF;" points="158.946,91.376 141.538,73.978 201.549,73.978 184.141,91.376 203.725,91.376 
		226.793,68.309 203.725,45.241 184.141,45.241 201.549,62.64 141.538,62.64 158.946,45.241 139.36,45.241 116.293,68.309 
		139.36,91.376 	"/>
</g>
</svg>
