<?xml version="1.0" encoding="iso-8859-1"?>
<!-- Generator: Adobe Illustrator 15.0.0, SVG Export Plug-In . SVG Version: 6.00 Build 0)  -->
<!DOCTYPE svg PUBLIC "-//W3C//DTD SVG 1.1//EN" "http://www.w3.org/Graphics/SVG/1.1/DTD/svg11.dtd">
<svg version="1.1" id="_x32__x5F_Salmon_x5F_Plate_x5F_Slices"
	 xmlns="http://www.w3.org/2000/svg" xmlns:xlink="http://www.w3.org/1999/xlink" x="0px" y="0px" width="538.583px"
	 height="283.465px" viewBox="0 0 538.583 283.465" style="enable-background:new 0 0 538.583 283.465;" xml:space="preserve">
<g>
	<path style="fill:#FFFFFF;" d="M123.179,94.886c-1.681,0-3.16,0.618-4.37,1.978c-3.534,3.988-4.489,90.451,0,95.526
		c1.412,1.595,3.554,2.309,6.18,2.309c15.928,0,49.599-26.284,45.302-41.729C166.628,139.789,137.515,94.884,123.179,94.886z
		 M157.305,164.005c-3.933,5.177-10.279,10.798-16.975,15.037c-6.05,3.83-10.861,5.622-13.759,6.133
		c-0.742-5.923-1.519-19.344-1.407-40.884c0.093-17.701,0.733-30.791,1.382-37.953c3.617,2.729,9.602,8.489,17.591,19.48
		c8.89,12.231,15.814,24.918,17.132,29.661C161.444,156.107,161.091,159.022,157.305,164.005z"/>
	<path style="fill:#FFFFFF;" d="M191.429,94.886c-1.682,0-3.16,0.618-4.37,1.978c-3.534,3.988-4.489,90.451,0,95.526
		c1.412,1.595,3.554,2.309,6.18,2.309c15.928,0,49.599-26.284,45.302-41.729C234.878,139.789,205.765,94.884,191.429,94.886z
		 M225.555,164.005c-3.933,5.177-10.279,10.798-16.975,15.037c-6.051,3.83-10.861,5.622-13.759,6.133
		c-0.742-5.923-1.519-19.344-1.406-40.884c0.092-17.701,0.733-30.791,1.381-37.953c3.617,2.729,9.602,8.489,17.591,19.48
		c8.89,12.231,15.814,24.918,17.132,29.661C229.694,156.107,229.341,159.022,225.555,164.005z"/>
	<path style="fill:#FFFFFF;" d="M380.355,94.886c-1.682,0-3.16,0.618-4.369,1.978c-3.535,3.988-4.49,90.451,0,95.526
		c1.412,1.595,3.553,2.309,6.18,2.309c15.928,0,49.598-26.284,45.301-41.729C423.804,139.789,394.691,94.884,380.355,94.886z
		 M414.482,164.005c-3.934,5.177-10.279,10.798-16.977,15.037c-6.05,3.83-10.86,5.622-13.758,6.133
		c-0.742-5.923-1.52-19.344-1.406-40.884c0.092-17.701,0.732-30.791,1.381-37.953c3.617,2.729,9.602,8.489,17.592,19.48
		c8.889,12.231,15.813,24.918,17.132,29.661C418.621,156.107,418.268,159.022,414.482,164.005z"/>
	<path style="fill:#FFFFFF;" d="M270.878,178.383c-4.534,0-7.771,3.5-7.771,8.158c0,4.663,3.105,8.157,7.516,8.157
		c4.789,0,7.9-3.494,7.9-8.157C278.522,181.748,275.411,178.383,270.878,178.383z"/>
	<path style="fill:#FFFFFF;" d="M302.827,178.383c-4.534,0-7.771,3.5-7.771,8.158c0,4.663,3.105,8.157,7.516,8.157
		c4.789,0,7.9-3.494,7.9-8.157C310.471,181.748,307.36,178.383,302.827,178.383z"/>
	<path style="fill:#FFFFFF;" d="M334.776,178.383c-4.534,0-7.771,3.5-7.771,8.158c0,4.663,3.105,8.157,7.516,8.157
		c4.789,0,7.9-3.494,7.9-8.157C342.42,181.748,339.309,178.383,334.776,178.383z"/>
	<path style="fill:#FFFFFF;" d="M453.115,53.859H85.468c-15.591,0-28.347,12.756-28.347,28.347v119.055
		c0,15.591,12.756,28.347,28.347,28.347h367.646c15.591,0,28.347-12.756,28.347-28.347V82.206
		C481.461,66.615,468.706,53.859,453.115,53.859z M470.123,201.261c0,9.378-7.63,17.008-17.008,17.008H85.468
		c-9.378,0-17.008-7.63-17.008-17.008V82.206c0-9.378,7.63-17.008,17.008-17.008h367.646c9.378,0,17.008,7.63,17.008,17.008V201.261
		z"/>
</g>
</svg>
