<?xml version="1.0" encoding="iso-8859-1"?>
<!-- Generator: Adobe Illustrator 15.0.0, SVG Export Plug-In . SVG Version: 6.00 Build 0)  -->
<!DOCTYPE svg PUBLIC "-//W3C//DTD SVG 1.1//EN" "http://www.w3.org/Graphics/SVG/1.1/DTD/svg11.dtd">
<svg version="1.1" id="_x32__x5F_Salmon_x5F_Output_x5F_Principle"
	 xmlns="http://www.w3.org/2000/svg" xmlns:xlink="http://www.w3.org/1999/xlink" x="0px" y="0px" width="538.583px"
	 height="283.465px" viewBox="0 0 538.583 283.465" style="enable-background:new 0 0 538.583 283.465;" xml:space="preserve">
<g>
	<g>
		<g>
			<g>
				<g>
					<path style="fill:#FFFFFF;" d="M387.901,224.993l-4.831-0.031c-39.537-0.275-94.53-8.287-136.837-19.926l-3.525-0.977v-3.65
						c0-6.627-1.086-12.34-2.062-17.393c-0.74-3.903-1.385-7.271-1.385-10.355c0-5.423,1.495-12.623,4.454-21.406
						c0.787-2.36,1.275-6.318,1.385-7.648l0.315-3.502l3.447-0.756c46.683-10.191,105.342-14.361,132.666-15.228l5.808-0.118
						l0.535,4.289c0.031,0.33,0.991,8.295-0.016,15.346c-0.488,3.471-1.747,6.705-3.054,10.136
						c-1.936,4.997-3.919,10.151-3.919,16.888c0,4.549,1.103,9.129,2.472,14.938c2.014,8.546,4.548,19.201,4.548,34.563V224.993z
						 M252.214,196.71c39.316,10.467,88.737,17.738,125.976,18.58c-0.425-11.639-2.408-19.996-4.187-27.488
						c-1.464-6.154-2.723-11.474-2.723-17.141c0-8.515,2.533-15.078,4.549-20.334c1.18-3.038,2.172-5.65,2.518-8.043
						c0.41-2.865,0.426-5.997,0.314-8.452c-27.512,1.031-80.772,5.036-124.449,14.196c-0.283,1.921-0.74,4.281-1.401,6.265
						c-3.258,9.734-3.951,15.361-3.951,18.368c0,2.172,0.567,5.131,1.228,8.546C250.908,185.535,251.899,190.745,252.214,196.71z"/>
				</g>
			</g>
			<g>
				<g>
					<path style="fill-rule:evenodd;clip-rule:evenodd;fill:#FFFFFF;" d="M232.178,196.253c-0.677-12.127-6.028-18.524-6.028-27.433
						c0-5.352,4.69-14.779,6.28-20.201c0.913-4.376,1.448-9.231,1.448-9.231c-28.583,6.06-52.789,14.103-64.279,26.158l-0.897,0.961
						l-0.22,1.307c-0.079,0.582-0.095,1.078-0.095,1.479c0.677,9.963,10.026,15.692,22.869,21.98
						c10.64,4.918,24.537,9.624,40.198,13.865C231.454,205.138,232.178,200.834,232.178,196.253z"/>
				</g>
			</g>
			<g>
				<g>
					<g>
						<path style="fill-rule:evenodd;clip-rule:evenodd;fill:#FFFFFF;" d="M398.667,223.073c0.614,0.008,1.228,0.008,1.842,0.008
							c15.55-0.023,28.913-1.188,38.892-4.053c4.973-1.433,9.16-3.29,12.418-5.997c3.227-2.628,5.477-6.563,5.461-10.915
							c0-2.337-0.582-4.682-1.637-6.996c-4.029-9.199-8.011-19.107-7.948-27.638c0.095-7.673,2.597-14.196,11.836-20.571
							l0.204-0.109l0.143-0.127c2.959-2.754,3.919-6.169,4.092-10.198c0.016-2.691-0.771-6.17-3.998-8.39l-0.236-0.142l-0.235-0.142
							c-4.628-2.203-11.349-3.163-19.8-3.958c-8.373-0.716-18.179-0.999-27.748-0.999c-4.203,0-8.357,0.063-12.355,0.157
							c0,0,0.11,4.769,0.11,8.767v9.317c0,7.642-7.052,13.095-7.052,25.151c0,14.401,8.373,21.216,8.373,38.514
							c0,2.612-0.472,6.539-0.928,9.569C399.155,219.343,398.667,223.073,398.667,223.073z"/>
					</g>
				</g>
			</g>
		</g>
	</g>
	<g>
		<path style="fill:#FFFFFF;" d="M283.063,81.279l-5.524-7.508l-11.883-1.81l7.618,10.372l-25.183-3.872l7.633,10.388l-25.214-3.88
			l7.618,10.38l-25.167-3.864l7.618,10.365l-25.214-3.856l7.633,10.388l-25.198-3.872l7.618,10.372l-25.198-3.879l7.618,10.396
			l-25.183-3.872l7.618,10.364l-25.198-3.856l7.618,10.381l-36.027-5.525l-2.156-2.329l-26.253,9.271l16.684,18.1l28.535,4.384
			l-7.618-10.38l25.183,3.855l-7.602-10.371l25.183,3.871l-7.602-10.372l25.183,3.856l-7.618-10.372l25.198,3.872l-7.618-10.381
			l25.183,3.872l-7.602-10.38l25.183,3.864l-7.618-10.372l25.198,3.863l-7.618-10.38l25.183,3.864l-7.618-10.372l25.198,3.872
			l-7.602-10.372l27.795,4.265L283.063,81.279z M101.512,124.09l18.918,2.903l-5.572-7.602l-2.015-2.778l6.894,1.063l18.273,2.794
			l-5.383-7.335l-2.235-3.037l7.523,1.148l17.675,2.724l-5.209-7.106l-2.408-3.267l8.122,1.252l17.061,2.62l-5.021-6.862
			l-2.581-3.525l8.751,1.346l16.447,2.519l-4.879-6.618l-2.754-3.746l9.365,1.432l15.849,2.424l-4.674-6.358l-2.959-4.013
			l9.979,1.526l15.22,2.337l-4.485-6.114l-3.132-4.25l10.577,1.621l14.606,2.243l-4.297-5.863l-3.321-4.532l11.222,1.731
			l13.976,2.148l-4.124-5.627l-3.479-4.746l11.805,1.803l7.728,1.196l5.635,0.865l-3.699-5.036l-3.903-5.336l27.937,4.273
			l-5.004-7.012l-11.159-15.22L86.166,109.405l13.221,14.369L101.512,124.09z M259.769,68.278l-0.205-0.016l0.063,0.079
			L259.769,68.278z"/>
	</g>
</g>
</svg>
