<?xml version="1.0" encoding="iso-8859-1"?>
<!-- Generator: Adobe Illustrator 15.0.0, SVG Export Plug-In . SVG Version: 6.00 Build 0)  -->
<!DOCTYPE svg PUBLIC "-//W3C//DTD SVG 1.1//EN" "http://www.w3.org/Graphics/SVG/1.1/DTD/svg11.dtd">
<svg version="1.1" id="_x32__x5F_Salmon_x5F_Slice_x5F_Thickness"
	 xmlns="http://www.w3.org/2000/svg" xmlns:xlink="http://www.w3.org/1999/xlink" x="0px" y="0px" width="538.583px"
	 height="283.465px" viewBox="0 0 538.583 283.465" style="enable-background:new 0 0 538.583 283.465;" xml:space="preserve">
<g>
	<polygon style="fill:#FFFFFF;" points="254.795,121.418 272.203,138.816 228.2,138.816 228.2,150.156 272.202,150.156 
		254.795,167.553 274.379,167.553 297.448,144.486 274.379,121.418 	"/>
	<polygon style="fill:#FFFFFF;" points="398.722,138.814 354.719,138.814 372.126,121.418 352.542,121.418 330.196,143.763 
		330.196,70.148 318.858,70.148 318.858,213.038 330.196,213.038 330.196,145.206 352.542,167.553 372.126,167.553 354.719,150.154 
		398.722,150.154 	"/>
	<polygon style="fill:#FFFFFF;" points="297.448,144.486 297.448,213.038 308.786,213.038 308.786,70.148 297.448,70.148 	"/>
	<path style="fill:#FFFFFF;" d="M114.955,53.859c-0.001,0,0,0-0.002,0c-2.963,0-5.568,1.09-7.7,3.486
		c-6.233,7.04-7.921,159.455,0,168.407c2.487,2.811,6.262,4.068,10.89,4.068c28.071,0,87.435-46.313,79.846-73.554
		C191.526,133.019,140.214,53.859,114.955,53.859z M174.712,175.416c-6.896,9.079-18.032,18.942-29.791,26.385
		c-10.269,6.499-18.47,9.646-23.556,10.646c-1.285-10.651-2.608-34.152-2.412-71.499c0.16-30.444,1.242-53.158,2.355-65.942
		c6.403,5,16.712,15.129,30.316,33.881c15.562,21.45,27.678,43.661,29.981,51.946C181.843,161.683,181.368,166.653,174.712,175.416z
		"/>
</g>
</svg>
