<?xml version="1.0" encoding="iso-8859-1"?>
<!-- Generator: Adobe Illustrator 15.0.0, SVG Export Plug-In . SVG Version: 6.00 Build 0)  -->
<!DOCTYPE svg PUBLIC "-//W3C//DTD SVG 1.1//EN" "http://www.w3.org/Graphics/SVG/1.1/DTD/svg11.dtd">
<svg version="1.1" id="_x32__x5F_Salmon_x5F_Product_x5F_Setup_x5F_Advanced"
	 xmlns="http://www.w3.org/2000/svg" xmlns:xlink="http://www.w3.org/1999/xlink" x="0px" y="0px" width="538.583px"
	 height="283.465px" viewBox="0 0 538.583 283.465" style="enable-background:new 0 0 538.583 283.465;" xml:space="preserve">
<g>
	<path style="fill:#FFFFFF;" d="M220.951,53.437c-2.955,0-5.553,1.086-7.68,3.475c-6.209,7.009-7.887,158.94,0,167.858
		c2.481,2.802,6.245,4.057,10.86,4.057c27.989,0,87.155-46.187,79.604-73.324C297.299,132.341,246.141,53.433,220.951,53.437z
		 M280.917,174.892c-6.911,9.097-18.063,18.975-29.828,26.423c-10.633,6.73-19.085,9.88-24.177,10.777
		c-1.304-10.407-2.669-33.99-2.472-71.841c0.162-31.104,1.289-54.106,2.427-66.69c6.356,4.795,16.873,14.917,30.911,34.23
		c15.622,21.493,27.788,43.786,30.104,52.12C288.19,161.015,287.57,166.137,280.917,174.892z"/>
	<path style="fill:#FFFFFF;" d="M110.755,53.437c-2.955,0-5.553,1.086-7.68,3.475c-6.209,7.009-7.887,158.94,0,167.858
		c2.481,2.802,6.245,4.057,10.86,4.057c27.989,0,87.155-46.187,79.604-73.324C187.103,132.341,135.945,53.433,110.755,53.437z
		 M170.721,174.892c-6.911,9.097-18.063,18.975-29.828,26.423c-10.633,6.73-19.085,9.88-24.177,10.777
		c-1.304-10.407-2.669-33.99-2.472-71.841c0.162-31.104,1.289-54.106,2.427-66.69c6.356,4.795,16.873,14.917,30.911,34.23
		c15.622,21.493,27.788,43.786,30.104,52.12C177.995,161.015,177.374,166.137,170.721,174.892z"/>
	<path style="fill:#FFFFFF;" d="M435.042,119.609c8.276-1.444,17.374-3.034,18.903-3.316c-0.425-2.477-2.675-15.194-3.106-17.668
		c-1.518,0.284-10.624,1.877-18.908,3.322c-2.159-5.58-5.381-10.661-9.53-14.989c4.822-6.876,10.127-14.442,11.015-15.726
		c-2.05-1.429-12.624-8.837-14.684-10.294c-0.896,1.279-6.202,8.851-11.024,15.723c-5.479-2.425-11.348-3.715-17.331-3.852
		c-1.445-8.268-3.064-17.382-3.32-18.913c-2.481,0.452-15.19,2.677-17.681,3.124c0.275,1.526,1.875,10.609,3.337,18.882
		c-5.604,2.171-10.675,5.406-14.992,9.541c-6.872-4.832-14.442-10.106-15.719-11.011c-1.438,2.063-8.851,12.62-10.294,14.697
		c1.277,0.879,8.832,6.195,15.712,11.012c-2.414,5.457-3.726,11.339-3.858,17.326c-8.278,1.478-17.382,3.077-18.893,3.321
		c0.431,2.508,2.673,15.206,3.097,17.68c1.534-0.285,10.624-1.858,18.898-3.319c2.167,5.577,5.396,10.659,9.546,14.983
		c-4.831,6.898-10.144,14.455-11.021,15.713c2.059,1.449,12.632,8.849,14.698,10.31c0.89-1.276,6.178-8.832,11.007-15.738
		c5.472,2.441,11.35,3.74,17.343,3.869c1.461,8.285,3.054,17.382,3.326,18.91c2.466-0.45,15.191-2.673,17.672-3.106
		c-0.264-1.543-1.875-10.624-3.334-18.888c5.595-2.179,10.674-5.395,14.991-9.555c6.888,4.818,14.442,10.131,15.721,11.012
		c1.444-2.059,8.849-12.634,10.284-14.678c-1.254-0.896-8.831-6.204-15.697-11.018C433.607,131.46,434.902,125.623,435.042,119.609z
		 M389.313,133.132c-8.051,0-14.608-6.532-14.608-14.58c0-8.055,6.558-14.576,14.608-14.576c8.035,0,14.578,6.521,14.578,14.576
		C403.891,126.6,397.348,133.132,389.313,133.132z"/>
</g>
</svg>
