<?xml version="1.0" encoding="iso-8859-1"?>
<!-- Generator: Adobe Illustrator 15.0.0, SVG Export Plug-In . SVG Version: 6.00 Build 0)  -->
<!DOCTYPE svg PUBLIC "-//W3C//DTD SVG 1.1//EN" "http://www.w3.org/Graphics/SVG/1.1/DTD/svg11.dtd">
<svg version="1.1" id="_x32__x5F_Salmon_x5F_Cut_x5F_Head_x5F_Tail"
	 xmlns="http://www.w3.org/2000/svg" xmlns:xlink="http://www.w3.org/1999/xlink" x="0px" y="0px" width="538.583px"
	 height="283.465px" viewBox="0 0 538.583 283.465" style="enable-background:new 0 0 538.583 283.465;" xml:space="preserve">
<g>
	<g>
		<path style="fill-rule:evenodd;clip-rule:evenodd;fill:#FFFFFF;" d="M387.063,62.866c-8.133,0-16.141,0.145-23.595,0.408
			c-57.036,1.81-169.028,10.992-242.299,32.742l-5.417,1.612l-0.037,80.39l5.141,1.76c66.804,22.979,173.635,40.774,248.522,40.821
			c23.063,0,43.089-1.64,58.433-5.643l5.694-1.497V64.677l-7.021-0.532C414.278,63.229,400.502,62.866,387.063,62.866z
			 M418.308,201.542c-12.765,2.606-29.652,3.857-48.93,3.835c-70.642,0.073-173.588-16.791-238.45-38.251l0.011-58.108
			c70.713-19.941,178.437-28.855,232.986-30.555c7.335-0.23,15.199-0.374,23.138-0.374c10.591,0,21.376,0.218,31.245,0.771V201.542z
			 M43.362,132.553c-1.592,13.38,22.232,27.444,58.724,40.037l0.023-69.264C75.329,111.287,54.086,120.961,43.362,132.553z
			 M491.625,72.479c-6.103-3.027-18.721-4.957-43.547-6.092v142.996c30.374-5.464,40.555-15.128,33.896-30.037
			c-12.616-28.95-26.73-63.958,8.904-87.913C494.593,88.439,497.56,76.472,491.625,72.479z"/>
	</g>
</g>
</svg>
