<?xml version="1.0" encoding="iso-8859-1"?>
<!-- Generator: Adobe Illustrator 15.0.0, SVG Export Plug-In . SVG Version: 6.00 Build 0)  -->
<!DOCTYPE svg PUBLIC "-//W3C//DTD SVG 1.1//EN" "http://www.w3.org/Graphics/SVG/1.1/DTD/svg11.dtd">
<svg version="1.1" id="_x32__x5F_Salmon_x5F_Plate_x5F_Position_x5F_Slices"
	 xmlns="http://www.w3.org/2000/svg" xmlns:xlink="http://www.w3.org/1999/xlink" x="0px" y="0px" width="538.583px"
	 height="283.465px" viewBox="0 0 538.583 283.465" style="enable-background:new 0 0 538.583 283.465;" xml:space="preserve">
<g>
	<path style="fill:#FFFFFF;" d="M249.705,91.922c-1.677,0-3.153,0.617-4.359,1.974c-3.528,3.985-4.483,90.27,0,95.337
		c1.408,1.591,3.545,2.303,6.165,2.303c15.892,0,49.498-26.218,45.203-41.639C293.054,136.734,264.004,91.919,249.705,91.922z
		 M278.771,163.662c-7.885,8.253-17.975,14.063-23.947,15.909c-0.643-6.616-1.244-19.304-1.144-38.376
		c0.078-14.79,0.544-26.374,1.069-33.87c3.531,3.227,8.502,8.646,14.757,17.34c9.253,12.861,15.111,24.286,16.245,28.137
		C285.73,153.821,284.455,157.712,278.771,163.662z"/>
	<path style="fill:#FFFFFF;" d="M317.807,91.922c-1.678,0-3.153,0.617-4.359,1.974c-3.529,3.985-4.484,90.27,0,95.337
		c1.408,1.591,3.545,2.303,6.165,2.303c15.892,0,49.498-26.218,45.202-41.639C361.156,136.734,332.105,91.919,317.807,91.922z
		 M346.873,163.662c-7.885,8.253-17.975,14.064-23.947,15.909c-0.643-6.616-1.245-19.304-1.145-38.376
		c0.079-14.789,0.545-26.374,1.07-33.869c3.53,3.226,8.501,8.645,14.757,17.339c9.253,12.862,15.11,24.286,16.245,28.137
		C353.832,153.822,352.556,157.713,346.873,163.662z"/>
	<path style="fill:#FFFFFF;" d="M385.909,91.922c-1.678,0-3.152,0.617-4.359,1.974c-3.528,3.985-4.483,90.27,0,95.337
		c1.408,1.591,3.545,2.303,6.166,2.303c15.892,0,49.498-26.218,45.202-41.639C429.258,136.734,400.208,91.919,385.909,91.922z
		 M414.975,163.662c-7.885,8.253-17.976,14.064-23.948,15.909c-0.643-6.616-1.244-19.304-1.144-38.376
		c0.078-14.79,0.544-26.375,1.069-33.87c3.531,3.227,8.502,8.646,14.757,17.34c9.254,12.861,15.111,24.286,16.246,28.137
		C421.934,153.822,420.659,157.713,414.975,163.662z"/>
	<polygon style="fill:#FFFFFF;" points="166.557,120.241 183.965,137.64 120.454,137.64 137.862,120.241 118.276,120.241 
		95.209,143.309 118.276,166.376 137.862,166.376 120.454,148.978 183.965,148.978 166.557,166.376 186.143,166.376 
		209.209,143.309 186.143,120.241 	"/>
	<path style="fill:#FFFFFF;" d="M453.115,53.859H85.468c-15.591,0-28.347,12.756-28.347,28.347v119.055
		c0,15.591,12.756,28.347,28.347,28.347h367.646c15.591,0,28.347-12.756,28.347-28.347V82.206
		C481.461,66.615,468.706,53.859,453.115,53.859z M470.123,201.261c0,9.378-7.63,17.008-17.008,17.008H85.468
		c-9.378,0-17.008-7.63-17.008-17.008V82.206c0-9.378,7.63-17.008,17.008-17.008h367.646c9.378,0,17.008,7.63,17.008,17.008V201.261
		z"/>
</g>
</svg>
