<?xml version="1.0" encoding="iso-8859-1"?>
<!-- Generator: Adobe Illustrator 15.0.0, SVG Export Plug-In . SVG Version: 6.00 Build 0)  -->
<!DOCTYPE svg PUBLIC "-//W3C//DTD SVG 1.1//EN" "http://www.w3.org/Graphics/SVG/1.1/DTD/svg11.dtd">
<svg version="1.1" id="_x32__x5F_Salmon_x5F_Tail" xmlns="http://www.w3.org/2000/svg" xmlns:xlink="http://www.w3.org/1999/xlink"
	 x="0px" y="0px" width="538.583px" height="283.465px" viewBox="0 0 538.583 283.465"
	 style="enable-background:new 0 0 538.583 283.465;" xml:space="preserve">
<g>
	<path style="fill:#FFFFFF;" d="M337.02,182.725c-14.403-16.232-4.564-40.33-0.727-48.116c35.388-5.433,71.579-12.317,96.001-17.214
		c1.237-0.246,2.375-0.86,3.267-1.752l16.603-16.589l4.886,4.897l9.059-9.036l-9.416-9.438c-1.192-1.195-2.833-1.875-4.528-1.875
		l0,0c-1.696,0-3.325,0.669-4.507,1.875l-19.771,19.758c-25.012,4.986-61.471,11.903-96.746,17.215
		c-10.665,1.75-53.316-32.622-86.595-65.299c-2.242-2.199-5.757-2.442-8.278-0.58c-2.532,1.862-3.335,5.288-1.896,8.088
		c14.458,28.013,37.039,77.022,36.013,89.249c-0.714,8.536-9.862,20.65-18.698,32.365c-8.523,11.256-17.314,22.915-20.784,33.959
		c-0.77,2.443-0.012,5.1,1.93,6.773c1.183,1.003,2.678,1.538,4.173,1.538c0.959,0,1.918-0.223,2.811-0.657
		c18.509-9.07,70.596-32.611,89.138-32.611c22.023,0,50.94,5.958,84.432,12.865c17.247,3.559,35.108,7.24,54.542,10.676
		l2.243-12.583c-19.277-3.427-37.039-7.085-54.221-10.622C385.593,189.341,358.941,183.874,337.02,182.725z M261.882,193.982
		c10.408-13.769,20.236-26.775,21.264-39.014c1.004-12.083-11.112-41.312-22.022-64.784c19.679,17.516,44.669,37.608,61.536,43.408
		c-4.684,11.102-10.675,31.661-0.992,49.544c-19.377,3.069-50.593,16.224-70.206,25.126
		C254.642,203.576,258.29,198.734,261.882,193.982z"/>
	<polygon style="fill:#FFFFFF;" points="95.771,99.09 69.924,145.142 95.771,191.187 113.696,191.187 87.85,145.142 113.696,99.09 	
		"/>
	<polygon style="fill:#FFFFFF;" points="139.542,99.09 113.696,145.142 139.542,191.187 157.467,191.187 131.621,145.142 
		157.467,99.09 	"/>
</g>
</svg>
