<?xml version="1.0" encoding="iso-8859-1"?>
<!-- Generator: Adobe Illustrator 15.0.0, SVG Export Plug-In . SVG Version: 6.00 Build 0)  -->
<!DOCTYPE svg PUBLIC "-//W3C//DTD SVG 1.1//EN" "http://www.w3.org/Graphics/SVG/1.1/DTD/svg11.dtd">
<svg version="1.1" id="_x32__x5F_Salmon_x5F_Slice_x5F_Width_x5F_Max"
	 xmlns="http://www.w3.org/2000/svg" xmlns:xlink="http://www.w3.org/1999/xlink" x="0px" y="0px" width="538.583px"
	 height="283.465px" viewBox="0 0 538.583 283.465" style="enable-background:new 0 0 538.583 283.465;" xml:space="preserve">
<g>
	<path style="fill:#FFFFFF;" d="M350.653,123.076l-4.043,12.745c-1.312,4.259-2.623,9.336-3.642,13.765h-0.231
		c-0.849-4.489-1.991-9.273-3.241-13.711l-3.765-12.799h-11.542l-2.455,38.346h8.025l0.74-14.566
		c0.23-4.776,0.464-10.695,0.633-15.871h0.108c0.972,5.007,2.222,10.47,3.472,15.021l4.105,14.799h6.758l4.676-14.968
		c1.482-4.499,3.071-9.962,4.321-14.853h0.108c0,5.577,0.169,11.149,0.354,15.763l0.617,14.675h8.426l-2.053-38.346H350.653z"/>
	<path style="fill:#FFFFFF;" d="M379.479,123.076l-11.667,38.346h8.936l2.731-9.844h10.987l2.962,9.844h9.383l-11.944-38.346
		H379.479z M380.729,145.097l2.283-8.134c0.618-2.222,1.188-5.123,1.759-7.406h0.108c0.57,2.283,1.266,5.122,1.944,7.406
		l2.393,8.134H380.729z"/>
	<path style="fill:#FFFFFF;" d="M425.341,141.794l10.802-18.718h-9.892l-3.241,6.997c-0.972,2.215-1.712,3.927-2.624,6.382h-0.106
		c-0.911-2.176-1.776-4.043-2.917-6.382l-3.349-6.997h-9.953l10.693,18.948l-11.095,19.397h9.891l3.134-6.937
		c1.249-2.677,2.223-4.668,3.023-6.891h0.108c1.081,2.223,1.992,4.214,3.411,6.891l3.472,6.937h10.015L425.341,141.794z"/>
	<polygon style="fill:#FFFFFF;" points="243.099,107.63 260.497,90.223 260.497,190.073 243.099,172.666 243.099,192.252 
		266.167,215.318 289.234,192.252 289.234,172.666 271.836,190.073 271.836,90.223 289.234,107.63 289.234,88.046 266.167,64.978 
		243.099,88.046 	"/>
	<path style="fill:#FFFFFF;" d="M114.955,53.859c-0.001,0,0,0-0.002,0c-2.963,0-5.568,1.09-7.7,3.486
		c-6.233,7.04-7.921,159.455,0,168.407c2.487,2.811,6.262,4.068,10.89,4.068c28.071,0,87.435-46.313,79.846-73.554
		C191.526,133.019,140.214,53.859,114.955,53.859z M174.712,175.416c-6.896,9.079-18.032,18.942-29.791,26.385
		c-10.269,6.499-18.47,9.646-23.556,10.646c-1.285-10.651-2.608-34.152-2.412-71.499c0.16-30.444,1.242-53.158,2.355-65.942
		c6.403,5,16.712,15.129,30.316,33.881c15.562,21.45,27.678,43.661,29.981,51.946C181.843,161.683,181.368,166.653,174.712,175.416z
		"/>
	<polygon style="fill:#FFFFFF;" points="214.5,64.978 266.167,64.978 317.833,64.978 317.833,53.64 214.5,53.64 	"/>
	<rect x="214.439" y="218.27" style="fill:#FFFFFF;" width="103.333" height="11.338"/>
</g>
</svg>
