<?xml version="1.0" encoding="iso-8859-1"?>
<!-- Generator: Adobe Illustrator 15.0.0, SVG Export Plug-In . SVG Version: 6.00 Build 0)  -->
<!DOCTYPE svg PUBLIC "-//W3C//DTD SVG 1.1//EN" "http://www.w3.org/Graphics/SVG/1.1/DTD/svg11.dtd">
<svg version="1.1" id="_x32__x5F_Salmon_x5F_Pattern_x5F_Trim"
	 xmlns="http://www.w3.org/2000/svg" xmlns:xlink="http://www.w3.org/1999/xlink" x="0px" y="0px" width="538.583px"
	 height="283.465px" viewBox="0 0 538.583 283.465" style="enable-background:new 0 0 538.583 283.465;" xml:space="preserve">
<g>
	<g>
		<path style="fill-rule:evenodd;clip-rule:evenodd;fill:#FFFFFF;" d="M158.821,195.334c118.16,34.954,326.024,53.67,302.097,0
			H158.821z M458.671,175.777c-7.471-16.773-15.782-31.485-15.652-45.468c0.046-8.377,2.53-16.982,10.613-27.319l8.615-10.919
			l-318.347,0.752l-0.829,0.22c-33.733,8.833-61.196,19.401-75.799,34.823l-1.461,1.646l-0.262,2.148
			c-0.064,0.492-0.13,1.189-0.13,2.04c0.632,12.76,11.178,20.743,25.378,28.869c14.56,7.995,34.432,15.477,57.672,22.358
			l0.961,0.295h313.34L458.671,175.777z M151.383,171.764c-22.271-6.629-41.161-13.85-54.074-21.007
			c-11.408-5.996-17.167-12.345-18.269-15.604c11.31-10.743,36.046-21.007,66.616-28.836l290.209-0.688
			c-4.45,8.432-6.349,16.753-6.325,24.682c0.108,15.356,6.456,28.597,12.475,41.399L151.383,171.764z M469.992,61.207
			c-13.24-6.577-59.299-7.668-93.5-6.577c-52.231,1.658-152.385,9.771-223.299,28.084l312.021-0.71
			c1.265-0.991,2.619-2.017,4.08-2.943C472.783,76.202,475.576,64.968,469.992,61.207z"/>
	</g>
</g>
</svg>
