<?xml version="1.0" encoding="iso-8859-1"?>
<!-- Generator: Adobe Illustrator 15.0.0, SVG Export Plug-In . SVG Version: 6.00 Build 0)  -->
<!DOCTYPE svg PUBLIC "-//W3C//DTD SVG 1.1//EN" "http://www.w3.org/Graphics/SVG/1.1/DTD/svg11.dtd">
<svg version="1.1" id="_x32__x5F_Salmon_x5F_Head" xmlns="http://www.w3.org/2000/svg" xmlns:xlink="http://www.w3.org/1999/xlink"
	 x="0px" y="0px" width="538.583px" height="283.465px" viewBox="0 0 538.583 283.465"
	 style="enable-background:new 0 0 538.583 283.465;" xml:space="preserve">
<g>
	<path style="fill:#FFFFFF;" d="M412.072,199.296l-3.36,0.45l-8.703,20.912c-12.351-5.069-36.5-18.392-45.982-23.819l-1.476-0.84
		l-1.679,0.062c-67.507,2.642-119.142-28.306-133.827-38.239l4.465-7.394l-6.8-7.927c60.688-56.265,164.571-56.037,221.897-50.743
		l3.586,0.337l1.925-3.062c0,0,5.675-9.063,12.475-19.447c7.617,11.398,23.101,31.112,40.942,34.246l2.027-11.573
		c-15.996-2.806-32.606-27.24-37.666-36.417l-4.669-8.479l-5.368,8.051c-6.349,9.524-12.678,19.468-15.771,24.33
		c-73.672-6.368-172.312-1.063-231.606,58.22l-3.851,3.841l8.438,9.822l-5.591,9.268l4.116,3.195
		c2.438,1.913,60.482,46.513,144.049,43.769c8.11,4.589,40.594,22.818,52.145,25.859l4.958,1.3l10.199-24.497
		c10.302-1.34,43.053-5.549,80.31-10.118l-1.435-11.663C450.619,194.277,412.072,199.296,412.072,199.296z"/>
	<path style="fill:#FFFFFF;" d="M268.372,133.426c0,6.125,4.957,11.092,11.06,11.092c6.124,0,11.061-4.967,11.061-11.092
		c0-6.102-4.937-11.038-11.061-11.038C273.329,122.388,268.372,127.324,268.372,133.426z"/>
	<path style="fill:#FFFFFF;" d="M320.785,183.484c0.923,0.533,1.945,0.799,2.949,0.799c2.027,0,3.994-1.055,5.079-2.929
		c21.486-36.908,8.378-76.091,7.806-77.748c-1.067-3.053-4.405-4.69-7.477-3.627c-3.054,1.045-4.691,4.394-3.626,7.456
		c0.123,0.348,11.94,35.71-6.862,68.02C317.037,178.251,317.979,181.846,320.785,183.484z"/>
	<polygon style="fill:#FFFFFF;" points="113.696,99.09 95.771,99.09 69.924,145.142 95.771,191.187 113.696,191.187 87.85,145.142 	
		"/>
	<polygon style="fill:#FFFFFF;" points="139.542,99.09 113.696,145.142 139.542,191.187 157.467,191.187 131.621,145.142 
		157.467,99.09 	"/>
</g>
</svg>
