<?xml version="1.0" encoding="iso-8859-1"?>
<!-- Generator: Adobe Illustrator 15.0.0, SVG Export Plug-In . SVG Version: 6.00 Build 0)  -->
<!DOCTYPE svg PUBLIC "-//W3C//DTD SVG 1.1//EN" "http://www.w3.org/Graphics/SVG/1.1/DTD/svg11.dtd">
<svg version="1.1" id="_x32__x5F_Salmon_x5F_Slice_x5F_Width_x5F_Min"
	 xmlns="http://www.w3.org/2000/svg" xmlns:xlink="http://www.w3.org/1999/xlink" x="0px" y="0px" width="538.583px"
	 height="283.465px" viewBox="0 0 538.583 283.465" style="enable-background:new 0 0 538.583 283.465;" xml:space="preserve">
<g>
	<polygon style="fill:#FFFFFF;" points="243.099,107.63 260.497,90.223 260.497,190.073 243.099,172.666 243.099,192.252 
		266.167,215.318 289.234,192.252 289.234,172.666 271.836,190.073 271.836,90.223 289.234,107.63 289.234,88.046 266.167,64.978 
		243.099,88.046 	"/>
	<path style="fill:#FFFFFF;" d="M114.955,53.859c-0.001,0,0,0-0.002,0c-2.963,0-5.568,1.09-7.7,3.486
		c-6.233,7.04-7.921,159.455,0,168.407c2.487,2.811,6.262,4.068,10.89,4.068c28.071,0,87.435-46.313,79.846-73.554
		C191.526,133.019,140.214,53.859,114.955,53.859z M174.712,175.416c-6.896,9.079-18.032,18.942-29.791,26.385
		c-10.269,6.499-18.47,9.646-23.556,10.646c-1.285-10.651-2.608-34.152-2.412-71.499c0.16-30.444,1.242-53.158,2.355-65.942
		c6.403,5,16.712,15.129,30.316,33.881c15.562,21.45,27.678,43.661,29.981,51.946C181.843,161.683,181.368,166.653,174.712,175.416z
		"/>
	<polygon style="fill:#FFFFFF;" points="214.5,64.978 266.167,64.978 317.833,64.978 317.833,53.64 214.5,53.64 	"/>
	<rect x="214.439" y="218.27" style="fill:#FFFFFF;" width="103.333" height="11.338"/>
	<path style="fill:#FFFFFF;" d="M347.926,123.076l-4.043,12.742c-1.311,4.268-2.615,9.342-3.64,13.771h-0.23
		c-0.851-4.497-1.992-9.271-3.242-13.707l-3.756-12.806h-11.548l-2.445,38.346h8.022l0.74-14.563
		c0.225-4.783,0.454-10.692,0.625-15.876h0.116c0.964,5.006,2.214,10.468,3.471,15.02l4.098,14.804h6.764l4.667-14.974
		c1.48-4.489,3.07-9.95,4.32-14.85h0.115c0,5.585,0.171,11.155,0.348,15.76l0.625,14.68h8.416l-2.044-38.346H347.926z"/>
	<rect x="368.043" y="123.076" style="fill:#FFFFFF;" width="8.649" height="38.346"/>
	<path style="fill:#FFFFFF;" d="M407.972,123.076v11.153c0,5.802,0.178,10.979,0.688,16.039h-0.117
		c-1.759-4.321-3.98-9.103-6.255-13.138l-7.97-14.055h-10.121v38.346h7.961v-11.548c0-6.255-0.109-11.663-0.394-16.784h0.225
		c1.82,4.496,4.382,9.448,6.658,13.537l8.191,14.795h9.103v-38.346H407.972z"/>
</g>
</svg>
