<?xml version="1.0" encoding="iso-8859-1"?>
<!-- Generator: Adobe Illustrator 15.0.0, SVG Export Plug-In . SVG Version: 6.00 Build 0)  -->
<!DOCTYPE svg PUBLIC "-//W3C//DTD SVG 1.1//EN" "http://www.w3.org/Graphics/SVG/1.1/DTD/svg11.dtd">
<svg version="1.1" id="_x32__x5F_Salmon_x5F_Product"
	 xmlns="http://www.w3.org/2000/svg" xmlns:xlink="http://www.w3.org/1999/xlink" x="0px" y="0px" width="538.583px"
	 height="283.465px" viewBox="0 0 538.583 283.465" style="enable-background:new 0 0 538.583 283.465;" xml:space="preserve">
<g>
	<path style="fill:#FFFFFF;" d="M144.612,107.326c3.531,3.227,8.501,8.645,14.756,17.339c9.253,12.862,15.111,24.286,16.246,28.137
		c-0.021,1.02-1.295,4.91-6.979,10.858c-7.885,8.254-17.976,14.065-23.949,15.911c-0.643-6.616-1.245-19.304-1.144-38.376
		C143.621,126.406,144.087,114.821,144.612,107.326 M139.568,91.922c-1.678,0-3.152,0.616-4.359,1.974
		c-3.529,3.985-4.484,90.27,0,95.337c1.407,1.59,3.547,2.303,6.166,2.303c15.89,0,49.498-26.217,45.202-41.639
		C182.917,136.735,153.868,91.922,139.568,91.922L139.568,91.922z"/>
	<path style="fill:#FFFFFF;" d="M219.757,107.326c3.531,3.227,8.501,8.645,14.757,17.339c9.253,12.862,15.111,24.286,16.245,28.137
		c-0.021,1.02-1.295,4.91-6.979,10.858c-7.885,8.254-17.976,14.065-23.949,15.911c-0.643-6.616-1.244-19.304-1.144-38.376
		C218.766,126.405,219.232,114.821,219.757,107.326 M214.713,91.922c-1.679,0-3.152,0.616-4.359,1.974
		c-3.528,3.985-4.483,90.27,0,95.337c1.407,1.59,3.547,2.303,6.165,2.303c15.89,0,49.498-26.217,45.202-41.639
		C258.063,136.735,229.014,91.922,214.713,91.922L214.713,91.922z"/>
	<path style="fill:#FFFFFF;" d="M294.903,107.326c3.53,3.227,8.501,8.645,14.756,17.339c9.254,12.862,15.111,24.287,16.246,28.137
		c-0.021,1.02-1.296,4.91-6.979,10.858c-7.885,8.254-17.977,14.065-23.949,15.911c-0.643-6.616-1.245-19.304-1.144-38.376
		C293.912,126.406,294.377,114.821,294.903,107.326 M289.858,91.922c-1.678,0-3.152,0.616-4.359,1.974
		c-3.529,3.985-4.484,90.27,0,95.337c1.407,1.59,3.547,2.303,6.165,2.303c15.891,0,49.498-26.217,45.202-41.639
		C333.208,136.735,304.159,91.922,289.858,91.922L289.858,91.922z"/>
	<path style="fill:#FFFFFF;" d="M370.047,107.326c3.531,3.227,8.501,8.645,14.757,17.339c9.254,12.861,15.111,24.287,16.246,28.137
		c-0.021,1.02-1.296,4.909-6.979,10.858c-7.885,8.254-17.977,14.065-23.95,15.911c-0.643-6.616-1.244-19.304-1.144-38.376
		C369.056,126.405,369.522,114.821,370.047,107.326 M365.003,91.922c-1.679,0-3.152,0.616-4.359,1.974
		c-3.528,3.985-4.483,90.27,0,95.337c1.407,1.59,3.547,2.303,6.166,2.303c15.891,0,49.498-26.217,45.202-41.639
		C408.353,136.735,379.303,91.922,365.003,91.922L365.003,91.922z"/>
	<g>
		<path style="fill:#FFFFFF;" d="M453.115,65.198c9.378,0,17.008,7.63,17.008,17.008v119.055c0,9.378-7.63,17.008-17.008,17.008
			H85.468c-9.378,0-17.008-7.63-17.008-17.008V82.206c0-9.378,7.63-17.008,17.008-17.008H453.115 M453.115,53.859H85.468
			c-15.591,0-28.347,12.756-28.347,28.347v119.055c0,15.591,12.756,28.347,28.347,28.347h367.646
			c15.591,0,28.347-12.756,28.347-28.347V82.206C481.461,66.615,468.706,53.859,453.115,53.859L453.115,53.859z"/>
	</g>
</g>
</svg>
